<?xml version="1.0" encoding="UTF-8" standalone="no"?><svg xmlns="http://www.w3.org/2000/svg" xmlns:xlink="http://www.w3.org/1999/xlink" contentScriptType="application/ecmascript" contentStyleType="text/css" height="938px" preserveAspectRatio="none" style="width:1599px;height:938px;" version="1.1" viewBox="0 0 1599 938" width="1599px" zoomAndPan="magnify"><defs><filter height="300%" id="f1u25kg17l9ey4" width="300%" x="-1" y="-1"><feGaussianBlur result="blurOut" stdDeviation="2.0"/><feColorMatrix in="blurOut" result="blurOut2" type="matrix" values="0 0 0 0 0 0 0 0 0 0 0 0 0 0 0 0 0 0 .4 0"/><feOffset dx="4.0" dy="4.0" in="blurOut2" result="blurOut3"/><feBlend in="SourceGraphic" in2="blurOut3" mode="normal"/></filter></defs><g><!--MD5=[e3d158ccbe291f3bf2130bb0560e8ce5]
class Xsoftware--><rect codeLine="22" fill="#FEFECE" filter="url(#f1u25kg17l9ey4)" height="124.8281" id="Xsoftware" style="stroke: #A80036; stroke-width: 1.5;" width="307" x="19.6991" y="113.5"/><ellipse cx="138.4491" cy="129.5" fill="#ADD1B2" rx="11" ry="11" style="stroke: #A80036; stroke-width: 1.0;"/><path d="M141.4179,135.1406 Q140.8397,135.4375 140.1991,135.5781 Q139.5585,135.7344 138.8554,135.7344 Q136.3554,135.7344 135.0272,134.0938 Q133.7147,132.4375 133.7147,129.3125 Q133.7147,126.1875 135.0272,124.5313 Q136.3554,122.875 138.8554,122.875 Q139.5585,122.875 140.1991,123.0313 Q140.8554,123.1875 141.4179,123.4844 L141.4179,126.2031 Q140.7929,125.625 140.1991,125.3594 Q139.6054,125.0781 138.9804,125.0781 Q137.6366,125.0781 136.9491,126.1563 Q136.2616,127.2188 136.2616,129.3125 Q136.2616,131.4063 136.9491,132.4844 Q137.6366,133.5469 138.9804,133.5469 Q139.6054,133.5469 140.1991,133.2813 Q140.7929,133 141.4179,132.4219 L141.4179,135.1406 Z "/><text fill="#000000" font-family="sans-serif" font-size="12" lengthAdjust="spacingAndGlyphs" textLength="61" x="158.9491" y="133.6543">Xsoftware</text><line style="stroke: #A80036; stroke-width: 1.5;" x1="20.6991" x2="325.6991" y1="145.5" y2="145.5"/><ellipse cx="30.6991" cy="156.5" fill="none" rx="3" ry="3" style="stroke: #038048; stroke-width: 1.0;"/><text fill="#000000" font-family="sans-serif" font-size="11" lengthAdjust="spacingAndGlyphs" textLength="42" x="39.6991" y="159.7104">f: Open</text><line style="stroke: #A80036; stroke-width: 1.5;" x1="20.6991" x2="325.6991" y1="166.3047" y2="166.3047"/><rect fill="#F24D5C" height="6" style="stroke: #C82930; stroke-width: 1.0;" width="6" x="27.6991" y="174.3047"/><text fill="#000000" font-family="sans-serif" font-size="11" lengthAdjust="spacingAndGlyphs" textLength="70" x="39.6991" y="180.5151">__init__(self)</text><rect fill="#F24D5C" height="6" style="stroke: #C82930; stroke-width: 1.0;" width="6" x="27.6991" y="187.1094"/><text fill="#000000" font-family="sans-serif" font-size="11" lengthAdjust="spacingAndGlyphs" textLength="83" x="39.6991" y="193.3198">__enter__(self)</text><rect fill="#F24D5C" height="6" style="stroke: #C82930; stroke-width: 1.0;" width="6" x="27.6991" y="199.9141"/><text fill="#000000" font-family="sans-serif" font-size="11" lengthAdjust="spacingAndGlyphs" textLength="281" x="39.6991" y="206.1245">__exit__(self, exc_type, exc_value, exc_traceback)</text><ellipse cx="30.6991" cy="215.7188" fill="#84BE84" rx="3" ry="3" style="stroke: #038048; stroke-width: 1.0;"/><text fill="#000000" font-family="sans-serif" font-size="11" lengthAdjust="spacingAndGlyphs" textLength="111" x="39.6991" y="218.9292">run(self, argument)</text><ellipse cx="30.6991" cy="228.5234" fill="#84BE84" rx="3" ry="3" style="stroke: #038048; stroke-width: 1.0;"/><text fill="#000000" font-family="sans-serif" font-size="11" lengthAdjust="spacingAndGlyphs" textLength="122" x="39.6991" y="231.7339">run_array(self, array)</text><!--MD5=[de9f1b0669f1b04c62e8b4e897d712da]
class Xfoil--><rect codeLine="31" fill="#FEFECE" filter="url(#f1u25kg17l9ey4)" height="137.6328" id="Xfoil" style="stroke: #A80036; stroke-width: 1.5;" width="307" x="91.6991" y="787"/><ellipse cx="228.4491" cy="803" fill="#ADD1B2" rx="11" ry="11" style="stroke: #A80036; stroke-width: 1.0;"/><path d="M231.4179,808.6406 Q230.8397,808.9375 230.1991,809.0781 Q229.5585,809.2344 228.8554,809.2344 Q226.3554,809.2344 225.0272,807.5938 Q223.7147,805.9375 223.7147,802.8125 Q223.7147,799.6875 225.0272,798.0313 Q226.3554,796.375 228.8554,796.375 Q229.5585,796.375 230.1991,796.5313 Q230.8554,796.6875 231.4179,796.9844 L231.4179,799.7031 Q230.7929,799.125 230.1991,798.8594 Q229.6054,798.5781 228.9804,798.5781 Q227.6366,798.5781 226.9491,799.6563 Q226.2616,800.7188 226.2616,802.8125 Q226.2616,804.9063 226.9491,805.9844 Q227.6366,807.0469 228.9804,807.0469 Q229.6054,807.0469 230.1991,806.7813 Q230.7929,806.5 231.4179,805.9219 L231.4179,808.6406 Z "/><text fill="#000000" font-family="sans-serif" font-size="12" lengthAdjust="spacingAndGlyphs" textLength="25" x="248.9491" y="807.1543">Xfoil</text><line style="stroke: #A80036; stroke-width: 1.5;" x1="92.6991" x2="397.6991" y1="819" y2="819"/><ellipse cx="102.6991" cy="830" fill="none" rx="3" ry="3" style="stroke: #038048; stroke-width: 1.0;"/><text fill="#000000" font-family="sans-serif" font-size="11" lengthAdjust="spacingAndGlyphs" textLength="76" x="111.6991" y="833.2104">input_file: Str</text><rect fill="none" height="6" style="stroke: #C82930; stroke-width: 1.0;" width="6" x="99.6991" y="839.8047"/><text fill="#000000" font-family="sans-serif" font-size="11" lengthAdjust="spacingAndGlyphs" textLength="69" x="111.6991" y="846.0151">__mode: Str</text><line style="stroke: #A80036; stroke-width: 1.5;" x1="92.6991" x2="397.6991" y1="852.6094" y2="852.6094"/><rect fill="#F24D5C" height="6" style="stroke: #C82930; stroke-width: 1.0;" width="6" x="99.6991" y="860.6094"/><text fill="#000000" font-family="sans-serif" font-size="11" lengthAdjust="spacingAndGlyphs" textLength="174" x="111.6991" y="866.8198">__init__(self, mode='hide': Str)</text><rect fill="#F24D5C" height="6" style="stroke: #C82930; stroke-width: 1.0;" width="6" x="99.6991" y="873.4141"/><text fill="#000000" font-family="sans-serif" font-size="11" lengthAdjust="spacingAndGlyphs" textLength="281" x="111.6991" y="879.6245">__exit__(self, exc_type, exc_value, exc_traceback)</text><ellipse cx="102.6991" cy="889.2188" fill="#84BE84" rx="3" ry="3" style="stroke: #038048; stroke-width: 1.0;"/><text fill="#000000" font-family="sans-serif" font-size="11" lengthAdjust="spacingAndGlyphs" text-decoration="underline" textLength="251" x="111.6991" y="892.4292">read_coordinates(filename: Str): DataFrame</text><ellipse cx="102.6991" cy="902.0234" fill="#84BE84" rx="3" ry="3" style="stroke: #038048; stroke-width: 1.0;"/><text fill="#000000" font-family="sans-serif" font-size="11" lengthAdjust="spacingAndGlyphs" text-decoration="underline" textLength="228" x="111.6991" y="905.2339">read_cp_vs_x(filename: Str): DataFrame</text><ellipse cx="102.6991" cy="914.8281" fill="#84BE84" rx="3" ry="3" style="stroke: #038048; stroke-width: 1.0;"/><text fill="#000000" font-family="sans-serif" font-size="11" lengthAdjust="spacingAndGlyphs" text-decoration="underline" textLength="213" x="111.6991" y="918.0386">read_polar(filename: Str): DataFrame</text><!--MD5=[b98970b5d7fbe7870a87f8ac0faf8db4]
class Xrotor--><rect codeLine="41" fill="#FEFECE" filter="url(#f1u25kg17l9ey4)" height="176.0469" id="Xrotor" style="stroke: #A80036; stroke-width: 1.5;" width="427" x="92.6991" y="478"/><ellipse cx="282.9491" cy="494" fill="#ADD1B2" rx="11" ry="11" style="stroke: #A80036; stroke-width: 1.0;"/><path d="M285.9179,499.6406 Q285.3397,499.9375 284.6991,500.0781 Q284.0585,500.2344 283.3554,500.2344 Q280.8554,500.2344 279.5272,498.5938 Q278.2147,496.9375 278.2147,493.8125 Q278.2147,490.6875 279.5272,489.0313 Q280.8554,487.375 283.3554,487.375 Q284.0585,487.375 284.6991,487.5313 Q285.3554,487.6875 285.9179,487.9844 L285.9179,490.7031 Q285.2929,490.125 284.6991,489.8594 Q284.1054,489.5781 283.4804,489.5781 Q282.1366,489.5781 281.4491,490.6563 Q280.7616,491.7188 280.7616,493.8125 Q280.7616,495.9063 281.4491,496.9844 Q282.1366,498.0469 283.4804,498.0469 Q284.1054,498.0469 284.6991,497.7813 Q285.2929,497.5 285.9179,496.9219 L285.9179,499.6406 Z "/><text fill="#000000" font-family="sans-serif" font-size="12" lengthAdjust="spacingAndGlyphs" textLength="38" x="303.4491" y="498.1543">Xrotor</text><line style="stroke: #A80036; stroke-width: 1.5;" x1="93.6991" x2="518.6991" y1="510" y2="510"/><ellipse cx="103.6991" cy="521" fill="none" rx="3" ry="3" style="stroke: #038048; stroke-width: 1.0;"/><text fill="#000000" font-family="sans-serif" font-size="11" lengthAdjust="spacingAndGlyphs" textLength="76" x="112.6991" y="524.2104">input_file: Str</text><rect fill="none" height="6" style="stroke: #C82930; stroke-width: 1.0;" width="6" x="100.6991" y="530.8047"/><text fill="#000000" font-family="sans-serif" font-size="11" lengthAdjust="spacingAndGlyphs" textLength="125" x="112.6991" y="537.0151">__loadcase: Loadcase</text><rect fill="none" height="6" style="stroke: #C82930; stroke-width: 1.0;" width="6" x="100.6991" y="543.6094"/><text fill="#000000" font-family="sans-serif" font-size="11" lengthAdjust="spacingAndGlyphs" textLength="69" x="112.6991" y="549.8198">__mode: Str</text><rect fill="none" height="6" style="stroke: #C82930; stroke-width: 1.0;" width="6" x="100.6991" y="556.4141"/><text fill="#000000" font-family="sans-serif" font-size="11" lengthAdjust="spacingAndGlyphs" textLength="122" x="112.6991" y="562.6245">__propeller: Propeller</text><line style="stroke: #A80036; stroke-width: 1.5;" x1="93.6991" x2="518.6991" y1="569.2188" y2="569.2188"/><rect fill="#F24D5C" height="6" style="stroke: #C82930; stroke-width: 1.0;" width="6" x="100.6991" y="577.2188"/><text fill="#000000" font-family="sans-serif" font-size="11" lengthAdjust="spacingAndGlyphs" textLength="401" x="112.6991" y="583.4292">__init(self, propeller: Propeller, loadcase: Loadcase, mode='hide': Str)</text><rect fill="#F24D5C" height="6" style="stroke: #C82930; stroke-width: 1.0;" width="6" x="100.6991" y="590.0234"/><text fill="#000000" font-family="sans-serif" font-size="11" lengthAdjust="spacingAndGlyphs" textLength="281" x="112.6991" y="596.2339">__exit__(self, exc_type, exc_value, exc_traceback)</text><ellipse cx="103.6991" cy="605.8281" fill="#84BE84" rx="3" ry="3" style="stroke: #038048; stroke-width: 1.0;"/><text fill="#000000" font-family="sans-serif" font-size="11" lengthAdjust="spacingAndGlyphs" textLength="51" x="112.6991" y="609.0386">arbi(self)</text><ellipse cx="103.6991" cy="618.6328" fill="#84BE84" rx="3" ry="3" style="stroke: #038048; stroke-width: 1.0;"/><text fill="#000000" font-family="sans-serif" font-size="11" lengthAdjust="spacingAndGlyphs" textLength="107" x="112.6991" y="621.8433">parse_airfoils(self)</text><ellipse cx="103.6991" cy="631.4375" fill="#84BE84" rx="3" ry="3" style="stroke: #038048; stroke-width: 1.0;"/><text fill="#000000" font-family="sans-serif" font-size="11" lengthAdjust="spacingAndGlyphs" text-decoration="underline" textLength="254" x="112.6991" y="634.6479">read_bend_output(filename: Str): DataFrame</text><ellipse cx="103.6991" cy="644.2422" fill="#84BE84" rx="3" ry="3" style="stroke: #038048; stroke-width: 1.0;"/><text fill="#000000" font-family="sans-serif" font-size="11" lengthAdjust="spacingAndGlyphs" text-decoration="underline" textLength="252" x="112.6991" y="647.4526">read_oper_output(filename: Str): DataFrame</text><!--MD5=[432a26014d6806de21f9dcededb4ca89]
class Airfoil--><rect codeLine="54" fill="#FEFECE" filter="url(#f1u25kg17l9ey4)" height="286.4844" id="Airfoil" style="stroke: #A80036; stroke-width: 1.5;" width="500" x="554.9491" y="423"/><ellipse cx="783.6991" cy="439" fill="#ADD1B2" rx="11" ry="11" style="stroke: #A80036; stroke-width: 1.0;"/><path d="M786.6679,444.6406 Q786.0897,444.9375 785.4491,445.0781 Q784.8085,445.2344 784.1054,445.2344 Q781.6054,445.2344 780.2772,443.5938 Q778.9647,441.9375 778.9647,438.8125 Q778.9647,435.6875 780.2772,434.0313 Q781.6054,432.375 784.1054,432.375 Q784.8085,432.375 785.4491,432.5313 Q786.1054,432.6875 786.6679,432.9844 L786.6679,435.7031 Q786.0429,435.125 785.4491,434.8594 Q784.8554,434.5781 784.2304,434.5781 Q782.8866,434.5781 782.1991,435.6563 Q781.5116,436.7188 781.5116,438.8125 Q781.5116,440.9063 782.1991,441.9844 Q782.8866,443.0469 784.2304,443.0469 Q784.8554,443.0469 785.4491,442.7813 Q786.0429,442.5 786.6679,441.9219 L786.6679,444.6406 Z "/><text fill="#000000" font-family="sans-serif" font-size="12" lengthAdjust="spacingAndGlyphs" textLength="34" x="804.1991" y="443.1543">Airfoil</text><line style="stroke: #A80036; stroke-width: 1.5;" x1="555.9491" x2="1053.9491" y1="455" y2="455"/><rect fill="none" height="6" style="stroke: #C82930; stroke-width: 1.0;" width="6" x="562.9491" y="463"/><text fill="#000000" font-family="sans-serif" font-size="11" lengthAdjust="spacingAndGlyphs" textLength="149" x="574.9491" y="469.2104">__coordinates: DataFrame</text><rect fill="none" height="6" style="stroke: #C82930; stroke-width: 1.0;" width="6" x="562.9491" y="475.8047"/><text fill="#000000" font-family="sans-serif" font-size="11" lengthAdjust="spacingAndGlyphs" textLength="108" x="574.9491" y="482.0151">__parameters: Dict</text><rect fill="none" height="6" style="stroke: #C82930; stroke-width: 1.0;" width="6" x="562.9491" y="488.6094"/><text fill="#000000" font-family="sans-serif" font-size="11" lengthAdjust="spacingAndGlyphs" textLength="111" x="574.9491" y="494.8198">__polar: DataFrame</text><rect fill="none" height="6" style="stroke: #C82930; stroke-width: 1.0;" width="6" x="562.9491" y="501.4141"/><text fill="#000000" font-family="sans-serif" font-size="11" lengthAdjust="spacingAndGlyphs" textLength="165" x="574.9491" y="507.6245">__xrotor_characteristics: Dict</text><line style="stroke: #A80036; stroke-width: 1.0;" x1="555.9491" x2="1053.9491" y1="514.2188" y2="514.2188"/><rect fill="#F24D5C" height="6" style="stroke: #C82930; stroke-width: 1.0;" width="6" x="562.9491" y="522.2188"/><text fill="#000000" font-family="sans-serif" font-size="11" lengthAdjust="spacingAndGlyphs" textLength="398" x="574.9491" y="528.4292">__init__(self, airfoil_filename: Str, Re: Float, Ncrit=9: Int, Iter=200: Int)</text><rect fill="#F24D5C" height="6" style="stroke: #C82930; stroke-width: 1.0;" width="6" x="562.9491" y="535.0234"/><text fill="#000000" font-family="sans-serif" font-size="11" lengthAdjust="spacingAndGlyphs" text-decoration="underline" textLength="259" x="574.9491" y="541.2339">__fit_cl_alpha__(self, x, x0, x1, a3, b1, b3, c2)</text><rect fill="#F24D5C" height="6" style="stroke: #C82930; stroke-width: 1.0;" width="6" x="562.9491" y="547.8281"/><text fill="#000000" font-family="sans-serif" font-size="11" lengthAdjust="spacingAndGlyphs" textLength="102" x="574.9491" y="554.0386">__repr__(self): Str</text><ellipse cx="565.9491" cy="563.6328" fill="#84BE84" rx="3" ry="3" style="stroke: #038048; stroke-width: 1.0;"/><text fill="#000000" font-family="sans-serif" font-size="11" lengthAdjust="spacingAndGlyphs" textLength="281" x="574.9491" y="566.8433">cp_vs_x(self, mode: Str, value: Float): DataFrame</text><ellipse cx="565.9491" cy="576.4375" fill="#84BE84" rx="3" ry="3" style="stroke: #038048; stroke-width: 1.0;"/><text fill="#000000" font-family="sans-serif" font-size="11" lengthAdjust="spacingAndGlyphs" text-decoration="underline" textLength="473" x="574.9491" y="579.6479">interpolate(airfoil1: Airfoil, airfoil2: Airfoil, fraction_of_2nd_airfoil: Float): DataFrame</text><ellipse cx="565.9491" cy="606.0469" fill="#84BE84" rx="3" ry="3" style="stroke: #038048; stroke-width: 1.0;"/><text fill="#000000" font-family="sans-serif" font-size="11" lengthAdjust="spacingAndGlyphs" textLength="166" x="574.9491" y="609.2573">coordinates(self): DataFrame</text><ellipse cx="565.9491" cy="618.8516" fill="#84BE84" rx="3" ry="3" style="stroke: #038048; stroke-width: 1.0;"/><text fill="#000000" font-family="sans-serif" font-size="11" lengthAdjust="spacingAndGlyphs" textLength="125" x="574.9491" y="622.062">parameters(self): Dict</text><ellipse cx="565.9491" cy="631.6563" fill="#84BE84" rx="3" ry="3" style="stroke: #038048; stroke-width: 1.0;"/><text fill="#000000" font-family="sans-serif" font-size="11" lengthAdjust="spacingAndGlyphs" textLength="128" x="574.9491" y="634.8667">polar(self): DataFrame</text><ellipse cx="565.9491" cy="644.4609" fill="#84BE84" rx="3" ry="3" style="stroke: #038048; stroke-width: 1.0;"/><text fill="#000000" font-family="sans-serif" font-size="11" lengthAdjust="spacingAndGlyphs" textLength="182" x="574.9491" y="647.6714">xrotor_characteristics(self): Dict</text><line style="stroke: #A80036; stroke-width: 1.0; stroke-dasharray: 1.0,2.0;" x1="555.9491" x2="786.9491" y1="592.6445" y2="592.6445"/><text fill="#000000" font-family="sans-serif" font-size="11" lengthAdjust="spacingAndGlyphs" textLength="36" x="786.9491" y="595.9526">Getter</text><line style="stroke: #A80036; stroke-width: 1.0; stroke-dasharray: 1.0,2.0;" x1="822.9491" x2="1053.9491" y1="592.6445" y2="592.6445"/><ellipse cx="565.9491" cy="674.0703" fill="#84BE84" rx="3" ry="3" style="stroke: #038048; stroke-width: 1.0;"/><text fill="#000000" font-family="sans-serif" font-size="11" lengthAdjust="spacingAndGlyphs" textLength="278" x="574.9491" y="677.2808">coordinates(self, coordinates: Str or DataFrame)</text><ellipse cx="565.9491" cy="686.875" fill="#84BE84" rx="3" ry="3" style="stroke: #038048; stroke-width: 1.0;"/><text fill="#000000" font-family="sans-serif" font-size="11" lengthAdjust="spacingAndGlyphs" textLength="474" x="574.9491" y="690.0854">set_polar(self, alpha_start=-20: Float, alpha_stop=20: Float, alpha_inc=0.25: Float)</text><ellipse cx="565.9491" cy="699.6797" fill="#84BE84" rx="3" ry="3" style="stroke: #038048; stroke-width: 1.0;"/><text fill="#000000" font-family="sans-serif" font-size="11" lengthAdjust="spacingAndGlyphs" textLength="274" x="574.9491" y="702.8901">xrotor_characteristics(self, characteristics: Dict)</text><line style="stroke: #A80036; stroke-width: 1.0; stroke-dasharray: 1.0,2.0;" x1="555.9491" x2="787.4491" y1="660.668" y2="660.668"/><text fill="#000000" font-family="sans-serif" font-size="11" lengthAdjust="spacingAndGlyphs" textLength="35" x="787.4491" y="663.9761">Setter</text><line style="stroke: #A80036; stroke-width: 1.0; stroke-dasharray: 1.0,2.0;" x1="822.4491" x2="1053.9491" y1="660.668" y2="660.668"/><!--MD5=[b0a93aebd65bb3468015f36161c68501]
class Propeller--><rect codeLine="76" fill="#FEFECE" filter="url(#f1u25kg17l9ey4)" height="337.7031" id="Propeller" style="stroke: #A80036; stroke-width: 1.5;" width="436" x="586.9491" y="7"/><ellipse cx="772.6991" cy="23" fill="#ADD1B2" rx="11" ry="11" style="stroke: #A80036; stroke-width: 1.0;"/><path d="M775.6679,28.6406 Q775.0897,28.9375 774.4491,29.0781 Q773.8085,29.2344 773.1054,29.2344 Q770.6054,29.2344 769.2772,27.5938 Q767.9647,25.9375 767.9647,22.8125 Q767.9647,19.6875 769.2772,18.0313 Q770.6054,16.375 773.1054,16.375 Q773.8085,16.375 774.4491,16.5313 Q775.1054,16.6875 775.6679,16.9844 L775.6679,19.7031 Q775.0429,19.125 774.4491,18.8594 Q773.8554,18.5781 773.2304,18.5781 Q771.8866,18.5781 771.1991,19.6563 Q770.5116,20.7188 770.5116,22.8125 Q770.5116,24.9063 771.1991,25.9844 Q771.8866,27.0469 773.2304,27.0469 Q773.8554,27.0469 774.4491,26.7813 Q775.0429,26.5 775.6679,25.9219 L775.6679,28.6406 Z "/><text fill="#000000" font-family="sans-serif" font-size="12" lengthAdjust="spacingAndGlyphs" textLength="56" x="793.1991" y="27.1543">Propeller</text><line style="stroke: #A80036; stroke-width: 1.5;" x1="587.9491" x2="1021.9491" y1="39" y2="39"/><rect fill="none" height="6" style="stroke: #C82930; stroke-width: 1.0;" width="6" x="594.9491" y="47"/><text fill="#000000" font-family="sans-serif" font-size="11" lengthAdjust="spacingAndGlyphs" textLength="108" x="606.9491" y="53.2104">__parameters: Dict</text><rect fill="none" height="6" style="stroke: #C82930; stroke-width: 1.0;" width="6" x="594.9491" y="59.8047"/><text fill="#000000" font-family="sans-serif" font-size="11" lengthAdjust="spacingAndGlyphs" textLength="99" x="606.9491" y="66.0151">__loadcases: Dict</text><rect fill="none" height="6" style="stroke: #C82930; stroke-width: 1.0;" width="6" x="594.9491" y="72.6094"/><text fill="#000000" font-family="sans-serif" font-size="11" lengthAdjust="spacingAndGlyphs" textLength="122" x="606.9491" y="78.8198">__load_envelope: Dict</text><rect fill="none" height="6" style="stroke: #C82930; stroke-width: 1.0;" width="6" x="594.9491" y="85.4141"/><text fill="#000000" font-family="sans-serif" font-size="11" lengthAdjust="spacingAndGlyphs" textLength="94" x="606.9491" y="91.6245">__geometry: List</text><rect fill="none" height="6" style="stroke: #C82930; stroke-width: 1.0;" width="6" x="594.9491" y="98.2188"/><text fill="#000000" font-family="sans-serif" font-size="11" lengthAdjust="spacingAndGlyphs" textLength="88" x="606.9491" y="104.4292">__sections: List</text><line style="stroke: #A80036; stroke-width: 1.0;" x1="587.9491" x2="1021.9491" y1="111.0234" y2="111.0234"/><rect fill="#F24D5C" height="6" style="stroke: #C82930; stroke-width: 1.0;" width="6" x="594.9491" y="119.0234"/><text fill="#000000" font-family="sans-serif" font-size="11" lengthAdjust="spacingAndGlyphs" textLength="410" x="606.9491" y="125.2339">__init__(self, number_of_blades: Int, tip_radius: Float, hub_radius: Float)</text><rect fill="#F24D5C" height="6" style="stroke: #C82930; stroke-width: 1.0;" width="6" x="594.9491" y="131.8281"/><text fill="#000000" font-family="sans-serif" font-size="11" lengthAdjust="spacingAndGlyphs" textLength="102" x="606.9491" y="138.0386">__repr__(self): Str</text><ellipse cx="597.9491" cy="147.6328" fill="#84BE84" rx="3" ry="3" style="stroke: #038048; stroke-width: 1.0;"/><text fill="#000000" font-family="sans-serif" font-size="11" lengthAdjust="spacingAndGlyphs" textLength="88" x="606.9491" y="150.8433">calc_loads(self)</text><ellipse cx="597.9491" cy="160.4375" fill="#84BE84" rx="3" ry="3" style="stroke: #038048; stroke-width: 1.0;"/><text fill="#000000" font-family="sans-serif" font-size="11" lengthAdjust="spacingAndGlyphs" textLength="328" x="606.9491" y="163.6479">pressure_distribution(self, loadcase: Loadcase): np.array</text><ellipse cx="597.9491" cy="190.0469" fill="#84BE84" rx="3" ry="3" style="stroke: #038048; stroke-width: 1.0;"/><text fill="#000000" font-family="sans-serif" font-size="11" lengthAdjust="spacingAndGlyphs" textLength="111" x="606.9491" y="193.2573">geometry(self): List</text><ellipse cx="597.9491" cy="202.8516" fill="#84BE84" rx="3" ry="3" style="stroke: #038048; stroke-width: 1.0;"/><text fill="#000000" font-family="sans-serif" font-size="11" lengthAdjust="spacingAndGlyphs" textLength="116" x="606.9491" y="206.062">loadcases(self): Dict</text><ellipse cx="597.9491" cy="215.6563" fill="#84BE84" rx="3" ry="3" style="stroke: #038048; stroke-width: 1.0;"/><text fill="#000000" font-family="sans-serif" font-size="11" lengthAdjust="spacingAndGlyphs" textLength="139" x="606.9491" y="218.8667">load_envelope(self): Dict</text><ellipse cx="597.9491" cy="228.4609" fill="#84BE84" rx="3" ry="3" style="stroke: #038048; stroke-width: 1.0;"/><text fill="#000000" font-family="sans-serif" font-size="11" lengthAdjust="spacingAndGlyphs" textLength="125" x="606.9491" y="231.6714">parameters(self): Dict</text><ellipse cx="597.9491" cy="241.2656" fill="#84BE84" rx="3" ry="3" style="stroke: #038048; stroke-width: 1.0;"/><text fill="#000000" font-family="sans-serif" font-size="11" lengthAdjust="spacingAndGlyphs" textLength="105" x="606.9491" y="244.4761">sections(self): List</text><line style="stroke: #A80036; stroke-width: 1.0; stroke-dasharray: 1.0,2.0;" x1="587.9491" x2="786.9491" y1="176.6445" y2="176.6445"/><text fill="#000000" font-family="sans-serif" font-size="11" lengthAdjust="spacingAndGlyphs" textLength="36" x="786.9491" y="179.9526">Getter</text><line style="stroke: #A80036; stroke-width: 1.0; stroke-dasharray: 1.0,2.0;" x1="822.9491" x2="1021.9491" y1="176.6445" y2="176.6445"/><ellipse cx="597.9491" cy="270.875" fill="#84BE84" rx="3" ry="3" style="stroke: #038048; stroke-width: 1.0;"/><text fill="#000000" font-family="sans-serif" font-size="11" lengthAdjust="spacingAndGlyphs" textLength="293" x="606.9491" y="274.0854">add_loadcase(self, name: Str, loadcase: Loadcase)</text><ellipse cx="597.9491" cy="283.6797" fill="#84BE84" rx="3" ry="3" style="stroke: #038048; stroke-width: 1.0;"/><text fill="#000000" font-family="sans-serif" font-size="11" lengthAdjust="spacingAndGlyphs" textLength="232" x="606.9491" y="286.8901">add_section(self, rR: Float, airfoil: Airfoil)</text><ellipse cx="597.9491" cy="296.4844" fill="#84BE84" rx="3" ry="3" style="stroke: #038048; stroke-width: 1.0;"/><text fill="#000000" font-family="sans-serif" font-size="11" lengthAdjust="spacingAndGlyphs" textLength="217" x="606.9491" y="299.6948">geometry(self, array: List or np.array)</text><ellipse cx="597.9491" cy="309.2891" fill="#84BE84" rx="3" ry="3" style="stroke: #038048; stroke-width: 1.0;"/><text fill="#000000" font-family="sans-serif" font-size="11" lengthAdjust="spacingAndGlyphs" textLength="200" x="606.9491" y="312.4995">parameters(self, parameters: Dict)</text><ellipse cx="597.9491" cy="322.0938" fill="#84BE84" rx="3" ry="3" style="stroke: #038048; stroke-width: 1.0;"/><text fill="#000000" font-family="sans-serif" font-size="11" lengthAdjust="spacingAndGlyphs" textLength="134" x="606.9491" y="325.3042">set_load_envelope(self)</text><text fill="#000000" font-family="sans-serif" font-size="11" lengthAdjust="spacingAndGlyphs" textLength="0" x="610.9491" y="338.1089"/><line style="stroke: #A80036; stroke-width: 1.0; stroke-dasharray: 1.0,2.0;" x1="587.9491" x2="787.4491" y1="257.4727" y2="257.4727"/><text fill="#000000" font-family="sans-serif" font-size="11" lengthAdjust="spacingAndGlyphs" textLength="35" x="787.4491" y="260.7808">Setter</text><line style="stroke: #A80036; stroke-width: 1.0; stroke-dasharray: 1.0,2.0;" x1="822.4491" x2="1021.9491" y1="257.4727" y2="257.4727"/><!--MD5=[b6942295d4995444148e641b385ccc5b]
class Loadcase--><rect codeLine="101" fill="#FEFECE" filter="url(#f1u25kg17l9ey4)" height="235.2656" id="Loadcase" style="stroke: #A80036; stroke-width: 1.5;" width="496" x="1089.9491" y="448.5"/><ellipse cx="1303.6991" cy="464.5" fill="#ADD1B2" rx="11" ry="11" style="stroke: #A80036; stroke-width: 1.0;"/><path d="M1306.6679,470.1406 Q1306.0897,470.4375 1305.4491,470.5781 Q1304.8085,470.7344 1304.1054,470.7344 Q1301.6054,470.7344 1300.2772,469.0938 Q1298.9647,467.4375 1298.9647,464.3125 Q1298.9647,461.1875 1300.2772,459.5313 Q1301.6054,457.875 1304.1054,457.875 Q1304.8085,457.875 1305.4491,458.0313 Q1306.1054,458.1875 1306.6679,458.4844 L1306.6679,461.2031 Q1306.0429,460.625 1305.4491,460.3594 Q1304.8554,460.0781 1304.2304,460.0781 Q1302.8866,460.0781 1302.1991,461.1563 Q1301.5116,462.2188 1301.5116,464.3125 Q1301.5116,466.4063 1302.1991,467.4844 Q1302.8866,468.5469 1304.2304,468.5469 Q1304.8554,468.5469 1305.4491,468.2813 Q1306.0429,468 1306.6679,467.4219 L1306.6679,470.1406 Z "/><text fill="#000000" font-family="sans-serif" font-size="12" lengthAdjust="spacingAndGlyphs" textLength="60" x="1324.1991" y="468.6543">Loadcase</text><line style="stroke: #A80036; stroke-width: 1.5;" x1="1090.9491" x2="1584.9491" y1="480.5" y2="480.5"/><rect fill="none" height="6" style="stroke: #C82930; stroke-width: 1.0;" width="6" x="1097.9491" y="488.5"/><text fill="#000000" font-family="sans-serif" font-size="11" lengthAdjust="spacingAndGlyphs" textLength="74" x="1109.9491" y="494.7104">__data = List</text><rect fill="none" height="6" style="stroke: #C82930; stroke-width: 1.0;" width="6" x="1097.9491" y="501.3047"/><text fill="#000000" font-family="sans-serif" font-size="11" lengthAdjust="spacingAndGlyphs" textLength="116" x="1109.9491" y="507.5151">__flight_speed: Float</text><rect fill="none" height="6" style="stroke: #C82930; stroke-width: 1.0;" width="6" x="1097.9491" y="514.1094"/><text fill="#000000" font-family="sans-serif" font-size="11" lengthAdjust="spacingAndGlyphs" textLength="69" x="1109.9491" y="520.3198">__name: Str</text><line style="stroke: #A80036; stroke-width: 1.0;" x1="1090.9491" x2="1584.9491" y1="526.9141" y2="526.9141"/><rect fill="#F24D5C" height="6" style="stroke: #C82930; stroke-width: 1.0;" width="6" x="1097.9491" y="534.9141"/><text fill="#000000" font-family="sans-serif" font-size="11" lengthAdjust="spacingAndGlyphs" textLength="247" x="1109.9491" y="541.1245">__init__(self, name: Str, flight_speed: Float)</text><rect fill="#F24D5C" height="6" style="stroke: #C82930; stroke-width: 1.0;" width="6" x="1097.9491" y="547.7188"/><text fill="#000000" font-family="sans-serif" font-size="11" lengthAdjust="spacingAndGlyphs" textLength="102" x="1109.9491" y="553.9292">__repr__(self): Str</text><ellipse cx="1100.9491" cy="580.3281" fill="#84BE84" rx="3" ry="3" style="stroke: #038048; stroke-width: 1.0;"/><text fill="#000000" font-family="sans-serif" font-size="11" lengthAdjust="spacingAndGlyphs" textLength="82" x="1109.9491" y="583.5386">data(self): List</text><ellipse cx="1100.9491" cy="593.1328" fill="#84BE84" rx="3" ry="3" style="stroke: #038048; stroke-width: 1.0;"/><text fill="#000000" font-family="sans-serif" font-size="11" lengthAdjust="spacingAndGlyphs" textLength="133" x="1109.9491" y="596.3433">flight_speed(self): Float</text><ellipse cx="1100.9491" cy="605.9375" fill="#84BE84" rx="3" ry="3" style="stroke: #038048; stroke-width: 1.0;"/><text fill="#000000" font-family="sans-serif" font-size="11" lengthAdjust="spacingAndGlyphs" textLength="86" x="1109.9491" y="609.1479">name(self): Str</text><ellipse cx="1100.9491" cy="618.7422" fill="#84BE84" rx="3" ry="3" style="stroke: #038048; stroke-width: 1.0;"/><text fill="#000000" font-family="sans-serif" font-size="11" lengthAdjust="spacingAndGlyphs" textLength="209" x="1109.9491" y="621.9526">results(self): DataFrame, DataFrame</text><line style="stroke: #A80036; stroke-width: 1.0; stroke-dasharray: 1.0,2.0;" x1="1090.9491" x2="1319.9491" y1="566.9258" y2="566.9258"/><text fill="#000000" font-family="sans-serif" font-size="11" lengthAdjust="spacingAndGlyphs" textLength="36" x="1319.9491" y="570.2339">Getter</text><line style="stroke: #A80036; stroke-width: 1.0; stroke-dasharray: 1.0,2.0;" x1="1355.9491" x2="1584.9491" y1="566.9258" y2="566.9258"/><ellipse cx="1100.9491" cy="648.3516" fill="#84BE84" rx="3" ry="3" style="stroke: #038048; stroke-width: 1.0;"/><text fill="#000000" font-family="sans-serif" font-size="11" lengthAdjust="spacingAndGlyphs" textLength="210" x="1109.9491" y="651.562">flight_speed(self, flight_speed: Float)</text><ellipse cx="1100.9491" cy="661.1563" fill="#84BE84" rx="3" ry="3" style="stroke: #038048; stroke-width: 1.0;"/><text fill="#000000" font-family="sans-serif" font-size="11" lengthAdjust="spacingAndGlyphs" textLength="126" x="1109.9491" y="664.3667">name(self, name: Str)</text><ellipse cx="1100.9491" cy="673.9609" fill="#84BE84" rx="3" ry="3" style="stroke: #038048; stroke-width: 1.0;"/><text fill="#000000" font-family="sans-serif" font-size="11" lengthAdjust="spacingAndGlyphs" textLength="470" x="1109.9491" y="677.1714">set_data(self, prescribe_type: Str, value: Float, fix=None: Str, value2=None: Float)</text><line style="stroke: #A80036; stroke-width: 1.0; stroke-dasharray: 1.0,2.0;" x1="1090.9491" x2="1320.4491" y1="634.9492" y2="634.9492"/><text fill="#000000" font-family="sans-serif" font-size="11" lengthAdjust="spacingAndGlyphs" textLength="35" x="1320.4491" y="638.2573">Setter</text><line style="stroke: #A80036; stroke-width: 1.0; stroke-dasharray: 1.0,2.0;" x1="1355.4491" x2="1584.9491" y1="634.9492" y2="634.9492"/><!--MD5=[cb006b10550e40cbe910f03b1c13cc26]
reverse link Xsoftware to Xfoil--><path codeLine="3" d="M129.9021,256.599 C78.0512,363.931 6,558.898 74.9491,709 C88.7526,739.05 112.1313,765.241 137.2051,786.822 " fill="none" id="Xsoftware-backto-Xfoil" style="stroke: #A80036; stroke-width: 1.0;"/><polygon fill="none" points="123.6841,253.381,138.8281,238.56,136.2321,259.59,123.6841,253.381" style="stroke: #A80036; stroke-width: 1.0;"/><!--MD5=[69a732efceb5f56650e76bb8b3b61df4]
reverse link Xsoftware to Xrotor--><path codeLine="4" d="M200.7061,257.975 C222.7261,322.213 253.4481,411.838 276.0161,477.675 " fill="none" id="Xsoftware-backto-Xrotor" style="stroke: #A80036; stroke-width: 1.0;"/><polygon fill="none" points="194.0341,260.098,194.1701,238.909,207.2771,255.558,194.0341,260.098" style="stroke: #A80036; stroke-width: 1.0;"/><!--MD5=[3bfd7886d18eac15392946c0cb26e44f]
link Airfoil to Xfoil--><path codeLine="5" d="M550.3621,701.565 C545.5201,704.068 540.7121,706.548 535.9491,709 C487.5071,733.935 434.2891,760.791 386.7591,784.587 " fill="none" id="Airfoil-Xfoil" style="stroke: #A80036; stroke-width: 1.0; stroke-dasharray: 1.0,3.0;"/><polygon fill="#A80036" points="382.1771,786.88,392.0156,786.4278,386.6481,784.6416,388.4342,779.2742,382.1771,786.88" style="stroke: #A80036; stroke-width: 1.0;"/><polygon fill="#A80036" points="554.8181,699.26,544.9865,699.843,550.3773,701.5576,548.6626,706.9483,554.8181,699.26" style="stroke: #A80036; stroke-width: 1.0;"/><text fill="#000000" font-family="sans-serif" font-size="13" lengthAdjust="spacingAndGlyphs" textLength="30" x="473.9491" y="752.0669">uses</text><!--MD5=[698509272ce6ae0e161c0aeebfeeb3aa]
link Propeller to Xrotor--><path codeLine="6" d="M584.4801,348.427 C528.4971,391.956 470.5391,437.022 422.0841,474.699 " fill="none" id="Propeller-Xrotor" style="stroke: #A80036; stroke-width: 1.0; stroke-dasharray: 1.0,3.0;"/><polygon fill="#A80036" points="418.0201,477.858,427.58,475.4899,421.9669,474.7883,422.6685,469.1751,418.0201,477.858" style="stroke: #A80036; stroke-width: 1.0;"/><polygon fill="#A80036" points="588.6201,345.208,579.0596,347.5739,584.6726,348.2768,583.9697,353.8898,588.6201,345.208" style="stroke: #A80036; stroke-width: 1.0;"/><text fill="#000000" font-family="sans-serif" font-size="13" lengthAdjust="spacingAndGlyphs" textLength="30" x="541.9491" y="388.0669">uses</text><!--MD5=[4bcdfd812b6a22662a0ddb1addf058ba]
reverse link Propeller to Airfoil--><path codeLine="7" d="M804.9491,358.297 C804.9491,379.968 804.9491,401.852 804.9491,422.859 " fill="none" id="Propeller-backto-Airfoil" style="stroke: #A80036; stroke-width: 1.0;"/><polygon fill="#FFFFFF" points="804.9491,345.208,800.9491,351.208,804.9491,357.208,808.9491,351.208,804.9491,345.208" style="stroke: #A80036; stroke-width: 1.0;"/><text fill="#000000" font-family="sans-serif" font-size="13" lengthAdjust="spacingAndGlyphs" textLength="8" x="795.7382" y="364.7388">1</text><text fill="#000000" font-family="sans-serif" font-size="13" lengthAdjust="spacingAndGlyphs" textLength="23" x="780.3827" y="412.0467">1..*</text><!--MD5=[423eff011b7f80488028cccd7ff48d91]
reverse link Propeller to Loadcase--><path codeLine="8" d="M1033.9191,343.683 C1082.4191,378.985 1132.6091,415.518 1177.8891,448.48 " fill="none" id="Propeller-backto-Loadcase" style="stroke: #A80036; stroke-width: 1.0;"/><polygon fill="#FFFFFF" points="1023.2791,335.934,1025.7731,342.7001,1032.978,343.0002,1030.484,336.2341,1023.2791,335.934" style="stroke: #A80036; stroke-width: 1.0;"/><text fill="#000000" font-family="sans-serif" font-size="13" lengthAdjust="spacingAndGlyphs" textLength="8" x="1031.2691" y="337.4508">1</text><text fill="#000000" font-family="sans-serif" font-size="13" lengthAdjust="spacingAndGlyphs" textLength="23" x="1143.913" y="437.2575">1..*</text><!--MD5=[8ea55fae784e6c405854ef4987944740]
@startuml
'skinparam monochrome true

Xsoftware <|- - Xfoil
Xsoftware <|- - Xrotor
Airfoil <-[dotted]-> Xfoil : uses
Propeller <-[dotted]-> Xrotor: uses
Propeller "1" o- - "1..*" Airfoil
Propeller "1" o- - "1..*" Loadcase


'note right of Airfoil::__repr__(self) 
'  Todo: implement
'end note
'note left of Propeller::set_load_envelope(self)
'  Todo: implement
'end note
'note "Todo: auf Benutzung von\nProperties ändern" as NProp

'NProp .. Loadcase
'NProp .. Propeller

class Xsoftware {
  +f: Open
  -__init__(self)
  -__enter__(self)
  -__exit__(self, exc_type, exc_value, exc_traceback)
  +run(self, argument)
  +run_array(self, array)
}

class Xfoil {
  +input_file: Str
  -__mode: Str
  -__init__(self, mode='hide': Str)
  -__exit__(self, exc_type, exc_value, exc_traceback)
  +{static}read_coordinates(filename: Str): DataFrame
  +{static}read_cp_vs_x(filename: Str): DataFrame
  +{static}read_polar(filename: Str): DataFrame
}

class Xrotor {
  +input_file: Str
  -__loadcase: Loadcase
  -__mode: Str
  -__propeller: Propeller
  -__init(self, propeller: Propeller, loadcase: Loadcase, mode='hide': Str)
  -__exit__(self, exc_type, exc_value, exc_traceback)
  +arbi(self)
  +parse_airfoils(self)
  +{static}read_bend_output(filename: Str): DataFrame
  +{static}read_oper_output(filename: Str): DataFrame
}

class Airfoil{
  -__coordinates: DataFrame
  -__parameters: Dict
  -__polar: DataFrame
  -__xrotor_characteristics: Dict
  - -
  -__init__(self, airfoil_filename: Str, Re: Float, Ncrit=9: Int, Iter=200: Int)
  -{static}__fit_cl_alpha__(self, x, x0, x1, a3, b1, b3, c2)
  -__repr__(self): Str
  +cp_vs_x(self, mode: Str, value: Float): DataFrame
  +{static}interpolate(airfoil1: Airfoil, airfoil2: Airfoil, fraction_of_2nd_airfoil: Float): DataFrame
  ..Getter..
  +coordinates(self): DataFrame
  +parameters(self): Dict
  +polar(self): DataFrame
  +xrotor_characteristics(self): Dict
  ..Setter..
  +coordinates(self, coordinates: Str or DataFrame)
  +set_polar(self, alpha_start=-20: Float, alpha_stop=20: Float, alpha_inc=0.25: Float)
  +xrotor_characteristics(self, characteristics: Dict)
}

class Propeller{
  -__parameters: Dict
  -__loadcases: Dict
  -__load_envelope: Dict
  -__geometry: List
  -__sections: List
  - -
  -__init__(self, number_of_blades: Int, tip_radius: Float, hub_radius: Float)
  -__repr__(self): Str
  +calc_loads(self)
  +pressure_distribution(self, loadcase: Loadcase): np.array
  ..Getter..
  +geometry(self): List
  +loadcases(self): Dict
  +load_envelope(self): Dict
  +parameters(self): Dict
  +sections(self): List
  ..Setter..
  +add_loadcase(self, name: Str, loadcase: Loadcase)
  +add_section(self, rR: Float, airfoil: Airfoil)
  +geometry(self, array: List or np.array)
  +parameters(self, parameters: Dict)
  +set_load_envelope(self)
  
}
class Loadcase{
  -__data = List
  -__flight_speed: Float
  -__name: Str
  - -
  -__init__(self, name: Str, flight_speed: Float)
  -__repr__(self): Str
  ..Getter..
  +data(self): List
  +flight_speed(self): Float
  +name(self): Str
  +results(self): DataFrame, DataFrame
  ..Setter..
  +flight_speed(self, flight_speed: Float)
  +name(self, name: Str)
  +set_data(self, prescribe_type: Str, value: Float, fix=None: Str, value2=None: Float)
}

'Xsoftware -[hidden]- Xfoil
'Xfoil -[hidden]> Xrotor
'Xfoil -[hidden]- Propeller
'Xsoftware -[hidden]- Propeller
'Airfoil -[hidden]> Propeller
'Propeller -[hidden]> Loadcase
@enduml

@startuml

Xsoftware <|- - Xfoil
Xsoftware <|- - Xrotor
Airfoil <-[dotted]-> Xfoil : uses
Propeller <-[dotted]-> Xrotor: uses
Propeller "1" o- - "1..*" Airfoil
Propeller "1" o- - "1..*" Loadcase




class Xsoftware {
  +f: Open
  -__init__(self)
  -__enter__(self)
  -__exit__(self, exc_type, exc_value, exc_traceback)
  +run(self, argument)
  +run_array(self, array)
}

class Xfoil {
  +input_file: Str
  -__mode: Str
  -__init__(self, mode='hide': Str)
  -__exit__(self, exc_type, exc_value, exc_traceback)
  +{static}read_coordinates(filename: Str): DataFrame
  +{static}read_cp_vs_x(filename: Str): DataFrame
  +{static}read_polar(filename: Str): DataFrame
}

class Xrotor {
  +input_file: Str
  -__loadcase: Loadcase
  -__mode: Str
  -__propeller: Propeller
  -__init(self, propeller: Propeller, loadcase: Loadcase, mode='hide': Str)
  -__exit__(self, exc_type, exc_value, exc_traceback)
  +arbi(self)
  +parse_airfoils(self)
  +{static}read_bend_output(filename: Str): DataFrame
  +{static}read_oper_output(filename: Str): DataFrame
}

class Airfoil{
  -__coordinates: DataFrame
  -__parameters: Dict
  -__polar: DataFrame
  -__xrotor_characteristics: Dict
  - -
  -__init__(self, airfoil_filename: Str, Re: Float, Ncrit=9: Int, Iter=200: Int)
  -{static}__fit_cl_alpha__(self, x, x0, x1, a3, b1, b3, c2)
  -__repr__(self): Str
  +cp_vs_x(self, mode: Str, value: Float): DataFrame
  +{static}interpolate(airfoil1: Airfoil, airfoil2: Airfoil, fraction_of_2nd_airfoil: Float): DataFrame
  ..Getter..
  +coordinates(self): DataFrame
  +parameters(self): Dict
  +polar(self): DataFrame
  +xrotor_characteristics(self): Dict
  ..Setter..
  +coordinates(self, coordinates: Str or DataFrame)
  +set_polar(self, alpha_start=-20: Float, alpha_stop=20: Float, alpha_inc=0.25: Float)
  +xrotor_characteristics(self, characteristics: Dict)
}

class Propeller{
  -__parameters: Dict
  -__loadcases: Dict
  -__load_envelope: Dict
  -__geometry: List
  -__sections: List
  - -
  -__init__(self, number_of_blades: Int, tip_radius: Float, hub_radius: Float)
  -__repr__(self): Str
  +calc_loads(self)
  +pressure_distribution(self, loadcase: Loadcase): np.array
  ..Getter..
  +geometry(self): List
  +loadcases(self): Dict
  +load_envelope(self): Dict
  +parameters(self): Dict
  +sections(self): List
  ..Setter..
  +add_loadcase(self, name: Str, loadcase: Loadcase)
  +add_section(self, rR: Float, airfoil: Airfoil)
  +geometry(self, array: List or np.array)
  +parameters(self, parameters: Dict)
  +set_load_envelope(self)
  
}
class Loadcase{
  -__data = List
  -__flight_speed: Float
  -__name: Str
  - -
  -__init__(self, name: Str, flight_speed: Float)
  -__repr__(self): Str
  ..Getter..
  +data(self): List
  +flight_speed(self): Float
  +name(self): Str
  +results(self): DataFrame, DataFrame
  ..Setter..
  +flight_speed(self, flight_speed: Float)
  +name(self, name: Str)
  +set_data(self, prescribe_type: Str, value: Float, fix=None: Str, value2=None: Float)
}

@enduml

PlantUML version 1.2020.19(Mon Oct 12 17:10:01 CEST 2020)
(GPL source distribution)
Java Runtime: OpenJDK Runtime Environment
JVM: OpenJDK 64-Bit Server VM
Default Encoding: UTF-8
Language: de
Country: DE
--></g></svg>