<?xml version="1.0" encoding="UTF-8" standalone="no"?><svg xmlns="http://www.w3.org/2000/svg" xmlns:xlink="http://www.w3.org/1999/xlink" contentScriptType="application/ecmascript" contentStyleType="text/css" height="1098px" preserveAspectRatio="none" style="width:1020px;height:1098px;" version="1.1" viewBox="0 0 1020 1098" width="1020px" zoomAndPan="magnify"><defs><filter height="300%" id="f1nc83i99yvgrn" width="300%" x="-1" y="-1"><feGaussianBlur result="blurOut" stdDeviation="2.0"/><feColorMatrix in="blurOut" result="blurOut2" type="matrix" values="0 0 0 0 0 0 0 0 0 0 0 0 0 0 0 0 0 0 .4 0"/><feOffset dx="4.0" dy="4.0" in="blurOut2" result="blurOut3"/><feBlend in="SourceGraphic" in2="blurOut3" mode="normal"/></filter></defs><g><rect fill="#FFFFFF" filter="url(#f1nc83i99yvgrn)" height="524.5234" style="stroke: #000000; stroke-width: 2.0;" width="622.5" x="10" y="105.2969"/><rect fill="#FFFFFF" filter="url(#f1nc83i99yvgrn)" height="353.7266" style="stroke: #000000; stroke-width: 2.0;" width="996.5" x="10" y="643.8203"/><rect fill="#FFFFFF" filter="url(#f1nc83i99yvgrn)" height="132.6641" style="stroke: #000000; stroke-width: 2.0;" width="374" x="622.5" y="828.75"/><line style="stroke: #A80036; stroke-width: 1.0; stroke-dasharray: 5.0,5.0;" x1="39" x2="39" y1="88.2969" y2="1014.5469"/><line style="stroke: #A80036; stroke-width: 1.0; stroke-dasharray: 5.0,5.0;" x1="150.5" x2="150.5" y1="88.2969" y2="1014.5469"/><line style="stroke: #A80036; stroke-width: 1.0; stroke-dasharray: 5.0,5.0;" x1="300.5" x2="300.5" y1="88.2969" y2="1014.5469"/><line style="stroke: #A80036; stroke-width: 1.0; stroke-dasharray: 5.0,5.0;" x1="390" x2="390" y1="88.2969" y2="1014.5469"/><line style="stroke: #A80036; stroke-width: 1.0; stroke-dasharray: 5.0,5.0;" x1="510.5" x2="510.5" y1="88.2969" y2="1014.5469"/><line style="stroke: #A80036; stroke-width: 1.0; stroke-dasharray: 5.0,5.0;" x1="592.5" x2="592.5" y1="88.2969" y2="1014.5469"/><line style="stroke: #A80036; stroke-width: 1.0; stroke-dasharray: 5.0,5.0;" x1="671.5" x2="671.5" y1="88.2969" y2="1014.5469"/><line style="stroke: #A80036; stroke-width: 1.0; stroke-dasharray: 5.0,5.0;" x1="772.5" x2="772.5" y1="88.2969" y2="1014.5469"/><line style="stroke: #A80036; stroke-width: 1.0; stroke-dasharray: 5.0,5.0;" x1="877.5" x2="877.5" y1="88.2969" y2="1014.5469"/><text fill="#000000" font-family="sans-serif" font-size="14" lengthAdjust="spacingAndGlyphs" textLength="33" x="20" y="84.9951">main</text><ellipse cx="39.5" cy="15" fill="#FEFECE" filter="url(#f1nc83i99yvgrn)" rx="8" ry="8" style="stroke: #A80036; stroke-width: 2.0;"/><path d="M39.5,23 L39.5,50 M26.5,31 L52.5,31 M39.5,50 L26.5,65 M39.5,50 L52.5,65 " fill="none" filter="url(#f1nc83i99yvgrn)" style="stroke: #A80036; stroke-width: 2.0;"/><text fill="#000000" font-family="sans-serif" font-size="14" lengthAdjust="spacingAndGlyphs" textLength="33" x="20" y="1026.542">main</text><ellipse cx="39.5" cy="1039.8438" fill="#FEFECE" filter="url(#f1nc83i99yvgrn)" rx="8" ry="8" style="stroke: #A80036; stroke-width: 2.0;"/><path d="M39.5,1047.8438 L39.5,1074.8438 M26.5,1055.8438 L52.5,1055.8438 M39.5,1074.8438 L26.5,1089.8438 M39.5,1074.8438 L52.5,1089.8438 " fill="none" filter="url(#f1nc83i99yvgrn)" style="stroke: #A80036; stroke-width: 2.0;"/><rect fill="#FEFECE" filter="url(#f1nc83i99yvgrn)" height="30.2969" style="stroke: #A80036; stroke-width: 1.5;" width="50" x="123.5" y="53"/><text fill="#000000" font-family="sans-serif" font-size="14" lengthAdjust="spacingAndGlyphs" textLength="36" x="130.5" y="72.9951">Airfoil</text><rect fill="#FEFECE" filter="url(#f1nc83i99yvgrn)" height="30.2969" style="stroke: #A80036; stroke-width: 1.5;" width="50" x="123.5" y="1013.5469"/><text fill="#000000" font-family="sans-serif" font-size="14" lengthAdjust="spacingAndGlyphs" textLength="36" x="130.5" y="1033.542">Airfoil</text><rect fill="#FEFECE" filter="url(#f1nc83i99yvgrn)" height="30.2969" style="stroke: #A80036; stroke-width: 1.5;" width="42" x="277.5" y="53"/><text fill="#000000" font-family="sans-serif" font-size="14" lengthAdjust="spacingAndGlyphs" textLength="28" x="284.5" y="72.9951">Xfoil</text><rect fill="#FEFECE" filter="url(#f1nc83i99yvgrn)" height="30.2969" style="stroke: #A80036; stroke-width: 1.5;" width="42" x="277.5" y="1013.5469"/><text fill="#000000" font-family="sans-serif" font-size="14" lengthAdjust="spacingAndGlyphs" textLength="28" x="284.5" y="1033.542">Xfoil</text><rect fill="#FEFECE" filter="url(#f1nc83i99yvgrn)" height="30.2969" style="stroke: #A80036; stroke-width: 1.5;" width="75" x="351" y="53"/><text fill="#000000" font-family="sans-serif" font-size="14" lengthAdjust="spacingAndGlyphs" textLength="61" x="358" y="72.9951">Propeller</text><rect fill="#FEFECE" filter="url(#f1nc83i99yvgrn)" height="30.2969" style="stroke: #A80036; stroke-width: 1.5;" width="75" x="351" y="1013.5469"/><text fill="#000000" font-family="sans-serif" font-size="14" lengthAdjust="spacingAndGlyphs" textLength="61" x="358" y="1033.542">Propeller</text><rect fill="#FEFECE" filter="url(#f1nc83i99yvgrn)" height="30.2969" style="stroke: #A80036; stroke-width: 1.5;" width="80" x="468.5" y="53"/><text fill="#000000" font-family="sans-serif" font-size="14" lengthAdjust="spacingAndGlyphs" textLength="66" x="475.5" y="72.9951">Loadcase</text><rect fill="#FEFECE" filter="url(#f1nc83i99yvgrn)" height="30.2969" style="stroke: #A80036; stroke-width: 1.5;" width="80" x="468.5" y="1013.5469"/><text fill="#000000" font-family="sans-serif" font-size="14" lengthAdjust="spacingAndGlyphs" textLength="66" x="475.5" y="1033.542">Loadcase</text><rect fill="#FEFECE" filter="url(#f1nc83i99yvgrn)" height="30.2969" style="stroke: #A80036; stroke-width: 1.5;" width="56" x="562.5" y="53"/><text fill="#000000" font-family="sans-serif" font-size="14" lengthAdjust="spacingAndGlyphs" textLength="42" x="569.5" y="72.9951">Xrotor</text><rect fill="#FEFECE" filter="url(#f1nc83i99yvgrn)" height="30.2969" style="stroke: #A80036; stroke-width: 1.5;" width="56" x="562.5" y="1013.5469"/><text fill="#000000" font-family="sans-serif" font-size="14" lengthAdjust="spacingAndGlyphs" textLength="42" x="569.5" y="1033.542">Xrotor</text><rect fill="#FEFECE" filter="url(#f1nc83i99yvgrn)" height="30.2969" style="stroke: #A80036; stroke-width: 1.5;" width="74" x="632.5" y="53"/><text fill="#000000" font-family="sans-serif" font-size="14" lengthAdjust="spacingAndGlyphs" textLength="60" x="639.5" y="72.9951">Femodel</text><rect fill="#FEFECE" filter="url(#f1nc83i99yvgrn)" height="30.2969" style="stroke: #A80036; stroke-width: 1.5;" width="74" x="632.5" y="1013.5469"/><text fill="#000000" font-family="sans-serif" font-size="14" lengthAdjust="spacingAndGlyphs" textLength="60" x="639.5" y="1033.542">Femodel</text><rect fill="#FEFECE" filter="url(#f1nc83i99yvgrn)" height="30.2969" style="stroke: #A80036; stroke-width: 1.5;" width="100" x="720.5" y="53"/><text fill="#000000" font-family="sans-serif" font-size="14" lengthAdjust="spacingAndGlyphs" textLength="86" x="727.5" y="72.9951">Optimization</text><rect fill="#FEFECE" filter="url(#f1nc83i99yvgrn)" height="30.2969" style="stroke: #A80036; stroke-width: 1.5;" width="100" x="720.5" y="1013.5469"/><text fill="#000000" font-family="sans-serif" font-size="14" lengthAdjust="spacingAndGlyphs" textLength="86" x="727.5" y="1033.542">Optimization</text><rect fill="#FEFECE" filter="url(#f1nc83i99yvgrn)" height="30.2969" style="stroke: #A80036; stroke-width: 1.5;" width="80" x="835.5" y="53"/><text fill="#000000" font-family="sans-serif" font-size="14" lengthAdjust="spacingAndGlyphs" textLength="66" x="842.5" y="72.9951">Optimizer</text><rect fill="#FEFECE" filter="url(#f1nc83i99yvgrn)" height="30.2969" style="stroke: #A80036; stroke-width: 1.5;" width="80" x="835.5" y="1013.5469"/><text fill="#000000" font-family="sans-serif" font-size="14" lengthAdjust="spacingAndGlyphs" textLength="66" x="842.5" y="1033.542">Optimizer</text><path d="M10,105.2969 L175,105.2969 L175,112.2969 L165,122.2969 L10,122.2969 L10,105.2969 " fill="#EEEEEE" style="stroke: #000000; stroke-width: 1.0;"/><rect fill="none" height="524.5234" style="stroke: #000000; stroke-width: 2.0;" width="622.5" x="10" y="105.2969"/><text fill="#000000" font-family="sans-serif" font-size="13" font-weight="bold" lengthAdjust="spacingAndGlyphs" textLength="120" x="25" y="118.3638">Load calculation</text><polygon fill="#A80036" points="138.5,139.5625,148.5,143.5625,138.5,147.5625,142.5,143.5625" style="stroke: #A80036; stroke-width: 1.0;"/><line style="stroke: #A80036; stroke-width: 1.0;" x1="39.5" x2="144.5" y1="143.5625" y2="143.5625"/><text fill="#000000" font-family="sans-serif" font-size="13" lengthAdjust="spacingAndGlyphs" textLength="87" x="46.5" y="138.4966">Define Airfoils</text><polygon fill="#A80036" points="288.5,168.6953,298.5,172.6953,288.5,176.6953,292.5,172.6953" style="stroke: #A80036; stroke-width: 1.0;"/><line style="stroke: #A80036; stroke-width: 1.0;" x1="150.5" x2="294.5" y1="172.6953" y2="172.6953"/><text fill="#000000" font-family="sans-serif" font-size="13" lengthAdjust="spacingAndGlyphs" textLength="117" x="157.5" y="167.6294">Re, Ncrit, Iter, AoA</text><polygon fill="#A80036" points="161.5,197.8281,151.5,201.8281,161.5,205.8281,157.5,201.8281" style="stroke: #A80036; stroke-width: 1.0;"/><line style="stroke: #A80036; stroke-width: 1.0;" x1="155.5" x2="299.5" y1="201.8281" y2="201.8281"/><text fill="#000000" font-family="sans-serif" font-size="13" lengthAdjust="spacingAndGlyphs" textLength="32" x="167.5" y="196.7622">Polar</text><line style="stroke: #A80036; stroke-width: 1.0;" x1="150.5" x2="192.5" y1="230.9609" y2="230.9609"/><line style="stroke: #A80036; stroke-width: 1.0;" x1="192.5" x2="192.5" y1="230.9609" y2="243.9609"/><line style="stroke: #A80036; stroke-width: 1.0;" x1="151.5" x2="192.5" y1="243.9609" y2="243.9609"/><polygon fill="#A80036" points="161.5,239.9609,151.5,243.9609,161.5,247.9609,157.5,243.9609" style="stroke: #A80036; stroke-width: 1.0;"/><text fill="#000000" font-family="sans-serif" font-size="13" lengthAdjust="spacingAndGlyphs" textLength="111" x="157.5" y="225.895">Polar curve fitting</text><line style="stroke: #A80036; stroke-width: 1.0;" x1="150.5" x2="192.5" y1="288.2266" y2="288.2266"/><line style="stroke: #A80036; stroke-width: 1.0;" x1="192.5" x2="192.5" y1="288.2266" y2="301.2266"/><line style="stroke: #A80036; stroke-width: 1.0;" x1="151.5" x2="192.5" y1="301.2266" y2="301.2266"/><polygon fill="#A80036" points="161.5,297.2266,151.5,301.2266,161.5,305.2266,157.5,301.2266" style="stroke: #A80036; stroke-width: 1.0;"/><text fill="#000000" font-family="sans-serif" font-size="13" lengthAdjust="spacingAndGlyphs" textLength="136" x="157.5" y="268.0278">Xrotor characteristics</text><text fill="#000000" font-family="sans-serif" font-size="13" lengthAdjust="spacingAndGlyphs" textLength="68" x="157.5" y="283.1606">calculation</text><polygon fill="#A80036" points="378.5,326.3594,388.5,330.3594,378.5,334.3594,382.5,330.3594" style="stroke: #A80036; stroke-width: 1.0;"/><line style="stroke: #A80036; stroke-width: 1.0;" x1="150.5" x2="384.5" y1="330.3594" y2="330.3594"/><text fill="#000000" font-family="sans-serif" font-size="13" lengthAdjust="spacingAndGlyphs" textLength="65" x="157.5" y="325.2935">Polar data</text><polygon fill="#A80036" points="378.5,355.4922,388.5,359.4922,378.5,363.4922,382.5,359.4922" style="stroke: #A80036; stroke-width: 1.0;"/><line style="stroke: #A80036; stroke-width: 1.0;" x1="39.5" x2="384.5" y1="359.4922" y2="359.4922"/><text fill="#000000" font-family="sans-serif" font-size="13" lengthAdjust="spacingAndGlyphs" textLength="167" x="46.5" y="354.4263">Define Propeller geometry</text><polygon fill="#A80036" points="498.5,384.625,508.5,388.625,498.5,392.625,502.5,388.625" style="stroke: #A80036; stroke-width: 1.0;"/><line style="stroke: #A80036; stroke-width: 1.0;" x1="39.5" x2="504.5" y1="388.625" y2="388.625"/><text fill="#000000" font-family="sans-serif" font-size="13" lengthAdjust="spacingAndGlyphs" textLength="113" x="46.5" y="383.5591">Define Loadcases</text><polygon fill="#A80036" points="401.5,413.7578,391.5,417.7578,401.5,421.7578,397.5,417.7578" style="stroke: #A80036; stroke-width: 1.0;"/><line style="stroke: #A80036; stroke-width: 1.0;" x1="395.5" x2="509.5" y1="417.7578" y2="417.7578"/><text fill="#000000" font-family="sans-serif" font-size="13" lengthAdjust="spacingAndGlyphs" textLength="96" x="407.5" y="412.6919">Loadcase Data</text><polygon fill="#A80036" points="580.5,458.0234,590.5,462.0234,580.5,466.0234,584.5,462.0234" style="stroke: #A80036; stroke-width: 1.0;"/><line style="stroke: #A80036; stroke-width: 1.0;" x1="390.5" x2="586.5" y1="462.0234" y2="462.0234"/><text fill="#000000" font-family="sans-serif" font-size="13" lengthAdjust="spacingAndGlyphs" textLength="150" x="397.5" y="441.8247">Geometry, Airfoil polars</text><text fill="#000000" font-family="sans-serif" font-size="13" lengthAdjust="spacingAndGlyphs" textLength="68" x="397.5" y="456.9575">Loadcases</text><polygon fill="#A80036" points="401.5,487.1563,391.5,491.1563,401.5,495.1563,397.5,491.1563" style="stroke: #A80036; stroke-width: 1.0;"/><line style="stroke: #A80036; stroke-width: 1.0;" x1="395.5" x2="591.5" y1="491.1563" y2="491.1563"/><text fill="#000000" font-family="sans-serif" font-size="13" lengthAdjust="spacingAndGlyphs" textLength="64" x="407.5" y="486.0903">Load data</text><line style="stroke: #A80036; stroke-width: 1.0;" x1="390.5" x2="432.5" y1="535.4219" y2="535.4219"/><line style="stroke: #A80036; stroke-width: 1.0;" x1="432.5" x2="432.5" y1="535.4219" y2="548.4219"/><line style="stroke: #A80036; stroke-width: 1.0;" x1="391.5" x2="432.5" y1="548.4219" y2="548.4219"/><polygon fill="#A80036" points="401.5,544.4219,391.5,548.4219,401.5,552.4219,397.5,548.4219" style="stroke: #A80036; stroke-width: 1.0;"/><text fill="#000000" font-family="sans-serif" font-size="13" lengthAdjust="spacingAndGlyphs" textLength="59" x="397.5" y="515.2231">Calculate</text><text fill="#000000" font-family="sans-serif" font-size="13" lengthAdjust="spacingAndGlyphs" textLength="89" x="397.5" y="530.356">load envelope</text><polygon fill="#A80036" points="311.5,588.6875,301.5,592.6875,311.5,596.6875,307.5,592.6875" style="stroke: #A80036; stroke-width: 1.0;"/><line style="stroke: #A80036; stroke-width: 1.0;" x1="305.5" x2="389.5" y1="592.6875" y2="592.6875"/><text fill="#000000" font-family="sans-serif" font-size="13" lengthAdjust="spacingAndGlyphs" textLength="66" x="317.5" y="572.4888">C_l vs. r/R,</text><text fill="#000000" font-family="sans-serif" font-size="13" lengthAdjust="spacingAndGlyphs" textLength="42" x="317.5" y="587.6216">Airfoils</text><polygon fill="#A80036" points="378.5,617.8203,388.5,621.8203,378.5,625.8203,382.5,621.8203" style="stroke: #A80036; stroke-width: 1.0;"/><line style="stroke: #A80036; stroke-width: 1.0;" x1="300.5" x2="384.5" y1="621.8203" y2="621.8203"/><text fill="#000000" font-family="sans-serif" font-size="13" lengthAdjust="spacingAndGlyphs" textLength="57" x="307.5" y="616.7544">C_p vs. x</text><path d="M10,643.8203 L149,643.8203 L149,650.8203 L139,660.8203 L10,660.8203 L10,643.8203 " fill="#EEEEEE" style="stroke: #000000; stroke-width: 1.0;"/><rect fill="none" height="353.7266" style="stroke: #000000; stroke-width: 2.0;" width="996.5" x="10" y="643.8203"/><text fill="#000000" font-family="sans-serif" font-size="13" font-weight="bold" lengthAdjust="spacingAndGlyphs" textLength="94" x="25" y="656.8872">Optimization</text><polygon fill="#A80036" points="659.5,678.0859,669.5,682.0859,659.5,686.0859,663.5,682.0859" style="stroke: #A80036; stroke-width: 1.0;"/><line style="stroke: #A80036; stroke-width: 1.0;" x1="39.5" x2="665.5" y1="682.0859" y2="682.0859"/><text fill="#000000" font-family="sans-serif" font-size="13" lengthAdjust="spacingAndGlyphs" textLength="97" x="46.5" y="677.02">Setup Femodel</text><polygon fill="#A80036" points="659.5,707.2188,669.5,711.2188,659.5,715.2188,663.5,711.2188" style="stroke: #A80036; stroke-width: 1.0;"/><line style="stroke: #A80036; stroke-width: 1.0;" x1="390.5" x2="665.5" y1="711.2188" y2="711.2188"/><text fill="#000000" font-family="sans-serif" font-size="13" lengthAdjust="spacingAndGlyphs" textLength="93" x="397.5" y="706.1528">Load envelope</text><polygon fill="#A80036" points="760.5,736.3516,770.5,740.3516,760.5,744.3516,764.5,740.3516" style="stroke: #A80036; stroke-width: 1.0;"/><line style="stroke: #A80036; stroke-width: 1.0;" x1="39.5" x2="766.5" y1="740.3516" y2="740.3516"/><text fill="#000000" font-family="sans-serif" font-size="13" lengthAdjust="spacingAndGlyphs" textLength="181" x="46.5" y="735.2856">Define optimization Problem</text><polygon fill="#A80036" points="865.5,765.4844,875.5,769.4844,865.5,773.4844,869.5,769.4844" style="stroke: #A80036; stroke-width: 1.0;"/><line style="stroke: #A80036; stroke-width: 1.0;" x1="39.5" x2="871.5" y1="769.4844" y2="769.4844"/><text fill="#000000" font-family="sans-serif" font-size="13" lengthAdjust="spacingAndGlyphs" textLength="179" x="46.5" y="764.4185">Define and set up Optimizer</text><polygon fill="#A80036" points="865.5,809.75,875.5,813.75,865.5,817.75,869.5,813.75" style="stroke: #A80036; stroke-width: 1.0;"/><line style="stroke: #A80036; stroke-width: 1.0;" x1="772.5" x2="871.5" y1="813.75" y2="813.75"/><text fill="#000000" font-family="sans-serif" font-size="13" lengthAdjust="spacingAndGlyphs" textLength="81" x="779.5" y="793.5513">Optimization</text><text fill="#000000" font-family="sans-serif" font-size="13" lengthAdjust="spacingAndGlyphs" textLength="53" x="779.5" y="808.6841">Problem</text><path d="M622.5,828.75 L699.5,828.75 L699.5,835.75 L689.5,845.75 L622.5,845.75 L622.5,828.75 " fill="#EEEEEE" style="stroke: #000000; stroke-width: 1.0;"/><rect fill="none" height="132.6641" style="stroke: #000000; stroke-width: 2.0;" width="374" x="622.5" y="828.75"/><text fill="#000000" font-family="sans-serif" font-size="13" font-weight="bold" lengthAdjust="spacingAndGlyphs" textLength="32" x="637.5" y="841.8169">loop</text><text fill="#000000" font-family="sans-serif" font-size="11" font-weight="bold" lengthAdjust="spacingAndGlyphs" textLength="125" x="714.5" y="840.9604">[until convergence]</text><polygon fill="#A80036" points="682.5,863.0156,672.5,867.0156,682.5,871.0156,678.5,867.0156" style="stroke: #A80036; stroke-width: 1.0;"/><line style="stroke: #A80036; stroke-width: 1.0;" x1="676.5" x2="876.5" y1="867.0156" y2="867.0156"/><text fill="#000000" font-family="sans-serif" font-size="13" lengthAdjust="spacingAndGlyphs" textLength="107" x="688.5" y="861.9497">Design Variables</text><polygon fill="#A80036" points="865.5,892.1484,875.5,896.1484,865.5,900.1484,869.5,896.1484" style="stroke: #A80036; stroke-width: 1.0;"/><line style="stroke: #A80036; stroke-width: 1.0;" x1="671.5" x2="871.5" y1="896.1484" y2="896.1484"/><text fill="#000000" font-family="sans-serif" font-size="13" lengthAdjust="spacingAndGlyphs" textLength="180" x="678.5" y="891.0825">Objective, Constraint Values</text><line style="stroke: #A80036; stroke-width: 1.0;" x1="877.5" x2="919.5" y1="940.4141" y2="940.4141"/><line style="stroke: #A80036; stroke-width: 1.0;" x1="919.5" x2="919.5" y1="940.4141" y2="953.4141"/><line style="stroke: #A80036; stroke-width: 1.0;" x1="878.5" x2="919.5" y1="953.4141" y2="953.4141"/><polygon fill="#A80036" points="888.5,949.4141,878.5,953.4141,888.5,957.4141,884.5,953.4141" style="stroke: #A80036; stroke-width: 1.0;"/><text fill="#000000" font-family="sans-serif" font-size="13" lengthAdjust="spacingAndGlyphs" textLength="100" x="884.5" y="920.2153">Design Variable</text><text fill="#000000" font-family="sans-serif" font-size="13" lengthAdjust="spacingAndGlyphs" textLength="55" x="884.5" y="935.3481">variation</text><polygon fill="#A80036" points="50.5,985.5469,40.5,989.5469,50.5,993.5469,46.5,989.5469" style="stroke: #A80036; stroke-width: 1.0;"/><line style="stroke: #A80036; stroke-width: 1.0;" x1="44.5" x2="876.5" y1="989.5469" y2="989.5469"/><text fill="#000000" font-family="sans-serif" font-size="13" lengthAdjust="spacingAndGlyphs" textLength="192" x="56.5" y="984.481">Optimization problem solution</text><!--MD5=[34ce4fb26117855f1e7aac79c0333516]
@startuml
actor main
group Load calculation
main -> Airfoil: Define Airfoils
Airfoil -> Xfoil: Re, Ncrit, Iter, AoA
Xfoil -> Airfoil: Polar
Airfoil -> Airfoil: Polar curve fitting
Airfoil -> Airfoil: Xrotor characteristics\ncalculation
Airfoil -> Propeller: Polar data
main -> Propeller: Define Propeller geometry
main -> Loadcase: Define Loadcases
Loadcase -> Propeller: Loadcase Data
Propeller -> Xrotor: Geometry, Airfoil polars\nLoadcases
Xrotor -> Propeller: Load data
Propeller -> Propeller: Calculate\nload envelope
Propeller -> Xfoil: C_l vs. r/R,\nAirfoils
Xfoil -> Propeller: C_p vs. x
end
group Optimization
main -> Femodel: Setup Femodel
Propeller -> Femodel: Load envelope
main -> Optimization: Define optimization Problem
main -> Optimizer: Define and set up Optimizer
Optimization -> Optimizer: Optimization\nProblem
loop until convergence
	Optimizer -> Femodel: Design Variables
	Femodel -> Optimizer: Objective, Constraint Values
	Optimizer -> Optimizer: Design Variable\nvariation
	end
Optimizer -> main: Optimization problem solution
end
@enduml

PlantUML version 1.2020.19(Mon Oct 12 17:10:01 CEST 2020)
(GPL source distribution)
Java Runtime: OpenJDK Runtime Environment
JVM: OpenJDK 64-Bit Server VM
Default Encoding: UTF-8
Language: de
Country: DE
--></g></svg>