<?xml version="1.0" encoding="UTF-8" standalone="no"?><svg xmlns="http://www.w3.org/2000/svg" xmlns:xlink="http://www.w3.org/1999/xlink" contentScriptType="application/ecmascript" contentStyleType="text/css" height="862px" preserveAspectRatio="none" style="width:1509px;height:862px;" version="1.1" viewBox="0 0 1509 862" width="1509px" zoomAndPan="magnify"><defs><filter height="300%" id="feg5ttkapzpm3" width="300%" x="-1" y="-1"><feGaussianBlur result="blurOut" stdDeviation="2.0"/><feColorMatrix in="blurOut" result="blurOut2" type="matrix" values="0 0 0 0 0 0 0 0 0 0 0 0 0 0 0 0 0 0 .4 0"/><feOffset dx="4.0" dy="4.0" in="blurOut2" result="blurOut3"/><feBlend in="SourceGraphic" in2="blurOut3" mode="normal"/></filter></defs><g><!--MD5=[e3d158ccbe291f3bf2130bb0560e8ce5]
class Xsoftware--><rect codeLine="22" fill="#FEFECE" filter="url(#feg5ttkapzpm3)" height="112.0234" id="Xsoftware" style="stroke: #A80036; stroke-width: 1.5;" width="307" x="7" y="113.5"/><ellipse cx="125.75" cy="129.5" fill="#ADD1B2" rx="11" ry="11" style="stroke: #A80036; stroke-width: 1.0;"/><path d="M128.7188,135.1406 Q128.1406,135.4375 127.5,135.5781 Q126.8594,135.7344 126.1563,135.7344 Q123.6563,135.7344 122.3281,134.0938 Q121.0156,132.4375 121.0156,129.3125 Q121.0156,126.1875 122.3281,124.5313 Q123.6563,122.875 126.1563,122.875 Q126.8594,122.875 127.5,123.0313 Q128.1563,123.1875 128.7188,123.4844 L128.7188,126.2031 Q128.0938,125.625 127.5,125.3594 Q126.9063,125.0781 126.2813,125.0781 Q124.9375,125.0781 124.25,126.1563 Q123.5625,127.2188 123.5625,129.3125 Q123.5625,131.4063 124.25,132.4844 Q124.9375,133.5469 126.2813,133.5469 Q126.9063,133.5469 127.5,133.2813 Q128.0938,133 128.7188,132.4219 L128.7188,135.1406 Z "/><text fill="#000000" font-family="sans-serif" font-size="12" lengthAdjust="spacingAndGlyphs" textLength="61" x="146.25" y="133.6543">Xsoftware</text><line style="stroke: #A80036; stroke-width: 1.5;" x1="8" x2="313" y1="145.5" y2="145.5"/><ellipse cx="18" cy="156.5" fill="none" rx="3" ry="3" style="stroke: #038048; stroke-width: 1.0;"/><text fill="#000000" font-family="sans-serif" font-size="11" lengthAdjust="spacingAndGlyphs" textLength="42" x="27" y="159.7104">f: Open</text><line style="stroke: #A80036; stroke-width: 1.5;" x1="8" x2="313" y1="166.3047" y2="166.3047"/><rect fill="#F24D5C" height="6" style="stroke: #C82930; stroke-width: 1.0;" width="6" x="15" y="174.3047"/><text fill="#000000" font-family="sans-serif" font-size="11" lengthAdjust="spacingAndGlyphs" textLength="83" x="27" y="180.5151">__enter__(self)</text><rect fill="#F24D5C" height="6" style="stroke: #C82930; stroke-width: 1.0;" width="6" x="15" y="187.1094"/><text fill="#000000" font-family="sans-serif" font-size="11" lengthAdjust="spacingAndGlyphs" textLength="281" x="27" y="193.3198">__exit__(self, exc_type, exc_value, exc_traceback)</text><ellipse cx="18" cy="202.9141" fill="#84BE84" rx="3" ry="3" style="stroke: #038048; stroke-width: 1.0;"/><text fill="#000000" font-family="sans-serif" font-size="11" lengthAdjust="spacingAndGlyphs" textLength="111" x="27" y="206.1245">run(self, argument)</text><ellipse cx="18" cy="215.7188" fill="#84BE84" rx="3" ry="3" style="stroke: #038048; stroke-width: 1.0;"/><text fill="#000000" font-family="sans-serif" font-size="11" lengthAdjust="spacingAndGlyphs" textLength="122" x="27" y="218.9292">run_array(self, array)</text><!--MD5=[de9f1b0669f1b04c62e8b4e897d712da]
class Xfoil--><rect codeLine="30" fill="#FEFECE" filter="url(#feg5ttkapzpm3)" height="86.4141" id="Xfoil" style="stroke: #A80036; stroke-width: 1.5;" width="307" x="79" y="762.5"/><ellipse cx="215.75" cy="778.5" fill="#ADD1B2" rx="11" ry="11" style="stroke: #A80036; stroke-width: 1.0;"/><path d="M218.7188,784.1406 Q218.1406,784.4375 217.5,784.5781 Q216.8594,784.7344 216.1563,784.7344 Q213.6563,784.7344 212.3281,783.0938 Q211.0156,781.4375 211.0156,778.3125 Q211.0156,775.1875 212.3281,773.5313 Q213.6563,771.875 216.1563,771.875 Q216.8594,771.875 217.5,772.0313 Q218.1563,772.1875 218.7188,772.4844 L218.7188,775.2031 Q218.0938,774.625 217.5,774.3594 Q216.9063,774.0781 216.2813,774.0781 Q214.9375,774.0781 214.25,775.1563 Q213.5625,776.2188 213.5625,778.3125 Q213.5625,780.4063 214.25,781.4844 Q214.9375,782.5469 216.2813,782.5469 Q216.9063,782.5469 217.5,782.2813 Q218.0938,782 218.7188,781.4219 L218.7188,784.1406 Z "/><text fill="#000000" font-family="sans-serif" font-size="12" lengthAdjust="spacingAndGlyphs" textLength="25" x="236.25" y="782.6543">Xfoil</text><line style="stroke: #A80036; stroke-width: 1.5;" x1="80" x2="385" y1="794.5" y2="794.5"/><ellipse cx="90" cy="805.5" fill="none" rx="3" ry="3" style="stroke: #038048; stroke-width: 1.0;"/><text fill="#000000" font-family="sans-serif" font-size="11" lengthAdjust="spacingAndGlyphs" textLength="93" x="99" y="808.7104">input_file: String</text><line style="stroke: #A80036; stroke-width: 1.5;" x1="80" x2="385" y1="815.3047" y2="815.3047"/><rect fill="#F24D5C" height="6" style="stroke: #C82930; stroke-width: 1.0;" width="6" x="87" y="823.3047"/><text fill="#000000" font-family="sans-serif" font-size="11" lengthAdjust="spacingAndGlyphs" textLength="70" x="99" y="829.5151">__init__(self)</text><rect fill="#F24D5C" height="6" style="stroke: #C82930; stroke-width: 1.0;" width="6" x="87" y="836.1094"/><text fill="#000000" font-family="sans-serif" font-size="11" lengthAdjust="spacingAndGlyphs" textLength="281" x="99" y="842.3198">__exit__(self, exc_type, exc_value, exc_traceback)</text><!--MD5=[b98970b5d7fbe7870a87f8ac0faf8db4]
class Xrotor--><rect codeLine="36" fill="#FEFECE" filter="url(#feg5ttkapzpm3)" height="163.2422" id="Xrotor" style="stroke: #A80036; stroke-width: 1.5;" width="323" x="106" y="466"/><ellipse cx="244.25" cy="482" fill="#ADD1B2" rx="11" ry="11" style="stroke: #A80036; stroke-width: 1.0;"/><path d="M247.2188,487.6406 Q246.6406,487.9375 246,488.0781 Q245.3594,488.2344 244.6563,488.2344 Q242.1563,488.2344 240.8281,486.5938 Q239.5156,484.9375 239.5156,481.8125 Q239.5156,478.6875 240.8281,477.0313 Q242.1563,475.375 244.6563,475.375 Q245.3594,475.375 246,475.5313 Q246.6563,475.6875 247.2188,475.9844 L247.2188,478.7031 Q246.5938,478.125 246,477.8594 Q245.4063,477.5781 244.7813,477.5781 Q243.4375,477.5781 242.75,478.6563 Q242.0625,479.7188 242.0625,481.8125 Q242.0625,483.9063 242.75,484.9844 Q243.4375,486.0469 244.7813,486.0469 Q245.4063,486.0469 246,485.7813 Q246.5938,485.5 247.2188,484.9219 L247.2188,487.6406 Z "/><text fill="#000000" font-family="sans-serif" font-size="12" lengthAdjust="spacingAndGlyphs" textLength="38" x="264.75" y="486.1543">Xrotor</text><line style="stroke: #A80036; stroke-width: 1.5;" x1="107" x2="428" y1="498" y2="498"/><ellipse cx="117" cy="509" fill="none" rx="3" ry="3" style="stroke: #038048; stroke-width: 1.0;"/><text fill="#000000" font-family="sans-serif" font-size="11" lengthAdjust="spacingAndGlyphs" textLength="93" x="126" y="512.2104">input_file: String</text><rect fill="none" height="6" style="stroke: #C82930; stroke-width: 1.0;" width="6" x="114" y="518.8047"/><text fill="#000000" font-family="sans-serif" font-size="11" lengthAdjust="spacingAndGlyphs" textLength="125" x="126" y="525.0151">__loadcase: Loadcase</text><rect fill="none" height="6" style="stroke: #C82930; stroke-width: 1.0;" width="6" x="114" y="531.6094"/><text fill="#000000" font-family="sans-serif" font-size="11" lengthAdjust="spacingAndGlyphs" textLength="122" x="126" y="537.8198">__propeller: Propeller</text><line style="stroke: #A80036; stroke-width: 1.5;" x1="107" x2="428" y1="544.4141" y2="544.4141"/><rect fill="#F24D5C" height="6" style="stroke: #C82930; stroke-width: 1.0;" width="6" x="114" y="552.4141"/><text fill="#000000" font-family="sans-serif" font-size="11" lengthAdjust="spacingAndGlyphs" textLength="297" x="126" y="558.6245">__init(self, propeller: Propeller, loadcase: Loadcase)</text><rect fill="#F24D5C" height="6" style="stroke: #C82930; stroke-width: 1.0;" width="6" x="114" y="565.2188"/><text fill="#000000" font-family="sans-serif" font-size="11" lengthAdjust="spacingAndGlyphs" textLength="281" x="126" y="571.4292">__exit__(self, exc_type, exc_value, exc_traceback)</text><ellipse cx="117" cy="581.0234" fill="#84BE84" rx="3" ry="3" style="stroke: #038048; stroke-width: 1.0;"/><text fill="#000000" font-family="sans-serif" font-size="11" lengthAdjust="spacingAndGlyphs" textLength="51" x="126" y="584.2339">arbi(self)</text><ellipse cx="117" cy="593.8281" fill="#84BE84" rx="3" ry="3" style="stroke: #038048; stroke-width: 1.0;"/><text fill="#000000" font-family="sans-serif" font-size="11" lengthAdjust="spacingAndGlyphs" textLength="107" x="126" y="597.0386">parse_airfoils(self)</text><ellipse cx="117" cy="606.6328" fill="#84BE84" rx="3" ry="3" style="stroke: #038048; stroke-width: 1.0;"/><text fill="#000000" font-family="sans-serif" font-size="11" lengthAdjust="spacingAndGlyphs" text-decoration="underline" textLength="271" x="126" y="609.8433">read_bend_output(filename: String): DataFrame</text><ellipse cx="117" cy="619.4375" fill="#84BE84" rx="3" ry="3" style="stroke: #038048; stroke-width: 1.0;"/><text fill="#000000" font-family="sans-serif" font-size="11" lengthAdjust="spacingAndGlyphs" text-decoration="underline" textLength="269" x="126" y="622.6479">read_oper_output(filename: String): DataFrame</text><!--MD5=[432a26014d6806de21f9dcededb4ca89]
class Airfoil--><rect codeLine="48" fill="#FEFECE" filter="url(#feg5ttkapzpm3)" height="273.6797" id="Airfoil" style="stroke: #A80036; stroke-width: 1.5;" width="500" x="464.25" y="410.5"/><ellipse cx="693" cy="426.5" fill="#ADD1B2" rx="11" ry="11" style="stroke: #A80036; stroke-width: 1.0;"/><path d="M695.9688,432.1406 Q695.3906,432.4375 694.75,432.5781 Q694.1094,432.7344 693.4063,432.7344 Q690.9063,432.7344 689.5781,431.0938 Q688.2656,429.4375 688.2656,426.3125 Q688.2656,423.1875 689.5781,421.5313 Q690.9063,419.875 693.4063,419.875 Q694.1094,419.875 694.75,420.0313 Q695.4063,420.1875 695.9688,420.4844 L695.9688,423.2031 Q695.3438,422.625 694.75,422.3594 Q694.1563,422.0781 693.5313,422.0781 Q692.1875,422.0781 691.5,423.1563 Q690.8125,424.2188 690.8125,426.3125 Q690.8125,428.4063 691.5,429.4844 Q692.1875,430.5469 693.5313,430.5469 Q694.1563,430.5469 694.75,430.2813 Q695.3438,430 695.9688,429.4219 L695.9688,432.1406 Z "/><text fill="#000000" font-family="sans-serif" font-size="12" lengthAdjust="spacingAndGlyphs" textLength="34" x="713.5" y="430.6543">Airfoil</text><line style="stroke: #A80036; stroke-width: 1.5;" x1="465.25" x2="963.25" y1="442.5" y2="442.5"/><rect fill="none" height="6" style="stroke: #C82930; stroke-width: 1.0;" width="6" x="472.25" y="450.5"/><text fill="#000000" font-family="sans-serif" font-size="11" lengthAdjust="spacingAndGlyphs" textLength="149" x="484.25" y="456.7104">__coordinates: DataFrame</text><rect fill="none" height="6" style="stroke: #C82930; stroke-width: 1.0;" width="6" x="472.25" y="463.3047"/><text fill="#000000" font-family="sans-serif" font-size="11" lengthAdjust="spacingAndGlyphs" textLength="108" x="484.25" y="469.5151">__parameters: Dict</text><rect fill="none" height="6" style="stroke: #C82930; stroke-width: 1.0;" width="6" x="472.25" y="476.1094"/><text fill="#000000" font-family="sans-serif" font-size="11" lengthAdjust="spacingAndGlyphs" textLength="111" x="484.25" y="482.3198">__polar: DataFrame</text><rect fill="none" height="6" style="stroke: #C82930; stroke-width: 1.0;" width="6" x="472.25" y="488.9141"/><text fill="#000000" font-family="sans-serif" font-size="11" lengthAdjust="spacingAndGlyphs" textLength="165" x="484.25" y="495.1245">__xrotor_characteristics: Dict</text><line style="stroke: #A80036; stroke-width: 1.0;" x1="465.25" x2="963.25" y1="501.7188" y2="501.7188"/><rect fill="#F24D5C" height="6" style="stroke: #C82930; stroke-width: 1.0;" width="6" x="472.25" y="509.7188"/><text fill="#000000" font-family="sans-serif" font-size="11" lengthAdjust="spacingAndGlyphs" textLength="398" x="484.25" y="515.9292">__init__(self, airfoil_filename: Str, Re: Float, Ncrit=9: Int, Iter=200: Int)</text><rect fill="#F24D5C" height="6" style="stroke: #C82930; stroke-width: 1.0;" width="6" x="472.25" y="522.5234"/><text fill="#000000" font-family="sans-serif" font-size="11" lengthAdjust="spacingAndGlyphs" textLength="259" x="484.25" y="528.7339">__fit_cl_alpha__(self, x, x0, x1, a3, b1, b3, c2)</text><rect fill="#F24D5C" height="6" style="stroke: #C82930; stroke-width: 1.0;" width="6" x="472.25" y="535.3281"/><text fill="#000000" font-family="sans-serif" font-size="11" lengthAdjust="spacingAndGlyphs" textLength="119" x="484.25" y="541.5386">__repr__(self): String</text><ellipse cx="475.25" cy="551.1328" fill="#84BE84" rx="3" ry="3" style="stroke: #038048; stroke-width: 1.0;"/><text fill="#000000" font-family="sans-serif" font-size="11" lengthAdjust="spacingAndGlyphs" textLength="281" x="484.25" y="554.3433">cp_vs_x(self, mode: Str, value: Float): DataFrame</text><ellipse cx="475.25" cy="563.9375" fill="#84BE84" rx="3" ry="3" style="stroke: #038048; stroke-width: 1.0;"/><text fill="#000000" font-family="sans-serif" font-size="11" lengthAdjust="spacingAndGlyphs" text-decoration="underline" textLength="473" x="484.25" y="567.1479">interpolate(airfoil1: Airfoil, airfoil2: Airfoil, fraction_of_2nd_airfoil: Float): DataFrame</text><ellipse cx="475.25" cy="593.5469" fill="#84BE84" rx="3" ry="3" style="stroke: #038048; stroke-width: 1.0;"/><text fill="#000000" font-family="sans-serif" font-size="11" lengthAdjust="spacingAndGlyphs" textLength="166" x="484.25" y="596.7573">coordinates(self): DataFrame</text><ellipse cx="475.25" cy="606.3516" fill="#84BE84" rx="3" ry="3" style="stroke: #038048; stroke-width: 1.0;"/><text fill="#000000" font-family="sans-serif" font-size="11" lengthAdjust="spacingAndGlyphs" textLength="125" x="484.25" y="609.562">parameters(self): Dict</text><ellipse cx="475.25" cy="619.1563" fill="#84BE84" rx="3" ry="3" style="stroke: #038048; stroke-width: 1.0;"/><text fill="#000000" font-family="sans-serif" font-size="11" lengthAdjust="spacingAndGlyphs" textLength="128" x="484.25" y="622.3667">polar(self): DataFrame</text><ellipse cx="475.25" cy="631.9609" fill="#84BE84" rx="3" ry="3" style="stroke: #038048; stroke-width: 1.0;"/><text fill="#000000" font-family="sans-serif" font-size="11" lengthAdjust="spacingAndGlyphs" textLength="182" x="484.25" y="635.1714">xrotor_characteristics(self): Dict</text><line style="stroke: #A80036; stroke-width: 1.0; stroke-dasharray: 1.0,2.0;" x1="465.25" x2="696.25" y1="580.1445" y2="580.1445"/><text fill="#000000" font-family="sans-serif" font-size="11" lengthAdjust="spacingAndGlyphs" textLength="36" x="696.25" y="583.4526">Getter</text><line style="stroke: #A80036; stroke-width: 1.0; stroke-dasharray: 1.0,2.0;" x1="732.25" x2="963.25" y1="580.1445" y2="580.1445"/><ellipse cx="475.25" cy="661.5703" fill="#84BE84" rx="3" ry="3" style="stroke: #038048; stroke-width: 1.0;"/><text fill="#000000" font-family="sans-serif" font-size="11" lengthAdjust="spacingAndGlyphs" textLength="278" x="484.25" y="664.7808">coordinates(self, coordinates: Str or DataFrame)</text><ellipse cx="475.25" cy="674.375" fill="#84BE84" rx="3" ry="3" style="stroke: #038048; stroke-width: 1.0;"/><text fill="#000000" font-family="sans-serif" font-size="11" lengthAdjust="spacingAndGlyphs" textLength="474" x="484.25" y="677.5854">set_polar(self, alpha_start=-20: Float, alpha_stop=20: Float, alpha_inc=0.25: Float)</text><line style="stroke: #A80036; stroke-width: 1.0; stroke-dasharray: 1.0,2.0;" x1="465.25" x2="696.75" y1="648.168" y2="648.168"/><text fill="#000000" font-family="sans-serif" font-size="11" lengthAdjust="spacingAndGlyphs" textLength="35" x="696.75" y="651.4761">Setter</text><line style="stroke: #A80036; stroke-width: 1.0; stroke-dasharray: 1.0,2.0;" x1="731.75" x2="963.25" y1="648.168" y2="648.168"/><!--MD5=[b0a93aebd65bb3468015f36161c68501]
class Propeller--><rect codeLine="69" fill="#FEFECE" filter="url(#feg5ttkapzpm3)" height="324.8984" id="Propeller" style="stroke: #A80036; stroke-width: 1.5;" width="436" x="496.25" y="7"/><ellipse cx="682" cy="23" fill="#ADD1B2" rx="11" ry="11" style="stroke: #A80036; stroke-width: 1.0;"/><path d="M684.9688,28.6406 Q684.3906,28.9375 683.75,29.0781 Q683.1094,29.2344 682.4063,29.2344 Q679.9063,29.2344 678.5781,27.5938 Q677.2656,25.9375 677.2656,22.8125 Q677.2656,19.6875 678.5781,18.0313 Q679.9063,16.375 682.4063,16.375 Q683.1094,16.375 683.75,16.5313 Q684.4063,16.6875 684.9688,16.9844 L684.9688,19.7031 Q684.3438,19.125 683.75,18.8594 Q683.1563,18.5781 682.5313,18.5781 Q681.1875,18.5781 680.5,19.6563 Q679.8125,20.7188 679.8125,22.8125 Q679.8125,24.9063 680.5,25.9844 Q681.1875,27.0469 682.5313,27.0469 Q683.1563,27.0469 683.75,26.7813 Q684.3438,26.5 684.9688,25.9219 L684.9688,28.6406 Z "/><text fill="#000000" font-family="sans-serif" font-size="12" lengthAdjust="spacingAndGlyphs" textLength="56" x="702.5" y="27.1543">Propeller</text><line style="stroke: #A80036; stroke-width: 1.5;" x1="497.25" x2="931.25" y1="39" y2="39"/><rect fill="none" height="6" style="stroke: #C82930; stroke-width: 1.0;" width="6" x="504.25" y="47"/><text fill="#000000" font-family="sans-serif" font-size="11" lengthAdjust="spacingAndGlyphs" textLength="108" x="516.25" y="53.2104">__parameters: Dict</text><rect fill="none" height="6" style="stroke: #C82930; stroke-width: 1.0;" width="6" x="504.25" y="59.8047"/><text fill="#000000" font-family="sans-serif" font-size="11" lengthAdjust="spacingAndGlyphs" textLength="99" x="516.25" y="66.0151">__loadcases: Dict</text><rect fill="none" height="6" style="stroke: #C82930; stroke-width: 1.0;" width="6" x="504.25" y="72.6094"/><text fill="#000000" font-family="sans-serif" font-size="11" lengthAdjust="spacingAndGlyphs" textLength="122" x="516.25" y="78.8198">__load_envelope: Dict</text><rect fill="none" height="6" style="stroke: #C82930; stroke-width: 1.0;" width="6" x="504.25" y="85.4141"/><text fill="#000000" font-family="sans-serif" font-size="11" lengthAdjust="spacingAndGlyphs" textLength="94" x="516.25" y="91.6245">__geometry: List</text><rect fill="none" height="6" style="stroke: #C82930; stroke-width: 1.0;" width="6" x="504.25" y="98.2188"/><text fill="#000000" font-family="sans-serif" font-size="11" lengthAdjust="spacingAndGlyphs" textLength="88" x="516.25" y="104.4292">__sections: List</text><line style="stroke: #A80036; stroke-width: 1.0;" x1="497.25" x2="931.25" y1="111.0234" y2="111.0234"/><rect fill="#F24D5C" height="6" style="stroke: #C82930; stroke-width: 1.0;" width="6" x="504.25" y="119.0234"/><text fill="#000000" font-family="sans-serif" font-size="11" lengthAdjust="spacingAndGlyphs" textLength="410" x="516.25" y="125.2339">__init__(self, number_of_blades: Int, tip_radius: Float, hub_radius: Float)</text><rect fill="#F24D5C" height="6" style="stroke: #C82930; stroke-width: 1.0;" width="6" x="504.25" y="131.8281"/><text fill="#000000" font-family="sans-serif" font-size="11" lengthAdjust="spacingAndGlyphs" textLength="119" x="516.25" y="138.0386">__repr__(self): String</text><ellipse cx="507.25" cy="147.6328" fill="#84BE84" rx="3" ry="3" style="stroke: #038048; stroke-width: 1.0;"/><text fill="#000000" font-family="sans-serif" font-size="11" lengthAdjust="spacingAndGlyphs" textLength="88" x="516.25" y="150.8433">calc_loads(self)</text><ellipse cx="507.25" cy="177.2422" fill="#84BE84" rx="3" ry="3" style="stroke: #038048; stroke-width: 1.0;"/><text fill="#000000" font-family="sans-serif" font-size="11" lengthAdjust="spacingAndGlyphs" textLength="111" x="516.25" y="180.4526">geometry(self): List</text><ellipse cx="507.25" cy="190.0469" fill="#84BE84" rx="3" ry="3" style="stroke: #038048; stroke-width: 1.0;"/><text fill="#000000" font-family="sans-serif" font-size="11" lengthAdjust="spacingAndGlyphs" textLength="116" x="516.25" y="193.2573">loadcases(self): Dict</text><ellipse cx="507.25" cy="202.8516" fill="#84BE84" rx="3" ry="3" style="stroke: #038048; stroke-width: 1.0;"/><text fill="#000000" font-family="sans-serif" font-size="11" lengthAdjust="spacingAndGlyphs" textLength="139" x="516.25" y="206.062">load_envelope(self): Dict</text><ellipse cx="507.25" cy="215.6563" fill="#84BE84" rx="3" ry="3" style="stroke: #038048; stroke-width: 1.0;"/><text fill="#000000" font-family="sans-serif" font-size="11" lengthAdjust="spacingAndGlyphs" textLength="125" x="516.25" y="218.8667">parameters(self): Dict</text><ellipse cx="507.25" cy="228.4609" fill="#84BE84" rx="3" ry="3" style="stroke: #038048; stroke-width: 1.0;"/><text fill="#000000" font-family="sans-serif" font-size="11" lengthAdjust="spacingAndGlyphs" textLength="105" x="516.25" y="231.6714">sections(self): List</text><line style="stroke: #A80036; stroke-width: 1.0; stroke-dasharray: 1.0,2.0;" x1="497.25" x2="696.25" y1="163.8398" y2="163.8398"/><text fill="#000000" font-family="sans-serif" font-size="11" lengthAdjust="spacingAndGlyphs" textLength="36" x="696.25" y="167.1479">Getter</text><line style="stroke: #A80036; stroke-width: 1.0; stroke-dasharray: 1.0,2.0;" x1="732.25" x2="931.25" y1="163.8398" y2="163.8398"/><ellipse cx="507.25" cy="258.0703" fill="#84BE84" rx="3" ry="3" style="stroke: #038048; stroke-width: 1.0;"/><text fill="#000000" font-family="sans-serif" font-size="11" lengthAdjust="spacingAndGlyphs" textLength="293" x="516.25" y="261.2808">add_loadcase(self, name: Str, loadcase: Loadcase)</text><ellipse cx="507.25" cy="270.875" fill="#84BE84" rx="3" ry="3" style="stroke: #038048; stroke-width: 1.0;"/><text fill="#000000" font-family="sans-serif" font-size="11" lengthAdjust="spacingAndGlyphs" textLength="232" x="516.25" y="274.0854">add_section(self, rR: Float, airfoil: Airfoil)</text><ellipse cx="507.25" cy="283.6797" fill="#84BE84" rx="3" ry="3" style="stroke: #038048; stroke-width: 1.0;"/><text fill="#000000" font-family="sans-serif" font-size="11" lengthAdjust="spacingAndGlyphs" textLength="217" x="516.25" y="286.8901">geometry(self, array: List or np.array)</text><ellipse cx="507.25" cy="296.4844" fill="#84BE84" rx="3" ry="3" style="stroke: #038048; stroke-width: 1.0;"/><text fill="#000000" font-family="sans-serif" font-size="11" lengthAdjust="spacingAndGlyphs" textLength="200" x="516.25" y="299.6948">parameters(self, parameters: Dict)</text><ellipse cx="507.25" cy="309.2891" fill="#84BE84" rx="3" ry="3" style="stroke: #038048; stroke-width: 1.0;"/><text fill="#000000" font-family="sans-serif" font-size="11" lengthAdjust="spacingAndGlyphs" textLength="134" x="516.25" y="312.4995">set_load_envelope(self)</text><text fill="#000000" font-family="sans-serif" font-size="11" lengthAdjust="spacingAndGlyphs" textLength="0" x="520.25" y="325.3042"/><line style="stroke: #A80036; stroke-width: 1.0; stroke-dasharray: 1.0,2.0;" x1="497.25" x2="696.75" y1="244.668" y2="244.668"/><text fill="#000000" font-family="sans-serif" font-size="11" lengthAdjust="spacingAndGlyphs" textLength="35" x="696.75" y="247.9761">Setter</text><line style="stroke: #A80036; stroke-width: 1.0; stroke-dasharray: 1.0,2.0;" x1="731.75" x2="931.25" y1="244.668" y2="244.668"/><!--MD5=[b6942295d4995444148e641b385ccc5b]
class Loadcase--><rect codeLine="93" fill="#FEFECE" filter="url(#feg5ttkapzpm3)" height="235.2656" id="Loadcase" style="stroke: #A80036; stroke-width: 1.5;" width="496" x="999.25" y="430"/><ellipse cx="1213" cy="446" fill="#ADD1B2" rx="11" ry="11" style="stroke: #A80036; stroke-width: 1.0;"/><path d="M1215.9688,451.6406 Q1215.3906,451.9375 1214.75,452.0781 Q1214.1094,452.2344 1213.4063,452.2344 Q1210.9063,452.2344 1209.5781,450.5938 Q1208.2656,448.9375 1208.2656,445.8125 Q1208.2656,442.6875 1209.5781,441.0313 Q1210.9063,439.375 1213.4063,439.375 Q1214.1094,439.375 1214.75,439.5313 Q1215.4063,439.6875 1215.9688,439.9844 L1215.9688,442.7031 Q1215.3438,442.125 1214.75,441.8594 Q1214.1563,441.5781 1213.5313,441.5781 Q1212.1875,441.5781 1211.5,442.6563 Q1210.8125,443.7188 1210.8125,445.8125 Q1210.8125,447.9063 1211.5,448.9844 Q1212.1875,450.0469 1213.5313,450.0469 Q1214.1563,450.0469 1214.75,449.7813 Q1215.3438,449.5 1215.9688,448.9219 L1215.9688,451.6406 Z "/><text fill="#000000" font-family="sans-serif" font-size="12" lengthAdjust="spacingAndGlyphs" textLength="60" x="1233.5" y="450.1543">Loadcase</text><line style="stroke: #A80036; stroke-width: 1.5;" x1="1000.25" x2="1494.25" y1="462" y2="462"/><rect fill="none" height="6" style="stroke: #C82930; stroke-width: 1.0;" width="6" x="1007.25" y="470"/><text fill="#000000" font-family="sans-serif" font-size="11" lengthAdjust="spacingAndGlyphs" textLength="74" x="1019.25" y="476.2104">__data = List</text><rect fill="none" height="6" style="stroke: #C82930; stroke-width: 1.0;" width="6" x="1007.25" y="482.8047"/><text fill="#000000" font-family="sans-serif" font-size="11" lengthAdjust="spacingAndGlyphs" textLength="116" x="1019.25" y="489.0151">__flight_speed: Float</text><rect fill="none" height="6" style="stroke: #C82930; stroke-width: 1.0;" width="6" x="1007.25" y="495.6094"/><text fill="#000000" font-family="sans-serif" font-size="11" lengthAdjust="spacingAndGlyphs" textLength="69" x="1019.25" y="501.8198">__name: Str</text><line style="stroke: #A80036; stroke-width: 1.0;" x1="1000.25" x2="1494.25" y1="508.4141" y2="508.4141"/><rect fill="#F24D5C" height="6" style="stroke: #C82930; stroke-width: 1.0;" width="6" x="1007.25" y="516.4141"/><text fill="#000000" font-family="sans-serif" font-size="11" lengthAdjust="spacingAndGlyphs" textLength="247" x="1019.25" y="522.6245">__init__(self, name: Str, flight_speed: Float)</text><rect fill="#F24D5C" height="6" style="stroke: #C82930; stroke-width: 1.0;" width="6" x="1007.25" y="529.2188"/><text fill="#000000" font-family="sans-serif" font-size="11" lengthAdjust="spacingAndGlyphs" textLength="102" x="1019.25" y="535.4292">__repr__(self): Str</text><ellipse cx="1010.25" cy="561.8281" fill="#84BE84" rx="3" ry="3" style="stroke: #038048; stroke-width: 1.0;"/><text fill="#000000" font-family="sans-serif" font-size="11" lengthAdjust="spacingAndGlyphs" textLength="82" x="1019.25" y="565.0386">data(self): List</text><ellipse cx="1010.25" cy="574.6328" fill="#84BE84" rx="3" ry="3" style="stroke: #038048; stroke-width: 1.0;"/><text fill="#000000" font-family="sans-serif" font-size="11" lengthAdjust="spacingAndGlyphs" textLength="133" x="1019.25" y="577.8433">flight_speed(self): Float</text><ellipse cx="1010.25" cy="587.4375" fill="#84BE84" rx="3" ry="3" style="stroke: #038048; stroke-width: 1.0;"/><text fill="#000000" font-family="sans-serif" font-size="11" lengthAdjust="spacingAndGlyphs" textLength="86" x="1019.25" y="590.6479">name(self): Str</text><ellipse cx="1010.25" cy="600.2422" fill="#84BE84" rx="3" ry="3" style="stroke: #038048; stroke-width: 1.0;"/><text fill="#000000" font-family="sans-serif" font-size="11" lengthAdjust="spacingAndGlyphs" textLength="209" x="1019.25" y="603.4526">results(self): DataFrame, DataFrame</text><line style="stroke: #A80036; stroke-width: 1.0; stroke-dasharray: 1.0,2.0;" x1="1000.25" x2="1229.25" y1="548.4258" y2="548.4258"/><text fill="#000000" font-family="sans-serif" font-size="11" lengthAdjust="spacingAndGlyphs" textLength="36" x="1229.25" y="551.7339">Getter</text><line style="stroke: #A80036; stroke-width: 1.0; stroke-dasharray: 1.0,2.0;" x1="1265.25" x2="1494.25" y1="548.4258" y2="548.4258"/><ellipse cx="1010.25" cy="629.8516" fill="#84BE84" rx="3" ry="3" style="stroke: #038048; stroke-width: 1.0;"/><text fill="#000000" font-family="sans-serif" font-size="11" lengthAdjust="spacingAndGlyphs" textLength="210" x="1019.25" y="633.062">flight_speed(self, flight_speed: Float)</text><ellipse cx="1010.25" cy="642.6563" fill="#84BE84" rx="3" ry="3" style="stroke: #038048; stroke-width: 1.0;"/><text fill="#000000" font-family="sans-serif" font-size="11" lengthAdjust="spacingAndGlyphs" textLength="126" x="1019.25" y="645.8667">name(self, name: Str)</text><ellipse cx="1010.25" cy="655.4609" fill="#84BE84" rx="3" ry="3" style="stroke: #038048; stroke-width: 1.0;"/><text fill="#000000" font-family="sans-serif" font-size="11" lengthAdjust="spacingAndGlyphs" textLength="470" x="1019.25" y="658.6714">set_data(self, prescribe_type: Str, value: Float, fix=None: Str, value2=None: Float)</text><line style="stroke: #A80036; stroke-width: 1.0; stroke-dasharray: 1.0,2.0;" x1="1000.25" x2="1229.75" y1="616.4492" y2="616.4492"/><text fill="#000000" font-family="sans-serif" font-size="11" lengthAdjust="spacingAndGlyphs" textLength="35" x="1229.75" y="619.7573">Setter</text><line style="stroke: #A80036; stroke-width: 1.0; stroke-dasharray: 1.0,2.0;" x1="1264.75" x2="1494.25" y1="616.4492" y2="616.4492"/><!--MD5=[cb006b10550e40cbe910f03b1c13cc26]
reverse link Xsoftware to Xfoil--><path codeLine="3" d="M125.307,244.162 C81.5865,347.542 20.2283,539.271 88.25,684.5 C103.1574,716.328 131.116,742.658 158.46,762.4654 " fill="none" id="Xsoftware-backto-Xfoil" style="stroke: #A80036; stroke-width: 1.0;"/><polygon fill="none" points="118.975,241.169,133.365,225.615,131.815,246.748,118.975,241.169" style="stroke: #A80036; stroke-width: 1.0;"/><!--MD5=[69a732efceb5f56650e76bb8b3b61df4]
reverse link Xsoftware to Xrotor--><path codeLine="4" d="M181.402,244.829 C199.558,308.629 225.672,400.393 244.323,465.935 " fill="none" id="Xsoftware-backto-Xrotor" style="stroke: #A80036; stroke-width: 1.0;"/><polygon fill="none" points="174.665,246.729,175.923,225.576,188.13,242.897,174.665,246.729" style="stroke: #A80036; stroke-width: 1.0;"/><!--MD5=[3bfd7886d18eac15392946c0cb26e44f]
link Airfoil to Xfoil--><path codeLine="5" d="M459.524,683.79 C407.717,711.306 356.759,738.371 316.266,759.8773 " fill="none" id="Airfoil-Xfoil" style="stroke: #A80036; stroke-width: 1.0; stroke-dasharray: 1.0,3.0;"/><polygon fill="#A80036" points="311.381,762.4721,321.2059,761.7849,315.7972,760.1275,317.4546,754.7189,311.381,762.4721" style="stroke: #A80036; stroke-width: 1.0;"/><polygon fill="#A80036" points="464.073,681.374,454.2481,682.0612,459.6568,683.7186,457.9994,689.1272,464.073,681.374" style="stroke: #A80036; stroke-width: 1.0;"/><text fill="#000000" font-family="sans-serif" font-size="13" lengthAdjust="spacingAndGlyphs" textLength="30" x="389.25" y="727.5669">uses</text><!--MD5=[698509272ce6ae0e161c0aeebfeeb3aa]
link Propeller to Xrotor--><path codeLine="6" d="M518.215,335.397 C465.956,379.356 411.662,425.026 366.997,462.596 " fill="none" id="Propeller-Xrotor" style="stroke: #A80036; stroke-width: 1.0; stroke-dasharray: 1.0,3.0;"/><polygon fill="#A80036" points="362.98,465.976,372.442,463.2429,366.8061,462.7571,367.2918,457.1212,362.98,465.976" style="stroke: #A80036; stroke-width: 1.0;"/><polygon fill="#A80036" points="522.088,332.14,512.6255,334.8714,518.2613,335.3582,517.7745,340.994,522.088,332.14" style="stroke: #A80036; stroke-width: 1.0;"/><text fill="#000000" font-family="sans-serif" font-size="13" lengthAdjust="spacingAndGlyphs" textLength="30" x="479.25" y="375.5669">uses</text><!--MD5=[4bcdfd812b6a22662a0ddb1addf058ba]
reverse link Propeller to Airfoil--><path codeLine="7" d="M714.25,345.328 C714.25,367.167 714.25,389.244 714.25,410.373 " fill="none" id="Propeller-backto-Airfoil" style="stroke: #A80036; stroke-width: 1.0;"/><polygon fill="#FFFFFF" points="714.25,332.14,710.25,338.14,714.25,344.14,718.25,338.14,714.25,332.14" style="stroke: #A80036; stroke-width: 1.0;"/><text fill="#000000" font-family="sans-serif" font-size="13" lengthAdjust="spacingAndGlyphs" textLength="8" x="705.0234" y="351.9217">1</text><text fill="#000000" font-family="sans-serif" font-size="13" lengthAdjust="spacingAndGlyphs" textLength="23" x="689.6445" y="399.3971">1..*</text><!--MD5=[423eff011b7f80488028cccd7ff48d91]
reverse link Propeller to Loadcase--><path codeLine="8" d="M943.427,332.171 C989.979,365.01 1038.08,398.943 1081.9,429.854 " fill="none" id="Propeller-backto-Loadcase" style="stroke: #A80036; stroke-width: 1.0;"/><polygon fill="#FFFFFF" points="932.579,324.518,935.1759,331.2453,942.3844,331.4356,939.7876,324.7083,932.579,324.518" style="stroke: #A80036; stroke-width: 1.0;"/><text fill="#000000" font-family="sans-serif" font-size="13" lengthAdjust="spacingAndGlyphs" textLength="8" x="940.5689" y="325.8546">1</text><text fill="#000000" font-family="sans-serif" font-size="13" lengthAdjust="spacingAndGlyphs" textLength="23" x="1048.1738" y="419.0187">1..*</text><!--MD5=[9fe21903ed4f45b2be7d23d98c3b7e74]
@startuml
'skinparam monochrome true

Xsoftware <|- - Xfoil
Xsoftware <|- - Xrotor
Airfoil <-[dotted]-> Xfoil : uses
Propeller <-[dotted]-> Xrotor: uses
Propeller "1" o- - "1..*" Airfoil
Propeller "1" o- - "1..*" Loadcase


'note right of Airfoil::__repr__(self) 
'  Todo: implement
'end note
'note left of Propeller::set_load_envelope(self)
'  Todo: implement
'end note
'note "Todo: auf Benutzung von\nProperties ändern" as NProp

'NProp .. Loadcase
'NProp .. Propeller

class Xsoftware {
  +f: Open
  -__enter__(self)
  -__exit__(self, exc_type, exc_value, exc_traceback)
  +run(self, argument)
  +run_array(self, array)
}

class Xfoil {
  +input_file: String
  -__init__(self)
  -__exit__(self, exc_type, exc_value, exc_traceback)
}

class Xrotor {
  +input_file: String
  -__loadcase: Loadcase
  -__propeller: Propeller
  -__init(self, propeller: Propeller, loadcase: Loadcase)
  -__exit__(self, exc_type, exc_value, exc_traceback)
  +arbi(self)
  +parse_airfoils(self)
  +{static}read_bend_output(filename: String): DataFrame
  +{static}read_oper_output(filename: String): DataFrame
}

class Airfoil{
  -__coordinates: DataFrame
  -__parameters: Dict
  -__polar: DataFrame
  -__xrotor_characteristics: Dict
  - -
  -__init__(self, airfoil_filename: Str, Re: Float, Ncrit=9: Int, Iter=200: Int)
  -__fit_cl_alpha__(self, x, x0, x1, a3, b1, b3, c2)
  -__repr__(self): String
  +cp_vs_x(self, mode: Str, value: Float): DataFrame
  +{static}interpolate(airfoil1: Airfoil, airfoil2: Airfoil, fraction_of_2nd_airfoil: Float): DataFrame
  ..Getter..
  +coordinates(self): DataFrame
  +parameters(self): Dict
  +polar(self): DataFrame
  +xrotor_characteristics(self): Dict
  ..Setter..
  +coordinates(self, coordinates: Str or DataFrame)
  +set_polar(self, alpha_start=-20: Float, alpha_stop=20: Float, alpha_inc=0.25: Float)
}

class Propeller{
  -__parameters: Dict
  -__loadcases: Dict
  -__load_envelope: Dict
  -__geometry: List
  -__sections: List
  - -
  -__init__(self, number_of_blades: Int, tip_radius: Float, hub_radius: Float)
  -__repr__(self): String
  +calc_loads(self)
  ..Getter..
  +geometry(self): List
  +loadcases(self): Dict
  +load_envelope(self): Dict
  +parameters(self): Dict
  +sections(self): List
  ..Setter..
  +add_loadcase(self, name: Str, loadcase: Loadcase)
  +add_section(self, rR: Float, airfoil: Airfoil)
  +geometry(self, array: List or np.array)
  +parameters(self, parameters: Dict)
  +set_load_envelope(self)
  
}
class Loadcase{
  -__data = List
  -__flight_speed: Float
  -__name: Str
  - -
  -__init__(self, name: Str, flight_speed: Float)
  -__repr__(self): Str
  ..Getter..
  +data(self): List
  +flight_speed(self): Float
  +name(self): Str
  +results(self): DataFrame, DataFrame
  ..Setter..
  +flight_speed(self, flight_speed: Float)
  +name(self, name: Str)
  +set_data(self, prescribe_type: Str, value: Float, fix=None: Str, value2=None: Float)
}

'Xsoftware -[hidden]- Xfoil
'Xfoil -[hidden]> Xrotor
'Xfoil -[hidden]- Propeller
'Xsoftware -[hidden]- Propeller
'Airfoil -[hidden]> Propeller
'Propeller -[hidden]> Loadcase
@enduml

@startuml

Xsoftware <|- - Xfoil
Xsoftware <|- - Xrotor
Airfoil <-[dotted]-> Xfoil : uses
Propeller <-[dotted]-> Xrotor: uses
Propeller "1" o- - "1..*" Airfoil
Propeller "1" o- - "1..*" Loadcase




class Xsoftware {
  +f: Open
  -__enter__(self)
  -__exit__(self, exc_type, exc_value, exc_traceback)
  +run(self, argument)
  +run_array(self, array)
}

class Xfoil {
  +input_file: String
  -__init__(self)
  -__exit__(self, exc_type, exc_value, exc_traceback)
}

class Xrotor {
  +input_file: String
  -__loadcase: Loadcase
  -__propeller: Propeller
  -__init(self, propeller: Propeller, loadcase: Loadcase)
  -__exit__(self, exc_type, exc_value, exc_traceback)
  +arbi(self)
  +parse_airfoils(self)
  +{static}read_bend_output(filename: String): DataFrame
  +{static}read_oper_output(filename: String): DataFrame
}

class Airfoil{
  -__coordinates: DataFrame
  -__parameters: Dict
  -__polar: DataFrame
  -__xrotor_characteristics: Dict
  - -
  -__init__(self, airfoil_filename: Str, Re: Float, Ncrit=9: Int, Iter=200: Int)
  -__fit_cl_alpha__(self, x, x0, x1, a3, b1, b3, c2)
  -__repr__(self): String
  +cp_vs_x(self, mode: Str, value: Float): DataFrame
  +{static}interpolate(airfoil1: Airfoil, airfoil2: Airfoil, fraction_of_2nd_airfoil: Float): DataFrame
  ..Getter..
  +coordinates(self): DataFrame
  +parameters(self): Dict
  +polar(self): DataFrame
  +xrotor_characteristics(self): Dict
  ..Setter..
  +coordinates(self, coordinates: Str or DataFrame)
  +set_polar(self, alpha_start=-20: Float, alpha_stop=20: Float, alpha_inc=0.25: Float)
}

class Propeller{
  -__parameters: Dict
  -__loadcases: Dict
  -__load_envelope: Dict
  -__geometry: List
  -__sections: List
  - -
  -__init__(self, number_of_blades: Int, tip_radius: Float, hub_radius: Float)
  -__repr__(self): String
  +calc_loads(self)
  ..Getter..
  +geometry(self): List
  +loadcases(self): Dict
  +load_envelope(self): Dict
  +parameters(self): Dict
  +sections(self): List
  ..Setter..
  +add_loadcase(self, name: Str, loadcase: Loadcase)
  +add_section(self, rR: Float, airfoil: Airfoil)
  +geometry(self, array: List or np.array)
  +parameters(self, parameters: Dict)
  +set_load_envelope(self)
  
}
class Loadcase{
  -__data = List
  -__flight_speed: Float
  -__name: Str
  - -
  -__init__(self, name: Str, flight_speed: Float)
  -__repr__(self): Str
  ..Getter..
  +data(self): List
  +flight_speed(self): Float
  +name(self): Str
  +results(self): DataFrame, DataFrame
  ..Setter..
  +flight_speed(self, flight_speed: Float)
  +name(self, name: Str)
  +set_data(self, prescribe_type: Str, value: Float, fix=None: Str, value2=None: Float)
}

@enduml

PlantUML version 1.2020.19(Mon Oct 12 17:10:01 CEST 2020)
(GPL source distribution)
Java Runtime: OpenJDK Runtime Environment
JVM: OpenJDK 64-Bit Server VM
Default Encoding: UTF-8
Language: de
Country: DE
--></g></svg>