<?xml version="1.0" encoding="UTF-8" standalone="no"?><svg xmlns="http://www.w3.org/2000/svg" xmlns:xlink="http://www.w3.org/1999/xlink" contentScriptType="application/ecmascript" contentStyleType="text/css" height="938px" preserveAspectRatio="none" style="width:1611px;height:938px;" version="1.1" viewBox="0 0 1611 938" width="1611px" zoomAndPan="magnify"><defs><filter height="300%" id="f8ldyxua81z5l" width="300%" x="-1" y="-1"><feGaussianBlur result="blurOut" stdDeviation="2.0"/><feColorMatrix in="blurOut" result="blurOut2" type="matrix" values="0 0 0 0 0 0 0 0 0 0 0 0 0 0 0 0 0 0 .4 0"/><feOffset dx="4.0" dy="4.0" in="blurOut2" result="blurOut3"/><feBlend in="SourceGraphic" in2="blurOut3" mode="normal"/></filter></defs><g><!--MD5=[e3d158ccbe291f3bf2130bb0560e8ce5]
class Xsoftware--><rect codeLine="22" fill="#FEFECE" filter="url(#f8ldyxua81z5l)" height="137.6328" id="Xsoftware" style="stroke: #A80036; stroke-width: 1.5;" width="307" x="20.9683" y="107"/><ellipse cx="139.7183" cy="123" fill="#ADD1B2" rx="11" ry="11" style="stroke: #A80036; stroke-width: 1.0;"/><path d="M142.6871,128.6406 Q142.1089,128.9375 141.4683,129.0781 Q140.8277,129.2344 140.1246,129.2344 Q137.6246,129.2344 136.2964,127.5938 Q134.9839,125.9375 134.9839,122.8125 Q134.9839,119.6875 136.2964,118.0313 Q137.6246,116.375 140.1246,116.375 Q140.8277,116.375 141.4683,116.5313 Q142.1246,116.6875 142.6871,116.9844 L142.6871,119.7031 Q142.0621,119.125 141.4683,118.8594 Q140.8746,118.5781 140.2496,118.5781 Q138.9058,118.5781 138.2183,119.6563 Q137.5308,120.7188 137.5308,122.8125 Q137.5308,124.9063 138.2183,125.9844 Q138.9058,127.0469 140.2496,127.0469 Q140.8746,127.0469 141.4683,126.7813 Q142.0621,126.5 142.6871,125.9219 L142.6871,128.6406 Z "/><text fill="#000000" font-family="sans-serif" font-size="12" lengthAdjust="spacingAndGlyphs" textLength="61" x="160.2183" y="127.1543">Xsoftware</text><line style="stroke: #A80036; stroke-width: 1.5;" x1="21.9683" x2="326.9683" y1="139" y2="139"/><ellipse cx="31.9683" cy="150" fill="none" rx="3" ry="3" style="stroke: #038048; stroke-width: 1.0;"/><text fill="#000000" font-family="sans-serif" font-size="11" lengthAdjust="spacingAndGlyphs" textLength="57" x="40.9683" y="153.2104">name: Str</text><ellipse cx="31.9683" cy="162.8047" fill="none" rx="3" ry="3" style="stroke: #038048; stroke-width: 1.0;"/><text fill="#000000" font-family="sans-serif" font-size="11" lengthAdjust="spacingAndGlyphs" textLength="42" x="40.9683" y="166.0151">f: Open</text><line style="stroke: #A80036; stroke-width: 1.5;" x1="21.9683" x2="326.9683" y1="172.6094" y2="172.6094"/><rect fill="#F24D5C" height="6" style="stroke: #C82930; stroke-width: 1.0;" width="6" x="28.9683" y="180.6094"/><text fill="#000000" font-family="sans-serif" font-size="11" lengthAdjust="spacingAndGlyphs" textLength="70" x="40.9683" y="186.8198">__init__(self)</text><rect fill="#F24D5C" height="6" style="stroke: #C82930; stroke-width: 1.0;" width="6" x="28.9683" y="193.4141"/><text fill="#000000" font-family="sans-serif" font-size="11" lengthAdjust="spacingAndGlyphs" textLength="83" x="40.9683" y="199.6245">__enter__(self)</text><rect fill="#F24D5C" height="6" style="stroke: #C82930; stroke-width: 1.0;" width="6" x="28.9683" y="206.2188"/><text fill="#000000" font-family="sans-serif" font-size="11" lengthAdjust="spacingAndGlyphs" textLength="281" x="40.9683" y="212.4292">__exit__(self, exc_type, exc_value, exc_traceback)</text><ellipse cx="31.9683" cy="222.0234" fill="#84BE84" rx="3" ry="3" style="stroke: #038048; stroke-width: 1.0;"/><text fill="#000000" font-family="sans-serif" font-size="11" lengthAdjust="spacingAndGlyphs" textLength="111" x="40.9683" y="225.2339">run(self, argument)</text><ellipse cx="31.9683" cy="234.8281" fill="#84BE84" rx="3" ry="3" style="stroke: #038048; stroke-width: 1.0;"/><text fill="#000000" font-family="sans-serif" font-size="11" lengthAdjust="spacingAndGlyphs" textLength="122" x="40.9683" y="238.0386">run_array(self, array)</text><!--MD5=[de9f1b0669f1b04c62e8b4e897d712da]
class Xfoil--><rect codeLine="32" fill="#FEFECE" filter="url(#f8ldyxua81z5l)" height="137.6328" id="Xfoil" style="stroke: #A80036; stroke-width: 1.5;" width="277" x="108.9683" y="787"/><ellipse cx="230.7183" cy="803" fill="#ADD1B2" rx="11" ry="11" style="stroke: #A80036; stroke-width: 1.0;"/><path d="M233.6871,808.6406 Q233.1089,808.9375 232.4683,809.0781 Q231.8277,809.2344 231.1246,809.2344 Q228.6246,809.2344 227.2964,807.5938 Q225.9839,805.9375 225.9839,802.8125 Q225.9839,799.6875 227.2964,798.0313 Q228.6246,796.375 231.1246,796.375 Q231.8277,796.375 232.4683,796.5313 Q233.1246,796.6875 233.6871,796.9844 L233.6871,799.7031 Q233.0621,799.125 232.4683,798.8594 Q231.8746,798.5781 231.2496,798.5781 Q229.9058,798.5781 229.2183,799.6563 Q228.5308,800.7188 228.5308,802.8125 Q228.5308,804.9063 229.2183,805.9844 Q229.9058,807.0469 231.2496,807.0469 Q231.8746,807.0469 232.4683,806.7813 Q233.0621,806.5 233.6871,805.9219 L233.6871,808.6406 Z "/><text fill="#000000" font-family="sans-serif" font-size="12" lengthAdjust="spacingAndGlyphs" textLength="25" x="251.2183" y="807.1543">Xfoil</text><line style="stroke: #A80036; stroke-width: 1.5;" x1="109.9683" x2="384.9683" y1="819" y2="819"/><ellipse cx="119.9683" cy="830" fill="none" rx="3" ry="3" style="stroke: #038048; stroke-width: 1.0;"/><text fill="#000000" font-family="sans-serif" font-size="11" lengthAdjust="spacingAndGlyphs" textLength="76" x="128.9683" y="833.2104">input_file: Str</text><ellipse cx="119.9683" cy="842.8047" fill="none" rx="3" ry="3" style="stroke: #038048; stroke-width: 1.0;"/><text fill="#000000" font-family="sans-serif" font-size="11" lengthAdjust="spacingAndGlyphs" textLength="57" x="128.9683" y="846.0151">name: Str</text><rect fill="none" height="6" style="stroke: #C82930; stroke-width: 1.0;" width="6" x="116.9683" y="852.6094"/><text fill="#000000" font-family="sans-serif" font-size="11" lengthAdjust="spacingAndGlyphs" textLength="69" x="128.9683" y="858.8198">__mode: Str</text><line style="stroke: #A80036; stroke-width: 1.5;" x1="109.9683" x2="384.9683" y1="865.4141" y2="865.4141"/><rect fill="#F24D5C" height="6" style="stroke: #C82930; stroke-width: 1.0;" width="6" x="116.9683" y="873.4141"/><text fill="#000000" font-family="sans-serif" font-size="11" lengthAdjust="spacingAndGlyphs" textLength="174" x="128.9683" y="879.6245">__init__(self, mode='hide': Str)</text><ellipse cx="119.9683" cy="889.2188" fill="#84BE84" rx="3" ry="3" style="stroke: #038048; stroke-width: 1.0;"/><text fill="#000000" font-family="sans-serif" font-size="11" lengthAdjust="spacingAndGlyphs" text-decoration="underline" textLength="251" x="128.9683" y="892.4292">read_coordinates(filename: Str): DataFrame</text><ellipse cx="119.9683" cy="902.0234" fill="#84BE84" rx="3" ry="3" style="stroke: #038048; stroke-width: 1.0;"/><text fill="#000000" font-family="sans-serif" font-size="11" lengthAdjust="spacingAndGlyphs" text-decoration="underline" textLength="228" x="128.9683" y="905.2339">read_cp_vs_x(filename: Str): DataFrame</text><ellipse cx="119.9683" cy="914.8281" fill="#84BE84" rx="3" ry="3" style="stroke: #038048; stroke-width: 1.0;"/><text fill="#000000" font-family="sans-serif" font-size="11" lengthAdjust="spacingAndGlyphs" text-decoration="underline" textLength="213" x="128.9683" y="918.0386">read_polar(filename: Str): DataFrame</text><!--MD5=[b98970b5d7fbe7870a87f8ac0faf8db4]
class Xrotor--><rect codeLine="42" fill="#FEFECE" filter="url(#f8ldyxua81z5l)" height="176.0469" id="Xrotor" style="stroke: #A80036; stroke-width: 1.5;" width="439" x="91.9683" y="478"/><ellipse cx="288.2183" cy="494" fill="#ADD1B2" rx="11" ry="11" style="stroke: #A80036; stroke-width: 1.0;"/><path d="M291.1871,499.6406 Q290.6089,499.9375 289.9683,500.0781 Q289.3277,500.2344 288.6246,500.2344 Q286.1246,500.2344 284.7964,498.5938 Q283.4839,496.9375 283.4839,493.8125 Q283.4839,490.6875 284.7964,489.0313 Q286.1246,487.375 288.6246,487.375 Q289.3277,487.375 289.9683,487.5313 Q290.6246,487.6875 291.1871,487.9844 L291.1871,490.7031 Q290.5621,490.125 289.9683,489.8594 Q289.3746,489.5781 288.7496,489.5781 Q287.4058,489.5781 286.7183,490.6563 Q286.0308,491.7188 286.0308,493.8125 Q286.0308,495.9063 286.7183,496.9844 Q287.4058,498.0469 288.7496,498.0469 Q289.3746,498.0469 289.9683,497.7813 Q290.5621,497.5 291.1871,496.9219 L291.1871,499.6406 Z "/><text fill="#000000" font-family="sans-serif" font-size="12" lengthAdjust="spacingAndGlyphs" textLength="38" x="308.7183" y="498.1543">Xrotor</text><line style="stroke: #A80036; stroke-width: 1.5;" x1="92.9683" x2="529.9683" y1="510" y2="510"/><ellipse cx="102.9683" cy="521" fill="none" rx="3" ry="3" style="stroke: #038048; stroke-width: 1.0;"/><text fill="#000000" font-family="sans-serif" font-size="11" lengthAdjust="spacingAndGlyphs" textLength="76" x="111.9683" y="524.2104">input_file: Str</text><ellipse cx="102.9683" cy="533.8047" fill="none" rx="3" ry="3" style="stroke: #038048; stroke-width: 1.0;"/><text fill="#000000" font-family="sans-serif" font-size="11" lengthAdjust="spacingAndGlyphs" textLength="57" x="111.9683" y="537.0151">name: Str</text><rect fill="none" height="6" style="stroke: #C82930; stroke-width: 1.0;" width="6" x="99.9683" y="543.6094"/><text fill="#000000" font-family="sans-serif" font-size="11" lengthAdjust="spacingAndGlyphs" textLength="125" x="111.9683" y="549.8198">__loadcase: Loadcase</text><rect fill="none" height="6" style="stroke: #C82930; stroke-width: 1.0;" width="6" x="99.9683" y="556.4141"/><text fill="#000000" font-family="sans-serif" font-size="11" lengthAdjust="spacingAndGlyphs" textLength="69" x="111.9683" y="562.6245">__mode: Str</text><rect fill="none" height="6" style="stroke: #C82930; stroke-width: 1.0;" width="6" x="99.9683" y="569.2188"/><text fill="#000000" font-family="sans-serif" font-size="11" lengthAdjust="spacingAndGlyphs" textLength="122" x="111.9683" y="575.4292">__propeller: Propeller</text><line style="stroke: #A80036; stroke-width: 1.0;" x1="92.9683" x2="529.9683" y1="582.0234" y2="582.0234"/><rect fill="#F24D5C" height="6" style="stroke: #C82930; stroke-width: 1.0;" width="6" x="99.9683" y="590.0234"/><text fill="#000000" font-family="sans-serif" font-size="11" lengthAdjust="spacingAndGlyphs" textLength="413" x="111.9683" y="596.2339">__init__(self, propeller: Propeller, loadcase: Loadcase, mode='hide': Str)</text><ellipse cx="102.9683" cy="605.8281" fill="#84BE84" rx="3" ry="3" style="stroke: #038048; stroke-width: 1.0;"/><text fill="#000000" font-family="sans-serif" font-size="11" lengthAdjust="spacingAndGlyphs" textLength="51" x="111.9683" y="609.0386">arbi(self)</text><ellipse cx="102.9683" cy="618.6328" fill="#84BE84" rx="3" ry="3" style="stroke: #038048; stroke-width: 1.0;"/><text fill="#000000" font-family="sans-serif" font-size="11" lengthAdjust="spacingAndGlyphs" textLength="107" x="111.9683" y="621.8433">parse_airfoils(self)</text><ellipse cx="102.9683" cy="631.4375" fill="#84BE84" rx="3" ry="3" style="stroke: #038048; stroke-width: 1.0;"/><text fill="#000000" font-family="sans-serif" font-size="11" lengthAdjust="spacingAndGlyphs" text-decoration="underline" textLength="254" x="111.9683" y="634.6479">read_bend_output(filename: Str): DataFrame</text><ellipse cx="102.9683" cy="644.2422" fill="#84BE84" rx="3" ry="3" style="stroke: #038048; stroke-width: 1.0;"/><text fill="#000000" font-family="sans-serif" font-size="11" lengthAdjust="spacingAndGlyphs" text-decoration="underline" textLength="252" x="111.9683" y="647.4526">read_oper_output(filename: Str): DataFrame</text><!--MD5=[432a26014d6806de21f9dcededb4ca89]
class Airfoil--><rect codeLine="56" fill="#FEFECE" filter="url(#f8ldyxua81z5l)" height="286.4844" id="Airfoil" style="stroke: #A80036; stroke-width: 1.5;" width="500" x="566.2183" y="423"/><ellipse cx="794.9683" cy="439" fill="#ADD1B2" rx="11" ry="11" style="stroke: #A80036; stroke-width: 1.0;"/><path d="M797.9371,444.6406 Q797.3589,444.9375 796.7183,445.0781 Q796.0777,445.2344 795.3746,445.2344 Q792.8746,445.2344 791.5464,443.5938 Q790.2339,441.9375 790.2339,438.8125 Q790.2339,435.6875 791.5464,434.0313 Q792.8746,432.375 795.3746,432.375 Q796.0777,432.375 796.7183,432.5313 Q797.3746,432.6875 797.9371,432.9844 L797.9371,435.7031 Q797.3121,435.125 796.7183,434.8594 Q796.1246,434.5781 795.4996,434.5781 Q794.1558,434.5781 793.4683,435.6563 Q792.7808,436.7188 792.7808,438.8125 Q792.7808,440.9063 793.4683,441.9844 Q794.1558,443.0469 795.4996,443.0469 Q796.1246,443.0469 796.7183,442.7813 Q797.3121,442.5 797.9371,441.9219 L797.9371,444.6406 Z "/><text fill="#000000" font-family="sans-serif" font-size="12" lengthAdjust="spacingAndGlyphs" textLength="34" x="815.4683" y="443.1543">Airfoil</text><line style="stroke: #A80036; stroke-width: 1.5;" x1="567.2183" x2="1065.2183" y1="455" y2="455"/><rect fill="none" height="6" style="stroke: #C82930; stroke-width: 1.0;" width="6" x="574.2183" y="463"/><text fill="#000000" font-family="sans-serif" font-size="11" lengthAdjust="spacingAndGlyphs" textLength="149" x="586.2183" y="469.2104">__coordinates: DataFrame</text><rect fill="none" height="6" style="stroke: #C82930; stroke-width: 1.0;" width="6" x="574.2183" y="475.8047"/><text fill="#000000" font-family="sans-serif" font-size="11" lengthAdjust="spacingAndGlyphs" textLength="108" x="586.2183" y="482.0151">__parameters: Dict</text><rect fill="none" height="6" style="stroke: #C82930; stroke-width: 1.0;" width="6" x="574.2183" y="488.6094"/><text fill="#000000" font-family="sans-serif" font-size="11" lengthAdjust="spacingAndGlyphs" textLength="111" x="586.2183" y="494.8198">__polar: DataFrame</text><rect fill="none" height="6" style="stroke: #C82930; stroke-width: 1.0;" width="6" x="574.2183" y="501.4141"/><text fill="#000000" font-family="sans-serif" font-size="11" lengthAdjust="spacingAndGlyphs" textLength="165" x="586.2183" y="507.6245">__xrotor_characteristics: Dict</text><line style="stroke: #A80036; stroke-width: 1.0;" x1="567.2183" x2="1065.2183" y1="514.2188" y2="514.2188"/><rect fill="#F24D5C" height="6" style="stroke: #C82930; stroke-width: 1.0;" width="6" x="574.2183" y="522.2188"/><text fill="#000000" font-family="sans-serif" font-size="11" lengthAdjust="spacingAndGlyphs" textLength="398" x="586.2183" y="528.4292">__init__(self, airfoil_filename: Str, Re: Float, Ncrit=9: Int, Iter=200: Int)</text><rect fill="#F24D5C" height="6" style="stroke: #C82930; stroke-width: 1.0;" width="6" x="574.2183" y="535.0234"/><text fill="#000000" font-family="sans-serif" font-size="11" lengthAdjust="spacingAndGlyphs" text-decoration="underline" textLength="259" x="586.2183" y="541.2339">__fit_cl_alpha__(self, x, x0, x1, a3, b1, b3, c2)</text><rect fill="#F24D5C" height="6" style="stroke: #C82930; stroke-width: 1.0;" width="6" x="574.2183" y="547.8281"/><text fill="#000000" font-family="sans-serif" font-size="11" lengthAdjust="spacingAndGlyphs" textLength="102" x="586.2183" y="554.0386">__repr__(self): Str</text><ellipse cx="577.2183" cy="563.6328" fill="#84BE84" rx="3" ry="3" style="stroke: #038048; stroke-width: 1.0;"/><text fill="#000000" font-family="sans-serif" font-size="11" lengthAdjust="spacingAndGlyphs" textLength="281" x="586.2183" y="566.8433">cp_vs_x(self, mode: Str, value: Float): DataFrame</text><ellipse cx="577.2183" cy="576.4375" fill="#84BE84" rx="3" ry="3" style="stroke: #038048; stroke-width: 1.0;"/><text fill="#000000" font-family="sans-serif" font-size="11" lengthAdjust="spacingAndGlyphs" text-decoration="underline" textLength="473" x="586.2183" y="579.6479">interpolate(airfoil1: Airfoil, airfoil2: Airfoil, fraction_of_2nd_airfoil: Float): DataFrame</text><ellipse cx="577.2183" cy="606.0469" fill="#84BE84" rx="3" ry="3" style="stroke: #038048; stroke-width: 1.0;"/><text fill="#000000" font-family="sans-serif" font-size="11" lengthAdjust="spacingAndGlyphs" textLength="166" x="586.2183" y="609.2573">coordinates(self): DataFrame</text><ellipse cx="577.2183" cy="618.8516" fill="#84BE84" rx="3" ry="3" style="stroke: #038048; stroke-width: 1.0;"/><text fill="#000000" font-family="sans-serif" font-size="11" lengthAdjust="spacingAndGlyphs" textLength="125" x="586.2183" y="622.062">parameters(self): Dict</text><ellipse cx="577.2183" cy="631.6563" fill="#84BE84" rx="3" ry="3" style="stroke: #038048; stroke-width: 1.0;"/><text fill="#000000" font-family="sans-serif" font-size="11" lengthAdjust="spacingAndGlyphs" textLength="128" x="586.2183" y="634.8667">polar(self): DataFrame</text><ellipse cx="577.2183" cy="644.4609" fill="#84BE84" rx="3" ry="3" style="stroke: #038048; stroke-width: 1.0;"/><text fill="#000000" font-family="sans-serif" font-size="11" lengthAdjust="spacingAndGlyphs" textLength="182" x="586.2183" y="647.6714">xrotor_characteristics(self): Dict</text><line style="stroke: #A80036; stroke-width: 1.0; stroke-dasharray: 1.0,2.0;" x1="567.2183" x2="798.2183" y1="592.6445" y2="592.6445"/><text fill="#000000" font-family="sans-serif" font-size="11" lengthAdjust="spacingAndGlyphs" textLength="36" x="798.2183" y="595.9526">Getter</text><line style="stroke: #A80036; stroke-width: 1.0; stroke-dasharray: 1.0,2.0;" x1="834.2183" x2="1065.2183" y1="592.6445" y2="592.6445"/><ellipse cx="577.2183" cy="674.0703" fill="#84BE84" rx="3" ry="3" style="stroke: #038048; stroke-width: 1.0;"/><text fill="#000000" font-family="sans-serif" font-size="11" lengthAdjust="spacingAndGlyphs" textLength="278" x="586.2183" y="677.2808">coordinates(self, coordinates: Str or DataFrame)</text><ellipse cx="577.2183" cy="686.875" fill="#84BE84" rx="3" ry="3" style="stroke: #038048; stroke-width: 1.0;"/><text fill="#000000" font-family="sans-serif" font-size="11" lengthAdjust="spacingAndGlyphs" textLength="474" x="586.2183" y="690.0854">set_polar(self, alpha_start=-20: Float, alpha_stop=20: Float, alpha_inc=0.25: Float)</text><ellipse cx="577.2183" cy="699.6797" fill="#84BE84" rx="3" ry="3" style="stroke: #038048; stroke-width: 1.0;"/><text fill="#000000" font-family="sans-serif" font-size="11" lengthAdjust="spacingAndGlyphs" textLength="274" x="586.2183" y="702.8901">xrotor_characteristics(self, characteristics: Dict)</text><line style="stroke: #A80036; stroke-width: 1.0; stroke-dasharray: 1.0,2.0;" x1="567.2183" x2="798.7183" y1="660.668" y2="660.668"/><text fill="#000000" font-family="sans-serif" font-size="11" lengthAdjust="spacingAndGlyphs" textLength="35" x="798.7183" y="663.9761">Setter</text><line style="stroke: #A80036; stroke-width: 1.0; stroke-dasharray: 1.0,2.0;" x1="833.7183" x2="1065.2183" y1="660.668" y2="660.668"/><!--MD5=[b0a93aebd65bb3468015f36161c68501]
class Propeller--><rect codeLine="78" fill="#FEFECE" filter="url(#f8ldyxua81z5l)" height="337.7031" id="Propeller" style="stroke: #A80036; stroke-width: 1.5;" width="436" x="598.2183" y="7"/><ellipse cx="783.9683" cy="23" fill="#ADD1B2" rx="11" ry="11" style="stroke: #A80036; stroke-width: 1.0;"/><path d="M786.9371,28.6406 Q786.3589,28.9375 785.7183,29.0781 Q785.0777,29.2344 784.3746,29.2344 Q781.8746,29.2344 780.5464,27.5938 Q779.2339,25.9375 779.2339,22.8125 Q779.2339,19.6875 780.5464,18.0313 Q781.8746,16.375 784.3746,16.375 Q785.0777,16.375 785.7183,16.5313 Q786.3746,16.6875 786.9371,16.9844 L786.9371,19.7031 Q786.3121,19.125 785.7183,18.8594 Q785.1246,18.5781 784.4996,18.5781 Q783.1558,18.5781 782.4683,19.6563 Q781.7808,20.7188 781.7808,22.8125 Q781.7808,24.9063 782.4683,25.9844 Q783.1558,27.0469 784.4996,27.0469 Q785.1246,27.0469 785.7183,26.7813 Q786.3121,26.5 786.9371,25.9219 L786.9371,28.6406 Z "/><text fill="#000000" font-family="sans-serif" font-size="12" lengthAdjust="spacingAndGlyphs" textLength="56" x="804.4683" y="27.1543">Propeller</text><line style="stroke: #A80036; stroke-width: 1.5;" x1="599.2183" x2="1033.2183" y1="39" y2="39"/><rect fill="none" height="6" style="stroke: #C82930; stroke-width: 1.0;" width="6" x="606.2183" y="47"/><text fill="#000000" font-family="sans-serif" font-size="11" lengthAdjust="spacingAndGlyphs" textLength="108" x="618.2183" y="53.2104">__parameters: Dict</text><rect fill="none" height="6" style="stroke: #C82930; stroke-width: 1.0;" width="6" x="606.2183" y="59.8047"/><text fill="#000000" font-family="sans-serif" font-size="11" lengthAdjust="spacingAndGlyphs" textLength="99" x="618.2183" y="66.0151">__loadcases: Dict</text><rect fill="none" height="6" style="stroke: #C82930; stroke-width: 1.0;" width="6" x="606.2183" y="72.6094"/><text fill="#000000" font-family="sans-serif" font-size="11" lengthAdjust="spacingAndGlyphs" textLength="122" x="618.2183" y="78.8198">__load_envelope: Dict</text><rect fill="none" height="6" style="stroke: #C82930; stroke-width: 1.0;" width="6" x="606.2183" y="85.4141"/><text fill="#000000" font-family="sans-serif" font-size="11" lengthAdjust="spacingAndGlyphs" textLength="94" x="618.2183" y="91.6245">__geometry: List</text><rect fill="none" height="6" style="stroke: #C82930; stroke-width: 1.0;" width="6" x="606.2183" y="98.2188"/><text fill="#000000" font-family="sans-serif" font-size="11" lengthAdjust="spacingAndGlyphs" textLength="88" x="618.2183" y="104.4292">__sections: List</text><line style="stroke: #A80036; stroke-width: 1.0;" x1="599.2183" x2="1033.2183" y1="111.0234" y2="111.0234"/><rect fill="#F24D5C" height="6" style="stroke: #C82930; stroke-width: 1.0;" width="6" x="606.2183" y="119.0234"/><text fill="#000000" font-family="sans-serif" font-size="11" lengthAdjust="spacingAndGlyphs" textLength="410" x="618.2183" y="125.2339">__init__(self, number_of_blades: Int, tip_radius: Float, hub_radius: Float)</text><rect fill="#F24D5C" height="6" style="stroke: #C82930; stroke-width: 1.0;" width="6" x="606.2183" y="131.8281"/><text fill="#000000" font-family="sans-serif" font-size="11" lengthAdjust="spacingAndGlyphs" textLength="102" x="618.2183" y="138.0386">__repr__(self): Str</text><ellipse cx="609.2183" cy="147.6328" fill="#84BE84" rx="3" ry="3" style="stroke: #038048; stroke-width: 1.0;"/><text fill="#000000" font-family="sans-serif" font-size="11" lengthAdjust="spacingAndGlyphs" textLength="88" x="618.2183" y="150.8433">calc_loads(self)</text><ellipse cx="609.2183" cy="160.4375" fill="#84BE84" rx="3" ry="3" style="stroke: #038048; stroke-width: 1.0;"/><text fill="#000000" font-family="sans-serif" font-size="11" lengthAdjust="spacingAndGlyphs" textLength="328" x="618.2183" y="163.6479">pressure_distribution(self, loadcase: Loadcase): np.array</text><ellipse cx="609.2183" cy="190.0469" fill="#84BE84" rx="3" ry="3" style="stroke: #038048; stroke-width: 1.0;"/><text fill="#000000" font-family="sans-serif" font-size="11" lengthAdjust="spacingAndGlyphs" textLength="111" x="618.2183" y="193.2573">geometry(self): List</text><ellipse cx="609.2183" cy="202.8516" fill="#84BE84" rx="3" ry="3" style="stroke: #038048; stroke-width: 1.0;"/><text fill="#000000" font-family="sans-serif" font-size="11" lengthAdjust="spacingAndGlyphs" textLength="116" x="618.2183" y="206.062">loadcases(self): Dict</text><ellipse cx="609.2183" cy="215.6563" fill="#84BE84" rx="3" ry="3" style="stroke: #038048; stroke-width: 1.0;"/><text fill="#000000" font-family="sans-serif" font-size="11" lengthAdjust="spacingAndGlyphs" textLength="139" x="618.2183" y="218.8667">load_envelope(self): Dict</text><ellipse cx="609.2183" cy="228.4609" fill="#84BE84" rx="3" ry="3" style="stroke: #038048; stroke-width: 1.0;"/><text fill="#000000" font-family="sans-serif" font-size="11" lengthAdjust="spacingAndGlyphs" textLength="125" x="618.2183" y="231.6714">parameters(self): Dict</text><ellipse cx="609.2183" cy="241.2656" fill="#84BE84" rx="3" ry="3" style="stroke: #038048; stroke-width: 1.0;"/><text fill="#000000" font-family="sans-serif" font-size="11" lengthAdjust="spacingAndGlyphs" textLength="105" x="618.2183" y="244.4761">sections(self): List</text><line style="stroke: #A80036; stroke-width: 1.0; stroke-dasharray: 1.0,2.0;" x1="599.2183" x2="798.2183" y1="176.6445" y2="176.6445"/><text fill="#000000" font-family="sans-serif" font-size="11" lengthAdjust="spacingAndGlyphs" textLength="36" x="798.2183" y="179.9526">Getter</text><line style="stroke: #A80036; stroke-width: 1.0; stroke-dasharray: 1.0,2.0;" x1="834.2183" x2="1033.2183" y1="176.6445" y2="176.6445"/><ellipse cx="609.2183" cy="270.875" fill="#84BE84" rx="3" ry="3" style="stroke: #038048; stroke-width: 1.0;"/><text fill="#000000" font-family="sans-serif" font-size="11" lengthAdjust="spacingAndGlyphs" textLength="293" x="618.2183" y="274.0854">add_loadcase(self, name: Str, loadcase: Loadcase)</text><ellipse cx="609.2183" cy="283.6797" fill="#84BE84" rx="3" ry="3" style="stroke: #038048; stroke-width: 1.0;"/><text fill="#000000" font-family="sans-serif" font-size="11" lengthAdjust="spacingAndGlyphs" textLength="232" x="618.2183" y="286.8901">add_section(self, rR: Float, airfoil: Airfoil)</text><ellipse cx="609.2183" cy="296.4844" fill="#84BE84" rx="3" ry="3" style="stroke: #038048; stroke-width: 1.0;"/><text fill="#000000" font-family="sans-serif" font-size="11" lengthAdjust="spacingAndGlyphs" textLength="217" x="618.2183" y="299.6948">geometry(self, array: List or np.array)</text><ellipse cx="609.2183" cy="309.2891" fill="#84BE84" rx="3" ry="3" style="stroke: #038048; stroke-width: 1.0;"/><text fill="#000000" font-family="sans-serif" font-size="11" lengthAdjust="spacingAndGlyphs" textLength="200" x="618.2183" y="312.4995">parameters(self, parameters: Dict)</text><ellipse cx="609.2183" cy="322.0938" fill="#84BE84" rx="3" ry="3" style="stroke: #038048; stroke-width: 1.0;"/><text fill="#000000" font-family="sans-serif" font-size="11" lengthAdjust="spacingAndGlyphs" textLength="134" x="618.2183" y="325.3042">set_load_envelope(self)</text><text fill="#000000" font-family="sans-serif" font-size="11" lengthAdjust="spacingAndGlyphs" textLength="0" x="622.2183" y="338.1089"/><line style="stroke: #A80036; stroke-width: 1.0; stroke-dasharray: 1.0,2.0;" x1="599.2183" x2="798.7183" y1="257.4727" y2="257.4727"/><text fill="#000000" font-family="sans-serif" font-size="11" lengthAdjust="spacingAndGlyphs" textLength="35" x="798.7183" y="260.7808">Setter</text><line style="stroke: #A80036; stroke-width: 1.0; stroke-dasharray: 1.0,2.0;" x1="833.7183" x2="1033.2183" y1="257.4727" y2="257.4727"/><!--MD5=[b6942295d4995444148e641b385ccc5b]
class Loadcase--><rect codeLine="103" fill="#FEFECE" filter="url(#f8ldyxua81z5l)" height="235.2656" id="Loadcase" style="stroke: #A80036; stroke-width: 1.5;" width="496" x="1101.2183" y="448.5"/><ellipse cx="1314.9683" cy="464.5" fill="#ADD1B2" rx="11" ry="11" style="stroke: #A80036; stroke-width: 1.0;"/><path d="M1317.9371,470.1406 Q1317.3589,470.4375 1316.7183,470.5781 Q1316.0777,470.7344 1315.3746,470.7344 Q1312.8746,470.7344 1311.5464,469.0938 Q1310.2339,467.4375 1310.2339,464.3125 Q1310.2339,461.1875 1311.5464,459.5313 Q1312.8746,457.875 1315.3746,457.875 Q1316.0777,457.875 1316.7183,458.0313 Q1317.3746,458.1875 1317.9371,458.4844 L1317.9371,461.2031 Q1317.3121,460.625 1316.7183,460.3594 Q1316.1246,460.0781 1315.4996,460.0781 Q1314.1558,460.0781 1313.4683,461.1563 Q1312.7808,462.2188 1312.7808,464.3125 Q1312.7808,466.4063 1313.4683,467.4844 Q1314.1558,468.5469 1315.4996,468.5469 Q1316.1246,468.5469 1316.7183,468.2813 Q1317.3121,468 1317.9371,467.4219 L1317.9371,470.1406 Z "/><text fill="#000000" font-family="sans-serif" font-size="12" lengthAdjust="spacingAndGlyphs" textLength="60" x="1335.4683" y="468.6543">Loadcase</text><line style="stroke: #A80036; stroke-width: 1.5;" x1="1102.2183" x2="1596.2183" y1="480.5" y2="480.5"/><rect fill="none" height="6" style="stroke: #C82930; stroke-width: 1.0;" width="6" x="1109.2183" y="488.5"/><text fill="#000000" font-family="sans-serif" font-size="11" lengthAdjust="spacingAndGlyphs" textLength="74" x="1121.2183" y="494.7104">__data = List</text><rect fill="none" height="6" style="stroke: #C82930; stroke-width: 1.0;" width="6" x="1109.2183" y="501.3047"/><text fill="#000000" font-family="sans-serif" font-size="11" lengthAdjust="spacingAndGlyphs" textLength="116" x="1121.2183" y="507.5151">__flight_speed: Float</text><rect fill="none" height="6" style="stroke: #C82930; stroke-width: 1.0;" width="6" x="1109.2183" y="514.1094"/><text fill="#000000" font-family="sans-serif" font-size="11" lengthAdjust="spacingAndGlyphs" textLength="69" x="1121.2183" y="520.3198">__name: Str</text><line style="stroke: #A80036; stroke-width: 1.0;" x1="1102.2183" x2="1596.2183" y1="526.9141" y2="526.9141"/><rect fill="#F24D5C" height="6" style="stroke: #C82930; stroke-width: 1.0;" width="6" x="1109.2183" y="534.9141"/><text fill="#000000" font-family="sans-serif" font-size="11" lengthAdjust="spacingAndGlyphs" textLength="247" x="1121.2183" y="541.1245">__init__(self, name: Str, flight_speed: Float)</text><rect fill="#F24D5C" height="6" style="stroke: #C82930; stroke-width: 1.0;" width="6" x="1109.2183" y="547.7188"/><text fill="#000000" font-family="sans-serif" font-size="11" lengthAdjust="spacingAndGlyphs" textLength="102" x="1121.2183" y="553.9292">__repr__(self): Str</text><ellipse cx="1112.2183" cy="580.3281" fill="#84BE84" rx="3" ry="3" style="stroke: #038048; stroke-width: 1.0;"/><text fill="#000000" font-family="sans-serif" font-size="11" lengthAdjust="spacingAndGlyphs" textLength="82" x="1121.2183" y="583.5386">data(self): List</text><ellipse cx="1112.2183" cy="593.1328" fill="#84BE84" rx="3" ry="3" style="stroke: #038048; stroke-width: 1.0;"/><text fill="#000000" font-family="sans-serif" font-size="11" lengthAdjust="spacingAndGlyphs" textLength="133" x="1121.2183" y="596.3433">flight_speed(self): Float</text><ellipse cx="1112.2183" cy="605.9375" fill="#84BE84" rx="3" ry="3" style="stroke: #038048; stroke-width: 1.0;"/><text fill="#000000" font-family="sans-serif" font-size="11" lengthAdjust="spacingAndGlyphs" textLength="86" x="1121.2183" y="609.1479">name(self): Str</text><ellipse cx="1112.2183" cy="618.7422" fill="#84BE84" rx="3" ry="3" style="stroke: #038048; stroke-width: 1.0;"/><text fill="#000000" font-family="sans-serif" font-size="11" lengthAdjust="spacingAndGlyphs" textLength="209" x="1121.2183" y="621.9526">results(self): DataFrame, DataFrame</text><line style="stroke: #A80036; stroke-width: 1.0; stroke-dasharray: 1.0,2.0;" x1="1102.2183" x2="1331.2183" y1="566.9258" y2="566.9258"/><text fill="#000000" font-family="sans-serif" font-size="11" lengthAdjust="spacingAndGlyphs" textLength="36" x="1331.2183" y="570.2339">Getter</text><line style="stroke: #A80036; stroke-width: 1.0; stroke-dasharray: 1.0,2.0;" x1="1367.2183" x2="1596.2183" y1="566.9258" y2="566.9258"/><ellipse cx="1112.2183" cy="648.3516" fill="#84BE84" rx="3" ry="3" style="stroke: #038048; stroke-width: 1.0;"/><text fill="#000000" font-family="sans-serif" font-size="11" lengthAdjust="spacingAndGlyphs" textLength="210" x="1121.2183" y="651.562">flight_speed(self, flight_speed: Float)</text><ellipse cx="1112.2183" cy="661.1563" fill="#84BE84" rx="3" ry="3" style="stroke: #038048; stroke-width: 1.0;"/><text fill="#000000" font-family="sans-serif" font-size="11" lengthAdjust="spacingAndGlyphs" textLength="126" x="1121.2183" y="664.3667">name(self, name: Str)</text><ellipse cx="1112.2183" cy="673.9609" fill="#84BE84" rx="3" ry="3" style="stroke: #038048; stroke-width: 1.0;"/><text fill="#000000" font-family="sans-serif" font-size="11" lengthAdjust="spacingAndGlyphs" textLength="470" x="1121.2183" y="677.1714">set_data(self, prescribe_type: Str, value: Float, fix=None: Str, value2=None: Float)</text><line style="stroke: #A80036; stroke-width: 1.0; stroke-dasharray: 1.0,2.0;" x1="1102.2183" x2="1331.7183" y1="634.9492" y2="634.9492"/><text fill="#000000" font-family="sans-serif" font-size="11" lengthAdjust="spacingAndGlyphs" textLength="35" x="1331.7183" y="638.2573">Setter</text><line style="stroke: #A80036; stroke-width: 1.0; stroke-dasharray: 1.0,2.0;" x1="1366.7183" x2="1596.2183" y1="634.9492" y2="634.9492"/><!--MD5=[cb006b10550e40cbe910f03b1c13cc26]
reverse link Xsoftware to Xfoil--><path codeLine="3" d="M127.2443,263.36 C74.8914,372.019 6,562.164 74.2183,709 C88.2106,739.118 111.8144,765.26 137.1603,786.77 " fill="none" id="Xsoftware-backto-Xfoil" style="stroke: #A80036; stroke-width: 1.0;"/><polygon fill="none" points="121.0067,260.181,136.1343,245.344,133.5613,266.377,121.0067,260.181" style="stroke: #A80036; stroke-width: 1.0;"/><!--MD5=[69a732efceb5f56650e76bb8b3b61df4]
reverse link Xsoftware to Xrotor--><path codeLine="4" d="M204.9603,264.064 C227.4953,327.886 257.9593,414.164 280.4913,477.976 " fill="none" id="Xsoftware-backto-Xrotor" style="stroke: #A80036; stroke-width: 1.0;"/><polygon fill="none" points="198.2973,266.218,198.2383,245.028,211.4983,261.557,198.2973,266.218" style="stroke: #A80036; stroke-width: 1.0;"/><!--MD5=[3bfd7886d18eac15392946c0cb26e44f]
link Airfoil to Xfoil--><path codeLine="5" d="M561.6723,701.645 C556.8183,704.123 551.9963,706.577 547.2183,709 C496.4213,734.759 440.3873,762.27 390.6333,786.386 " fill="none" id="Airfoil-Xfoil" style="stroke: #A80036; stroke-width: 1.0; stroke-dasharray: 1.0,3.0;"/><polygon fill="#A80036" points="385.8383,788.709,395.6818,788.385,390.3381,786.5291,392.194,781.1854,385.8383,788.709" style="stroke: #A80036; stroke-width: 1.0;"/><polygon fill="#A80036" points="566.1393,699.362,556.3049,699.8947,561.6868,701.6369,559.9446,707.0188,566.1393,699.362" style="stroke: #A80036; stroke-width: 1.0;"/><text fill="#000000" font-family="sans-serif" font-size="13" lengthAdjust="spacingAndGlyphs" textLength="30" x="483.2183" y="752.0669">uses</text><!--MD5=[698509272ce6ae0e161c0aeebfeeb3aa]
link Propeller to Xrotor--><path codeLine="6" d="M593.8163,347.875 C536.9493,391.567 478.0163,436.846 428.7783,474.677 " fill="none" id="Propeller-Xrotor" style="stroke: #A80036; stroke-width: 1.0; stroke-dasharray: 1.0,3.0;"/><polygon fill="#A80036" points="424.6483,477.85,434.2221,475.5388,428.6132,474.8038,429.3482,469.1949,424.6483,477.85" style="stroke: #A80036; stroke-width: 1.0;"/><polygon fill="#A80036" points="598.0223,344.644,588.4485,346.9552,594.0574,347.6902,593.3224,353.2991,598.0223,344.644" style="stroke: #A80036; stroke-width: 1.0;"/><text fill="#000000" font-family="sans-serif" font-size="13" lengthAdjust="spacingAndGlyphs" textLength="30" x="550.2183" y="388.0669">uses</text><!--MD5=[4bcdfd812b6a22662a0ddb1addf058ba]
reverse link Propeller to Airfoil--><path codeLine="7" d="M816.2183,358.297 C816.2183,379.968 816.2183,401.852 816.2183,422.859 " fill="none" id="Propeller-backto-Airfoil" style="stroke: #A80036; stroke-width: 1.0;"/><polygon fill="#FFFFFF" points="816.2183,345.208,812.2183,351.208,816.2183,357.208,820.2183,351.208,816.2183,345.208" style="stroke: #A80036; stroke-width: 1.0;"/><text fill="#000000" font-family="sans-serif" font-size="13" lengthAdjust="spacingAndGlyphs" textLength="8" x="807.0074" y="364.7388">1</text><text fill="#000000" font-family="sans-serif" font-size="13" lengthAdjust="spacingAndGlyphs" textLength="23" x="791.6519" y="412.0467">1..*</text><!--MD5=[423eff011b7f80488028cccd7ff48d91]
reverse link Propeller to Loadcase--><path codeLine="8" d="M1045.1883,343.683 C1093.6883,378.985 1143.8783,415.518 1189.1583,448.48 " fill="none" id="Propeller-backto-Loadcase" style="stroke: #A80036; stroke-width: 1.0;"/><polygon fill="#FFFFFF" points="1034.5483,335.934,1037.0423,342.7001,1044.2472,343.0002,1041.7532,336.2341,1034.5483,335.934" style="stroke: #A80036; stroke-width: 1.0;"/><text fill="#000000" font-family="sans-serif" font-size="13" lengthAdjust="spacingAndGlyphs" textLength="8" x="1042.5383" y="337.4508">1</text><text fill="#000000" font-family="sans-serif" font-size="13" lengthAdjust="spacingAndGlyphs" textLength="23" x="1155.1822" y="437.2575">1..*</text><!--MD5=[08f8730de2e2edaff743456db2132811]
@startuml
'skinparam monochrome true

Xsoftware <|- - Xfoil
Xsoftware <|- - Xrotor
Airfoil <-[dotted]-> Xfoil : uses
Propeller <-[dotted]-> Xrotor: uses
Propeller "1" o- - "1..*" Airfoil
Propeller "1" o- - "1..*" Loadcase


'note right of Airfoil::__repr__(self) 
'  Todo: implement
'end note
'note left of Propeller::set_load_envelope(self)
'  Todo: implement
'end note
'note "Todo: auf Benutzung von\nProperties ändern" as NProp

'NProp .. Loadcase
'NProp .. Propeller

class Xsoftware {
  +name: Str
  +f: Open
  -__init__(self)
  -__enter__(self)
  -__exit__(self, exc_type, exc_value, exc_traceback)
  +run(self, argument)
  +run_array(self, array)
}

class Xfoil {
  +input_file: Str
  +name: Str
  -__mode: Str
  -__init__(self, mode='hide': Str)
  +{static}read_coordinates(filename: Str): DataFrame
  +{static}read_cp_vs_x(filename: Str): DataFrame
  +{static}read_polar(filename: Str): DataFrame
}

class Xrotor {
  +input_file: Str
  +name: Str
  -__loadcase: Loadcase
  -__mode: Str
  -__propeller: Propeller
  - -
  -__init__(self, propeller: Propeller, loadcase: Loadcase, mode='hide': Str)
  +arbi(self)
  +parse_airfoils(self)
  +{static}read_bend_output(filename: Str): DataFrame
  +{static}read_oper_output(filename: Str): DataFrame
}

class Airfoil{
  -__coordinates: DataFrame
  -__parameters: Dict
  -__polar: DataFrame
  -__xrotor_characteristics: Dict
  - -
  -__init__(self, airfoil_filename: Str, Re: Float, Ncrit=9: Int, Iter=200: Int)
  -{static}__fit_cl_alpha__(self, x, x0, x1, a3, b1, b3, c2)
  -__repr__(self): Str
  +cp_vs_x(self, mode: Str, value: Float): DataFrame
  +{static}interpolate(airfoil1: Airfoil, airfoil2: Airfoil, fraction_of_2nd_airfoil: Float): DataFrame
  ..Getter..
  +coordinates(self): DataFrame
  +parameters(self): Dict
  +polar(self): DataFrame
  +xrotor_characteristics(self): Dict
  ..Setter..
  +coordinates(self, coordinates: Str or DataFrame)
  +set_polar(self, alpha_start=-20: Float, alpha_stop=20: Float, alpha_inc=0.25: Float)
  +xrotor_characteristics(self, characteristics: Dict)
}

class Propeller{
  -__parameters: Dict
  -__loadcases: Dict
  -__load_envelope: Dict
  -__geometry: List
  -__sections: List
  - -
  -__init__(self, number_of_blades: Int, tip_radius: Float, hub_radius: Float)
  -__repr__(self): Str
  +calc_loads(self)
  +pressure_distribution(self, loadcase: Loadcase): np.array
  ..Getter..
  +geometry(self): List
  +loadcases(self): Dict
  +load_envelope(self): Dict
  +parameters(self): Dict
  +sections(self): List
  ..Setter..
  +add_loadcase(self, name: Str, loadcase: Loadcase)
  +add_section(self, rR: Float, airfoil: Airfoil)
  +geometry(self, array: List or np.array)
  +parameters(self, parameters: Dict)
  +set_load_envelope(self)
  
}
class Loadcase{
  -__data = List
  -__flight_speed: Float
  -__name: Str
  - -
  -__init__(self, name: Str, flight_speed: Float)
  -__repr__(self): Str
  ..Getter..
  +data(self): List
  +flight_speed(self): Float
  +name(self): Str
  +results(self): DataFrame, DataFrame
  ..Setter..
  +flight_speed(self, flight_speed: Float)
  +name(self, name: Str)
  +set_data(self, prescribe_type: Str, value: Float, fix=None: Str, value2=None: Float)
}

'Xsoftware -[hidden]- Xfoil
'Xfoil -[hidden]> Xrotor
'Xfoil -[hidden]- Propeller
'Xsoftware -[hidden]- Propeller
'Airfoil -[hidden]> Propeller
'Propeller -[hidden]> Loadcase
@enduml

@startuml

Xsoftware <|- - Xfoil
Xsoftware <|- - Xrotor
Airfoil <-[dotted]-> Xfoil : uses
Propeller <-[dotted]-> Xrotor: uses
Propeller "1" o- - "1..*" Airfoil
Propeller "1" o- - "1..*" Loadcase




class Xsoftware {
  +name: Str
  +f: Open
  -__init__(self)
  -__enter__(self)
  -__exit__(self, exc_type, exc_value, exc_traceback)
  +run(self, argument)
  +run_array(self, array)
}

class Xfoil {
  +input_file: Str
  +name: Str
  -__mode: Str
  -__init__(self, mode='hide': Str)
  +{static}read_coordinates(filename: Str): DataFrame
  +{static}read_cp_vs_x(filename: Str): DataFrame
  +{static}read_polar(filename: Str): DataFrame
}

class Xrotor {
  +input_file: Str
  +name: Str
  -__loadcase: Loadcase
  -__mode: Str
  -__propeller: Propeller
  - -
  -__init__(self, propeller: Propeller, loadcase: Loadcase, mode='hide': Str)
  +arbi(self)
  +parse_airfoils(self)
  +{static}read_bend_output(filename: Str): DataFrame
  +{static}read_oper_output(filename: Str): DataFrame
}

class Airfoil{
  -__coordinates: DataFrame
  -__parameters: Dict
  -__polar: DataFrame
  -__xrotor_characteristics: Dict
  - -
  -__init__(self, airfoil_filename: Str, Re: Float, Ncrit=9: Int, Iter=200: Int)
  -{static}__fit_cl_alpha__(self, x, x0, x1, a3, b1, b3, c2)
  -__repr__(self): Str
  +cp_vs_x(self, mode: Str, value: Float): DataFrame
  +{static}interpolate(airfoil1: Airfoil, airfoil2: Airfoil, fraction_of_2nd_airfoil: Float): DataFrame
  ..Getter..
  +coordinates(self): DataFrame
  +parameters(self): Dict
  +polar(self): DataFrame
  +xrotor_characteristics(self): Dict
  ..Setter..
  +coordinates(self, coordinates: Str or DataFrame)
  +set_polar(self, alpha_start=-20: Float, alpha_stop=20: Float, alpha_inc=0.25: Float)
  +xrotor_characteristics(self, characteristics: Dict)
}

class Propeller{
  -__parameters: Dict
  -__loadcases: Dict
  -__load_envelope: Dict
  -__geometry: List
  -__sections: List
  - -
  -__init__(self, number_of_blades: Int, tip_radius: Float, hub_radius: Float)
  -__repr__(self): Str
  +calc_loads(self)
  +pressure_distribution(self, loadcase: Loadcase): np.array
  ..Getter..
  +geometry(self): List
  +loadcases(self): Dict
  +load_envelope(self): Dict
  +parameters(self): Dict
  +sections(self): List
  ..Setter..
  +add_loadcase(self, name: Str, loadcase: Loadcase)
  +add_section(self, rR: Float, airfoil: Airfoil)
  +geometry(self, array: List or np.array)
  +parameters(self, parameters: Dict)
  +set_load_envelope(self)
  
}
class Loadcase{
  -__data = List
  -__flight_speed: Float
  -__name: Str
  - -
  -__init__(self, name: Str, flight_speed: Float)
  -__repr__(self): Str
  ..Getter..
  +data(self): List
  +flight_speed(self): Float
  +name(self): Str
  +results(self): DataFrame, DataFrame
  ..Setter..
  +flight_speed(self, flight_speed: Float)
  +name(self, name: Str)
  +set_data(self, prescribe_type: Str, value: Float, fix=None: Str, value2=None: Float)
}

@enduml

PlantUML version 1.2020.19(Mon Oct 12 17:10:01 CEST 2020)
(GPL source distribution)
Java Runtime: OpenJDK Runtime Environment
JVM: OpenJDK 64-Bit Server VM
Default Encoding: UTF-8
Language: de
Country: DE
--></g></svg>