<?xml version="1.0" encoding="UTF-8" standalone="no"?><svg xmlns="http://www.w3.org/2000/svg" xmlns:xlink="http://www.w3.org/1999/xlink" contentScriptType="application/ecmascript" contentStyleType="text/css" height="926px" preserveAspectRatio="none" style="width:1673px;height:926px;" version="1.1" viewBox="0 0 1673 926" width="1673px" zoomAndPan="magnify"><defs><filter height="300%" id="f1vxs1r6dlxrls" width="300%" x="-1" y="-1"><feGaussianBlur result="blurOut" stdDeviation="2.0"/><feColorMatrix in="blurOut" result="blurOut2" type="matrix" values="0 0 0 0 0 0 0 0 0 0 0 0 0 0 0 0 0 0 .4 0"/><feOffset dx="4.0" dy="4.0" in="blurOut2" result="blurOut3"/><feBlend in="SourceGraphic" in2="blurOut3" mode="normal"/></filter></defs><g><!--MD5=[e3d158ccbe291f3bf2130bb0560e8ce5]
class Xsoftware--><rect codeLine="23" fill="#FEFECE" filter="url(#f1vxs1r6dlxrls)" height="124.8281" id="Xsoftware" style="stroke: #A80036; stroke-width: 1.5;" width="307" x="7" y="113.5"/><ellipse cx="125.75" cy="129.5" fill="#ADD1B2" rx="11" ry="11" style="stroke: #A80036; stroke-width: 1.0;"/><path d="M128.7188,135.1406 Q128.1406,135.4375 127.5,135.5781 Q126.8594,135.7344 126.1563,135.7344 Q123.6563,135.7344 122.3281,134.0938 Q121.0156,132.4375 121.0156,129.3125 Q121.0156,126.1875 122.3281,124.5313 Q123.6563,122.875 126.1563,122.875 Q126.8594,122.875 127.5,123.0313 Q128.1563,123.1875 128.7188,123.4844 L128.7188,126.2031 Q128.0938,125.625 127.5,125.3594 Q126.9063,125.0781 126.2813,125.0781 Q124.9375,125.0781 124.25,126.1563 Q123.5625,127.2188 123.5625,129.3125 Q123.5625,131.4063 124.25,132.4844 Q124.9375,133.5469 126.2813,133.5469 Q126.9063,133.5469 127.5,133.2813 Q128.0938,133 128.7188,132.4219 L128.7188,135.1406 Z "/><text fill="#000000" font-family="sans-serif" font-size="12" lengthAdjust="spacingAndGlyphs" textLength="61" x="146.25" y="133.6543">Xsoftware</text><line style="stroke: #A80036; stroke-width: 1.5;" x1="8" x2="313" y1="145.5" y2="145.5"/><ellipse cx="18" cy="156.5" fill="none" rx="3" ry="3" style="stroke: #038048; stroke-width: 1.0;"/><text fill="#000000" font-family="sans-serif" font-size="11" lengthAdjust="spacingAndGlyphs" textLength="42" x="27" y="159.7104">f: Open</text><line style="stroke: #A80036; stroke-width: 1.5;" x1="8" x2="313" y1="166.3047" y2="166.3047"/><rect fill="#F24D5C" height="6" style="stroke: #C82930; stroke-width: 1.0;" width="6" x="15" y="174.3047"/><text fill="#000000" font-family="sans-serif" font-size="11" lengthAdjust="spacingAndGlyphs" textLength="70" x="27" y="180.5151">__init__(self)</text><rect fill="#F24D5C" height="6" style="stroke: #C82930; stroke-width: 1.0;" width="6" x="15" y="187.1094"/><text fill="#000000" font-family="sans-serif" font-size="11" lengthAdjust="spacingAndGlyphs" textLength="83" x="27" y="193.3198">__enter__(self)</text><rect fill="#F24D5C" height="6" style="stroke: #C82930; stroke-width: 1.0;" width="6" x="15" y="199.9141"/><text fill="#000000" font-family="sans-serif" font-size="11" lengthAdjust="spacingAndGlyphs" textLength="281" x="27" y="206.1245">__exit__(self, exc_type, exc_value, exc_traceback)</text><ellipse cx="18" cy="215.7188" fill="#84BE84" rx="3" ry="3" style="stroke: #038048; stroke-width: 1.0;"/><text fill="#000000" font-family="sans-serif" font-size="11" lengthAdjust="spacingAndGlyphs" textLength="111" x="27" y="218.9292">run(self, argument)</text><ellipse cx="18" cy="228.5234" fill="#84BE84" rx="3" ry="3" style="stroke: #038048; stroke-width: 1.0;"/><text fill="#000000" font-family="sans-serif" font-size="11" lengthAdjust="spacingAndGlyphs" textLength="122" x="27" y="231.7339">run_array(self, array)</text><!--MD5=[de9f1b0669f1b04c62e8b4e897d712da]
class Xfoil--><rect codeLine="32" fill="#FEFECE" filter="url(#f1vxs1r6dlxrls)" height="124.8281" id="Xfoil" style="stroke: #A80036; stroke-width: 1.5;" width="307" x="407" y="787.5"/><ellipse cx="543.75" cy="803.5" fill="#ADD1B2" rx="11" ry="11" style="stroke: #A80036; stroke-width: 1.0;"/><path d="M546.7188,809.1406 Q546.1406,809.4375 545.5,809.5781 Q544.8594,809.7344 544.1563,809.7344 Q541.6563,809.7344 540.3281,808.0938 Q539.0156,806.4375 539.0156,803.3125 Q539.0156,800.1875 540.3281,798.5313 Q541.6563,796.875 544.1563,796.875 Q544.8594,796.875 545.5,797.0313 Q546.1563,797.1875 546.7188,797.4844 L546.7188,800.2031 Q546.0938,799.625 545.5,799.3594 Q544.9063,799.0781 544.2813,799.0781 Q542.9375,799.0781 542.25,800.1563 Q541.5625,801.2188 541.5625,803.3125 Q541.5625,805.4063 542.25,806.4844 Q542.9375,807.5469 544.2813,807.5469 Q544.9063,807.5469 545.5,807.2813 Q546.0938,807 546.7188,806.4219 L546.7188,809.1406 Z "/><text fill="#000000" font-family="sans-serif" font-size="12" lengthAdjust="spacingAndGlyphs" textLength="25" x="564.25" y="807.6543">Xfoil</text><line style="stroke: #A80036; stroke-width: 1.5;" x1="408" x2="713" y1="819.5" y2="819.5"/><ellipse cx="418" cy="830.5" fill="none" rx="3" ry="3" style="stroke: #038048; stroke-width: 1.0;"/><text fill="#000000" font-family="sans-serif" font-size="11" lengthAdjust="spacingAndGlyphs" textLength="76" x="427" y="833.7104">input_file: Str</text><line style="stroke: #A80036; stroke-width: 1.5;" x1="408" x2="713" y1="840.3047" y2="840.3047"/><rect fill="#F24D5C" height="6" style="stroke: #C82930; stroke-width: 1.0;" width="6" x="415" y="848.3047"/><text fill="#000000" font-family="sans-serif" font-size="11" lengthAdjust="spacingAndGlyphs" textLength="70" x="427" y="854.5151">__init__(self)</text><rect fill="#F24D5C" height="6" style="stroke: #C82930; stroke-width: 1.0;" width="6" x="415" y="861.1094"/><text fill="#000000" font-family="sans-serif" font-size="11" lengthAdjust="spacingAndGlyphs" textLength="281" x="427" y="867.3198">__exit__(self, exc_type, exc_value, exc_traceback)</text><ellipse cx="418" cy="876.9141" fill="#84BE84" rx="3" ry="3" style="stroke: #038048; stroke-width: 1.0;"/><text fill="#000000" font-family="sans-serif" font-size="11" lengthAdjust="spacingAndGlyphs" text-decoration="underline" textLength="251" x="427" y="880.1245">read_coordinates(filename: Str): DataFrame</text><ellipse cx="418" cy="889.7188" fill="#84BE84" rx="3" ry="3" style="stroke: #038048; stroke-width: 1.0;"/><text fill="#000000" font-family="sans-serif" font-size="11" lengthAdjust="spacingAndGlyphs" text-decoration="underline" textLength="228" x="427" y="892.9292">read_cp_vs_x(filename: Str): DataFrame</text><ellipse cx="418" cy="902.5234" fill="#84BE84" rx="3" ry="3" style="stroke: #038048; stroke-width: 1.0;"/><text fill="#000000" font-family="sans-serif" font-size="11" lengthAdjust="spacingAndGlyphs" text-decoration="underline" textLength="213" x="427" y="905.7339">read_polar(filename: Str): DataFrame</text><!--MD5=[b98970b5d7fbe7870a87f8ac0faf8db4]
class Xrotor--><rect codeLine="41" fill="#FEFECE" filter="url(#f1vxs1r6dlxrls)" height="163.2422" id="Xrotor" style="stroke: #A80036; stroke-width: 1.5;" width="323" x="167" y="484.5"/><ellipse cx="305.25" cy="500.5" fill="#ADD1B2" rx="11" ry="11" style="stroke: #A80036; stroke-width: 1.0;"/><path d="M308.2188,506.1406 Q307.6406,506.4375 307,506.5781 Q306.3594,506.7344 305.6563,506.7344 Q303.1563,506.7344 301.8281,505.0938 Q300.5156,503.4375 300.5156,500.3125 Q300.5156,497.1875 301.8281,495.5313 Q303.1563,493.875 305.6563,493.875 Q306.3594,493.875 307,494.0313 Q307.6563,494.1875 308.2188,494.4844 L308.2188,497.2031 Q307.5938,496.625 307,496.3594 Q306.4063,496.0781 305.7813,496.0781 Q304.4375,496.0781 303.75,497.1563 Q303.0625,498.2188 303.0625,500.3125 Q303.0625,502.4063 303.75,503.4844 Q304.4375,504.5469 305.7813,504.5469 Q306.4063,504.5469 307,504.2813 Q307.5938,504 308.2188,503.4219 L308.2188,506.1406 Z "/><text fill="#000000" font-family="sans-serif" font-size="12" lengthAdjust="spacingAndGlyphs" textLength="38" x="325.75" y="504.6543">Xrotor</text><line style="stroke: #A80036; stroke-width: 1.5;" x1="168" x2="489" y1="516.5" y2="516.5"/><ellipse cx="178" cy="527.5" fill="none" rx="3" ry="3" style="stroke: #038048; stroke-width: 1.0;"/><text fill="#000000" font-family="sans-serif" font-size="11" lengthAdjust="spacingAndGlyphs" textLength="76" x="187" y="530.7104">input_file: Str</text><rect fill="none" height="6" style="stroke: #C82930; stroke-width: 1.0;" width="6" x="175" y="537.3047"/><text fill="#000000" font-family="sans-serif" font-size="11" lengthAdjust="spacingAndGlyphs" textLength="125" x="187" y="543.5151">__loadcase: Loadcase</text><rect fill="none" height="6" style="stroke: #C82930; stroke-width: 1.0;" width="6" x="175" y="550.1094"/><text fill="#000000" font-family="sans-serif" font-size="11" lengthAdjust="spacingAndGlyphs" textLength="122" x="187" y="556.3198">__propeller: Propeller</text><line style="stroke: #A80036; stroke-width: 1.5;" x1="168" x2="489" y1="562.9141" y2="562.9141"/><rect fill="#F24D5C" height="6" style="stroke: #C82930; stroke-width: 1.0;" width="6" x="175" y="570.9141"/><text fill="#000000" font-family="sans-serif" font-size="11" lengthAdjust="spacingAndGlyphs" textLength="297" x="187" y="577.1245">__init(self, propeller: Propeller, loadcase: Loadcase)</text><rect fill="#F24D5C" height="6" style="stroke: #C82930; stroke-width: 1.0;" width="6" x="175" y="583.7188"/><text fill="#000000" font-family="sans-serif" font-size="11" lengthAdjust="spacingAndGlyphs" textLength="281" x="187" y="589.9292">__exit__(self, exc_type, exc_value, exc_traceback)</text><ellipse cx="178" cy="599.5234" fill="#84BE84" rx="3" ry="3" style="stroke: #038048; stroke-width: 1.0;"/><text fill="#000000" font-family="sans-serif" font-size="11" lengthAdjust="spacingAndGlyphs" textLength="51" x="187" y="602.7339">arbi(self)</text><ellipse cx="178" cy="612.3281" fill="#84BE84" rx="3" ry="3" style="stroke: #038048; stroke-width: 1.0;"/><text fill="#000000" font-family="sans-serif" font-size="11" lengthAdjust="spacingAndGlyphs" textLength="107" x="187" y="615.5386">parse_airfoils(self)</text><ellipse cx="178" cy="625.1328" fill="#84BE84" rx="3" ry="3" style="stroke: #038048; stroke-width: 1.0;"/><text fill="#000000" font-family="sans-serif" font-size="11" lengthAdjust="spacingAndGlyphs" text-decoration="underline" textLength="254" x="187" y="628.3433">read_bend_output(filename: Str): DataFrame</text><ellipse cx="178" cy="637.9375" fill="#84BE84" rx="3" ry="3" style="stroke: #038048; stroke-width: 1.0;"/><text fill="#000000" font-family="sans-serif" font-size="11" lengthAdjust="spacingAndGlyphs" text-decoration="underline" textLength="252" x="187" y="641.1479">read_oper_output(filename: Str): DataFrame</text><!--MD5=[432a26014d6806de21f9dcededb4ca89]
class Airfoil--><rect codeLine="53" fill="#FEFECE" filter="url(#f1vxs1r6dlxrls)" height="286.4844" id="Airfoil" style="stroke: #A80036; stroke-width: 1.5;" width="500" x="628.25" y="423"/><ellipse cx="857" cy="439" fill="#ADD1B2" rx="11" ry="11" style="stroke: #A80036; stroke-width: 1.0;"/><path d="M859.9688,444.6406 Q859.3906,444.9375 858.75,445.0781 Q858.1094,445.2344 857.4063,445.2344 Q854.9063,445.2344 853.5781,443.5938 Q852.2656,441.9375 852.2656,438.8125 Q852.2656,435.6875 853.5781,434.0313 Q854.9063,432.375 857.4063,432.375 Q858.1094,432.375 858.75,432.5313 Q859.4063,432.6875 859.9688,432.9844 L859.9688,435.7031 Q859.3438,435.125 858.75,434.8594 Q858.1563,434.5781 857.5313,434.5781 Q856.1875,434.5781 855.5,435.6563 Q854.8125,436.7188 854.8125,438.8125 Q854.8125,440.9063 855.5,441.9844 Q856.1875,443.0469 857.5313,443.0469 Q858.1563,443.0469 858.75,442.7813 Q859.3438,442.5 859.9688,441.9219 L859.9688,444.6406 Z "/><text fill="#000000" font-family="sans-serif" font-size="12" lengthAdjust="spacingAndGlyphs" textLength="34" x="877.5" y="443.1543">Airfoil</text><line style="stroke: #A80036; stroke-width: 1.5;" x1="629.25" x2="1127.25" y1="455" y2="455"/><rect fill="none" height="6" style="stroke: #C82930; stroke-width: 1.0;" width="6" x="636.25" y="463"/><text fill="#000000" font-family="sans-serif" font-size="11" lengthAdjust="spacingAndGlyphs" textLength="149" x="648.25" y="469.2104">__coordinates: DataFrame</text><rect fill="none" height="6" style="stroke: #C82930; stroke-width: 1.0;" width="6" x="636.25" y="475.8047"/><text fill="#000000" font-family="sans-serif" font-size="11" lengthAdjust="spacingAndGlyphs" textLength="108" x="648.25" y="482.0151">__parameters: Dict</text><rect fill="none" height="6" style="stroke: #C82930; stroke-width: 1.0;" width="6" x="636.25" y="488.6094"/><text fill="#000000" font-family="sans-serif" font-size="11" lengthAdjust="spacingAndGlyphs" textLength="111" x="648.25" y="494.8198">__polar: DataFrame</text><rect fill="none" height="6" style="stroke: #C82930; stroke-width: 1.0;" width="6" x="636.25" y="501.4141"/><text fill="#000000" font-family="sans-serif" font-size="11" lengthAdjust="spacingAndGlyphs" textLength="165" x="648.25" y="507.6245">__xrotor_characteristics: Dict</text><line style="stroke: #A80036; stroke-width: 1.0;" x1="629.25" x2="1127.25" y1="514.2188" y2="514.2188"/><rect fill="#F24D5C" height="6" style="stroke: #C82930; stroke-width: 1.0;" width="6" x="636.25" y="522.2188"/><text fill="#000000" font-family="sans-serif" font-size="11" lengthAdjust="spacingAndGlyphs" textLength="398" x="648.25" y="528.4292">__init__(self, airfoil_filename: Str, Re: Float, Ncrit=9: Int, Iter=200: Int)</text><rect fill="#F24D5C" height="6" style="stroke: #C82930; stroke-width: 1.0;" width="6" x="636.25" y="535.0234"/><text fill="#000000" font-family="sans-serif" font-size="11" lengthAdjust="spacingAndGlyphs" text-decoration="underline" textLength="259" x="648.25" y="541.2339">__fit_cl_alpha__(self, x, x0, x1, a3, b1, b3, c2)</text><rect fill="#F24D5C" height="6" style="stroke: #C82930; stroke-width: 1.0;" width="6" x="636.25" y="547.8281"/><text fill="#000000" font-family="sans-serif" font-size="11" lengthAdjust="spacingAndGlyphs" textLength="102" x="648.25" y="554.0386">__repr__(self): Str</text><ellipse cx="639.25" cy="563.6328" fill="#84BE84" rx="3" ry="3" style="stroke: #038048; stroke-width: 1.0;"/><text fill="#000000" font-family="sans-serif" font-size="11" lengthAdjust="spacingAndGlyphs" textLength="281" x="648.25" y="566.8433">cp_vs_x(self, mode: Str, value: Float): DataFrame</text><ellipse cx="639.25" cy="576.4375" fill="#84BE84" rx="3" ry="3" style="stroke: #038048; stroke-width: 1.0;"/><text fill="#000000" font-family="sans-serif" font-size="11" lengthAdjust="spacingAndGlyphs" text-decoration="underline" textLength="473" x="648.25" y="579.6479">interpolate(airfoil1: Airfoil, airfoil2: Airfoil, fraction_of_2nd_airfoil: Float): DataFrame</text><ellipse cx="639.25" cy="606.0469" fill="#84BE84" rx="3" ry="3" style="stroke: #038048; stroke-width: 1.0;"/><text fill="#000000" font-family="sans-serif" font-size="11" lengthAdjust="spacingAndGlyphs" textLength="166" x="648.25" y="609.2573">coordinates(self): DataFrame</text><ellipse cx="639.25" cy="618.8516" fill="#84BE84" rx="3" ry="3" style="stroke: #038048; stroke-width: 1.0;"/><text fill="#000000" font-family="sans-serif" font-size="11" lengthAdjust="spacingAndGlyphs" textLength="125" x="648.25" y="622.062">parameters(self): Dict</text><ellipse cx="639.25" cy="631.6563" fill="#84BE84" rx="3" ry="3" style="stroke: #038048; stroke-width: 1.0;"/><text fill="#000000" font-family="sans-serif" font-size="11" lengthAdjust="spacingAndGlyphs" textLength="128" x="648.25" y="634.8667">polar(self): DataFrame</text><ellipse cx="639.25" cy="644.4609" fill="#84BE84" rx="3" ry="3" style="stroke: #038048; stroke-width: 1.0;"/><text fill="#000000" font-family="sans-serif" font-size="11" lengthAdjust="spacingAndGlyphs" textLength="182" x="648.25" y="647.6714">xrotor_characteristics(self): Dict</text><line style="stroke: #A80036; stroke-width: 1.0; stroke-dasharray: 1.0,2.0;" x1="629.25" x2="860.25" y1="592.6445" y2="592.6445"/><text fill="#000000" font-family="sans-serif" font-size="11" lengthAdjust="spacingAndGlyphs" textLength="36" x="860.25" y="595.9526">Getter</text><line style="stroke: #A80036; stroke-width: 1.0; stroke-dasharray: 1.0,2.0;" x1="896.25" x2="1127.25" y1="592.6445" y2="592.6445"/><ellipse cx="639.25" cy="674.0703" fill="#84BE84" rx="3" ry="3" style="stroke: #038048; stroke-width: 1.0;"/><text fill="#000000" font-family="sans-serif" font-size="11" lengthAdjust="spacingAndGlyphs" textLength="278" x="648.25" y="677.2808">coordinates(self, coordinates: Str or DataFrame)</text><ellipse cx="639.25" cy="686.875" fill="#84BE84" rx="3" ry="3" style="stroke: #038048; stroke-width: 1.0;"/><text fill="#000000" font-family="sans-serif" font-size="11" lengthAdjust="spacingAndGlyphs" textLength="474" x="648.25" y="690.0854">set_polar(self, alpha_start=-20: Float, alpha_stop=20: Float, alpha_inc=0.25: Float)</text><ellipse cx="639.25" cy="699.6797" fill="#84BE84" rx="3" ry="3" style="stroke: #038048; stroke-width: 1.0;"/><text fill="#000000" font-family="sans-serif" font-size="11" lengthAdjust="spacingAndGlyphs" textLength="274" x="648.25" y="702.8901">xrotor_characteristics(self, characteristics: Dict)</text><line style="stroke: #A80036; stroke-width: 1.0; stroke-dasharray: 1.0,2.0;" x1="629.25" x2="860.75" y1="660.668" y2="660.668"/><text fill="#000000" font-family="sans-serif" font-size="11" lengthAdjust="spacingAndGlyphs" textLength="35" x="860.75" y="663.9761">Setter</text><line style="stroke: #A80036; stroke-width: 1.0; stroke-dasharray: 1.0,2.0;" x1="895.75" x2="1127.25" y1="660.668" y2="660.668"/><!--MD5=[b0a93aebd65bb3468015f36161c68501]
class Propeller--><rect codeLine="75" fill="#FEFECE" filter="url(#f1vxs1r6dlxrls)" height="337.7031" id="Propeller" style="stroke: #A80036; stroke-width: 1.5;" width="436" x="397.25" y="7"/><ellipse cx="583" cy="23" fill="#ADD1B2" rx="11" ry="11" style="stroke: #A80036; stroke-width: 1.0;"/><path d="M585.9688,28.6406 Q585.3906,28.9375 584.75,29.0781 Q584.1094,29.2344 583.4063,29.2344 Q580.9063,29.2344 579.5781,27.5938 Q578.2656,25.9375 578.2656,22.8125 Q578.2656,19.6875 579.5781,18.0313 Q580.9063,16.375 583.4063,16.375 Q584.1094,16.375 584.75,16.5313 Q585.4063,16.6875 585.9688,16.9844 L585.9688,19.7031 Q585.3438,19.125 584.75,18.8594 Q584.1563,18.5781 583.5313,18.5781 Q582.1875,18.5781 581.5,19.6563 Q580.8125,20.7188 580.8125,22.8125 Q580.8125,24.9063 581.5,25.9844 Q582.1875,27.0469 583.5313,27.0469 Q584.1563,27.0469 584.75,26.7813 Q585.3438,26.5 585.9688,25.9219 L585.9688,28.6406 Z "/><text fill="#000000" font-family="sans-serif" font-size="12" lengthAdjust="spacingAndGlyphs" textLength="56" x="603.5" y="27.1543">Propeller</text><line style="stroke: #A80036; stroke-width: 1.5;" x1="398.25" x2="832.25" y1="39" y2="39"/><rect fill="none" height="6" style="stroke: #C82930; stroke-width: 1.0;" width="6" x="405.25" y="47"/><text fill="#000000" font-family="sans-serif" font-size="11" lengthAdjust="spacingAndGlyphs" textLength="108" x="417.25" y="53.2104">__parameters: Dict</text><rect fill="none" height="6" style="stroke: #C82930; stroke-width: 1.0;" width="6" x="405.25" y="59.8047"/><text fill="#000000" font-family="sans-serif" font-size="11" lengthAdjust="spacingAndGlyphs" textLength="99" x="417.25" y="66.0151">__loadcases: Dict</text><rect fill="none" height="6" style="stroke: #C82930; stroke-width: 1.0;" width="6" x="405.25" y="72.6094"/><text fill="#000000" font-family="sans-serif" font-size="11" lengthAdjust="spacingAndGlyphs" textLength="122" x="417.25" y="78.8198">__load_envelope: Dict</text><rect fill="none" height="6" style="stroke: #C82930; stroke-width: 1.0;" width="6" x="405.25" y="85.4141"/><text fill="#000000" font-family="sans-serif" font-size="11" lengthAdjust="spacingAndGlyphs" textLength="94" x="417.25" y="91.6245">__geometry: List</text><rect fill="none" height="6" style="stroke: #C82930; stroke-width: 1.0;" width="6" x="405.25" y="98.2188"/><text fill="#000000" font-family="sans-serif" font-size="11" lengthAdjust="spacingAndGlyphs" textLength="88" x="417.25" y="104.4292">__sections: List</text><line style="stroke: #A80036; stroke-width: 1.0;" x1="398.25" x2="832.25" y1="111.0234" y2="111.0234"/><rect fill="#F24D5C" height="6" style="stroke: #C82930; stroke-width: 1.0;" width="6" x="405.25" y="119.0234"/><text fill="#000000" font-family="sans-serif" font-size="11" lengthAdjust="spacingAndGlyphs" textLength="410" x="417.25" y="125.2339">__init__(self, number_of_blades: Int, tip_radius: Float, hub_radius: Float)</text><rect fill="#F24D5C" height="6" style="stroke: #C82930; stroke-width: 1.0;" width="6" x="405.25" y="131.8281"/><text fill="#000000" font-family="sans-serif" font-size="11" lengthAdjust="spacingAndGlyphs" textLength="102" x="417.25" y="138.0386">__repr__(self): Str</text><ellipse cx="408.25" cy="147.6328" fill="#84BE84" rx="3" ry="3" style="stroke: #038048; stroke-width: 1.0;"/><text fill="#000000" font-family="sans-serif" font-size="11" lengthAdjust="spacingAndGlyphs" textLength="88" x="417.25" y="150.8433">calc_loads(self)</text><ellipse cx="408.25" cy="160.4375" fill="#84BE84" rx="3" ry="3" style="stroke: #038048; stroke-width: 1.0;"/><text fill="#000000" font-family="sans-serif" font-size="11" lengthAdjust="spacingAndGlyphs" textLength="328" x="417.25" y="163.6479">pressure_distribution(self, loadcase: Loadcase): np.array</text><ellipse cx="408.25" cy="190.0469" fill="#84BE84" rx="3" ry="3" style="stroke: #038048; stroke-width: 1.0;"/><text fill="#000000" font-family="sans-serif" font-size="11" lengthAdjust="spacingAndGlyphs" textLength="111" x="417.25" y="193.2573">geometry(self): List</text><ellipse cx="408.25" cy="202.8516" fill="#84BE84" rx="3" ry="3" style="stroke: #038048; stroke-width: 1.0;"/><text fill="#000000" font-family="sans-serif" font-size="11" lengthAdjust="spacingAndGlyphs" textLength="116" x="417.25" y="206.062">loadcases(self): Dict</text><ellipse cx="408.25" cy="215.6563" fill="#84BE84" rx="3" ry="3" style="stroke: #038048; stroke-width: 1.0;"/><text fill="#000000" font-family="sans-serif" font-size="11" lengthAdjust="spacingAndGlyphs" textLength="139" x="417.25" y="218.8667">load_envelope(self): Dict</text><ellipse cx="408.25" cy="228.4609" fill="#84BE84" rx="3" ry="3" style="stroke: #038048; stroke-width: 1.0;"/><text fill="#000000" font-family="sans-serif" font-size="11" lengthAdjust="spacingAndGlyphs" textLength="125" x="417.25" y="231.6714">parameters(self): Dict</text><ellipse cx="408.25" cy="241.2656" fill="#84BE84" rx="3" ry="3" style="stroke: #038048; stroke-width: 1.0;"/><text fill="#000000" font-family="sans-serif" font-size="11" lengthAdjust="spacingAndGlyphs" textLength="105" x="417.25" y="244.4761">sections(self): List</text><line style="stroke: #A80036; stroke-width: 1.0; stroke-dasharray: 1.0,2.0;" x1="398.25" x2="597.25" y1="176.6445" y2="176.6445"/><text fill="#000000" font-family="sans-serif" font-size="11" lengthAdjust="spacingAndGlyphs" textLength="36" x="597.25" y="179.9526">Getter</text><line style="stroke: #A80036; stroke-width: 1.0; stroke-dasharray: 1.0,2.0;" x1="633.25" x2="832.25" y1="176.6445" y2="176.6445"/><ellipse cx="408.25" cy="270.875" fill="#84BE84" rx="3" ry="3" style="stroke: #038048; stroke-width: 1.0;"/><text fill="#000000" font-family="sans-serif" font-size="11" lengthAdjust="spacingAndGlyphs" textLength="293" x="417.25" y="274.0854">add_loadcase(self, name: Str, loadcase: Loadcase)</text><ellipse cx="408.25" cy="283.6797" fill="#84BE84" rx="3" ry="3" style="stroke: #038048; stroke-width: 1.0;"/><text fill="#000000" font-family="sans-serif" font-size="11" lengthAdjust="spacingAndGlyphs" textLength="232" x="417.25" y="286.8901">add_section(self, rR: Float, airfoil: Airfoil)</text><ellipse cx="408.25" cy="296.4844" fill="#84BE84" rx="3" ry="3" style="stroke: #038048; stroke-width: 1.0;"/><text fill="#000000" font-family="sans-serif" font-size="11" lengthAdjust="spacingAndGlyphs" textLength="217" x="417.25" y="299.6948">geometry(self, array: List or np.array)</text><ellipse cx="408.25" cy="309.2891" fill="#84BE84" rx="3" ry="3" style="stroke: #038048; stroke-width: 1.0;"/><text fill="#000000" font-family="sans-serif" font-size="11" lengthAdjust="spacingAndGlyphs" textLength="200" x="417.25" y="312.4995">parameters(self, parameters: Dict)</text><ellipse cx="408.25" cy="322.0938" fill="#84BE84" rx="3" ry="3" style="stroke: #038048; stroke-width: 1.0;"/><text fill="#000000" font-family="sans-serif" font-size="11" lengthAdjust="spacingAndGlyphs" textLength="134" x="417.25" y="325.3042">set_load_envelope(self)</text><text fill="#000000" font-family="sans-serif" font-size="11" lengthAdjust="spacingAndGlyphs" textLength="0" x="421.25" y="338.1089"/><line style="stroke: #A80036; stroke-width: 1.0; stroke-dasharray: 1.0,2.0;" x1="398.25" x2="597.75" y1="257.4727" y2="257.4727"/><text fill="#000000" font-family="sans-serif" font-size="11" lengthAdjust="spacingAndGlyphs" textLength="35" x="597.75" y="260.7808">Setter</text><line style="stroke: #A80036; stroke-width: 1.0; stroke-dasharray: 1.0,2.0;" x1="632.75" x2="832.25" y1="257.4727" y2="257.4727"/><!--MD5=[b6942295d4995444148e641b385ccc5b]
class Loadcase--><rect codeLine="100" fill="#FEFECE" filter="url(#f1vxs1r6dlxrls)" height="235.2656" id="Loadcase" style="stroke: #A80036; stroke-width: 1.5;" width="496" x="1163.25" y="448.5"/><ellipse cx="1377" cy="464.5" fill="#ADD1B2" rx="11" ry="11" style="stroke: #A80036; stroke-width: 1.0;"/><path d="M1379.9688,470.1406 Q1379.3906,470.4375 1378.75,470.5781 Q1378.1094,470.7344 1377.4063,470.7344 Q1374.9063,470.7344 1373.5781,469.0938 Q1372.2656,467.4375 1372.2656,464.3125 Q1372.2656,461.1875 1373.5781,459.5313 Q1374.9063,457.875 1377.4063,457.875 Q1378.1094,457.875 1378.75,458.0313 Q1379.4063,458.1875 1379.9688,458.4844 L1379.9688,461.2031 Q1379.3438,460.625 1378.75,460.3594 Q1378.1563,460.0781 1377.5313,460.0781 Q1376.1875,460.0781 1375.5,461.1563 Q1374.8125,462.2188 1374.8125,464.3125 Q1374.8125,466.4063 1375.5,467.4844 Q1376.1875,468.5469 1377.5313,468.5469 Q1378.1563,468.5469 1378.75,468.2813 Q1379.3438,468 1379.9688,467.4219 L1379.9688,470.1406 Z "/><text fill="#000000" font-family="sans-serif" font-size="12" lengthAdjust="spacingAndGlyphs" textLength="60" x="1397.5" y="468.6543">Loadcase</text><line style="stroke: #A80036; stroke-width: 1.5;" x1="1164.25" x2="1658.25" y1="480.5" y2="480.5"/><rect fill="none" height="6" style="stroke: #C82930; stroke-width: 1.0;" width="6" x="1171.25" y="488.5"/><text fill="#000000" font-family="sans-serif" font-size="11" lengthAdjust="spacingAndGlyphs" textLength="74" x="1183.25" y="494.7104">__data = List</text><rect fill="none" height="6" style="stroke: #C82930; stroke-width: 1.0;" width="6" x="1171.25" y="501.3047"/><text fill="#000000" font-family="sans-serif" font-size="11" lengthAdjust="spacingAndGlyphs" textLength="116" x="1183.25" y="507.5151">__flight_speed: Float</text><rect fill="none" height="6" style="stroke: #C82930; stroke-width: 1.0;" width="6" x="1171.25" y="514.1094"/><text fill="#000000" font-family="sans-serif" font-size="11" lengthAdjust="spacingAndGlyphs" textLength="69" x="1183.25" y="520.3198">__name: Str</text><line style="stroke: #A80036; stroke-width: 1.0;" x1="1164.25" x2="1658.25" y1="526.9141" y2="526.9141"/><rect fill="#F24D5C" height="6" style="stroke: #C82930; stroke-width: 1.0;" width="6" x="1171.25" y="534.9141"/><text fill="#000000" font-family="sans-serif" font-size="11" lengthAdjust="spacingAndGlyphs" textLength="247" x="1183.25" y="541.1245">__init__(self, name: Str, flight_speed: Float)</text><rect fill="#F24D5C" height="6" style="stroke: #C82930; stroke-width: 1.0;" width="6" x="1171.25" y="547.7188"/><text fill="#000000" font-family="sans-serif" font-size="11" lengthAdjust="spacingAndGlyphs" textLength="102" x="1183.25" y="553.9292">__repr__(self): Str</text><ellipse cx="1174.25" cy="580.3281" fill="#84BE84" rx="3" ry="3" style="stroke: #038048; stroke-width: 1.0;"/><text fill="#000000" font-family="sans-serif" font-size="11" lengthAdjust="spacingAndGlyphs" textLength="82" x="1183.25" y="583.5386">data(self): List</text><ellipse cx="1174.25" cy="593.1328" fill="#84BE84" rx="3" ry="3" style="stroke: #038048; stroke-width: 1.0;"/><text fill="#000000" font-family="sans-serif" font-size="11" lengthAdjust="spacingAndGlyphs" textLength="133" x="1183.25" y="596.3433">flight_speed(self): Float</text><ellipse cx="1174.25" cy="605.9375" fill="#84BE84" rx="3" ry="3" style="stroke: #038048; stroke-width: 1.0;"/><text fill="#000000" font-family="sans-serif" font-size="11" lengthAdjust="spacingAndGlyphs" textLength="86" x="1183.25" y="609.1479">name(self): Str</text><ellipse cx="1174.25" cy="618.7422" fill="#84BE84" rx="3" ry="3" style="stroke: #038048; stroke-width: 1.0;"/><text fill="#000000" font-family="sans-serif" font-size="11" lengthAdjust="spacingAndGlyphs" textLength="209" x="1183.25" y="621.9526">results(self): DataFrame, DataFrame</text><line style="stroke: #A80036; stroke-width: 1.0; stroke-dasharray: 1.0,2.0;" x1="1164.25" x2="1393.25" y1="566.9258" y2="566.9258"/><text fill="#000000" font-family="sans-serif" font-size="11" lengthAdjust="spacingAndGlyphs" textLength="36" x="1393.25" y="570.2339">Getter</text><line style="stroke: #A80036; stroke-width: 1.0; stroke-dasharray: 1.0,2.0;" x1="1429.25" x2="1658.25" y1="566.9258" y2="566.9258"/><ellipse cx="1174.25" cy="648.3516" fill="#84BE84" rx="3" ry="3" style="stroke: #038048; stroke-width: 1.0;"/><text fill="#000000" font-family="sans-serif" font-size="11" lengthAdjust="spacingAndGlyphs" textLength="210" x="1183.25" y="651.562">flight_speed(self, flight_speed: Float)</text><ellipse cx="1174.25" cy="661.1563" fill="#84BE84" rx="3" ry="3" style="stroke: #038048; stroke-width: 1.0;"/><text fill="#000000" font-family="sans-serif" font-size="11" lengthAdjust="spacingAndGlyphs" textLength="126" x="1183.25" y="664.3667">name(self, name: Str)</text><ellipse cx="1174.25" cy="673.9609" fill="#84BE84" rx="3" ry="3" style="stroke: #038048; stroke-width: 1.0;"/><text fill="#000000" font-family="sans-serif" font-size="11" lengthAdjust="spacingAndGlyphs" textLength="470" x="1183.25" y="677.1714">set_data(self, prescribe_type: Str, value: Float, fix=None: Str, value2=None: Float)</text><line style="stroke: #A80036; stroke-width: 1.0; stroke-dasharray: 1.0,2.0;" x1="1164.25" x2="1393.75" y1="634.9492" y2="634.9492"/><text fill="#000000" font-family="sans-serif" font-size="11" lengthAdjust="spacingAndGlyphs" textLength="35" x="1393.75" y="638.2573">Setter</text><line style="stroke: #A80036; stroke-width: 1.0; stroke-dasharray: 1.0,2.0;" x1="1428.75" x2="1658.25" y1="634.9492" y2="634.9492"/><!--MD5=[cb006b10550e40cbe910f03b1c13cc26]
reverse link Xsoftware to Xfoil--><path codeLine="3" d="M131.049,258.164 C96.1596,370.725 53.6342,575.419 149.25,709 C207.549,790.447 316.054,825.0615 406.941,839.5178 " fill="none" id="Xsoftware-backto-Xfoil" style="stroke: #A80036; stroke-width: 1.0;"/><polygon fill="none" points="124.447,255.828,137.219,238.921,137.778,260.103,124.447,255.828" style="stroke: #A80036; stroke-width: 1.0;"/><!--MD5=[69a732efceb5f56650e76bb8b3b61df4]
reverse link Xsoftware to Xrotor--><path codeLine="4" d="M195.027,257.319 C223.825,323.829 264.549,417.882 293.375,484.454 " fill="none" id="Xsoftware-backto-Xrotor" style="stroke: #A80036; stroke-width: 1.0;"/><polygon fill="none" points="188.579,260.044,187.056,238.909,201.426,254.481,188.579,260.044" style="stroke: #A80036; stroke-width: 1.0;"/><!--MD5=[3bfd7886d18eac15392946c0cb26e44f]
link Airfoil to Xfoil--><path codeLine="5" d="M713.854,712.785 C685.682,737.768 657.737,762.549 633.561,783.989 " fill="none" id="Airfoil-Xfoil" style="stroke: #A80036; stroke-width: 1.0; stroke-dasharray: 1.0,3.0;"/><polygon fill="#A80036" points="629.713,787.4,639.1004,784.4206,633.4537,784.0823,633.792,778.4355,629.713,787.4" style="stroke: #A80036; stroke-width: 1.0;"/><polygon fill="#A80036" points="717.853,709.239,708.4657,712.2186,714.1124,712.5568,713.7742,718.2036,717.853,709.239" style="stroke: #A80036; stroke-width: 1.0;"/><text fill="#000000" font-family="sans-serif" font-size="13" lengthAdjust="spacingAndGlyphs" textLength="30" x="683.25" y="752.0669">uses</text><!--MD5=[698509272ce6ae0e161c0aeebfeeb3aa]
link Propeller to Xrotor--><path codeLine="6" d="M487.684,349.458 C454.142,394.804 419.425,441.739 390.984,480.189 " fill="none" id="Propeller-Xrotor" style="stroke: #A80036; stroke-width: 1.0; stroke-dasharray: 1.0,3.0;"/><polygon fill="#A80036" points="387.9,484.358,396.4686,479.5021,390.8739,480.3385,390.0374,474.7439,387.9,484.358" style="stroke: #A80036; stroke-width: 1.0;"/><polygon fill="#A80036" points="490.828,345.208,482.2606,350.0659,487.855,349.2281,488.6928,354.8226,490.828,345.208" style="stroke: #A80036; stroke-width: 1.0;"/><text fill="#000000" font-family="sans-serif" font-size="13" lengthAdjust="spacingAndGlyphs" textLength="30" x="464.25" y="388.0669">uses</text><!--MD5=[39291b34b6a1cfaf997d6d6152f6b4b9]
link Propeller to Xfoil--><path codeLine="7" d="M585.969,350.264 C582.586,374.632 579.535,399.408 577.25,423 C564.982,549.643 561.524,698.289 560.576,782.286 " fill="none" id="Propeller-Xfoil" style="stroke: #A80036; stroke-width: 1.0; stroke-dasharray: 1.0,3.0;"/><polygon fill="#A80036" points="560.52,787.476,564.6175,778.52,560.5743,782.4763,556.618,778.4331,560.52,787.476" style="stroke: #A80036; stroke-width: 1.0;"/><polygon fill="#A80036" points="586.696,345.071,581.4877,353.43,586.0033,350.0228,589.4106,354.5384,586.696,345.071" style="stroke: #A80036; stroke-width: 1.0;"/><text fill="#000000" font-family="sans-serif" font-size="13" lengthAdjust="spacingAndGlyphs" textLength="30" x="578.25" y="570.0669">uses</text><!--MD5=[4bcdfd812b6a22662a0ddb1addf058ba]
reverse link Propeller to Airfoil--><path codeLine="8" d="M736.692,356.162 C751.853,378.529 767.194,401.161 781.902,422.859 " fill="none" id="Propeller-backto-Airfoil" style="stroke: #A80036; stroke-width: 1.0;"/><polygon fill="#FFFFFF" points="729.267,345.208,729.3224,352.4189,735.9999,355.1412,735.9445,347.9303,729.267,345.208" style="stroke: #A80036; stroke-width: 1.0;"/><text fill="#000000" font-family="sans-serif" font-size="13" lengthAdjust="spacingAndGlyphs" textLength="8" x="724.8662" y="364.7388">1</text><text fill="#000000" font-family="sans-serif" font-size="13" lengthAdjust="spacingAndGlyphs" textLength="23" x="752.9698" y="412.0467">1..*</text><!--MD5=[423eff011b7f80488028cccd7ff48d91]
reverse link Propeller to Loadcase--><path codeLine="9" d="M845.406,280.439 C939,323.381 1047.85,374.444 1145.25,423 C1161.53,431.116 1178.29,439.645 1195.1,448.325 " fill="none" id="Propeller-backto-Loadcase" style="stroke: #A80036; stroke-width: 1.0;"/><polygon fill="#FFFFFF" points="833.483,274.975,837.2706,281.1113,844.3917,279.9751,840.604,273.8388,833.483,274.975" style="stroke: #A80036; stroke-width: 1.0;"/><text fill="#000000" font-family="sans-serif" font-size="13" lengthAdjust="spacingAndGlyphs" textLength="8" x="841.4695" y="274.3011">1</text><text fill="#000000" font-family="sans-serif" font-size="13" lengthAdjust="spacingAndGlyphs" textLength="23" x="1158.5957" y="437.4881">1..*</text><!--MD5=[24616e2d09ec24a64e7c600213a5acb8]
@startuml
'skinparam monochrome true

Xsoftware <|- - Xfoil
Xsoftware <|- - Xrotor
Airfoil <-[dotted]-> Xfoil : uses
Propeller <-[dotted]-> Xrotor: uses
Propeller <-[dotted]-> Xfoil: uses
Propeller "1" o- - "1..*" Airfoil
Propeller "1" o- - "1..*" Loadcase


'note right of Airfoil::__repr__(self) 
'  Todo: implement
'end note
'note left of Propeller::set_load_envelope(self)
'  Todo: implement
'end note
'note "Todo: auf Benutzung von\nProperties ändern" as NProp

'NProp .. Loadcase
'NProp .. Propeller

class Xsoftware {
  +f: Open
  -__init__(self)
  -__enter__(self)
  -__exit__(self, exc_type, exc_value, exc_traceback)
  +run(self, argument)
  +run_array(self, array)
}

class Xfoil {
  +input_file: Str
  -__init__(self)
  -__exit__(self, exc_type, exc_value, exc_traceback)
  +{static}read_coordinates(filename: Str): DataFrame
  +{static}read_cp_vs_x(filename: Str): DataFrame
  +{static}read_polar(filename: Str): DataFrame
}

class Xrotor {
  +input_file: Str
  -__loadcase: Loadcase
  -__propeller: Propeller
  -__init(self, propeller: Propeller, loadcase: Loadcase)
  -__exit__(self, exc_type, exc_value, exc_traceback)
  +arbi(self)
  +parse_airfoils(self)
  +{static}read_bend_output(filename: Str): DataFrame
  +{static}read_oper_output(filename: Str): DataFrame
}

class Airfoil{
  -__coordinates: DataFrame
  -__parameters: Dict
  -__polar: DataFrame
  -__xrotor_characteristics: Dict
  - -
  -__init__(self, airfoil_filename: Str, Re: Float, Ncrit=9: Int, Iter=200: Int)
  -{static}__fit_cl_alpha__(self, x, x0, x1, a3, b1, b3, c2)
  -__repr__(self): Str
  +cp_vs_x(self, mode: Str, value: Float): DataFrame
  +{static}interpolate(airfoil1: Airfoil, airfoil2: Airfoil, fraction_of_2nd_airfoil: Float): DataFrame
  ..Getter..
  +coordinates(self): DataFrame
  +parameters(self): Dict
  +polar(self): DataFrame
  +xrotor_characteristics(self): Dict
  ..Setter..
  +coordinates(self, coordinates: Str or DataFrame)
  +set_polar(self, alpha_start=-20: Float, alpha_stop=20: Float, alpha_inc=0.25: Float)
  +xrotor_characteristics(self, characteristics: Dict)
}

class Propeller{
  -__parameters: Dict
  -__loadcases: Dict
  -__load_envelope: Dict
  -__geometry: List
  -__sections: List
  - -
  -__init__(self, number_of_blades: Int, tip_radius: Float, hub_radius: Float)
  -__repr__(self): Str
  +calc_loads(self)
  +pressure_distribution(self, loadcase: Loadcase): np.array
  ..Getter..
  +geometry(self): List
  +loadcases(self): Dict
  +load_envelope(self): Dict
  +parameters(self): Dict
  +sections(self): List
  ..Setter..
  +add_loadcase(self, name: Str, loadcase: Loadcase)
  +add_section(self, rR: Float, airfoil: Airfoil)
  +geometry(self, array: List or np.array)
  +parameters(self, parameters: Dict)
  +set_load_envelope(self)
  
}
class Loadcase{
  -__data = List
  -__flight_speed: Float
  -__name: Str
  - -
  -__init__(self, name: Str, flight_speed: Float)
  -__repr__(self): Str
  ..Getter..
  +data(self): List
  +flight_speed(self): Float
  +name(self): Str
  +results(self): DataFrame, DataFrame
  ..Setter..
  +flight_speed(self, flight_speed: Float)
  +name(self, name: Str)
  +set_data(self, prescribe_type: Str, value: Float, fix=None: Str, value2=None: Float)
}

'Xsoftware -[hidden]- Xfoil
'Xfoil -[hidden]> Xrotor
'Xfoil -[hidden]- Propeller
'Xsoftware -[hidden]- Propeller
'Airfoil -[hidden]> Propeller
'Propeller -[hidden]> Loadcase
@enduml

@startuml

Xsoftware <|- - Xfoil
Xsoftware <|- - Xrotor
Airfoil <-[dotted]-> Xfoil : uses
Propeller <-[dotted]-> Xrotor: uses
Propeller <-[dotted]-> Xfoil: uses
Propeller "1" o- - "1..*" Airfoil
Propeller "1" o- - "1..*" Loadcase




class Xsoftware {
  +f: Open
  -__init__(self)
  -__enter__(self)
  -__exit__(self, exc_type, exc_value, exc_traceback)
  +run(self, argument)
  +run_array(self, array)
}

class Xfoil {
  +input_file: Str
  -__init__(self)
  -__exit__(self, exc_type, exc_value, exc_traceback)
  +{static}read_coordinates(filename: Str): DataFrame
  +{static}read_cp_vs_x(filename: Str): DataFrame
  +{static}read_polar(filename: Str): DataFrame
}

class Xrotor {
  +input_file: Str
  -__loadcase: Loadcase
  -__propeller: Propeller
  -__init(self, propeller: Propeller, loadcase: Loadcase)
  -__exit__(self, exc_type, exc_value, exc_traceback)
  +arbi(self)
  +parse_airfoils(self)
  +{static}read_bend_output(filename: Str): DataFrame
  +{static}read_oper_output(filename: Str): DataFrame
}

class Airfoil{
  -__coordinates: DataFrame
  -__parameters: Dict
  -__polar: DataFrame
  -__xrotor_characteristics: Dict
  - -
  -__init__(self, airfoil_filename: Str, Re: Float, Ncrit=9: Int, Iter=200: Int)
  -{static}__fit_cl_alpha__(self, x, x0, x1, a3, b1, b3, c2)
  -__repr__(self): Str
  +cp_vs_x(self, mode: Str, value: Float): DataFrame
  +{static}interpolate(airfoil1: Airfoil, airfoil2: Airfoil, fraction_of_2nd_airfoil: Float): DataFrame
  ..Getter..
  +coordinates(self): DataFrame
  +parameters(self): Dict
  +polar(self): DataFrame
  +xrotor_characteristics(self): Dict
  ..Setter..
  +coordinates(self, coordinates: Str or DataFrame)
  +set_polar(self, alpha_start=-20: Float, alpha_stop=20: Float, alpha_inc=0.25: Float)
  +xrotor_characteristics(self, characteristics: Dict)
}

class Propeller{
  -__parameters: Dict
  -__loadcases: Dict
  -__load_envelope: Dict
  -__geometry: List
  -__sections: List
  - -
  -__init__(self, number_of_blades: Int, tip_radius: Float, hub_radius: Float)
  -__repr__(self): Str
  +calc_loads(self)
  +pressure_distribution(self, loadcase: Loadcase): np.array
  ..Getter..
  +geometry(self): List
  +loadcases(self): Dict
  +load_envelope(self): Dict
  +parameters(self): Dict
  +sections(self): List
  ..Setter..
  +add_loadcase(self, name: Str, loadcase: Loadcase)
  +add_section(self, rR: Float, airfoil: Airfoil)
  +geometry(self, array: List or np.array)
  +parameters(self, parameters: Dict)
  +set_load_envelope(self)
  
}
class Loadcase{
  -__data = List
  -__flight_speed: Float
  -__name: Str
  - -
  -__init__(self, name: Str, flight_speed: Float)
  -__repr__(self): Str
  ..Getter..
  +data(self): List
  +flight_speed(self): Float
  +name(self): Str
  +results(self): DataFrame, DataFrame
  ..Setter..
  +flight_speed(self, flight_speed: Float)
  +name(self, name: Str)
  +set_data(self, prescribe_type: Str, value: Float, fix=None: Str, value2=None: Float)
}

@enduml

PlantUML version 1.2020.19(Mon Oct 12 17:10:01 CEST 2020)
(GPL source distribution)
Java Runtime: OpenJDK Runtime Environment
JVM: OpenJDK 64-Bit Server VM
Default Encoding: UTF-8
Language: de
Country: DE
--></g></svg>