<?xml version="1.0" encoding="UTF-8" standalone="no"?><svg xmlns="http://www.w3.org/2000/svg" xmlns:xlink="http://www.w3.org/1999/xlink" contentScriptType="application/ecmascript" contentStyleType="text/css" height="900px" preserveAspectRatio="none" style="width:1305px;height:900px;" version="1.1" viewBox="0 0 1305 900" width="1305px" zoomAndPan="magnify"><defs><filter height="300%" id="f13kxt3or2j058" width="300%" x="-1" y="-1"><feGaussianBlur result="blurOut" stdDeviation="2.0"/><feColorMatrix in="blurOut" result="blurOut2" type="matrix" values="0 0 0 0 0 0 0 0 0 0 0 0 0 0 0 0 0 0 .4 0"/><feOffset dx="4.0" dy="4.0" in="blurOut2" result="blurOut3"/><feBlend in="SourceGraphic" in2="blurOut3" mode="normal"/></filter></defs><g><!--MD5=[e3d158ccbe291f3bf2130bb0560e8ce5]
class Xsoftware--><rect codeLine="20" fill="#FEFECE" filter="url(#f13kxt3or2j058)" height="112.0234" id="Xsoftware" style="stroke: #A80036; stroke-width: 1.5;" width="307" x="7" y="189"/><ellipse cx="125.75" cy="205" fill="#ADD1B2" rx="11" ry="11" style="stroke: #A80036; stroke-width: 1.0;"/><path d="M128.7188,210.6406 Q128.1406,210.9375 127.5,211.0781 Q126.8594,211.2344 126.1563,211.2344 Q123.6563,211.2344 122.3281,209.5938 Q121.0156,207.9375 121.0156,204.8125 Q121.0156,201.6875 122.3281,200.0313 Q123.6563,198.375 126.1563,198.375 Q126.8594,198.375 127.5,198.5313 Q128.1563,198.6875 128.7188,198.9844 L128.7188,201.7031 Q128.0938,201.125 127.5,200.8594 Q126.9063,200.5781 126.2813,200.5781 Q124.9375,200.5781 124.25,201.6563 Q123.5625,202.7188 123.5625,204.8125 Q123.5625,206.9063 124.25,207.9844 Q124.9375,209.0469 126.2813,209.0469 Q126.9063,209.0469 127.5,208.7813 Q128.0938,208.5 128.7188,207.9219 L128.7188,210.6406 Z "/><text fill="#000000" font-family="sans-serif" font-size="12" lengthAdjust="spacingAndGlyphs" textLength="61" x="146.25" y="209.1543">Xsoftware</text><line style="stroke: #A80036; stroke-width: 1.5;" x1="8" x2="313" y1="221" y2="221"/><text fill="#000000" font-family="sans-serif" font-size="11" lengthAdjust="spacingAndGlyphs" textLength="42" x="13" y="235.2104">f: Open</text><line style="stroke: #A80036; stroke-width: 1.5;" x1="8" x2="313" y1="241.8047" y2="241.8047"/><rect fill="#F24D5C" height="6" style="stroke: #C82930; stroke-width: 1.0;" width="6" x="15" y="249.8047"/><text fill="#000000" font-family="sans-serif" font-size="11" lengthAdjust="spacingAndGlyphs" textLength="83" x="27" y="256.0151">__enter__(self)</text><rect fill="#F24D5C" height="6" style="stroke: #C82930; stroke-width: 1.0;" width="6" x="15" y="262.6094"/><text fill="#000000" font-family="sans-serif" font-size="11" lengthAdjust="spacingAndGlyphs" textLength="281" x="27" y="268.8198">__exit__(self, exc_type, exc_value, exc_traceback)</text><ellipse cx="18" cy="278.4141" fill="#84BE84" rx="3" ry="3" style="stroke: #038048; stroke-width: 1.0;"/><text fill="#000000" font-family="sans-serif" font-size="11" lengthAdjust="spacingAndGlyphs" textLength="111" x="27" y="281.6245">run(self, argument)</text><ellipse cx="18" cy="291.2188" fill="#84BE84" rx="3" ry="3" style="stroke: #038048; stroke-width: 1.0;"/><text fill="#000000" font-family="sans-serif" font-size="11" lengthAdjust="spacingAndGlyphs" textLength="122" x="27" y="294.4292">run_array(self, array)</text><!--MD5=[de9f1b0669f1b04c62e8b4e897d712da]
class Xfoil--><rect codeLine="28" fill="#FEFECE" filter="url(#f13kxt3or2j058)" height="86.4141" id="Xfoil" style="stroke: #A80036; stroke-width: 1.5;" width="307" x="130" y="800"/><ellipse cx="266.75" cy="816" fill="#ADD1B2" rx="11" ry="11" style="stroke: #A80036; stroke-width: 1.0;"/><path d="M269.7188,821.6406 Q269.1406,821.9375 268.5,822.0781 Q267.8594,822.2344 267.1563,822.2344 Q264.6563,822.2344 263.3281,820.5938 Q262.0156,818.9375 262.0156,815.8125 Q262.0156,812.6875 263.3281,811.0313 Q264.6563,809.375 267.1563,809.375 Q267.8594,809.375 268.5,809.5313 Q269.1563,809.6875 269.7188,809.9844 L269.7188,812.7031 Q269.0938,812.125 268.5,811.8594 Q267.9063,811.5781 267.2813,811.5781 Q265.9375,811.5781 265.25,812.6563 Q264.5625,813.7188 264.5625,815.8125 Q264.5625,817.9063 265.25,818.9844 Q265.9375,820.0469 267.2813,820.0469 Q267.9063,820.0469 268.5,819.7813 Q269.0938,819.5 269.7188,818.9219 L269.7188,821.6406 Z "/><text fill="#000000" font-family="sans-serif" font-size="12" lengthAdjust="spacingAndGlyphs" textLength="25" x="287.25" y="820.1543">Xfoil</text><line style="stroke: #A80036; stroke-width: 1.5;" x1="131" x2="436" y1="832" y2="832"/><text fill="#000000" font-family="sans-serif" font-size="11" lengthAdjust="spacingAndGlyphs" textLength="93" x="136" y="846.2104">input_file: String</text><line style="stroke: #A80036; stroke-width: 1.5;" x1="131" x2="436" y1="852.8047" y2="852.8047"/><rect fill="#F24D5C" height="6" style="stroke: #C82930; stroke-width: 1.0;" width="6" x="138" y="860.8047"/><text fill="#000000" font-family="sans-serif" font-size="11" lengthAdjust="spacingAndGlyphs" textLength="70" x="150" y="867.0151">__init__(self)</text><rect fill="#F24D5C" height="6" style="stroke: #C82930; stroke-width: 1.0;" width="6" x="138" y="873.6094"/><text fill="#000000" font-family="sans-serif" font-size="11" lengthAdjust="spacingAndGlyphs" textLength="281" x="150" y="879.8198">__exit__(self, exc_type, exc_value, exc_traceback)</text><!--MD5=[b98970b5d7fbe7870a87f8ac0faf8db4]
class Xrotor--><rect codeLine="34" fill="#FEFECE" filter="url(#f13kxt3or2j058)" height="214.4609" id="Xrotor" style="stroke: #A80036; stroke-width: 1.5;" width="307" x="140" y="484"/><ellipse cx="270.25" cy="500" fill="#ADD1B2" rx="11" ry="11" style="stroke: #A80036; stroke-width: 1.0;"/><path d="M273.2188,505.6406 Q272.6406,505.9375 272,506.0781 Q271.3594,506.2344 270.6563,506.2344 Q268.1563,506.2344 266.8281,504.5938 Q265.5156,502.9375 265.5156,499.8125 Q265.5156,496.6875 266.8281,495.0313 Q268.1563,493.375 270.6563,493.375 Q271.3594,493.375 272,493.5313 Q272.6563,493.6875 273.2188,493.9844 L273.2188,496.7031 Q272.5938,496.125 272,495.8594 Q271.4063,495.5781 270.7813,495.5781 Q269.4375,495.5781 268.75,496.6563 Q268.0625,497.7188 268.0625,499.8125 Q268.0625,501.9063 268.75,502.9844 Q269.4375,504.0469 270.7813,504.0469 Q271.4063,504.0469 272,503.7813 Q272.5938,503.5 273.2188,502.9219 L273.2188,505.6406 Z "/><text fill="#000000" font-family="sans-serif" font-size="12" lengthAdjust="spacingAndGlyphs" textLength="38" x="290.75" y="504.1543">Xrotor</text><line style="stroke: #A80036; stroke-width: 1.5;" x1="141" x2="446" y1="516" y2="516"/><text fill="#000000" font-family="sans-serif" font-size="11" lengthAdjust="spacingAndGlyphs" textLength="93" x="146" y="530.2104">input_file: String</text><text fill="#000000" font-family="sans-serif" font-size="11" lengthAdjust="spacingAndGlyphs" textLength="91" x="146" y="543.0151">oper_file: String</text><text fill="#000000" font-family="sans-serif" font-size="11" lengthAdjust="spacingAndGlyphs" textLength="93" x="146" y="555.8198">bend_file: String</text><text fill="#000000" font-family="sans-serif" font-size="11" lengthAdjust="spacingAndGlyphs" textLength="107" x="146" y="568.6245">flag_oper: Boolean</text><text fill="#000000" font-family="sans-serif" font-size="11" lengthAdjust="spacingAndGlyphs" textLength="109" x="146" y="581.4292">flag_bend: Boolean</text><text fill="#000000" font-family="sans-serif" font-size="11" lengthAdjust="spacingAndGlyphs" textLength="110" x="146" y="594.2339">propeller: Propeller</text><text fill="#000000" font-family="sans-serif" font-size="11" lengthAdjust="spacingAndGlyphs" textLength="113" x="146" y="607.0386">loadcase: Loadcase</text><line style="stroke: #A80036; stroke-width: 1.5;" x1="141" x2="446" y1="613.6328" y2="613.6328"/><rect fill="#F24D5C" height="6" style="stroke: #C82930; stroke-width: 1.0;" width="6" x="148" y="621.6328"/><text fill="#000000" font-family="sans-serif" font-size="11" lengthAdjust="spacingAndGlyphs" textLength="176" x="160" y="627.8433">__init(self, propeller, loadcase)</text><rect fill="#F24D5C" height="6" style="stroke: #C82930; stroke-width: 1.0;" width="6" x="148" y="634.4375"/><text fill="#000000" font-family="sans-serif" font-size="11" lengthAdjust="spacingAndGlyphs" textLength="281" x="160" y="640.6479">__exit__(self, exc_type, exc_value, exc_traceback)</text><ellipse cx="151" cy="650.2422" fill="#84BE84" rx="3" ry="3" style="stroke: #038048; stroke-width: 1.0;"/><text fill="#000000" font-family="sans-serif" font-size="11" lengthAdjust="spacingAndGlyphs" textLength="51" x="160" y="653.4526">arbi(self)</text><ellipse cx="151" cy="663.0469" fill="#84BE84" rx="3" ry="3" style="stroke: #038048; stroke-width: 1.0;"/><text fill="#000000" font-family="sans-serif" font-size="11" lengthAdjust="spacingAndGlyphs" textLength="107" x="160" y="666.2573">parse_airfoils(self)</text><ellipse cx="151" cy="675.8516" fill="#84BE84" rx="3" ry="3" style="stroke: #038048; stroke-width: 1.0;"/><text fill="#000000" font-family="sans-serif" font-size="11" lengthAdjust="spacingAndGlyphs" textLength="89" x="160" y="679.062">write_oper(self)</text><ellipse cx="151" cy="688.6563" fill="#84BE84" rx="3" ry="3" style="stroke: #038048; stroke-width: 1.0;"/><text fill="#000000" font-family="sans-serif" font-size="11" lengthAdjust="spacingAndGlyphs" textLength="91" x="160" y="691.8667">write_bend(self)</text><!--MD5=[432a26014d6806de21f9dcededb4ca89]
class Airfoil--><rect codeLine="50" fill="#FEFECE" filter="url(#f13kxt3or2j058)" height="260.875" id="Airfoil" style="stroke: #A80036; stroke-width: 1.5;" width="500" x="482.25" y="460.5"/><ellipse cx="711" cy="476.5" fill="#ADD1B2" rx="11" ry="11" style="stroke: #A80036; stroke-width: 1.0;"/><path d="M713.9688,482.1406 Q713.3906,482.4375 712.75,482.5781 Q712.1094,482.7344 711.4063,482.7344 Q708.9063,482.7344 707.5781,481.0938 Q706.2656,479.4375 706.2656,476.3125 Q706.2656,473.1875 707.5781,471.5313 Q708.9063,469.875 711.4063,469.875 Q712.1094,469.875 712.75,470.0313 Q713.4063,470.1875 713.9688,470.4844 L713.9688,473.2031 Q713.3438,472.625 712.75,472.3594 Q712.1563,472.0781 711.5313,472.0781 Q710.1875,472.0781 709.5,473.1563 Q708.8125,474.2188 708.8125,476.3125 Q708.8125,478.4063 709.5,479.4844 Q710.1875,480.5469 711.5313,480.5469 Q712.1563,480.5469 712.75,480.2813 Q713.3438,480 713.9688,479.4219 L713.9688,482.1406 Z "/><text fill="#000000" font-family="sans-serif" font-size="12" lengthAdjust="spacingAndGlyphs" textLength="34" x="731.5" y="480.6543">Airfoil</text><line style="stroke: #A80036; stroke-width: 1.5;" x1="483.25" x2="981.25" y1="492.5" y2="492.5"/><rect fill="none" height="6" style="stroke: #C82930; stroke-width: 1.0;" width="6" x="490.25" y="500.5"/><text fill="#000000" font-family="sans-serif" font-size="11" lengthAdjust="spacingAndGlyphs" textLength="149" x="502.25" y="506.7104">__coordinates: DataFrame</text><rect fill="none" height="6" style="stroke: #C82930; stroke-width: 1.0;" width="6" x="490.25" y="513.3047"/><text fill="#000000" font-family="sans-serif" font-size="11" lengthAdjust="spacingAndGlyphs" textLength="108" x="502.25" y="519.5151">__parameters: Dict</text><rect fill="none" height="6" style="stroke: #C82930; stroke-width: 1.0;" width="6" x="490.25" y="526.1094"/><text fill="#000000" font-family="sans-serif" font-size="11" lengthAdjust="spacingAndGlyphs" textLength="111" x="502.25" y="532.3198">__polar: DataFrame</text><rect fill="none" height="6" style="stroke: #C82930; stroke-width: 1.0;" width="6" x="490.25" y="538.9141"/><text fill="#000000" font-family="sans-serif" font-size="11" lengthAdjust="spacingAndGlyphs" textLength="165" x="502.25" y="545.1245">__xrotor_characteristics: Dict</text><line style="stroke: #A80036; stroke-width: 1.0;" x1="483.25" x2="981.25" y1="551.7188" y2="551.7188"/><rect fill="#F24D5C" height="6" style="stroke: #C82930; stroke-width: 1.0;" width="6" x="490.25" y="559.7188"/><text fill="#000000" font-family="sans-serif" font-size="11" lengthAdjust="spacingAndGlyphs" textLength="398" x="502.25" y="565.9292">__init__(self, airfoil_filename: Str, Re: Float, Ncrit=9: Int, Iter=200: Int)</text><rect fill="#F24D5C" height="6" style="stroke: #C82930; stroke-width: 1.0;" width="6" x="490.25" y="572.5234"/><text fill="#000000" font-family="sans-serif" font-size="11" lengthAdjust="spacingAndGlyphs" textLength="259" x="502.25" y="578.7339">__fit_cl_alpha__(self, x, x0, x1, a3, b1, b3, c2)</text><rect fill="#F24D5C" height="6" style="stroke: #C82930; stroke-width: 1.0;" width="6" x="490.25" y="585.3281"/><text fill="#000000" font-family="sans-serif" font-size="11" lengthAdjust="spacingAndGlyphs" textLength="119" x="502.25" y="591.5386">__repr__(self): String</text><ellipse cx="493.25" cy="601.1328" fill="#84BE84" rx="3" ry="3" style="stroke: #038048; stroke-width: 1.0;"/><text fill="#000000" font-family="sans-serif" font-size="11" lengthAdjust="spacingAndGlyphs" text-decoration="underline" textLength="403" x="502.25" y="604.3433">interpolate(airfoil1: Airfoil, airfoil2: Airfoil, fraction_of_2nd_airfoil: Float)</text><ellipse cx="493.25" cy="630.7422" fill="#84BE84" rx="3" ry="3" style="stroke: #038048; stroke-width: 1.0;"/><text fill="#000000" font-family="sans-serif" font-size="11" lengthAdjust="spacingAndGlyphs" textLength="166" x="502.25" y="633.9526">coordinates(self): DataFrame</text><ellipse cx="493.25" cy="643.5469" fill="#84BE84" rx="3" ry="3" style="stroke: #038048; stroke-width: 1.0;"/><text fill="#000000" font-family="sans-serif" font-size="11" lengthAdjust="spacingAndGlyphs" textLength="125" x="502.25" y="646.7573">parameters(self): Dict</text><ellipse cx="493.25" cy="656.3516" fill="#84BE84" rx="3" ry="3" style="stroke: #038048; stroke-width: 1.0;"/><text fill="#000000" font-family="sans-serif" font-size="11" lengthAdjust="spacingAndGlyphs" textLength="128" x="502.25" y="659.562">polar(self): DataFrame</text><ellipse cx="493.25" cy="669.1563" fill="#84BE84" rx="3" ry="3" style="stroke: #038048; stroke-width: 1.0;"/><text fill="#000000" font-family="sans-serif" font-size="11" lengthAdjust="spacingAndGlyphs" textLength="182" x="502.25" y="672.3667">xrotor_characteristics(self): Dict</text><line style="stroke: #A80036; stroke-width: 1.0; stroke-dasharray: 1.0,2.0;" x1="483.25" x2="714.25" y1="617.3398" y2="617.3398"/><text fill="#000000" font-family="sans-serif" font-size="11" lengthAdjust="spacingAndGlyphs" textLength="36" x="714.25" y="620.6479">Getter</text><line style="stroke: #A80036; stroke-width: 1.0; stroke-dasharray: 1.0,2.0;" x1="750.25" x2="981.25" y1="617.3398" y2="617.3398"/><ellipse cx="493.25" cy="698.7656" fill="#84BE84" rx="3" ry="3" style="stroke: #038048; stroke-width: 1.0;"/><text fill="#000000" font-family="sans-serif" font-size="11" lengthAdjust="spacingAndGlyphs" textLength="154" x="502.25" y="701.9761">coordinates(self, path: Str)</text><ellipse cx="493.25" cy="711.5703" fill="#84BE84" rx="3" ry="3" style="stroke: #038048; stroke-width: 1.0;"/><text fill="#000000" font-family="sans-serif" font-size="11" lengthAdjust="spacingAndGlyphs" textLength="474" x="502.25" y="714.7808">set_polar(self, alpha_start=-20: Float, alpha_stop=20: Float, alpha_inc=0.25: Float)</text><line style="stroke: #A80036; stroke-width: 1.0; stroke-dasharray: 1.0,2.0;" x1="483.25" x2="714.75" y1="685.3633" y2="685.3633"/><text fill="#000000" font-family="sans-serif" font-size="11" lengthAdjust="spacingAndGlyphs" textLength="35" x="714.75" y="688.6714">Setter</text><line style="stroke: #A80036; stroke-width: 1.0; stroke-dasharray: 1.0,2.0;" x1="749.75" x2="981.25" y1="685.3633" y2="685.3633"/><!--MD5=[b0a93aebd65bb3468015f36161c68501]
class Propeller--><rect codeLine="70" fill="#FEFECE" filter="url(#f13kxt3or2j058)" height="273.6797" id="Propeller" style="stroke: #A80036; stroke-width: 1.5;" width="436" x="571.25" y="108"/><ellipse cx="757" cy="124" fill="#ADD1B2" rx="11" ry="11" style="stroke: #A80036; stroke-width: 1.0;"/><path d="M759.9688,129.6406 Q759.3906,129.9375 758.75,130.0781 Q758.1094,130.2344 757.4063,130.2344 Q754.9063,130.2344 753.5781,128.5938 Q752.2656,126.9375 752.2656,123.8125 Q752.2656,120.6875 753.5781,119.0313 Q754.9063,117.375 757.4063,117.375 Q758.1094,117.375 758.75,117.5313 Q759.4063,117.6875 759.9688,117.9844 L759.9688,120.7031 Q759.3438,120.125 758.75,119.8594 Q758.1563,119.5781 757.5313,119.5781 Q756.1875,119.5781 755.5,120.6563 Q754.8125,121.7188 754.8125,123.8125 Q754.8125,125.9063 755.5,126.9844 Q756.1875,128.0469 757.5313,128.0469 Q758.1563,128.0469 758.75,127.7813 Q759.3438,127.5 759.9688,126.9219 L759.9688,129.6406 Z "/><text fill="#000000" font-family="sans-serif" font-size="12" lengthAdjust="spacingAndGlyphs" textLength="56" x="777.5" y="128.1543">Propeller</text><line style="stroke: #A80036; stroke-width: 1.5;" x1="572.25" x2="1006.25" y1="140" y2="140"/><rect fill="none" height="6" style="stroke: #C82930; stroke-width: 1.0;" width="6" x="579.25" y="148"/><text fill="#000000" font-family="sans-serif" font-size="11" lengthAdjust="spacingAndGlyphs" textLength="108" x="591.25" y="154.2104">__parameters: Dict</text><rect fill="none" height="6" style="stroke: #C82930; stroke-width: 1.0;" width="6" x="579.25" y="160.8047"/><text fill="#000000" font-family="sans-serif" font-size="11" lengthAdjust="spacingAndGlyphs" textLength="99" x="591.25" y="167.0151">__loadcases: Dict</text><rect fill="none" height="6" style="stroke: #C82930; stroke-width: 1.0;" width="6" x="579.25" y="173.6094"/><text fill="#000000" font-family="sans-serif" font-size="11" lengthAdjust="spacingAndGlyphs" textLength="94" x="591.25" y="179.8198">__geometry: List</text><rect fill="none" height="6" style="stroke: #C82930; stroke-width: 1.0;" width="6" x="579.25" y="186.4141"/><text fill="#000000" font-family="sans-serif" font-size="11" lengthAdjust="spacingAndGlyphs" textLength="88" x="591.25" y="192.6245">__sections: List</text><line style="stroke: #A80036; stroke-width: 1.0;" x1="572.25" x2="1006.25" y1="199.2188" y2="199.2188"/><rect fill="#F24D5C" height="6" style="stroke: #C82930; stroke-width: 1.0;" width="6" x="579.25" y="207.2188"/><text fill="#000000" font-family="sans-serif" font-size="11" lengthAdjust="spacingAndGlyphs" textLength="410" x="591.25" y="213.4292">__init__(self, number_of_blades: Int, tip_radius: Float, hub_radius: Float)</text><rect fill="#F24D5C" height="6" style="stroke: #C82930; stroke-width: 1.0;" width="6" x="579.25" y="220.0234"/><text fill="#000000" font-family="sans-serif" font-size="11" lengthAdjust="spacingAndGlyphs" textLength="119" x="591.25" y="226.2339">__repr__(self): String</text><ellipse cx="582.25" cy="235.8281" fill="#84BE84" rx="3" ry="3" style="stroke: #038048; stroke-width: 1.0;"/><text fill="#000000" font-family="sans-serif" font-size="11" lengthAdjust="spacingAndGlyphs" textLength="116" x="591.25" y="239.0386">calculate_loads(self)</text><ellipse cx="582.25" cy="265.4375" fill="#84BE84" rx="3" ry="3" style="stroke: #038048; stroke-width: 1.0;"/><text fill="#000000" font-family="sans-serif" font-size="11" lengthAdjust="spacingAndGlyphs" textLength="111" x="591.25" y="268.6479">geometry(self): List</text><ellipse cx="582.25" cy="278.2422" fill="#84BE84" rx="3" ry="3" style="stroke: #038048; stroke-width: 1.0;"/><text fill="#000000" font-family="sans-serif" font-size="11" lengthAdjust="spacingAndGlyphs" textLength="105" x="591.25" y="281.4526">sections(self): List</text><ellipse cx="582.25" cy="291.0469" fill="#84BE84" rx="3" ry="3" style="stroke: #038048; stroke-width: 1.0;"/><text fill="#000000" font-family="sans-serif" font-size="11" lengthAdjust="spacingAndGlyphs" textLength="116" x="591.25" y="294.2573">loadcases(self): Dict</text><ellipse cx="582.25" cy="303.8516" fill="#84BE84" rx="3" ry="3" style="stroke: #038048; stroke-width: 1.0;"/><text fill="#000000" font-family="sans-serif" font-size="11" lengthAdjust="spacingAndGlyphs" textLength="180" x="591.25" y="307.062">load_envelope(self): DataFrame</text><line style="stroke: #A80036; stroke-width: 1.0; stroke-dasharray: 1.0,2.0;" x1="572.25" x2="771.25" y1="252.0352" y2="252.0352"/><text fill="#000000" font-family="sans-serif" font-size="11" lengthAdjust="spacingAndGlyphs" textLength="36" x="771.25" y="255.3433">Getter</text><line style="stroke: #A80036; stroke-width: 1.0; stroke-dasharray: 1.0,2.0;" x1="807.25" x2="1006.25" y1="252.0352" y2="252.0352"/><ellipse cx="582.25" cy="333.4609" fill="#84BE84" rx="3" ry="3" style="stroke: #038048; stroke-width: 1.0;"/><text fill="#000000" font-family="sans-serif" font-size="11" lengthAdjust="spacingAndGlyphs" textLength="293" x="591.25" y="336.6714">add_loadcase(self, name: Str, loadcase: Loadcase)</text><ellipse cx="582.25" cy="346.2656" fill="#84BE84" rx="3" ry="3" style="stroke: #038048; stroke-width: 1.0;"/><text fill="#000000" font-family="sans-serif" font-size="11" lengthAdjust="spacingAndGlyphs" textLength="232" x="591.25" y="349.4761">add_section(self, rR: Float, airfoil: Airfoil)</text><ellipse cx="582.25" cy="359.0703" fill="#84BE84" rx="3" ry="3" style="stroke: #038048; stroke-width: 1.0;"/><text fill="#000000" font-family="sans-serif" font-size="11" lengthAdjust="spacingAndGlyphs" textLength="134" x="591.25" y="362.2808">set_load_envelope(self)</text><text fill="#000000" font-family="sans-serif" font-size="11" lengthAdjust="spacingAndGlyphs" textLength="0" x="595.25" y="375.0854"/><line style="stroke: #A80036; stroke-width: 1.0; stroke-dasharray: 1.0,2.0;" x1="572.25" x2="771.75" y1="320.0586" y2="320.0586"/><text fill="#000000" font-family="sans-serif" font-size="11" lengthAdjust="spacingAndGlyphs" textLength="35" x="771.75" y="323.3667">Setter</text><line style="stroke: #A80036; stroke-width: 1.0; stroke-dasharray: 1.0,2.0;" x1="806.75" x2="1006.25" y1="320.0586" y2="320.0586"/><!--MD5=[b6942295d4995444148e641b385ccc5b]
class Loadcase--><rect codeLine="90" fill="#FEFECE" filter="url(#f13kxt3or2j058)" height="171.2422" id="Loadcase" style="stroke: #A80036; stroke-width: 1.5;" width="274" x="1017.25" y="505.5"/><ellipse cx="1120" cy="521.5" fill="#ADD1B2" rx="11" ry="11" style="stroke: #A80036; stroke-width: 1.0;"/><path d="M1122.9688,527.1406 Q1122.3906,527.4375 1121.75,527.5781 Q1121.1094,527.7344 1120.4063,527.7344 Q1117.9063,527.7344 1116.5781,526.0938 Q1115.2656,524.4375 1115.2656,521.3125 Q1115.2656,518.1875 1116.5781,516.5313 Q1117.9063,514.875 1120.4063,514.875 Q1121.1094,514.875 1121.75,515.0313 Q1122.4063,515.1875 1122.9688,515.4844 L1122.9688,518.2031 Q1122.3438,517.625 1121.75,517.3594 Q1121.1563,517.0781 1120.5313,517.0781 Q1119.1875,517.0781 1118.5,518.1563 Q1117.8125,519.2188 1117.8125,521.3125 Q1117.8125,523.4063 1118.5,524.4844 Q1119.1875,525.5469 1120.5313,525.5469 Q1121.1563,525.5469 1121.75,525.2813 Q1122.3438,525 1122.9688,524.4219 L1122.9688,527.1406 Z "/><text fill="#000000" font-family="sans-serif" font-size="12" lengthAdjust="spacingAndGlyphs" textLength="60" x="1140.5" y="525.6543">Loadcase</text><line style="stroke: #A80036; stroke-width: 1.5;" x1="1018.25" x2="1290.25" y1="537.5" y2="537.5"/><rect fill="none" height="6" style="stroke: #C82930; stroke-width: 1.0;" width="6" x="1025.25" y="545.5"/><text fill="#000000" font-family="sans-serif" font-size="11" lengthAdjust="spacingAndGlyphs" textLength="108" x="1037.25" y="551.7104">__parameters: Dict</text><rect fill="none" height="6" style="stroke: #C82930; stroke-width: 1.0;" width="6" x="1025.25" y="558.3047"/><text fill="#000000" font-family="sans-serif" font-size="11" lengthAdjust="spacingAndGlyphs" textLength="81" x="1037.25" y="564.5151">__results: Dict</text><line style="stroke: #A80036; stroke-width: 1.0;" x1="1018.25" x2="1290.25" y1="571.1094" y2="571.1094"/><rect fill="#F24D5C" height="6" style="stroke: #C82930; stroke-width: 1.0;" width="6" x="1025.25" y="579.1094"/><text fill="#000000" font-family="sans-serif" font-size="11" lengthAdjust="spacingAndGlyphs" textLength="248" x="1037.25" y="585.3198">__init__(self, flight_speed: Float, rpm: Float)</text><rect fill="#F24D5C" height="6" style="stroke: #C82930; stroke-width: 1.0;" width="6" x="1025.25" y="591.9141"/><text fill="#000000" font-family="sans-serif" font-size="11" lengthAdjust="spacingAndGlyphs" textLength="102" x="1037.25" y="598.1245">__repr__(self): Str</text><ellipse cx="1028.25" cy="624.5234" fill="#84BE84" rx="3" ry="3" style="stroke: #038048; stroke-width: 1.0;"/><text fill="#000000" font-family="sans-serif" font-size="11" lengthAdjust="spacingAndGlyphs" textLength="125" x="1037.25" y="627.7339">parameters(self): Dict</text><ellipse cx="1028.25" cy="637.3281" fill="#84BE84" rx="3" ry="3" style="stroke: #038048; stroke-width: 1.0;"/><text fill="#000000" font-family="sans-serif" font-size="11" lengthAdjust="spacingAndGlyphs" textLength="209" x="1037.25" y="640.5386">results(self): DataFrame, DataFrame</text><line style="stroke: #A80036; stroke-width: 1.0; stroke-dasharray: 1.0,2.0;" x1="1018.25" x2="1136.25" y1="611.1211" y2="611.1211"/><text fill="#000000" font-family="sans-serif" font-size="11" lengthAdjust="spacingAndGlyphs" textLength="36" x="1136.25" y="614.4292">Getter</text><line style="stroke: #A80036; stroke-width: 1.0; stroke-dasharray: 1.0,2.0;" x1="1172.25" x2="1290.25" y1="611.1211" y2="611.1211"/><ellipse cx="1028.25" cy="666.9375" fill="#84BE84" rx="3" ry="3" style="stroke: #038048; stroke-width: 1.0;"/><text fill="#000000" font-family="sans-serif" font-size="11" lengthAdjust="spacingAndGlyphs" textLength="150" x="1037.25" y="670.1479">set_results(self, filename)</text><line style="stroke: #A80036; stroke-width: 1.0; stroke-dasharray: 1.0,2.0;" x1="1018.25" x2="1136.75" y1="653.5352" y2="653.5352"/><text fill="#000000" font-family="sans-serif" font-size="11" lengthAdjust="spacingAndGlyphs" textLength="35" x="1136.75" y="656.8433">Setter</text><line style="stroke: #A80036; stroke-width: 1.0; stroke-dasharray: 1.0,2.0;" x1="1171.75" x2="1290.25" y1="653.5352" y2="653.5352"/><path d="M668,825.5 L668,834.0664 L621.25,587.7305 L668,842.0664 L668,850.6328 A0,0 0 0 0 668,850.6328 L797,850.6328 A0,0 0 0 0 797,850.6328 L797,835.5 L787,825.5 L668,825.5 A0,0 0 0 0 668,825.5 " fill="#FBFB77" filter="url(#f13kxt3or2j058)" style="stroke: #A80036; stroke-width: 1.0;"/><path d="M787,825.5 L787,835.5 L797,835.5 L787,825.5 " fill="#FBFB77" style="stroke: #A80036; stroke-width: 1.0;"/><text fill="#000000" font-family="sans-serif" font-size="13" lengthAdjust="spacingAndGlyphs" textLength="108" x="674" y="842.5669">Todo: implement</text><path d="M725,8.5 L725,17.0664 L725.25,358.4727 L725,25.0664 L725,33.6328 A0,0 0 0 0 725,33.6328 L854,33.6328 A0,0 0 0 0 854,33.6328 L854,18.5 L844,8.5 L725,8.5 A0,0 0 0 0 725,8.5 " fill="#FBFB77" filter="url(#f13kxt3or2j058)" style="stroke: #A80036; stroke-width: 1.0;"/><path d="M844,8.5 L844,18.5 L854,18.5 L844,8.5 " fill="#FBFB77" style="stroke: #A80036; stroke-width: 1.0;"/><text fill="#000000" font-family="sans-serif" font-size="13" lengthAdjust="spacingAndGlyphs" textLength="108" x="731" y="25.5669">Todo: implement</text><path d="M1005.25,6 L1005.25,46.2656 L1185.25,46.2656 L1185.25,16 L1175.25,6 L1005.25,6 " fill="#FBFB77" filter="url(#f13kxt3or2j058)" style="stroke: #A80036; stroke-width: 1.0;"/><path d="M1175.25,6 L1175.25,16 L1185.25,16 L1175.25,6 " fill="#FBFB77" style="stroke: #A80036; stroke-width: 1.0;"/><text fill="#000000" font-family="sans-serif" font-size="13" lengthAdjust="spacingAndGlyphs" textLength="159" x="1011.25" y="23.0669">Todo: auf Benutzung von</text><text fill="#000000" font-family="sans-serif" font-size="13" lengthAdjust="spacingAndGlyphs" textLength="114" x="1011.25" y="38.1997">Properties ändern</text><!--MD5=[cb006b10550e40cbe910f03b1c13cc26]
reverse link Xsoftware to Xfoil--><path codeLine="1" d="M131.538,320.342 C98.6912,418.084 57.2819,592.548 122.25,722 C138.591,754.56 168.418,780.533 197.999,799.8717 " fill="none" id="Xsoftware-backto-Xfoil" style="stroke: #A80036; stroke-width: 1.0;"/><polygon fill="none" points="124.988,317.866,138.168,301.273,138.212,322.463,124.988,317.866" style="stroke: #A80036; stroke-width: 1.0;"/><!--MD5=[69a732efceb5f56650e76bb8b3b61df4]
reverse link Xsoftware to Xrotor--><path codeLine="2" d="M188.898,320.096 C207.375,367.887 231.697,430.795 252.211,483.855 " fill="none" id="Xsoftware-backto-Xrotor" style="stroke: #A80036; stroke-width: 1.0;"/><polygon fill="none" points="182.302,322.448,181.619,301.27,195.36,317.4,182.302,322.448" style="stroke: #A80036; stroke-width: 1.0;"/><!--MD5=[3bfd7886d18eac15392946c0cb26e44f]
link Airfoil to Xfoil--><path codeLine="3" d="M495.061,724.065 C447.645,750.466 400.986,776.445 363.582,797.2719 " fill="none" id="Airfoil-Xfoil" style="stroke: #A80036; stroke-width: 1.0;"/><polygon fill="#A80036" points="359.067,799.7859,368.8763,798.9041,363.4359,797.3543,364.9857,791.9139,359.067,799.7859" style="stroke: #A80036; stroke-width: 1.0;"/><polygon fill="#A80036" points="499.53,721.577,489.7209,722.4612,495.1617,724.0097,493.6132,729.4505,499.53,721.577" style="stroke: #A80036; stroke-width: 1.0;"/><text fill="#000000" font-family="sans-serif" font-size="13" lengthAdjust="spacingAndGlyphs" textLength="30" x="443.25" y="765.0669">uses</text><!--MD5=[698509272ce6ae0e161c0aeebfeeb3aa]
link Propeller to Xrotor--><path codeLine="4" d="M573.57,385.069 C536.805,409.612 499.217,435.239 464.25,460 C454.796,466.694 445.119,473.678 435.412,480.783 " fill="none" id="Propeller-Xrotor" style="stroke: #A80036; stroke-width: 1.0;"/><polygon fill="#A80036" points="431.25,483.834,440.8737,481.74,435.2828,480.8783,436.1446,475.2875,431.25,483.834" style="stroke: #A80036; stroke-width: 1.0;"/><polygon fill="#A80036" points="578.05,382.081,568.3433,383.7482,573.8906,384.8558,572.783,390.4032,578.05,382.081" style="stroke: #A80036; stroke-width: 1.0;"/><text fill="#000000" font-family="sans-serif" font-size="13" lengthAdjust="spacingAndGlyphs" textLength="30" x="527.25" y="425.0669">uses</text><!--MD5=[4bcdfd812b6a22662a0ddb1addf058ba]
reverse link Propeller to Airfoil--><path codeLine="5" d="M765.79,387.586 C761.793,411.705 757.66,436.649 753.718,460.438 " fill="none" id="Propeller-backto-Airfoil" style="stroke: #A80036; stroke-width: 1.0;"/><polygon fill="#A80036" points="766.64,382.452,761.2229,390.6773,765.8229,387.3848,769.1154,391.9847,766.64,382.452" style="stroke: #A80036; stroke-width: 1.0;"/><text fill="#000000" font-family="sans-serif" font-size="13" lengthAdjust="spacingAndGlyphs" textLength="8" x="756.3026" y="401.551">1</text><text fill="#000000" font-family="sans-serif" font-size="13" lengthAdjust="spacingAndGlyphs" textLength="36" x="716.8453" y="449.3412">many</text><!--MD5=[423eff011b7f80488028cccd7ff48d91]
reverse link Propeller to Loadcase--><path codeLine="6" d="M937.654,385.866 C980.641,426.379 1026.24,469.359 1064.46,505.378 " fill="none" id="Propeller-backto-Loadcase" style="stroke: #A80036; stroke-width: 1.0;"/><polygon fill="#A80036" points="933.77,382.205,937.5751,391.2891,937.4083,385.6347,943.0627,385.4679,933.77,382.205" style="stroke: #A80036; stroke-width: 1.0;"/><text fill="#000000" font-family="sans-serif" font-size="13" lengthAdjust="spacingAndGlyphs" textLength="8" x="931.964" y="401.7449">1</text><text fill="#000000" font-family="sans-serif" font-size="13" lengthAdjust="spacingAndGlyphs" textLength="36" x="1019.4707" y="494.5288">many</text><!--MD5=[158275aeb0500b63ff0c3d0631640d7f]
link Airfoil to Airfoil$$$RIGHT--><!--MD5=[b6dab89a86af439d56d21a388827196f]
link Propeller$$$LEFT to Propeller--><!--MD5=[a4ae74534cf3afd2aaf77c5e6aab99db]
link NProp to Loadcase--><path codeLine="17" d="M1097.25,46.055 C1104.72,117.365 1131.33,371.249 1145.39,505.448 " fill="none" id="NProp-Loadcase" style="stroke: #A80036; stroke-width: 1.0; stroke-dasharray: 7.0,7.0;"/><!--MD5=[1095dcadcf407f8d786a5495f2b0b4a3]
link NProp to Propeller--><path codeLine="18" d="M1068.36,46.067 C1047.22,61.063 1015.66,83.441 981.289,107.815 " fill="none" id="NProp-Propeller" style="stroke: #A80036; stroke-width: 1.0; stroke-dasharray: 7.0,7.0;"/><!--MD5=[1b7bb03639a798f7262b7aca13507f5c]
@startuml
Xsoftware <|- - Xfoil
Xsoftware <|- - Xrotor
Airfoil <- -> Xfoil : uses
Propeller <- -> Xrotor: uses
Propeller "1" <- - "many" Airfoil
Propeller "1" <- - "many" Loadcase


note right of Airfoil::__repr__(self) 
  Todo: implement
end note
note left of Propeller::set_load_envelope(self)
  Todo: implement
end note
note "Todo: auf Benutzung von\nProperties ändern" as NProp

NProp .. Loadcase
NProp .. Propeller

class Xsoftware {
  f: Open
  -__enter__(self)
  -__exit__(self, exc_type, exc_value, exc_traceback)
  +run(self, argument)
  +run_array(self, array)
}

class Xfoil {
  input_file: String
  -__init__(self)
  -__exit__(self, exc_type, exc_value, exc_traceback)
}

class Xrotor {
  input_file: String
  oper_file: String
  bend_file: String
  flag_oper: Boolean
  flag_bend: Boolean
  propeller: Propeller
  loadcase: Loadcase
  -__init(self, propeller, loadcase)
  -__exit__(self, exc_type, exc_value, exc_traceback)
  +arbi(self)
  +parse_airfoils(self)
  +write_oper(self)
  +write_bend(self)
}

class Airfoil{
  -__coordinates: DataFrame
  -__parameters: Dict
  -__polar: DataFrame
  -__xrotor_characteristics: Dict
  - -
  -__init__(self, airfoil_filename: Str, Re: Float, Ncrit=9: Int, Iter=200: Int)
  -__fit_cl_alpha__(self, x, x0, x1, a3, b1, b3, c2)
  -__repr__(self): String
  +{static}interpolate(airfoil1: Airfoil, airfoil2: Airfoil, fraction_of_2nd_airfoil: Float)
  ..Getter..
  +coordinates(self): DataFrame
  +parameters(self): Dict
  +polar(self): DataFrame
  +xrotor_characteristics(self): Dict
  ..Setter..
  +coordinates(self, path: Str)
  +set_polar(self, alpha_start=-20: Float, alpha_stop=20: Float, alpha_inc=0.25: Float)
}

class Propeller{
  -__parameters: Dict
  -__loadcases: Dict
  -__geometry: List
  -__sections: List
  - -
  -__init__(self, number_of_blades: Int, tip_radius: Float, hub_radius: Float)
  -__repr__(self): String
  +calculate_loads(self)
  ..Getter..
  +geometry(self): List
  +sections(self): List
  +loadcases(self): Dict
  +load_envelope(self): DataFrame
  ..Setter..
  +add_loadcase(self, name: Str, loadcase: Loadcase)
  +add_section(self, rR: Float, airfoil: Airfoil)
  +set_load_envelope(self)
  
}
class Loadcase{
  -__parameters: Dict
  -__results: Dict
  - -
  -__init__(self, flight_speed: Float, rpm: Float)
  -__repr__(self): Str
  ..Getter..
  +parameters(self): Dict
  +results(self): DataFrame, DataFrame
  ..Setter..
  +set_results(self, filename)
}
@enduml

PlantUML version 1.2020.19(Mon Oct 12 17:10:01 CEST 2020)
(GPL source distribution)
Java Runtime: OpenJDK Runtime Environment
JVM: OpenJDK 64-Bit Server VM
Default Encoding: UTF-8
Language: de
Country: DE
--></g></svg>