<?xml version="1.0" encoding="UTF-8" standalone="no"?><svg xmlns="http://www.w3.org/2000/svg" xmlns:xlink="http://www.w3.org/1999/xlink" contentScriptType="application/ecmascript" contentStyleType="text/css" height="936px" preserveAspectRatio="none" style="width:1689px;height:936px;" version="1.1" viewBox="0 0 1689 936" width="1689px" zoomAndPan="magnify"><defs><filter height="300%" id="f8ldyxua81z5l" width="300%" x="-1" y="-1"><feGaussianBlur result="blurOut" stdDeviation="2.0"/><feColorMatrix in="blurOut" result="blurOut2" type="matrix" values="0 0 0 0 0 0 0 0 0 0 0 0 0 0 0 0 0 0 .4 0"/><feOffset dx="4.0" dy="4.0" in="blurOut2" result="blurOut3"/><feBlend in="SourceGraphic" in2="blurOut3" mode="normal"/></filter></defs><g><!--MD5=[e3d158ccbe291f3bf2130bb0560e8ce5]
class Xsoftware--><rect codeLine="22" fill="#FEFECE" filter="url(#f8ldyxua81z5l)" height="137.6328" id="Xsoftware" style="stroke: #A80036; stroke-width: 1.5;" width="307" x="73" y="107"/><ellipse cx="191.75" cy="123" fill="#ADD1B2" rx="11" ry="11" style="stroke: #A80036; stroke-width: 1.0;"/><path d="M194.7188,128.6406 Q194.1406,128.9375 193.5,129.0781 Q192.8594,129.2344 192.1563,129.2344 Q189.6563,129.2344 188.3281,127.5938 Q187.0156,125.9375 187.0156,122.8125 Q187.0156,119.6875 188.3281,118.0313 Q189.6563,116.375 192.1563,116.375 Q192.8594,116.375 193.5,116.5313 Q194.1563,116.6875 194.7188,116.9844 L194.7188,119.7031 Q194.0938,119.125 193.5,118.8594 Q192.9063,118.5781 192.2813,118.5781 Q190.9375,118.5781 190.25,119.6563 Q189.5625,120.7188 189.5625,122.8125 Q189.5625,124.9063 190.25,125.9844 Q190.9375,127.0469 192.2813,127.0469 Q192.9063,127.0469 193.5,126.7813 Q194.0938,126.5 194.7188,125.9219 L194.7188,128.6406 Z "/><text fill="#000000" font-family="sans-serif" font-size="12" lengthAdjust="spacingAndGlyphs" textLength="61" x="212.25" y="127.1543">Xsoftware</text><line style="stroke: #A80036; stroke-width: 1.5;" x1="74" x2="379" y1="139" y2="139"/><ellipse cx="84" cy="150" fill="none" rx="3" ry="3" style="stroke: #038048; stroke-width: 1.0;"/><text fill="#000000" font-family="sans-serif" font-size="11" lengthAdjust="spacingAndGlyphs" textLength="57" x="93" y="153.2104">name: Str</text><ellipse cx="84" cy="162.8047" fill="none" rx="3" ry="3" style="stroke: #038048; stroke-width: 1.0;"/><text fill="#000000" font-family="sans-serif" font-size="11" lengthAdjust="spacingAndGlyphs" textLength="42" x="93" y="166.0151">f: Open</text><line style="stroke: #A80036; stroke-width: 1.5;" x1="74" x2="379" y1="172.6094" y2="172.6094"/><rect fill="#F24D5C" height="6" style="stroke: #C82930; stroke-width: 1.0;" width="6" x="81" y="180.6094"/><text fill="#000000" font-family="sans-serif" font-size="11" lengthAdjust="spacingAndGlyphs" textLength="70" x="93" y="186.8198">__init__(self)</text><rect fill="#F24D5C" height="6" style="stroke: #C82930; stroke-width: 1.0;" width="6" x="81" y="193.4141"/><text fill="#000000" font-family="sans-serif" font-size="11" lengthAdjust="spacingAndGlyphs" textLength="83" x="93" y="199.6245">__enter__(self)</text><rect fill="#F24D5C" height="6" style="stroke: #C82930; stroke-width: 1.0;" width="6" x="81" y="206.2188"/><text fill="#000000" font-family="sans-serif" font-size="11" lengthAdjust="spacingAndGlyphs" textLength="281" x="93" y="212.4292">__exit__(self, exc_type, exc_value, exc_traceback)</text><ellipse cx="84" cy="222.0234" fill="#84BE84" rx="3" ry="3" style="stroke: #038048; stroke-width: 1.0;"/><text fill="#000000" font-family="sans-serif" font-size="11" lengthAdjust="spacingAndGlyphs" textLength="111" x="93" y="225.2339">run(self, argument)</text><ellipse cx="84" cy="234.8281" fill="#84BE84" rx="3" ry="3" style="stroke: #038048; stroke-width: 1.0;"/><text fill="#000000" font-family="sans-serif" font-size="11" lengthAdjust="spacingAndGlyphs" textLength="122" x="93" y="238.0386">run_array(self, array)</text><!--MD5=[de9f1b0669f1b04c62e8b4e897d712da]
class Xfoil--><rect codeLine="32" fill="#FEFECE" filter="url(#f8ldyxua81z5l)" height="137.6328" id="Xfoil" style="stroke: #A80036; stroke-width: 1.5;" width="277" x="7" y="785"/><ellipse cx="128.75" cy="801" fill="#ADD1B2" rx="11" ry="11" style="stroke: #A80036; stroke-width: 1.0;"/><path d="M131.7188,806.6406 Q131.1406,806.9375 130.5,807.0781 Q129.8594,807.2344 129.1563,807.2344 Q126.6563,807.2344 125.3281,805.5938 Q124.0156,803.9375 124.0156,800.8125 Q124.0156,797.6875 125.3281,796.0313 Q126.6563,794.375 129.1563,794.375 Q129.8594,794.375 130.5,794.5313 Q131.1563,794.6875 131.7188,794.9844 L131.7188,797.7031 Q131.0938,797.125 130.5,796.8594 Q129.9063,796.5781 129.2813,796.5781 Q127.9375,796.5781 127.25,797.6563 Q126.5625,798.7188 126.5625,800.8125 Q126.5625,802.9063 127.25,803.9844 Q127.9375,805.0469 129.2813,805.0469 Q129.9063,805.0469 130.5,804.7813 Q131.0938,804.5 131.7188,803.9219 L131.7188,806.6406 Z "/><text fill="#000000" font-family="sans-serif" font-size="12" lengthAdjust="spacingAndGlyphs" textLength="25" x="149.25" y="805.1543">Xfoil</text><line style="stroke: #A80036; stroke-width: 1.5;" x1="8" x2="283" y1="817" y2="817"/><ellipse cx="18" cy="828" fill="none" rx="3" ry="3" style="stroke: #038048; stroke-width: 1.0;"/><text fill="#000000" font-family="sans-serif" font-size="11" lengthAdjust="spacingAndGlyphs" textLength="76" x="27" y="831.2104">input_file: Str</text><ellipse cx="18" cy="840.8047" fill="none" rx="3" ry="3" style="stroke: #038048; stroke-width: 1.0;"/><text fill="#000000" font-family="sans-serif" font-size="11" lengthAdjust="spacingAndGlyphs" textLength="57" x="27" y="844.0151">name: Str</text><rect fill="none" height="6" style="stroke: #C82930; stroke-width: 1.0;" width="6" x="15" y="850.6094"/><text fill="#000000" font-family="sans-serif" font-size="11" lengthAdjust="spacingAndGlyphs" textLength="69" x="27" y="856.8198">__mode: Str</text><line style="stroke: #A80036; stroke-width: 1.5;" x1="8" x2="283" y1="863.4141" y2="863.4141"/><rect fill="#F24D5C" height="6" style="stroke: #C82930; stroke-width: 1.0;" width="6" x="15" y="871.4141"/><text fill="#000000" font-family="sans-serif" font-size="11" lengthAdjust="spacingAndGlyphs" textLength="174" x="27" y="877.6245">__init__(self, mode='hide': Str)</text><ellipse cx="18" cy="887.2188" fill="#84BE84" rx="3" ry="3" style="stroke: #038048; stroke-width: 1.0;"/><text fill="#000000" font-family="sans-serif" font-size="11" lengthAdjust="spacingAndGlyphs" text-decoration="underline" textLength="251" x="27" y="890.4292">read_coordinates(filename: Str): DataFrame</text><ellipse cx="18" cy="900.0234" fill="#84BE84" rx="3" ry="3" style="stroke: #038048; stroke-width: 1.0;"/><text fill="#000000" font-family="sans-serif" font-size="11" lengthAdjust="spacingAndGlyphs" text-decoration="underline" textLength="228" x="27" y="903.2339">read_cp_vs_x(filename: Str): DataFrame</text><ellipse cx="18" cy="912.8281" fill="#84BE84" rx="3" ry="3" style="stroke: #038048; stroke-width: 1.0;"/><text fill="#000000" font-family="sans-serif" font-size="11" lengthAdjust="spacingAndGlyphs" text-decoration="underline" textLength="213" x="27" y="916.0386">read_polar(filename: Str): DataFrame</text><!--MD5=[b98970b5d7fbe7870a87f8ac0faf8db4]
class Xrotor--><rect codeLine="42" fill="#FEFECE" filter="url(#f8ldyxua81z5l)" height="176.0469" id="Xrotor" style="stroke: #A80036; stroke-width: 1.5;" width="439" x="170" y="477"/><ellipse cx="366.25" cy="493" fill="#ADD1B2" rx="11" ry="11" style="stroke: #A80036; stroke-width: 1.0;"/><path d="M369.2188,498.6406 Q368.6406,498.9375 368,499.0781 Q367.3594,499.2344 366.6563,499.2344 Q364.1563,499.2344 362.8281,497.5938 Q361.5156,495.9375 361.5156,492.8125 Q361.5156,489.6875 362.8281,488.0313 Q364.1563,486.375 366.6563,486.375 Q367.3594,486.375 368,486.5313 Q368.6563,486.6875 369.2188,486.9844 L369.2188,489.7031 Q368.5938,489.125 368,488.8594 Q367.4063,488.5781 366.7813,488.5781 Q365.4375,488.5781 364.75,489.6563 Q364.0625,490.7188 364.0625,492.8125 Q364.0625,494.9063 364.75,495.9844 Q365.4375,497.0469 366.7813,497.0469 Q367.4063,497.0469 368,496.7813 Q368.5938,496.5 369.2188,495.9219 L369.2188,498.6406 Z "/><text fill="#000000" font-family="sans-serif" font-size="12" lengthAdjust="spacingAndGlyphs" textLength="38" x="386.75" y="497.1543">Xrotor</text><line style="stroke: #A80036; stroke-width: 1.5;" x1="171" x2="608" y1="509" y2="509"/><ellipse cx="181" cy="520" fill="none" rx="3" ry="3" style="stroke: #038048; stroke-width: 1.0;"/><text fill="#000000" font-family="sans-serif" font-size="11" lengthAdjust="spacingAndGlyphs" textLength="76" x="190" y="523.2104">input_file: Str</text><ellipse cx="181" cy="532.8047" fill="none" rx="3" ry="3" style="stroke: #038048; stroke-width: 1.0;"/><text fill="#000000" font-family="sans-serif" font-size="11" lengthAdjust="spacingAndGlyphs" textLength="57" x="190" y="536.0151">name: Str</text><rect fill="none" height="6" style="stroke: #C82930; stroke-width: 1.0;" width="6" x="178" y="542.6094"/><text fill="#000000" font-family="sans-serif" font-size="11" lengthAdjust="spacingAndGlyphs" textLength="125" x="190" y="548.8198">__loadcase: Loadcase</text><rect fill="none" height="6" style="stroke: #C82930; stroke-width: 1.0;" width="6" x="178" y="555.4141"/><text fill="#000000" font-family="sans-serif" font-size="11" lengthAdjust="spacingAndGlyphs" textLength="69" x="190" y="561.6245">__mode: Str</text><rect fill="none" height="6" style="stroke: #C82930; stroke-width: 1.0;" width="6" x="178" y="568.2188"/><text fill="#000000" font-family="sans-serif" font-size="11" lengthAdjust="spacingAndGlyphs" textLength="122" x="190" y="574.4292">__propeller: Propeller</text><line style="stroke: #A80036; stroke-width: 1.0;" x1="171" x2="608" y1="581.0234" y2="581.0234"/><rect fill="#F24D5C" height="6" style="stroke: #C82930; stroke-width: 1.0;" width="6" x="178" y="589.0234"/><text fill="#000000" font-family="sans-serif" font-size="11" lengthAdjust="spacingAndGlyphs" textLength="413" x="190" y="595.2339">__init__(self, propeller: Propeller, loadcase: Loadcase, mode='hide': Str)</text><ellipse cx="181" cy="604.8281" fill="#84BE84" rx="3" ry="3" style="stroke: #038048; stroke-width: 1.0;"/><text fill="#000000" font-family="sans-serif" font-size="11" lengthAdjust="spacingAndGlyphs" textLength="51" x="190" y="608.0386">arbi(self)</text><ellipse cx="181" cy="617.6328" fill="#84BE84" rx="3" ry="3" style="stroke: #038048; stroke-width: 1.0;"/><text fill="#000000" font-family="sans-serif" font-size="11" lengthAdjust="spacingAndGlyphs" textLength="107" x="190" y="620.8433">parse_airfoils(self)</text><ellipse cx="181" cy="630.4375" fill="#84BE84" rx="3" ry="3" style="stroke: #038048; stroke-width: 1.0;"/><text fill="#000000" font-family="sans-serif" font-size="11" lengthAdjust="spacingAndGlyphs" text-decoration="underline" textLength="254" x="190" y="633.6479">read_bend_output(filename: Str): DataFrame</text><ellipse cx="181" cy="643.2422" fill="#84BE84" rx="3" ry="3" style="stroke: #038048; stroke-width: 1.0;"/><text fill="#000000" font-family="sans-serif" font-size="11" lengthAdjust="spacingAndGlyphs" text-decoration="underline" textLength="252" x="190" y="646.4526">read_oper_output(filename: Str): DataFrame</text><!--MD5=[432a26014d6806de21f9dcededb4ca89]
class Airfoil--><rect codeLine="56" fill="#FEFECE" filter="url(#f8ldyxua81z5l)" height="286.4844" id="Airfoil" style="stroke: #A80036; stroke-width: 1.5;" width="500" x="644.5" y="422"/><ellipse cx="873.25" cy="438" fill="#ADD1B2" rx="11" ry="11" style="stroke: #A80036; stroke-width: 1.0;"/><path d="M876.2188,443.6406 Q875.6406,443.9375 875,444.0781 Q874.3594,444.2344 873.6563,444.2344 Q871.1563,444.2344 869.8281,442.5938 Q868.5156,440.9375 868.5156,437.8125 Q868.5156,434.6875 869.8281,433.0313 Q871.1563,431.375 873.6563,431.375 Q874.3594,431.375 875,431.5313 Q875.6563,431.6875 876.2188,431.9844 L876.2188,434.7031 Q875.5938,434.125 875,433.8594 Q874.4063,433.5781 873.7813,433.5781 Q872.4375,433.5781 871.75,434.6563 Q871.0625,435.7188 871.0625,437.8125 Q871.0625,439.9063 871.75,440.9844 Q872.4375,442.0469 873.7813,442.0469 Q874.4063,442.0469 875,441.7813 Q875.5938,441.5 876.2188,440.9219 L876.2188,443.6406 Z "/><text fill="#000000" font-family="sans-serif" font-size="12" lengthAdjust="spacingAndGlyphs" textLength="34" x="893.75" y="442.1543">Airfoil</text><line style="stroke: #A80036; stroke-width: 1.5;" x1="645.5" x2="1143.5" y1="454" y2="454"/><rect fill="none" height="6" style="stroke: #C82930; stroke-width: 1.0;" width="6" x="652.5" y="462"/><text fill="#000000" font-family="sans-serif" font-size="11" lengthAdjust="spacingAndGlyphs" textLength="149" x="664.5" y="468.2104">__coordinates: DataFrame</text><rect fill="none" height="6" style="stroke: #C82930; stroke-width: 1.0;" width="6" x="652.5" y="474.8047"/><text fill="#000000" font-family="sans-serif" font-size="11" lengthAdjust="spacingAndGlyphs" textLength="108" x="664.5" y="481.0151">__parameters: Dict</text><rect fill="none" height="6" style="stroke: #C82930; stroke-width: 1.0;" width="6" x="652.5" y="487.6094"/><text fill="#000000" font-family="sans-serif" font-size="11" lengthAdjust="spacingAndGlyphs" textLength="111" x="664.5" y="493.8198">__polar: DataFrame</text><rect fill="none" height="6" style="stroke: #C82930; stroke-width: 1.0;" width="6" x="652.5" y="500.4141"/><text fill="#000000" font-family="sans-serif" font-size="11" lengthAdjust="spacingAndGlyphs" textLength="165" x="664.5" y="506.6245">__xrotor_characteristics: Dict</text><line style="stroke: #A80036; stroke-width: 1.0;" x1="645.5" x2="1143.5" y1="513.2188" y2="513.2188"/><rect fill="#F24D5C" height="6" style="stroke: #C82930; stroke-width: 1.0;" width="6" x="652.5" y="521.2188"/><text fill="#000000" font-family="sans-serif" font-size="11" lengthAdjust="spacingAndGlyphs" textLength="398" x="664.5" y="527.4292">__init__(self, airfoil_filename: Str, Re: Float, Ncrit=9: Int, Iter=200: Int)</text><rect fill="#F24D5C" height="6" style="stroke: #C82930; stroke-width: 1.0;" width="6" x="652.5" y="534.0234"/><text fill="#000000" font-family="sans-serif" font-size="11" lengthAdjust="spacingAndGlyphs" text-decoration="underline" textLength="259" x="664.5" y="540.2339">__fit_cl_alpha__(self, x, x0, x1, a3, b1, b3, c2)</text><rect fill="#F24D5C" height="6" style="stroke: #C82930; stroke-width: 1.0;" width="6" x="652.5" y="546.8281"/><text fill="#000000" font-family="sans-serif" font-size="11" lengthAdjust="spacingAndGlyphs" textLength="102" x="664.5" y="553.0386">__repr__(self): Str</text><ellipse cx="655.5" cy="562.6328" fill="#84BE84" rx="3" ry="3" style="stroke: #038048; stroke-width: 1.0;"/><text fill="#000000" font-family="sans-serif" font-size="11" lengthAdjust="spacingAndGlyphs" textLength="281" x="664.5" y="565.8433">cp_vs_x(self, mode: Str, value: Float): DataFrame</text><ellipse cx="655.5" cy="575.4375" fill="#84BE84" rx="3" ry="3" style="stroke: #038048; stroke-width: 1.0;"/><text fill="#000000" font-family="sans-serif" font-size="11" lengthAdjust="spacingAndGlyphs" text-decoration="underline" textLength="473" x="664.5" y="578.6479">interpolate(airfoil1: Airfoil, airfoil2: Airfoil, fraction_of_2nd_airfoil: Float): DataFrame</text><ellipse cx="655.5" cy="605.0469" fill="#84BE84" rx="3" ry="3" style="stroke: #038048; stroke-width: 1.0;"/><text fill="#000000" font-family="sans-serif" font-size="11" lengthAdjust="spacingAndGlyphs" textLength="166" x="664.5" y="608.2573">coordinates(self): DataFrame</text><ellipse cx="655.5" cy="617.8516" fill="#84BE84" rx="3" ry="3" style="stroke: #038048; stroke-width: 1.0;"/><text fill="#000000" font-family="sans-serif" font-size="11" lengthAdjust="spacingAndGlyphs" textLength="125" x="664.5" y="621.062">parameters(self): Dict</text><ellipse cx="655.5" cy="630.6563" fill="#84BE84" rx="3" ry="3" style="stroke: #038048; stroke-width: 1.0;"/><text fill="#000000" font-family="sans-serif" font-size="11" lengthAdjust="spacingAndGlyphs" textLength="128" x="664.5" y="633.8667">polar(self): DataFrame</text><ellipse cx="655.5" cy="643.4609" fill="#84BE84" rx="3" ry="3" style="stroke: #038048; stroke-width: 1.0;"/><text fill="#000000" font-family="sans-serif" font-size="11" lengthAdjust="spacingAndGlyphs" textLength="182" x="664.5" y="646.6714">xrotor_characteristics(self): Dict</text><line style="stroke: #A80036; stroke-width: 1.0; stroke-dasharray: 1.0,2.0;" x1="645.5" x2="876.5" y1="591.6445" y2="591.6445"/><text fill="#000000" font-family="sans-serif" font-size="11" lengthAdjust="spacingAndGlyphs" textLength="36" x="876.5" y="594.9526">Getter</text><line style="stroke: #A80036; stroke-width: 1.0; stroke-dasharray: 1.0,2.0;" x1="912.5" x2="1143.5" y1="591.6445" y2="591.6445"/><ellipse cx="655.5" cy="673.0703" fill="#84BE84" rx="3" ry="3" style="stroke: #038048; stroke-width: 1.0;"/><text fill="#000000" font-family="sans-serif" font-size="11" lengthAdjust="spacingAndGlyphs" textLength="278" x="664.5" y="676.2808">coordinates(self, coordinates: Str or DataFrame)</text><ellipse cx="655.5" cy="685.875" fill="#84BE84" rx="3" ry="3" style="stroke: #038048; stroke-width: 1.0;"/><text fill="#000000" font-family="sans-serif" font-size="11" lengthAdjust="spacingAndGlyphs" textLength="474" x="664.5" y="689.0854">set_polar(self, alpha_start=-20: Float, alpha_stop=20: Float, alpha_inc=0.25: Float)</text><ellipse cx="655.5" cy="698.6797" fill="#84BE84" rx="3" ry="3" style="stroke: #038048; stroke-width: 1.0;"/><text fill="#000000" font-family="sans-serif" font-size="11" lengthAdjust="spacingAndGlyphs" textLength="274" x="664.5" y="701.8901">xrotor_characteristics(self, characteristics: Dict)</text><line style="stroke: #A80036; stroke-width: 1.0; stroke-dasharray: 1.0,2.0;" x1="645.5" x2="877" y1="659.668" y2="659.668"/><text fill="#000000" font-family="sans-serif" font-size="11" lengthAdjust="spacingAndGlyphs" textLength="35" x="877" y="662.9761">Setter</text><line style="stroke: #A80036; stroke-width: 1.0; stroke-dasharray: 1.0,2.0;" x1="912" x2="1143.5" y1="659.668" y2="659.668"/><!--MD5=[b0a93aebd65bb3468015f36161c68501]
class Propeller--><rect codeLine="78" fill="#FEFECE" filter="url(#f8ldyxua81z5l)" height="337.7031" id="Propeller" style="stroke: #A80036; stroke-width: 1.5;" width="436" x="676.5" y="7"/><ellipse cx="862.25" cy="23" fill="#ADD1B2" rx="11" ry="11" style="stroke: #A80036; stroke-width: 1.0;"/><path d="M865.2188,28.6406 Q864.6406,28.9375 864,29.0781 Q863.3594,29.2344 862.6563,29.2344 Q860.1563,29.2344 858.8281,27.5938 Q857.5156,25.9375 857.5156,22.8125 Q857.5156,19.6875 858.8281,18.0313 Q860.1563,16.375 862.6563,16.375 Q863.3594,16.375 864,16.5313 Q864.6563,16.6875 865.2188,16.9844 L865.2188,19.7031 Q864.5938,19.125 864,18.8594 Q863.4063,18.5781 862.7813,18.5781 Q861.4375,18.5781 860.75,19.6563 Q860.0625,20.7188 860.0625,22.8125 Q860.0625,24.9063 860.75,25.9844 Q861.4375,27.0469 862.7813,27.0469 Q863.4063,27.0469 864,26.7813 Q864.5938,26.5 865.2188,25.9219 L865.2188,28.6406 Z "/><text fill="#000000" font-family="sans-serif" font-size="12" lengthAdjust="spacingAndGlyphs" textLength="56" x="882.75" y="27.1543">Propeller</text><line style="stroke: #A80036; stroke-width: 1.5;" x1="677.5" x2="1111.5" y1="39" y2="39"/><rect fill="none" height="6" style="stroke: #C82930; stroke-width: 1.0;" width="6" x="684.5" y="47"/><text fill="#000000" font-family="sans-serif" font-size="11" lengthAdjust="spacingAndGlyphs" textLength="108" x="696.5" y="53.2104">__parameters: Dict</text><rect fill="none" height="6" style="stroke: #C82930; stroke-width: 1.0;" width="6" x="684.5" y="59.8047"/><text fill="#000000" font-family="sans-serif" font-size="11" lengthAdjust="spacingAndGlyphs" textLength="99" x="696.5" y="66.0151">__loadcases: Dict</text><rect fill="none" height="6" style="stroke: #C82930; stroke-width: 1.0;" width="6" x="684.5" y="72.6094"/><text fill="#000000" font-family="sans-serif" font-size="11" lengthAdjust="spacingAndGlyphs" textLength="122" x="696.5" y="78.8198">__load_envelope: Dict</text><rect fill="none" height="6" style="stroke: #C82930; stroke-width: 1.0;" width="6" x="684.5" y="85.4141"/><text fill="#000000" font-family="sans-serif" font-size="11" lengthAdjust="spacingAndGlyphs" textLength="94" x="696.5" y="91.6245">__geometry: List</text><rect fill="none" height="6" style="stroke: #C82930; stroke-width: 1.0;" width="6" x="684.5" y="98.2188"/><text fill="#000000" font-family="sans-serif" font-size="11" lengthAdjust="spacingAndGlyphs" textLength="88" x="696.5" y="104.4292">__sections: List</text><line style="stroke: #A80036; stroke-width: 1.0;" x1="677.5" x2="1111.5" y1="111.0234" y2="111.0234"/><rect fill="#F24D5C" height="6" style="stroke: #C82930; stroke-width: 1.0;" width="6" x="684.5" y="119.0234"/><text fill="#000000" font-family="sans-serif" font-size="11" lengthAdjust="spacingAndGlyphs" textLength="410" x="696.5" y="125.2339">__init__(self, number_of_blades: Int, tip_radius: Float, hub_radius: Float)</text><rect fill="#F24D5C" height="6" style="stroke: #C82930; stroke-width: 1.0;" width="6" x="684.5" y="131.8281"/><text fill="#000000" font-family="sans-serif" font-size="11" lengthAdjust="spacingAndGlyphs" textLength="102" x="696.5" y="138.0386">__repr__(self): Str</text><ellipse cx="687.5" cy="147.6328" fill="#84BE84" rx="3" ry="3" style="stroke: #038048; stroke-width: 1.0;"/><text fill="#000000" font-family="sans-serif" font-size="11" lengthAdjust="spacingAndGlyphs" textLength="88" x="696.5" y="150.8433">calc_loads(self)</text><ellipse cx="687.5" cy="160.4375" fill="#84BE84" rx="3" ry="3" style="stroke: #038048; stroke-width: 1.0;"/><text fill="#000000" font-family="sans-serif" font-size="11" lengthAdjust="spacingAndGlyphs" textLength="328" x="696.5" y="163.6479">pressure_distribution(self, loadcase: Loadcase): np.array</text><ellipse cx="687.5" cy="190.0469" fill="#84BE84" rx="3" ry="3" style="stroke: #038048; stroke-width: 1.0;"/><text fill="#000000" font-family="sans-serif" font-size="11" lengthAdjust="spacingAndGlyphs" textLength="111" x="696.5" y="193.2573">geometry(self): List</text><ellipse cx="687.5" cy="202.8516" fill="#84BE84" rx="3" ry="3" style="stroke: #038048; stroke-width: 1.0;"/><text fill="#000000" font-family="sans-serif" font-size="11" lengthAdjust="spacingAndGlyphs" textLength="116" x="696.5" y="206.062">loadcases(self): Dict</text><ellipse cx="687.5" cy="215.6563" fill="#84BE84" rx="3" ry="3" style="stroke: #038048; stroke-width: 1.0;"/><text fill="#000000" font-family="sans-serif" font-size="11" lengthAdjust="spacingAndGlyphs" textLength="139" x="696.5" y="218.8667">load_envelope(self): Dict</text><ellipse cx="687.5" cy="228.4609" fill="#84BE84" rx="3" ry="3" style="stroke: #038048; stroke-width: 1.0;"/><text fill="#000000" font-family="sans-serif" font-size="11" lengthAdjust="spacingAndGlyphs" textLength="125" x="696.5" y="231.6714">parameters(self): Dict</text><ellipse cx="687.5" cy="241.2656" fill="#84BE84" rx="3" ry="3" style="stroke: #038048; stroke-width: 1.0;"/><text fill="#000000" font-family="sans-serif" font-size="11" lengthAdjust="spacingAndGlyphs" textLength="105" x="696.5" y="244.4761">sections(self): List</text><line style="stroke: #A80036; stroke-width: 1.0; stroke-dasharray: 1.0,2.0;" x1="677.5" x2="876.5" y1="176.6445" y2="176.6445"/><text fill="#000000" font-family="sans-serif" font-size="11" lengthAdjust="spacingAndGlyphs" textLength="36" x="876.5" y="179.9526">Getter</text><line style="stroke: #A80036; stroke-width: 1.0; stroke-dasharray: 1.0,2.0;" x1="912.5" x2="1111.5" y1="176.6445" y2="176.6445"/><ellipse cx="687.5" cy="270.875" fill="#84BE84" rx="3" ry="3" style="stroke: #038048; stroke-width: 1.0;"/><text fill="#000000" font-family="sans-serif" font-size="11" lengthAdjust="spacingAndGlyphs" textLength="293" x="696.5" y="274.0854">add_loadcase(self, name: Str, loadcase: Loadcase)</text><ellipse cx="687.5" cy="283.6797" fill="#84BE84" rx="3" ry="3" style="stroke: #038048; stroke-width: 1.0;"/><text fill="#000000" font-family="sans-serif" font-size="11" lengthAdjust="spacingAndGlyphs" textLength="232" x="696.5" y="286.8901">add_section(self, rR: Float, airfoil: Airfoil)</text><ellipse cx="687.5" cy="296.4844" fill="#84BE84" rx="3" ry="3" style="stroke: #038048; stroke-width: 1.0;"/><text fill="#000000" font-family="sans-serif" font-size="11" lengthAdjust="spacingAndGlyphs" textLength="217" x="696.5" y="299.6948">geometry(self, array: List or np.array)</text><ellipse cx="687.5" cy="309.2891" fill="#84BE84" rx="3" ry="3" style="stroke: #038048; stroke-width: 1.0;"/><text fill="#000000" font-family="sans-serif" font-size="11" lengthAdjust="spacingAndGlyphs" textLength="200" x="696.5" y="312.4995">parameters(self, parameters: Dict)</text><ellipse cx="687.5" cy="322.0938" fill="#84BE84" rx="3" ry="3" style="stroke: #038048; stroke-width: 1.0;"/><text fill="#000000" font-family="sans-serif" font-size="11" lengthAdjust="spacingAndGlyphs" textLength="134" x="696.5" y="325.3042">set_load_envelope(self)</text><text fill="#000000" font-family="sans-serif" font-size="11" lengthAdjust="spacingAndGlyphs" textLength="0" x="700.5" y="338.1089"/><line style="stroke: #A80036; stroke-width: 1.0; stroke-dasharray: 1.0,2.0;" x1="677.5" x2="877" y1="257.4727" y2="257.4727"/><text fill="#000000" font-family="sans-serif" font-size="11" lengthAdjust="spacingAndGlyphs" textLength="35" x="877" y="260.7808">Setter</text><line style="stroke: #A80036; stroke-width: 1.0; stroke-dasharray: 1.0,2.0;" x1="912" x2="1111.5" y1="257.4727" y2="257.4727"/><!--MD5=[b6942295d4995444148e641b385ccc5b]
class Loadcase--><rect codeLine="103" fill="#FEFECE" filter="url(#f8ldyxua81z5l)" height="235.2656" id="Loadcase" style="stroke: #A80036; stroke-width: 1.5;" width="496" x="1179.5" y="447.5"/><ellipse cx="1393.25" cy="463.5" fill="#ADD1B2" rx="11" ry="11" style="stroke: #A80036; stroke-width: 1.0;"/><path d="M1396.2188,469.1406 Q1395.6406,469.4375 1395,469.5781 Q1394.3594,469.7344 1393.6563,469.7344 Q1391.1563,469.7344 1389.8281,468.0938 Q1388.5156,466.4375 1388.5156,463.3125 Q1388.5156,460.1875 1389.8281,458.5313 Q1391.1563,456.875 1393.6563,456.875 Q1394.3594,456.875 1395,457.0313 Q1395.6563,457.1875 1396.2188,457.4844 L1396.2188,460.2031 Q1395.5938,459.625 1395,459.3594 Q1394.4063,459.0781 1393.7813,459.0781 Q1392.4375,459.0781 1391.75,460.1563 Q1391.0625,461.2188 1391.0625,463.3125 Q1391.0625,465.4063 1391.75,466.4844 Q1392.4375,467.5469 1393.7813,467.5469 Q1394.4063,467.5469 1395,467.2813 Q1395.5938,467 1396.2188,466.4219 L1396.2188,469.1406 Z "/><text fill="#000000" font-family="sans-serif" font-size="12" lengthAdjust="spacingAndGlyphs" textLength="60" x="1413.75" y="467.6543">Loadcase</text><line style="stroke: #A80036; stroke-width: 1.5;" x1="1180.5" x2="1674.5" y1="479.5" y2="479.5"/><rect fill="none" height="6" style="stroke: #C82930; stroke-width: 1.0;" width="6" x="1187.5" y="487.5"/><text fill="#000000" font-family="sans-serif" font-size="11" lengthAdjust="spacingAndGlyphs" textLength="74" x="1199.5" y="493.7104">__data = List</text><rect fill="none" height="6" style="stroke: #C82930; stroke-width: 1.0;" width="6" x="1187.5" y="500.3047"/><text fill="#000000" font-family="sans-serif" font-size="11" lengthAdjust="spacingAndGlyphs" textLength="116" x="1199.5" y="506.5151">__flight_speed: Float</text><rect fill="none" height="6" style="stroke: #C82930; stroke-width: 1.0;" width="6" x="1187.5" y="513.1094"/><text fill="#000000" font-family="sans-serif" font-size="11" lengthAdjust="spacingAndGlyphs" textLength="69" x="1199.5" y="519.3198">__name: Str</text><line style="stroke: #A80036; stroke-width: 1.0;" x1="1180.5" x2="1674.5" y1="525.9141" y2="525.9141"/><rect fill="#F24D5C" height="6" style="stroke: #C82930; stroke-width: 1.0;" width="6" x="1187.5" y="533.9141"/><text fill="#000000" font-family="sans-serif" font-size="11" lengthAdjust="spacingAndGlyphs" textLength="247" x="1199.5" y="540.1245">__init__(self, name: Str, flight_speed: Float)</text><rect fill="#F24D5C" height="6" style="stroke: #C82930; stroke-width: 1.0;" width="6" x="1187.5" y="546.7188"/><text fill="#000000" font-family="sans-serif" font-size="11" lengthAdjust="spacingAndGlyphs" textLength="102" x="1199.5" y="552.9292">__repr__(self): Str</text><ellipse cx="1190.5" cy="579.3281" fill="#84BE84" rx="3" ry="3" style="stroke: #038048; stroke-width: 1.0;"/><text fill="#000000" font-family="sans-serif" font-size="11" lengthAdjust="spacingAndGlyphs" textLength="82" x="1199.5" y="582.5386">data(self): List</text><ellipse cx="1190.5" cy="592.1328" fill="#84BE84" rx="3" ry="3" style="stroke: #038048; stroke-width: 1.0;"/><text fill="#000000" font-family="sans-serif" font-size="11" lengthAdjust="spacingAndGlyphs" textLength="133" x="1199.5" y="595.3433">flight_speed(self): Float</text><ellipse cx="1190.5" cy="604.9375" fill="#84BE84" rx="3" ry="3" style="stroke: #038048; stroke-width: 1.0;"/><text fill="#000000" font-family="sans-serif" font-size="11" lengthAdjust="spacingAndGlyphs" textLength="86" x="1199.5" y="608.1479">name(self): Str</text><ellipse cx="1190.5" cy="617.7422" fill="#84BE84" rx="3" ry="3" style="stroke: #038048; stroke-width: 1.0;"/><text fill="#000000" font-family="sans-serif" font-size="11" lengthAdjust="spacingAndGlyphs" textLength="209" x="1199.5" y="620.9526">results(self): DataFrame, DataFrame</text><line style="stroke: #A80036; stroke-width: 1.0; stroke-dasharray: 1.0,2.0;" x1="1180.5" x2="1409.5" y1="565.9258" y2="565.9258"/><text fill="#000000" font-family="sans-serif" font-size="11" lengthAdjust="spacingAndGlyphs" textLength="36" x="1409.5" y="569.2339">Getter</text><line style="stroke: #A80036; stroke-width: 1.0; stroke-dasharray: 1.0,2.0;" x1="1445.5" x2="1674.5" y1="565.9258" y2="565.9258"/><ellipse cx="1190.5" cy="647.3516" fill="#84BE84" rx="3" ry="3" style="stroke: #038048; stroke-width: 1.0;"/><text fill="#000000" font-family="sans-serif" font-size="11" lengthAdjust="spacingAndGlyphs" textLength="210" x="1199.5" y="650.562">flight_speed(self, flight_speed: Float)</text><ellipse cx="1190.5" cy="660.1563" fill="#84BE84" rx="3" ry="3" style="stroke: #038048; stroke-width: 1.0;"/><text fill="#000000" font-family="sans-serif" font-size="11" lengthAdjust="spacingAndGlyphs" textLength="126" x="1199.5" y="663.3667">name(self, name: Str)</text><ellipse cx="1190.5" cy="672.9609" fill="#84BE84" rx="3" ry="3" style="stroke: #038048; stroke-width: 1.0;"/><text fill="#000000" font-family="sans-serif" font-size="11" lengthAdjust="spacingAndGlyphs" textLength="470" x="1199.5" y="676.1714">set_data(self, prescribe_type: Str, value: Float, fix=None: Str, value2=None: Float)</text><line style="stroke: #A80036; stroke-width: 1.0; stroke-dasharray: 1.0,2.0;" x1="1180.5" x2="1410" y1="633.9492" y2="633.9492"/><text fill="#000000" font-family="sans-serif" font-size="11" lengthAdjust="spacingAndGlyphs" textLength="35" x="1410" y="637.2573">Setter</text><line style="stroke: #A80036; stroke-width: 1.0; stroke-dasharray: 1.0,2.0;" x1="1445" x2="1674.5" y1="633.9492" y2="633.9492"/><!--MD5=[cb006b10550e40cbe910f03b1c13cc26]
reverse link Xsoftware to Xfoil--><path codeLine="3" d="M193.71,264.26 C178.01,310.44 160.85,368.51 152.5,422 C132.68,548.99 136.31,699.58 140.84,784.95 " fill="none" id="Xsoftware-backto-Xfoil" style="stroke: #A80036; stroke-width: 1.0;"/><polygon fill="none" points="187.14,261.84,200.32,245.25,200.36,266.44,187.14,261.84" style="stroke: #A80036; stroke-width: 1.0;"/><!--MD5=[69a732efceb5f56650e76bb8b3b61df4]
reverse link Xsoftware to Xrotor--><path codeLine="4" d="M263.07,263.82 C289.81,327.31 325.94,413.09 352.73,476.7 " fill="none" id="Xsoftware-backto-Xrotor" style="stroke: #A80036; stroke-width: 1.0;"/><polygon fill="none" points="256.58,266.45,255.27,245.3,269.48,261.01,256.58,266.45" style="stroke: #A80036; stroke-width: 1.0;"/><!--MD5=[3bfd7886d18eac15392946c0cb26e44f]
link Airfoil to Xfoil--><path codeLine="5" d="M639.44,702.57 C635.11,704.42 630.79,706.24 626.5,708 C515.93,753.45 385.88,791.8 288.91,817.62 " fill="none" id="Airfoil-Xfoil" style="stroke: #A80036; stroke-width: 1.0; stroke-dasharray: 1.0,3.0;"/><polygon fill="#A80036" points="284.02,818.92,293.7419,820.4964,288.8552,817.6468,291.7048,812.7601,284.02,818.92" style="stroke: #A80036; stroke-width: 1.0;"/><polygon fill="#A80036" points="644.14,700.55,634.2916,700.4557,639.5517,702.5368,637.4705,707.7969,644.14,700.55" style="stroke: #A80036; stroke-width: 1.0;"/><text fill="#000000" font-family="sans-serif" font-size="13" lengthAdjust="spacingAndGlyphs" textLength="30" x="538.5" y="751.0669">uses</text><!--MD5=[698509272ce6ae0e161c0aeebfeeb3aa]
link Propeller to Xrotor--><path codeLine="6" d="M672.11,347.43 C615.37,390.91 556.57,435.97 507.4,473.65 " fill="none" id="Propeller-Xrotor" style="stroke: #A80036; stroke-width: 1.0; stroke-dasharray: 1.0,3.0;"/><polygon fill="#A80036" points="503.27,476.81,512.8469,474.5114,507.239,473.769,507.9813,468.1611,503.27,476.81" style="stroke: #A80036; stroke-width: 1.0;"/><polygon fill="#A80036" points="676.3,344.21,666.7231,346.5086,672.331,347.251,671.5887,352.8589,676.3,344.21" style="stroke: #A80036; stroke-width: 1.0;"/><text fill="#000000" font-family="sans-serif" font-size="13" lengthAdjust="spacingAndGlyphs" textLength="30" x="628.5" y="388.0669">uses</text><!--MD5=[4bcdfd812b6a22662a0ddb1addf058ba]
reverse link Propeller to Airfoil--><path codeLine="7" d="M894.5,358.3 C894.5,379.63 894.5,401.15 894.5,421.84 " fill="none" id="Propeller-backto-Airfoil" style="stroke: #A80036; stroke-width: 1.0;"/><polygon fill="#FFFFFF" points="894.5,345.06,890.5,351.06,894.5,357.06,898.5,351.06,894.5,345.06" style="stroke: #A80036; stroke-width: 1.0;"/><text fill="#000000" font-family="sans-serif" font-size="13" lengthAdjust="spacingAndGlyphs" textLength="8" x="886.3313" y="364.5846">1</text><text fill="#000000" font-family="sans-serif" font-size="13" lengthAdjust="spacingAndGlyphs" textLength="23" x="870.907" y="411.1294">1..*</text><!--MD5=[423eff011b7f80488028cccd7ff48d91]
reverse link Propeller to Loadcase--><path codeLine="8" d="M1123.44,343.23 C1171.8,378.34 1221.85,414.68 1267.03,447.49 " fill="none" id="Propeller-backto-Loadcase" style="stroke: #A80036; stroke-width: 1.0;"/><polygon fill="#FFFFFF" points="1112.83,335.52,1115.3374,342.2811,1122.5428,342.5671,1120.0354,335.8059,1112.83,335.52" style="stroke: #A80036; stroke-width: 1.0;"/><text fill="#000000" font-family="sans-serif" font-size="13" lengthAdjust="spacingAndGlyphs" textLength="8" x="1120.82" y="338.0578">1</text><text fill="#000000" font-family="sans-serif" font-size="13" lengthAdjust="spacingAndGlyphs" textLength="23" x="1233.0132" y="436.5442">1..*</text><!--MD5=[08f8730de2e2edaff743456db2132811]
@startuml
'skinparam monochrome true

Xsoftware <|- - Xfoil
Xsoftware <|- - Xrotor
Airfoil <-[dotted]-> Xfoil : uses
Propeller <-[dotted]-> Xrotor: uses
Propeller "1" o- - "1..*" Airfoil
Propeller "1" o- - "1..*" Loadcase


'note right of Airfoil::__repr__(self) 
'  Todo: implement
'end note
'note left of Propeller::set_load_envelope(self)
'  Todo: implement
'end note
'note "Todo: auf Benutzung von\nProperties ändern" as NProp

'NProp .. Loadcase
'NProp .. Propeller

class Xsoftware {
  +name: Str
  +f: Open
  -__init__(self)
  -__enter__(self)
  -__exit__(self, exc_type, exc_value, exc_traceback)
  +run(self, argument)
  +run_array(self, array)
}

class Xfoil {
  +input_file: Str
  +name: Str
  -__mode: Str
  -__init__(self, mode='hide': Str)
  +{static}read_coordinates(filename: Str): DataFrame
  +{static}read_cp_vs_x(filename: Str): DataFrame
  +{static}read_polar(filename: Str): DataFrame
}

class Xrotor {
  +input_file: Str
  +name: Str
  -__loadcase: Loadcase
  -__mode: Str
  -__propeller: Propeller
  - -
  -__init__(self, propeller: Propeller, loadcase: Loadcase, mode='hide': Str)
  +arbi(self)
  +parse_airfoils(self)
  +{static}read_bend_output(filename: Str): DataFrame
  +{static}read_oper_output(filename: Str): DataFrame
}

class Airfoil{
  -__coordinates: DataFrame
  -__parameters: Dict
  -__polar: DataFrame
  -__xrotor_characteristics: Dict
  - -
  -__init__(self, airfoil_filename: Str, Re: Float, Ncrit=9: Int, Iter=200: Int)
  -{static}__fit_cl_alpha__(self, x, x0, x1, a3, b1, b3, c2)
  -__repr__(self): Str
  +cp_vs_x(self, mode: Str, value: Float): DataFrame
  +{static}interpolate(airfoil1: Airfoil, airfoil2: Airfoil, fraction_of_2nd_airfoil: Float): DataFrame
  ..Getter..
  +coordinates(self): DataFrame
  +parameters(self): Dict
  +polar(self): DataFrame
  +xrotor_characteristics(self): Dict
  ..Setter..
  +coordinates(self, coordinates: Str or DataFrame)
  +set_polar(self, alpha_start=-20: Float, alpha_stop=20: Float, alpha_inc=0.25: Float)
  +xrotor_characteristics(self, characteristics: Dict)
}

class Propeller{
  -__parameters: Dict
  -__loadcases: Dict
  -__load_envelope: Dict
  -__geometry: List
  -__sections: List
  - -
  -__init__(self, number_of_blades: Int, tip_radius: Float, hub_radius: Float)
  -__repr__(self): Str
  +calc_loads(self)
  +pressure_distribution(self, loadcase: Loadcase): np.array
  ..Getter..
  +geometry(self): List
  +loadcases(self): Dict
  +load_envelope(self): Dict
  +parameters(self): Dict
  +sections(self): List
  ..Setter..
  +add_loadcase(self, name: Str, loadcase: Loadcase)
  +add_section(self, rR: Float, airfoil: Airfoil)
  +geometry(self, array: List or np.array)
  +parameters(self, parameters: Dict)
  +set_load_envelope(self)
  
}
class Loadcase{
  -__data = List
  -__flight_speed: Float
  -__name: Str
  - -
  -__init__(self, name: Str, flight_speed: Float)
  -__repr__(self): Str
  ..Getter..
  +data(self): List
  +flight_speed(self): Float
  +name(self): Str
  +results(self): DataFrame, DataFrame
  ..Setter..
  +flight_speed(self, flight_speed: Float)
  +name(self, name: Str)
  +set_data(self, prescribe_type: Str, value: Float, fix=None: Str, value2=None: Float)
}

'Xsoftware -[hidden]- Xfoil
'Xfoil -[hidden]> Xrotor
'Xfoil -[hidden]- Propeller
'Xsoftware -[hidden]- Propeller
'Airfoil -[hidden]> Propeller
'Propeller -[hidden]> Loadcase
@enduml

@startuml

Xsoftware <|- - Xfoil
Xsoftware <|- - Xrotor
Airfoil <-[dotted]-> Xfoil : uses
Propeller <-[dotted]-> Xrotor: uses
Propeller "1" o- - "1..*" Airfoil
Propeller "1" o- - "1..*" Loadcase




class Xsoftware {
  +name: Str
  +f: Open
  -__init__(self)
  -__enter__(self)
  -__exit__(self, exc_type, exc_value, exc_traceback)
  +run(self, argument)
  +run_array(self, array)
}

class Xfoil {
  +input_file: Str
  +name: Str
  -__mode: Str
  -__init__(self, mode='hide': Str)
  +{static}read_coordinates(filename: Str): DataFrame
  +{static}read_cp_vs_x(filename: Str): DataFrame
  +{static}read_polar(filename: Str): DataFrame
}

class Xrotor {
  +input_file: Str
  +name: Str
  -__loadcase: Loadcase
  -__mode: Str
  -__propeller: Propeller
  - -
  -__init__(self, propeller: Propeller, loadcase: Loadcase, mode='hide': Str)
  +arbi(self)
  +parse_airfoils(self)
  +{static}read_bend_output(filename: Str): DataFrame
  +{static}read_oper_output(filename: Str): DataFrame
}

class Airfoil{
  -__coordinates: DataFrame
  -__parameters: Dict
  -__polar: DataFrame
  -__xrotor_characteristics: Dict
  - -
  -__init__(self, airfoil_filename: Str, Re: Float, Ncrit=9: Int, Iter=200: Int)
  -{static}__fit_cl_alpha__(self, x, x0, x1, a3, b1, b3, c2)
  -__repr__(self): Str
  +cp_vs_x(self, mode: Str, value: Float): DataFrame
  +{static}interpolate(airfoil1: Airfoil, airfoil2: Airfoil, fraction_of_2nd_airfoil: Float): DataFrame
  ..Getter..
  +coordinates(self): DataFrame
  +parameters(self): Dict
  +polar(self): DataFrame
  +xrotor_characteristics(self): Dict
  ..Setter..
  +coordinates(self, coordinates: Str or DataFrame)
  +set_polar(self, alpha_start=-20: Float, alpha_stop=20: Float, alpha_inc=0.25: Float)
  +xrotor_characteristics(self, characteristics: Dict)
}

class Propeller{
  -__parameters: Dict
  -__loadcases: Dict
  -__load_envelope: Dict
  -__geometry: List
  -__sections: List
  - -
  -__init__(self, number_of_blades: Int, tip_radius: Float, hub_radius: Float)
  -__repr__(self): Str
  +calc_loads(self)
  +pressure_distribution(self, loadcase: Loadcase): np.array
  ..Getter..
  +geometry(self): List
  +loadcases(self): Dict
  +load_envelope(self): Dict
  +parameters(self): Dict
  +sections(self): List
  ..Setter..
  +add_loadcase(self, name: Str, loadcase: Loadcase)
  +add_section(self, rR: Float, airfoil: Airfoil)
  +geometry(self, array: List or np.array)
  +parameters(self, parameters: Dict)
  +set_load_envelope(self)
  
}
class Loadcase{
  -__data = List
  -__flight_speed: Float
  -__name: Str
  - -
  -__init__(self, name: Str, flight_speed: Float)
  -__repr__(self): Str
  ..Getter..
  +data(self): List
  +flight_speed(self): Float
  +name(self): Str
  +results(self): DataFrame, DataFrame
  ..Setter..
  +flight_speed(self, flight_speed: Float)
  +name(self, name: Str)
  +set_data(self, prescribe_type: Str, value: Float, fix=None: Str, value2=None: Float)
}

@enduml

PlantUML version 1.2020.19(Mon Oct 12 17:10:01 CEST 2020)
(GPL source distribution)
Java Runtime: OpenJDK Runtime Environment
JVM: OpenJDK 64-Bit Server VM
Default Encoding: UTF-8
Language: de
Country: DE
--></g></svg>