<?xml version="1.0" encoding="UTF-8" standalone="no"?><svg xmlns="http://www.w3.org/2000/svg" xmlns:xlink="http://www.w3.org/1999/xlink" contentScriptType="application/ecmascript" contentStyleType="text/css" height="670px" preserveAspectRatio="none" style="width:688px;height:670px;" version="1.1" viewBox="0 0 688 670" width="688px" zoomAndPan="magnify"><defs><filter height="300%" id="f181wzgyb1u1bv" width="300%" x="-1" y="-1"><feGaussianBlur result="blurOut" stdDeviation="2.0"/><feColorMatrix in="blurOut" result="blurOut2" type="matrix" values="0 0 0 0 0 0 0 0 0 0 0 0 0 0 0 0 0 0 .4 0"/><feOffset dx="4.0" dy="4.0" in="blurOut2" result="blurOut3"/><feBlend in="SourceGraphic" in2="blurOut3" mode="normal"/></filter></defs><g><line style="stroke: #A80036; stroke-width: 1.0; stroke-dasharray: 5.0,5.0;" x1="24" x2="24" y1="88.2969" y2="586.5547"/><line style="stroke: #A80036; stroke-width: 1.0; stroke-dasharray: 5.0,5.0;" x1="135.5" x2="135.5" y1="88.2969" y2="586.5547"/><line style="stroke: #A80036; stroke-width: 1.0; stroke-dasharray: 5.0,5.0;" x1="285.5" x2="285.5" y1="88.2969" y2="586.5547"/><line style="stroke: #A80036; stroke-width: 1.0; stroke-dasharray: 5.0,5.0;" x1="357.5" x2="357.5" y1="88.2969" y2="586.5547"/><line style="stroke: #A80036; stroke-width: 1.0; stroke-dasharray: 5.0,5.0;" x1="478" x2="478" y1="88.2969" y2="586.5547"/><line style="stroke: #A80036; stroke-width: 1.0; stroke-dasharray: 5.0,5.0;" x1="560" x2="560" y1="88.2969" y2="586.5547"/><line style="stroke: #A80036; stroke-width: 1.0; stroke-dasharray: 5.0,5.0;" x1="639" x2="639" y1="88.2969" y2="586.5547"/><text fill="#000000" font-family="sans-serif" font-size="14" lengthAdjust="spacingAndGlyphs" textLength="33" x="5" y="84.9951">main</text><ellipse cx="24.5" cy="15" fill="#FEFECE" filter="url(#f181wzgyb1u1bv)" rx="8" ry="8" style="stroke: #A80036; stroke-width: 2.0;"/><path d="M24.5,23 L24.5,50 M11.5,31 L37.5,31 M24.5,50 L11.5,65 M24.5,50 L37.5,65 " fill="none" filter="url(#f181wzgyb1u1bv)" style="stroke: #A80036; stroke-width: 2.0;"/><text fill="#000000" font-family="sans-serif" font-size="14" lengthAdjust="spacingAndGlyphs" textLength="33" x="5" y="598.5498">main</text><ellipse cx="24.5" cy="611.8516" fill="#FEFECE" filter="url(#f181wzgyb1u1bv)" rx="8" ry="8" style="stroke: #A80036; stroke-width: 2.0;"/><path d="M24.5,619.8516 L24.5,646.8516 M11.5,627.8516 L37.5,627.8516 M24.5,646.8516 L11.5,661.8516 M24.5,646.8516 L37.5,661.8516 " fill="none" filter="url(#f181wzgyb1u1bv)" style="stroke: #A80036; stroke-width: 2.0;"/><rect fill="#FEFECE" filter="url(#f181wzgyb1u1bv)" height="30.2969" style="stroke: #A80036; stroke-width: 1.5;" width="50" x="108.5" y="53"/><text fill="#000000" font-family="sans-serif" font-size="14" lengthAdjust="spacingAndGlyphs" textLength="36" x="115.5" y="72.9951">Airfoil</text><rect fill="#FEFECE" filter="url(#f181wzgyb1u1bv)" height="30.2969" style="stroke: #A80036; stroke-width: 1.5;" width="50" x="108.5" y="585.5547"/><text fill="#000000" font-family="sans-serif" font-size="14" lengthAdjust="spacingAndGlyphs" textLength="36" x="115.5" y="605.5498">Airfoil</text><rect fill="#FEFECE" filter="url(#f181wzgyb1u1bv)" height="30.2969" style="stroke: #A80036; stroke-width: 1.5;" width="42" x="262.5" y="53"/><text fill="#000000" font-family="sans-serif" font-size="14" lengthAdjust="spacingAndGlyphs" textLength="28" x="269.5" y="72.9951">Xfoil</text><rect fill="#FEFECE" filter="url(#f181wzgyb1u1bv)" height="30.2969" style="stroke: #A80036; stroke-width: 1.5;" width="42" x="262.5" y="585.5547"/><text fill="#000000" font-family="sans-serif" font-size="14" lengthAdjust="spacingAndGlyphs" textLength="28" x="269.5" y="605.5498">Xfoil</text><rect fill="#FEFECE" filter="url(#f181wzgyb1u1bv)" height="30.2969" style="stroke: #A80036; stroke-width: 1.5;" width="75" x="318.5" y="53"/><text fill="#000000" font-family="sans-serif" font-size="14" lengthAdjust="spacingAndGlyphs" textLength="61" x="325.5" y="72.9951">Propeller</text><rect fill="#FEFECE" filter="url(#f181wzgyb1u1bv)" height="30.2969" style="stroke: #A80036; stroke-width: 1.5;" width="75" x="318.5" y="585.5547"/><text fill="#000000" font-family="sans-serif" font-size="14" lengthAdjust="spacingAndGlyphs" textLength="61" x="325.5" y="605.5498">Propeller</text><rect fill="#FEFECE" filter="url(#f181wzgyb1u1bv)" height="30.2969" style="stroke: #A80036; stroke-width: 1.5;" width="80" x="436" y="53"/><text fill="#000000" font-family="sans-serif" font-size="14" lengthAdjust="spacingAndGlyphs" textLength="66" x="443" y="72.9951">Loadcase</text><rect fill="#FEFECE" filter="url(#f181wzgyb1u1bv)" height="30.2969" style="stroke: #A80036; stroke-width: 1.5;" width="80" x="436" y="585.5547"/><text fill="#000000" font-family="sans-serif" font-size="14" lengthAdjust="spacingAndGlyphs" textLength="66" x="443" y="605.5498">Loadcase</text><rect fill="#FEFECE" filter="url(#f181wzgyb1u1bv)" height="30.2969" style="stroke: #A80036; stroke-width: 1.5;" width="56" x="530" y="53"/><text fill="#000000" font-family="sans-serif" font-size="14" lengthAdjust="spacingAndGlyphs" textLength="42" x="537" y="72.9951">Xrotor</text><rect fill="#FEFECE" filter="url(#f181wzgyb1u1bv)" height="30.2969" style="stroke: #A80036; stroke-width: 1.5;" width="56" x="530" y="585.5547"/><text fill="#000000" font-family="sans-serif" font-size="14" lengthAdjust="spacingAndGlyphs" textLength="42" x="537" y="605.5498">Xrotor</text><rect fill="#FEFECE" filter="url(#f181wzgyb1u1bv)" height="30.2969" style="stroke: #A80036; stroke-width: 1.5;" width="74" x="600" y="53"/><text fill="#000000" font-family="sans-serif" font-size="14" lengthAdjust="spacingAndGlyphs" textLength="60" x="607" y="72.9951">Femodel</text><rect fill="#FEFECE" filter="url(#f181wzgyb1u1bv)" height="30.2969" style="stroke: #A80036; stroke-width: 1.5;" width="74" x="600" y="585.5547"/><text fill="#000000" font-family="sans-serif" font-size="14" lengthAdjust="spacingAndGlyphs" textLength="60" x="607" y="605.5498">Femodel</text><polygon fill="#A80036" points="123.5,115.4297,133.5,119.4297,123.5,123.4297,127.5,119.4297" style="stroke: #A80036; stroke-width: 1.0;"/><line style="stroke: #A80036; stroke-width: 1.0;" x1="24.5" x2="129.5" y1="119.4297" y2="119.4297"/><text fill="#000000" font-family="sans-serif" font-size="13" lengthAdjust="spacingAndGlyphs" textLength="87" x="31.5" y="114.3638">Define Airfoils</text><polygon fill="#A80036" points="273.5,144.5625,283.5,148.5625,273.5,152.5625,277.5,148.5625" style="stroke: #A80036; stroke-width: 1.0;"/><line style="stroke: #A80036; stroke-width: 1.0;" x1="135.5" x2="279.5" y1="148.5625" y2="148.5625"/><text fill="#000000" font-family="sans-serif" font-size="13" lengthAdjust="spacingAndGlyphs" textLength="117" x="142.5" y="143.4966">Re, Ncrit, Iter, AoA</text><polygon fill="#A80036" points="146.5,173.6953,136.5,177.6953,146.5,181.6953,142.5,177.6953" style="stroke: #A80036; stroke-width: 1.0;"/><line style="stroke: #A80036; stroke-width: 1.0;" x1="140.5" x2="284.5" y1="177.6953" y2="177.6953"/><text fill="#000000" font-family="sans-serif" font-size="13" lengthAdjust="spacingAndGlyphs" textLength="32" x="152.5" y="172.6294">Polar</text><line style="stroke: #A80036; stroke-width: 1.0;" x1="135.5" x2="177.5" y1="206.8281" y2="206.8281"/><line style="stroke: #A80036; stroke-width: 1.0;" x1="177.5" x2="177.5" y1="206.8281" y2="219.8281"/><line style="stroke: #A80036; stroke-width: 1.0;" x1="136.5" x2="177.5" y1="219.8281" y2="219.8281"/><polygon fill="#A80036" points="146.5,215.8281,136.5,219.8281,146.5,223.8281,142.5,219.8281" style="stroke: #A80036; stroke-width: 1.0;"/><text fill="#000000" font-family="sans-serif" font-size="13" lengthAdjust="spacingAndGlyphs" textLength="111" x="142.5" y="201.7622">Polar curve fitting</text><line style="stroke: #A80036; stroke-width: 1.0;" x1="135.5" x2="177.5" y1="264.0938" y2="264.0938"/><line style="stroke: #A80036; stroke-width: 1.0;" x1="177.5" x2="177.5" y1="264.0938" y2="277.0938"/><line style="stroke: #A80036; stroke-width: 1.0;" x1="136.5" x2="177.5" y1="277.0938" y2="277.0938"/><polygon fill="#A80036" points="146.5,273.0938,136.5,277.0938,146.5,281.0938,142.5,277.0938" style="stroke: #A80036; stroke-width: 1.0;"/><text fill="#000000" font-family="sans-serif" font-size="13" lengthAdjust="spacingAndGlyphs" textLength="136" x="142.5" y="243.895">Xrotor characteristics</text><text fill="#000000" font-family="sans-serif" font-size="13" lengthAdjust="spacingAndGlyphs" textLength="68" x="142.5" y="259.0278">calculation</text><polygon fill="#A80036" points="346,302.2266,356,306.2266,346,310.2266,350,306.2266" style="stroke: #A80036; stroke-width: 1.0;"/><line style="stroke: #A80036; stroke-width: 1.0;" x1="135.5" x2="352" y1="306.2266" y2="306.2266"/><text fill="#000000" font-family="sans-serif" font-size="13" lengthAdjust="spacingAndGlyphs" textLength="65" x="142.5" y="301.1606">Polar data</text><polygon fill="#A80036" points="346,331.3594,356,335.3594,346,339.3594,350,335.3594" style="stroke: #A80036; stroke-width: 1.0;"/><line style="stroke: #A80036; stroke-width: 1.0;" x1="24.5" x2="352" y1="335.3594" y2="335.3594"/><text fill="#000000" font-family="sans-serif" font-size="13" lengthAdjust="spacingAndGlyphs" textLength="167" x="31.5" y="330.2935">Define Propeller geometry</text><polygon fill="#A80036" points="466,360.4922,476,364.4922,466,368.4922,470,364.4922" style="stroke: #A80036; stroke-width: 1.0;"/><line style="stroke: #A80036; stroke-width: 1.0;" x1="24.5" x2="472" y1="364.4922" y2="364.4922"/><text fill="#000000" font-family="sans-serif" font-size="13" lengthAdjust="spacingAndGlyphs" textLength="113" x="31.5" y="359.4263">Define Loadcases</text><polygon fill="#A80036" points="369,389.625,359,393.625,369,397.625,365,393.625" style="stroke: #A80036; stroke-width: 1.0;"/><line style="stroke: #A80036; stroke-width: 1.0;" x1="363" x2="477" y1="393.625" y2="393.625"/><text fill="#000000" font-family="sans-serif" font-size="13" lengthAdjust="spacingAndGlyphs" textLength="96" x="375" y="388.5591">Loadcase Data</text><polygon fill="#A80036" points="548,433.8906,558,437.8906,548,441.8906,552,437.8906" style="stroke: #A80036; stroke-width: 1.0;"/><line style="stroke: #A80036; stroke-width: 1.0;" x1="358" x2="554" y1="437.8906" y2="437.8906"/><text fill="#000000" font-family="sans-serif" font-size="13" lengthAdjust="spacingAndGlyphs" textLength="150" x="365" y="417.6919">Geometry, Airfoil polars</text><text fill="#000000" font-family="sans-serif" font-size="13" lengthAdjust="spacingAndGlyphs" textLength="68" x="365" y="432.8247">Loadcases</text><polygon fill="#A80036" points="369,463.0234,359,467.0234,369,471.0234,365,467.0234" style="stroke: #A80036; stroke-width: 1.0;"/><line style="stroke: #A80036; stroke-width: 1.0;" x1="363" x2="559" y1="467.0234" y2="467.0234"/><text fill="#000000" font-family="sans-serif" font-size="13" lengthAdjust="spacingAndGlyphs" textLength="64" x="375" y="461.9575">Load data</text><line style="stroke: #A80036; stroke-width: 1.0;" x1="358" x2="400" y1="526.4219" y2="526.4219"/><line style="stroke: #A80036; stroke-width: 1.0;" x1="400" x2="400" y1="526.4219" y2="539.4219"/><line style="stroke: #A80036; stroke-width: 1.0;" x1="359" x2="400" y1="539.4219" y2="539.4219"/><polygon fill="#A80036" points="369,535.4219,359,539.4219,369,543.4219,365,539.4219" style="stroke: #A80036; stroke-width: 1.0;"/><text fill="#000000" font-family="sans-serif" font-size="13" lengthAdjust="spacingAndGlyphs" textLength="35" x="365" y="491.0903">Todo:</text><text fill="#000000" font-family="sans-serif" font-size="13" lengthAdjust="spacingAndGlyphs" textLength="57" x="365" y="506.2231">calculate</text><text fill="#000000" font-family="sans-serif" font-size="13" lengthAdjust="spacingAndGlyphs" textLength="89" x="365" y="521.356">load envelope</text><polygon fill="#A80036" points="627,564.5547,637,568.5547,627,572.5547,631,568.5547" style="stroke: #A80036; stroke-width: 1.0;"/><line style="stroke: #A80036; stroke-width: 1.0;" x1="358" x2="633" y1="568.5547" y2="568.5547"/><text fill="#000000" font-family="sans-serif" font-size="13" lengthAdjust="spacingAndGlyphs" textLength="93" x="365" y="563.4888">Load envelope</text><!--MD5=[ddf64fe93e358ccf9c9ba6ed39196c4f]
@startuml
actor main
main -> Airfoil: Define Airfoils
Airfoil -> Xfoil: Re, Ncrit, Iter, AoA
Xfoil -> Airfoil: Polar
Airfoil -> Airfoil: Polar curve fitting
Airfoil -> Airfoil: Xrotor characteristics\ncalculation
Airfoil -> Propeller: Polar data
main -> Propeller: Define Propeller geometry
main -> Loadcase: Define Loadcases
Loadcase -> Propeller: Loadcase Data
Propeller -> Xrotor: Geometry, Airfoil polars\nLoadcases
Xrotor -> Propeller: Load data
Propeller -> Propeller: Todo:\ncalculate\nload envelope
Propeller -> Femodel: Load envelope
	
@enduml

PlantUML version 1.2020.19(Mon Oct 12 17:10:01 CEST 2020)
(GPL source distribution)
Java Runtime: OpenJDK Runtime Environment
JVM: OpenJDK 64-Bit Server VM
Default Encoding: UTF-8
Language: de
Country: DE
--></g></svg>