<?xml version="1.0" encoding="UTF-8" standalone="no"?><svg xmlns="http://www.w3.org/2000/svg" xmlns:xlink="http://www.w3.org/1999/xlink" contentScriptType="application/ecmascript" contentStyleType="text/css" height="798px" preserveAspectRatio="none" style="width:853px;height:798px;" version="1.1" viewBox="0 0 853 798" width="853px" zoomAndPan="magnify"><defs><filter height="300%" id="f1jp4b8g668ia4" width="300%" x="-1" y="-1"><feGaussianBlur result="blurOut" stdDeviation="2.0"/><feColorMatrix in="blurOut" result="blurOut2" type="matrix" values="0 0 0 0 0 0 0 0 0 0 0 0 0 0 0 0 0 0 .4 0"/><feOffset dx="4.0" dy="4.0" in="blurOut2" result="blurOut3"/><feBlend in="SourceGraphic" in2="blurOut3" mode="normal"/></filter></defs><g><!--MD5=[88dc21422abaffcb7a027364d4b1854c]
class Femodel--><rect codeLine="8" fill="#FEFECE" filter="url(#f1jp4b8g668ia4)" height="363.3125" id="Femodel" style="stroke: #A80036; stroke-width: 1.5;" width="746" x="93.5" y="7"/><ellipse cx="435.75" cy="23" fill="#ADD1B2" rx="11" ry="11" style="stroke: #A80036; stroke-width: 1.0;"/><path d="M438.7188,28.6406 Q438.1406,28.9375 437.5,29.0781 Q436.8594,29.2344 436.1563,29.2344 Q433.6563,29.2344 432.3281,27.5938 Q431.0156,25.9375 431.0156,22.8125 Q431.0156,19.6875 432.3281,18.0313 Q433.6563,16.375 436.1563,16.375 Q436.8594,16.375 437.5,16.5313 Q438.1563,16.6875 438.7188,16.9844 L438.7188,19.7031 Q438.0938,19.125 437.5,18.8594 Q436.9063,18.5781 436.2813,18.5781 Q434.9375,18.5781 434.25,19.6563 Q433.5625,20.7188 433.5625,22.8125 Q433.5625,24.9063 434.25,25.9844 Q434.9375,27.0469 436.2813,27.0469 Q436.9063,27.0469 437.5,26.7813 Q438.0938,26.5 438.7188,25.9219 L438.7188,28.6406 Z "/><text fill="#000000" font-family="sans-serif" font-size="12" lengthAdjust="spacingAndGlyphs" textLength="53" x="456.25" y="27.1543">Femodel</text><line style="stroke: #A80036; stroke-width: 1.5;" x1="94.5" x2="838.5" y1="39" y2="39"/><rect fill="none" height="6" style="stroke: #C82930; stroke-width: 1.0;" width="6" x="101.5" y="47"/><text fill="#000000" font-family="sans-serif" font-size="11" lengthAdjust="spacingAndGlyphs" textLength="182" x="113.5" y="53.2104">__element_aoa_vector: np.array</text><rect fill="none" height="6" style="stroke: #C82930; stroke-width: 1.0;" width="6" x="101.5" y="59.8047"/><text fill="#000000" font-family="sans-serif" font-size="11" lengthAdjust="spacingAndGlyphs" textLength="193" x="113.5" y="66.0151">__element_chord_vector: np.array</text><rect fill="none" height="6" style="stroke: #C82930; stroke-width: 1.0;" width="6" x="101.5" y="72.6094"/><text fill="#000000" font-family="sans-serif" font-size="11" lengthAdjust="spacingAndGlyphs" textLength="159" x="113.5" y="78.8198">__element_data: DataFrame</text><ellipse cx="104.5" cy="88.4141" fill="none" rx="3" ry="3" style="stroke: #038048; stroke-width: 1.0;"/><text fill="#000000" font-family="sans-serif" font-size="11" lengthAdjust="spacingAndGlyphs" textLength="122" x="113.5" y="91.6245">mapdl: MapdlConsole</text><rect fill="none" height="6" style="stroke: #C82930; stroke-width: 1.0;" width="6" x="101.5" y="98.2188"/><text fill="#000000" font-family="sans-serif" font-size="11" lengthAdjust="spacingAndGlyphs" textLength="95" x="113.5" y="104.4292">__materials: Dict</text><ellipse cx="104.5" cy="114.0234" fill="none" rx="3" ry="3" style="stroke: #038048; stroke-width: 1.0;"/><text fill="#000000" font-family="sans-serif" font-size="11" lengthAdjust="spacingAndGlyphs" textLength="110" x="113.5" y="117.2339">propeller: Propeller</text><line style="stroke: #A80036; stroke-width: 1.0;" x1="94.5" x2="838.5" y1="123.8281" y2="123.8281"/><rect fill="#F24D5C" height="6" style="stroke: #C82930; stroke-width: 1.0;" width="6" x="101.5" y="131.8281"/><text fill="#000000" font-family="sans-serif" font-size="11" lengthAdjust="spacingAndGlyphs" textLength="120" x="113.5" y="138.0386">__apply_loads__(self)</text><rect fill="#F24D5C" height="6" style="stroke: #C82930; stroke-width: 1.0;" width="6" x="101.5" y="144.6328"/><text fill="#000000" font-family="sans-serif" font-size="11" lengthAdjust="spacingAndGlyphs" textLength="297" x="113.5" y="150.8433">__change_design_variables__(self, *args, **kwargs)</text><rect fill="#F24D5C" height="6" style="stroke: #C82930; stroke-width: 1.0;" width="6" x="101.5" y="157.4375"/><text fill="#000000" font-family="sans-serif" font-size="11" lengthAdjust="spacingAndGlyphs" textLength="81" x="113.5" y="163.6479">__clear__(self)</text><rect fill="#F24D5C" height="6" style="stroke: #C82930; stroke-width: 1.0;" width="6" x="101.5" y="170.2422"/><text fill="#000000" font-family="sans-serif" font-size="11" lengthAdjust="spacingAndGlyphs" textLength="388" x="113.5" y="176.4526">__get_edges__(self, y: Float): le: np.array, te: np.array, length: Float</text><rect fill="#F24D5C" height="6" style="stroke: #C82930; stroke-width: 1.0;" width="6" x="101.5" y="183.0469"/><text fill="#000000" font-family="sans-serif" font-size="11" lengthAdjust="spacingAndGlyphs" textLength="720" x="113.5" y="189.2573">__init__(self, mapdl: MapdlConsole, propeller: Propeller, loads: Loadcase, mesh_density_factor = 1: Float, seltol = 1e-4: Float)</text><rect fill="#F24D5C" height="6" style="stroke: #C82930; stroke-width: 1.0;" width="6" x="101.5" y="195.8516"/><text fill="#000000" font-family="sans-serif" font-size="11" lengthAdjust="spacingAndGlyphs" textLength="421" x="113.5" y="202.062">__setup__(self, loads: Loadcase, mesh_density_factor: Float, seltol: Float)</text><rect fill="#F24D5C" height="6" style="stroke: #C82930; stroke-width: 1.0;" width="6" x="101.5" y="208.6563"/><text fill="#000000" font-family="sans-serif" font-size="11" lengthAdjust="spacingAndGlyphs" textLength="83" x="113.5" y="214.8667">__solve__(self)</text><rect fill="#F24D5C" height="6" style="stroke: #C82930; stroke-width: 1.0;" width="6" x="101.5" y="221.4609"/><text fill="#000000" font-family="sans-serif" font-size="11" lengthAdjust="spacingAndGlyphs" textLength="147" x="113.5" y="227.6714">__post_processing__(self)</text><ellipse cx="104.5" cy="237.2656" fill="#84BE84" rx="3" ry="3" style="stroke: #038048; stroke-width: 1.0;"/><text fill="#000000" font-family="sans-serif" font-size="11" lengthAdjust="spacingAndGlyphs" textLength="68" x="113.5" y="240.4761">cdread(self)</text><ellipse cx="104.5" cy="250.0703" fill="#84BE84" rx="3" ry="3" style="stroke: #038048; stroke-width: 1.0;"/><text fill="#000000" font-family="sans-serif" font-size="11" lengthAdjust="spacingAndGlyphs" textLength="245" x="113.5" y="253.2808">evaluate(self, x: List): f: List, g: List, h: List</text><ellipse cx="104.5" cy="279.6797" fill="#84BE84" rx="3" ry="3" style="stroke: #038048; stroke-width: 1.0;"/><text fill="#000000" font-family="sans-serif" font-size="11" lengthAdjust="spacingAndGlyphs" textLength="199" x="113.5" y="282.8901">element_aoa_vector(self): np.array</text><ellipse cx="104.5" cy="292.4844" fill="#84BE84" rx="3" ry="3" style="stroke: #038048; stroke-width: 1.0;"/><text fill="#000000" font-family="sans-serif" font-size="11" lengthAdjust="spacingAndGlyphs" textLength="210" x="113.5" y="295.6948">element_chord_vevtor(self): np.array</text><ellipse cx="104.5" cy="305.2891" fill="#84BE84" rx="3" ry="3" style="stroke: #038048; stroke-width: 1.0;"/><text fill="#000000" font-family="sans-serif" font-size="11" lengthAdjust="spacingAndGlyphs" textLength="176" x="113.5" y="308.4995">element_data(self): DataFrame</text><ellipse cx="104.5" cy="318.0938" fill="#84BE84" rx="3" ry="3" style="stroke: #038048; stroke-width: 1.0;"/><text fill="#000000" font-family="sans-serif" font-size="11" lengthAdjust="spacingAndGlyphs" textLength="112" x="113.5" y="321.3042">materials(self): Dict</text><line style="stroke: #A80036; stroke-width: 1.0; stroke-dasharray: 1.0,2.0;" x1="94.5" x2="448.5" y1="266.2773" y2="266.2773"/><text fill="#000000" font-family="sans-serif" font-size="11" lengthAdjust="spacingAndGlyphs" textLength="36" x="448.5" y="269.5854">Getter</text><line style="stroke: #A80036; stroke-width: 1.0; stroke-dasharray: 1.0,2.0;" x1="484.5" x2="838.5" y1="266.2773" y2="266.2773"/><ellipse cx="104.5" cy="347.7031" fill="#84BE84" rx="3" ry="3" style="stroke: #038048; stroke-width: 1.0;"/><text fill="#000000" font-family="sans-serif" font-size="11" lengthAdjust="spacingAndGlyphs" textLength="145" x="113.5" y="350.9136">materials(self, materials)</text><text fill="#000000" font-family="sans-serif" font-size="11" lengthAdjust="spacingAndGlyphs" textLength="0" x="117.5" y="363.7183"/><line style="stroke: #A80036; stroke-width: 1.0; stroke-dasharray: 1.0,2.0;" x1="94.5" x2="449" y1="334.3008" y2="334.3008"/><text fill="#000000" font-family="sans-serif" font-size="11" lengthAdjust="spacingAndGlyphs" textLength="35" x="449" y="337.6089">Setter</text><line style="stroke: #A80036; stroke-width: 1.0; stroke-dasharray: 1.0,2.0;" x1="484" x2="838.5" y1="334.3008" y2="334.3008"/><!--MD5=[90d32ccc189f11441a6ce7cbb63ad387]
class Material--><rect codeLine="38" fill="#FEFECE" filter="url(#f1jp4b8g668ia4)" height="337.7031" id="Material" style="stroke: #A80036; stroke-width: 1.5;" width="365" x="7" y="447"/><ellipse cx="160.25" cy="463" fill="#ADD1B2" rx="11" ry="11" style="stroke: #A80036; stroke-width: 1.0;"/><path d="M163.2188,468.6406 Q162.6406,468.9375 162,469.0781 Q161.3594,469.2344 160.6563,469.2344 Q158.1563,469.2344 156.8281,467.5938 Q155.5156,465.9375 155.5156,462.8125 Q155.5156,459.6875 156.8281,458.0313 Q158.1563,456.375 160.6563,456.375 Q161.3594,456.375 162,456.5313 Q162.6563,456.6875 163.2188,456.9844 L163.2188,459.7031 Q162.5938,459.125 162,458.8594 Q161.4063,458.5781 160.7813,458.5781 Q159.4375,458.5781 158.75,459.6563 Q158.0625,460.7188 158.0625,462.8125 Q158.0625,464.9063 158.75,465.9844 Q159.4375,467.0469 160.7813,467.0469 Q161.4063,467.0469 162,466.7813 Q162.5938,466.5 163.2188,465.9219 L163.2188,468.6406 Z "/><text fill="#000000" font-family="sans-serif" font-size="12" lengthAdjust="spacingAndGlyphs" textLength="50" x="180.75" y="467.1543">Material</text><line style="stroke: #A80036; stroke-width: 1.5;" x1="8" x2="371" y1="479" y2="479"/><rect fill="none" height="6" style="stroke: #C82930; stroke-width: 1.0;" width="6" x="15" y="487"/><text fill="#000000" font-family="sans-serif" font-size="11" lengthAdjust="spacingAndGlyphs" textLength="51" x="27" y="493.2104">__fc: Dict</text><ellipse cx="18" cy="502.8047" fill="none" rx="3" ry="3" style="stroke: #038048; stroke-width: 1.0;"/><text fill="#000000" font-family="sans-serif" font-size="11" lengthAdjust="spacingAndGlyphs" textLength="122" x="27" y="506.0151">mapdl: MapdlConsole</text><rect fill="none" height="6" style="stroke: #C82930; stroke-width: 1.0;" width="6" x="15" y="512.6094"/><text fill="#000000" font-family="sans-serif" font-size="11" lengthAdjust="spacingAndGlyphs" textLength="59" x="27" y="518.8198">__mp: Dict</text><rect fill="none" height="6" style="stroke: #C82930; stroke-width: 1.0;" width="6" x="15" y="525.4141"/><text fill="#000000" font-family="sans-serif" font-size="11" lengthAdjust="spacingAndGlyphs" textLength="69" x="27" y="531.6245">__name: Str</text><rect fill="none" height="6" style="stroke: #C82930; stroke-width: 1.0;" width="6" x="15" y="538.2188"/><text fill="#000000" font-family="sans-serif" font-size="11" lengthAdjust="spacingAndGlyphs" textLength="78" x="27" y="544.4292">__number: Int</text><rect fill="none" height="6" style="stroke: #C82930; stroke-width: 1.0;" width="6" x="15" y="551.0234"/><text fill="#000000" font-family="sans-serif" font-size="11" lengthAdjust="spacingAndGlyphs" textLength="62" x="27" y="557.2339">__path: Str</text><line style="stroke: #A80036; stroke-width: 1.0;" x1="8" x2="371" y1="563.8281" y2="563.8281"/><rect fill="#F24D5C" height="6" style="stroke: #C82930; stroke-width: 1.0;" width="6" x="15" y="571.8281"/><text fill="#000000" font-family="sans-serif" font-size="11" lengthAdjust="spacingAndGlyphs" textLength="339" x="27" y="578.0386">__init__(self, mapdl: MapdlConsole, name: Str, number: Int)</text><ellipse cx="18" cy="587.6328" fill="#84BE84" rx="3" ry="3" style="stroke: #038048; stroke-width: 1.0;"/><text fill="#000000" font-family="sans-serif" font-size="11" lengthAdjust="spacingAndGlyphs" textLength="91" x="27" y="590.8433">assign_mp(self)</text><ellipse cx="18" cy="600.4375" fill="#84BE84" rx="3" ry="3" style="stroke: #038048; stroke-width: 1.0;"/><text fill="#000000" font-family="sans-serif" font-size="11" lengthAdjust="spacingAndGlyphs" textLength="83" x="27" y="603.6479">assign_fc(self)</text><ellipse cx="18" cy="613.2422" fill="#84BE84" rx="3" ry="3" style="stroke: #038048; stroke-width: 1.0;"/><text fill="#000000" font-family="sans-serif" font-size="11" lengthAdjust="spacingAndGlyphs" textLength="135" x="27" y="616.4526">load(self, filename: Str)</text><ellipse cx="18" cy="626.0469" fill="#84BE84" rx="3" ry="3" style="stroke: #038048; stroke-width: 1.0;"/><text fill="#000000" font-family="sans-serif" font-size="11" lengthAdjust="spacingAndGlyphs" textLength="162" x="27" y="629.2573">read_csv(self, filename: Str)</text><ellipse cx="18" cy="638.8516" fill="#84BE84" rx="3" ry="3" style="stroke: #038048; stroke-width: 1.0;"/><text fill="#000000" font-family="sans-serif" font-size="11" lengthAdjust="spacingAndGlyphs" textLength="56" x="27" y="642.062">save(self)</text><ellipse cx="18" cy="668.4609" fill="#84BE84" rx="3" ry="3" style="stroke: #038048; stroke-width: 1.0;"/><text fill="#000000" font-family="sans-serif" font-size="11" lengthAdjust="spacingAndGlyphs" textLength="68" x="27" y="671.6714">fc(self): Dict</text><ellipse cx="18" cy="681.2656" fill="#84BE84" rx="3" ry="3" style="stroke: #038048; stroke-width: 1.0;"/><text fill="#000000" font-family="sans-serif" font-size="11" lengthAdjust="spacingAndGlyphs" textLength="76" x="27" y="684.4761">mp(self): Dict</text><ellipse cx="18" cy="694.0703" fill="#84BE84" rx="3" ry="3" style="stroke: #038048; stroke-width: 1.0;"/><text fill="#000000" font-family="sans-serif" font-size="11" lengthAdjust="spacingAndGlyphs" textLength="86" x="27" y="697.2808">name(self): Str</text><ellipse cx="18" cy="706.875" fill="#84BE84" rx="3" ry="3" style="stroke: #038048; stroke-width: 1.0;"/><text fill="#000000" font-family="sans-serif" font-size="11" lengthAdjust="spacingAndGlyphs" textLength="95" x="27" y="710.0854">number(self): Int</text><line style="stroke: #A80036; stroke-width: 1.0; stroke-dasharray: 1.0,2.0;" x1="8" x2="171.5" y1="655.0586" y2="655.0586"/><text fill="#000000" font-family="sans-serif" font-size="11" lengthAdjust="spacingAndGlyphs" textLength="36" x="171.5" y="658.3667">Getter</text><line style="stroke: #A80036; stroke-width: 1.0; stroke-dasharray: 1.0,2.0;" x1="207.5" x2="371" y1="655.0586" y2="655.0586"/><ellipse cx="18" cy="736.4844" fill="#84BE84" rx="3" ry="3" style="stroke: #038048; stroke-width: 1.0;"/><text fill="#000000" font-family="sans-serif" font-size="11" lengthAdjust="spacingAndGlyphs" textLength="86" x="27" y="739.6948">fc(self, fc: Dict)</text><ellipse cx="18" cy="749.2891" fill="#84BE84" rx="3" ry="3" style="stroke: #038048; stroke-width: 1.0;"/><text fill="#000000" font-family="sans-serif" font-size="11" lengthAdjust="spacingAndGlyphs" textLength="102" x="27" y="752.4995">mp(self, mp: Dict)</text><ellipse cx="18" cy="762.0938" fill="#84BE84" rx="3" ry="3" style="stroke: #038048; stroke-width: 1.0;"/><text fill="#000000" font-family="sans-serif" font-size="11" lengthAdjust="spacingAndGlyphs" textLength="126" x="27" y="765.3042">name(self, name: Str)</text><ellipse cx="18" cy="774.8984" fill="#84BE84" rx="3" ry="3" style="stroke: #038048; stroke-width: 1.0;"/><text fill="#000000" font-family="sans-serif" font-size="11" lengthAdjust="spacingAndGlyphs" textLength="150" x="27" y="778.1089">number(self, number: Str)</text><line style="stroke: #A80036; stroke-width: 1.0; stroke-dasharray: 1.0,2.0;" x1="8" x2="172" y1="723.082" y2="723.082"/><text fill="#000000" font-family="sans-serif" font-size="11" lengthAdjust="spacingAndGlyphs" textLength="35" x="172" y="726.3901">Setter</text><line style="stroke: #A80036; stroke-width: 1.0; stroke-dasharray: 1.0,2.0;" x1="207" x2="371" y1="723.082" y2="723.082"/><!--MD5=[220b5756a1049df4545ee413c2da56c8]
class MapdlConsole--><rect codeLine="36" fill="#FEFECE" filter="url(#f1jp4b8g668ia4)" height="48" id="MapdlConsole" style="stroke: #A80036; stroke-width: 1.5;" width="119" x="407" y="592"/><ellipse cx="422" cy="608" fill="#ADD1B2" rx="11" ry="11" style="stroke: #A80036; stroke-width: 1.0;"/><path d="M424.9688,613.6406 Q424.3906,613.9375 423.75,614.0781 Q423.1094,614.2344 422.4063,614.2344 Q419.9063,614.2344 418.5781,612.5938 Q417.2656,610.9375 417.2656,607.8125 Q417.2656,604.6875 418.5781,603.0313 Q419.9063,601.375 422.4063,601.375 Q423.1094,601.375 423.75,601.5313 Q424.4063,601.6875 424.9688,601.9844 L424.9688,604.7031 Q424.3438,604.125 423.75,603.8594 Q423.1563,603.5781 422.5313,603.5781 Q421.1875,603.5781 420.5,604.6563 Q419.8125,605.7188 419.8125,607.8125 Q419.8125,609.9063 420.5,610.9844 Q421.1875,612.0469 422.5313,612.0469 Q423.1563,612.0469 423.75,611.7813 Q424.3438,611.5 424.9688,610.9219 L424.9688,613.6406 Z "/><text fill="#000000" font-family="sans-serif" font-size="12" lengthAdjust="spacingAndGlyphs" textLength="87" x="436" y="612.1543">MapdlConsole</text><line style="stroke: #A80036; stroke-width: 1.5;" x1="408" x2="525" y1="624" y2="624"/><line style="stroke: #A80036; stroke-width: 1.5;" x1="408" x2="525" y1="632" y2="632"/><!--MD5=[d6fc879790fa9ab996c263eef134353e]
class PostFunctions--><rect codeLine="68" fill="#FEFECE" filter="url(#f1jp4b8g668ia4)" height="60.8047" id="PostFunctions" style="stroke: #A80036; stroke-width: 1.5;" width="237" x="561" y="585.5"/><ellipse cx="630.75" cy="601.5" fill="#DA70D6" rx="11" ry="11" style="stroke: #A80036; stroke-width: 1.0;"/><path d="M626.4688,595.1094 L629.3906,595.1094 L630.8594,600.5469 L632.3281,595.1094 L635.2656,595.1094 L635.2656,607.5 L633.1563,607.5 L633.1563,597.5781 L631.8438,603 L629.9063,603 L628.5781,597.5781 L628.5781,607.5 L626.4688,607.5 L626.4688,595.1094 Z "/><text fill="#000000" font-family="sans-serif" font-size="12" lengthAdjust="spacingAndGlyphs" textLength="89" x="651.25" y="605.6543">PostFunctions</text><line style="stroke: #A80036; stroke-width: 1.5;" x1="562" x2="797" y1="617.5" y2="617.5"/><line style="stroke: #A80036; stroke-width: 1.5;" x1="562" x2="797" y1="625.5" y2="625.5"/><ellipse cx="572" cy="636.5" fill="#84BE84" rx="3" ry="3" style="stroke: #038048; stroke-width: 1.0;"/><text fill="#000000" font-family="sans-serif" font-size="11" lengthAdjust="spacingAndGlyphs" text-decoration="underline" textLength="211" x="581" y="639.7104">fc_puck(mapdl: MapdlConsole): I: List</text><!--MD5=[d7f14acd6f99c0ef42196143ca271e75]
reverse link Femodel to Material--><path codeLine="2" d="M341.65,381.29 C327.45,403.1 313.05,425.21 299.07,446.69 " fill="none" id="Femodel-backto-Material" style="stroke: #A80036; stroke-width: 1.0;"/><polygon fill="#FFFFFF" points="348.83,370.26,342.2035,373.1043,342.2804,380.315,348.9069,377.4707,348.83,370.26" style="stroke: #A80036; stroke-width: 1.0;"/><text fill="#000000" font-family="sans-serif" font-size="13" lengthAdjust="spacingAndGlyphs" textLength="8" x="335.697" y="390.3075">1</text><text fill="#000000" font-family="sans-serif" font-size="13" lengthAdjust="spacingAndGlyphs" textLength="23" x="280.5138" y="435.7549">1..*</text><!--MD5=[c7976f7bdf03601370a1151c75d4ee64]
reverse link Femodel to MapdlConsole--><path codeLine="3" d="M466.5,383.41 C466.5,465.6 466.5,551.57 466.5,591.74 " fill="none" id="Femodel-backto-MapdlConsole" style="stroke: #A80036; stroke-width: 1.0;"/><polygon fill="#FFFFFF" points="466.5,370.26,462.5,376.26,466.5,382.26,470.5,376.26,466.5,370.26" style="stroke: #A80036; stroke-width: 1.0;"/><text fill="#000000" font-family="sans-serif" font-size="13" lengthAdjust="spacingAndGlyphs" textLength="8" x="458.3313" y="390.3075">1</text><text fill="#000000" font-family="sans-serif" font-size="13" lengthAdjust="spacingAndGlyphs" textLength="8" x="457.525" y="581.0816">1</text><!--MD5=[e06edb492ab80ff5be0a4752f1b4a4f4]
link Femodel to PostFunctions--><path codeLine="6" d="M559.39,375.07 C598.38,452.96 639.85,535.79 662.42,580.88 " fill="none" id="Femodel-PostFunctions" style="stroke: #A80036; stroke-width: 1.0; stroke-dasharray: 1.0,3.0;"/><polygon fill="#A80036" points="664.68,585.39,664.2202,575.5519,662.4382,580.9207,657.0694,579.1387,664.68,585.39" style="stroke: #A80036; stroke-width: 1.0;"/><polygon fill="#A80036" points="556.99,370.26,557.4246,380.0993,559.2203,374.735,564.5846,376.5307,556.99,370.26" style="stroke: #A80036; stroke-width: 1.0;"/><text fill="#000000" font-family="sans-serif" font-size="13" lengthAdjust="spacingAndGlyphs" textLength="30" x="580.5" y="413.0669">uses</text><!--MD5=[0ea4fa78f2ca2e8286fc211df78827a5]
@startuml

Femodel "1" o- - "1..*" Material
Femodel "1" o- - "1" MapdlConsole
'Material "1" o- - "1" MapdlConsole
'Femodel <-[dotted]-> PrepFunctions : uses
Femodel <-[dotted]-> PostFunctions : uses

class Femodel{
  -__element_aoa_vector: np.array
  -__element_chord_vector: np.array
  -__element_data: DataFrame
  +mapdl: MapdlConsole
  -__materials: Dict
  +propeller: Propeller
  - -
  -__apply_loads__(self)
  -__change_design_variables__(self, *args, **kwargs)
  -__clear__(self)
  -__get_edges__(self, y: Float): le: np.array, te: np.array, length: Float
  -__init__(self, mapdl: MapdlConsole, propeller: Propeller, loads: Loadcase, mesh_density_factor = 1: Float, seltol = 1e-4: Float)
  -__setup__(self, loads: Loadcase, mesh_density_factor: Float, seltol: Float)
  -__solve__(self)
  -__post_processing__(self)
  +cdread(self)
  +evaluate(self, x: List): f: List, g: List, h: List
  ..Getter..
  +element_aoa_vector(self): np.array
  +element_chord_vevtor(self): np.array
  +element_data(self): DataFrame
  +materials(self): Dict
  ..Setter..
  +materials(self, materials)
  
}

class MapdlConsole{}

class Material{
  -__fc: Dict
  +mapdl: MapdlConsole
  -__mp: Dict
  -__name: Str
  -__number: Int
  -__path: Str
  - -
  -__init__(self, mapdl: MapdlConsole, name: Str, number: Int)
  +assign_mp(self)
  +assign_fc(self)
  +load(self, filename: Str)
  +read_csv(self, filename: Str)
  +save(self)
  ..Getter..
  +fc(self): Dict
  +mp(self): Dict
  +name(self): Str
  +number(self): Int
  ..Setter..
  +fc(self, fc: Dict)
  +mp(self, mp: Dict)
  +name(self, name: Str)
  +number(self, number: Str)
}

'class PrepFunctions << (M,orchid) >> {
'  +{static}get_edges(mapdl: MapdlConsole, x: List): le: List, te: List
'}

class PostFunctions << (M,orchid) >> {
  +{static}fc_puck(mapdl: MapdlConsole): I: List
}

@enduml

@startuml

Femodel "1" o- - "1..*" Material
Femodel "1" o- - "1" MapdlConsole
Femodel <-[dotted]-> PostFunctions : uses

class Femodel{
  -__element_aoa_vector: np.array
  -__element_chord_vector: np.array
  -__element_data: DataFrame
  +mapdl: MapdlConsole
  -__materials: Dict
  +propeller: Propeller
  - -
  -__apply_loads__(self)
  -__change_design_variables__(self, *args, **kwargs)
  -__clear__(self)
  -__get_edges__(self, y: Float): le: np.array, te: np.array, length: Float
  -__init__(self, mapdl: MapdlConsole, propeller: Propeller, loads: Loadcase, mesh_density_factor = 1: Float, seltol = 1e-4: Float)
  -__setup__(self, loads: Loadcase, mesh_density_factor: Float, seltol: Float)
  -__solve__(self)
  -__post_processing__(self)
  +cdread(self)
  +evaluate(self, x: List): f: List, g: List, h: List
  ..Getter..
  +element_aoa_vector(self): np.array
  +element_chord_vevtor(self): np.array
  +element_data(self): DataFrame
  +materials(self): Dict
  ..Setter..
  +materials(self, materials)
  
}

class MapdlConsole{}

class Material{
  -__fc: Dict
  +mapdl: MapdlConsole
  -__mp: Dict
  -__name: Str
  -__number: Int
  -__path: Str
  - -
  -__init__(self, mapdl: MapdlConsole, name: Str, number: Int)
  +assign_mp(self)
  +assign_fc(self)
  +load(self, filename: Str)
  +read_csv(self, filename: Str)
  +save(self)
  ..Getter..
  +fc(self): Dict
  +mp(self): Dict
  +name(self): Str
  +number(self): Int
  ..Setter..
  +fc(self, fc: Dict)
  +mp(self, mp: Dict)
  +name(self, name: Str)
  +number(self, number: Str)
}


class PostFunctions << (M,orchid) >> {
  +{static}fc_puck(mapdl: MapdlConsole): I: List
}

@enduml

PlantUML version 1.2020.19(Mon Oct 12 17:10:01 CEST 2020)
(GPL source distribution)
Java Runtime: OpenJDK Runtime Environment
JVM: OpenJDK 64-Bit Server VM
Default Encoding: UTF-8
Language: de
Country: DE
--></g></svg>