<?xml version="1.0" encoding="UTF-8" standalone="no"?><svg xmlns="http://www.w3.org/2000/svg" xmlns:xlink="http://www.w3.org/1999/xlink" contentScriptType="application/ecmascript" contentStyleType="text/css" height="560px" preserveAspectRatio="none" style="width:627px;height:560px;" version="1.1" viewBox="0 0 627 560" width="627px" zoomAndPan="magnify"><defs><filter height="300%" id="f19bnhvnmfg57t" width="300%" x="-1" y="-1"><feGaussianBlur result="blurOut" stdDeviation="2.0"/><feColorMatrix in="blurOut" result="blurOut2" type="matrix" values="0 0 0 0 0 0 0 0 0 0 0 0 0 0 0 0 0 0 .4 0"/><feOffset dx="4.0" dy="4.0" in="blurOut2" result="blurOut3"/><feBlend in="SourceGraphic" in2="blurOut3" mode="normal"/></filter></defs><g><rect fill="#FFFFFF" filter="url(#f19bnhvnmfg57t)" height="353.7266" style="stroke: #000000; stroke-width: 2.0;" width="603" x="10" y="105.2969"/><rect fill="#FFFFFF" filter="url(#f19bnhvnmfg57t)" height="132.6641" style="stroke: #000000; stroke-width: 2.0;" width="491.5" x="111.5" y="290.2266"/><line style="stroke: #A80036; stroke-width: 1.0; stroke-dasharray: 5.0,5.0;" x1="39" x2="39" y1="88.2969" y2="476.0234"/><line style="stroke: #A80036; stroke-width: 1.0; stroke-dasharray: 5.0,5.0;" x1="160.5" x2="160.5" y1="88.2969" y2="476.0234"/><line style="stroke: #A80036; stroke-width: 1.0; stroke-dasharray: 5.0,5.0;" x1="277" x2="277" y1="88.2969" y2="476.0234"/><line style="stroke: #A80036; stroke-width: 1.0; stroke-dasharray: 5.0,5.0;" x1="379" x2="379" y1="88.2969" y2="476.0234"/><line style="stroke: #A80036; stroke-width: 1.0; stroke-dasharray: 5.0,5.0;" x1="484" x2="484" y1="88.2969" y2="476.0234"/><text fill="#000000" font-family="sans-serif" font-size="14" lengthAdjust="spacingAndGlyphs" textLength="33" x="20" y="84.9951">main</text><ellipse cx="39.5" cy="15" fill="#FEFECE" filter="url(#f19bnhvnmfg57t)" rx="8" ry="8" style="stroke: #A80036; stroke-width: 2.0;"/><path d="M39.5,23 L39.5,50 M26.5,31 L52.5,31 M39.5,50 L26.5,65 M39.5,50 L52.5,65 " fill="none" filter="url(#f19bnhvnmfg57t)" style="stroke: #A80036; stroke-width: 2.0;"/><text fill="#000000" font-family="sans-serif" font-size="14" lengthAdjust="spacingAndGlyphs" textLength="33" x="20" y="488.0186">main</text><ellipse cx="39.5" cy="501.3203" fill="#FEFECE" filter="url(#f19bnhvnmfg57t)" rx="8" ry="8" style="stroke: #A80036; stroke-width: 2.0;"/><path d="M39.5,509.3203 L39.5,536.3203 M26.5,517.3203 L52.5,517.3203 M39.5,536.3203 L26.5,551.3203 M39.5,536.3203 L52.5,551.3203 " fill="none" filter="url(#f19bnhvnmfg57t)" style="stroke: #A80036; stroke-width: 2.0;"/><rect fill="#FEFECE" filter="url(#f19bnhvnmfg57t)" height="30.2969" style="stroke: #A80036; stroke-width: 1.5;" width="74" x="121.5" y="53"/><text fill="#000000" font-family="sans-serif" font-size="14" lengthAdjust="spacingAndGlyphs" textLength="60" x="128.5" y="72.9951">Femodel</text><rect fill="#FEFECE" filter="url(#f19bnhvnmfg57t)" height="30.2969" style="stroke: #A80036; stroke-width: 1.5;" width="74" x="121.5" y="475.0234"/><text fill="#000000" font-family="sans-serif" font-size="14" lengthAdjust="spacingAndGlyphs" textLength="60" x="128.5" y="495.0186">Femodel</text><rect fill="#FEFECE" filter="url(#f19bnhvnmfg57t)" height="30.2969" style="stroke: #A80036; stroke-width: 1.5;" width="75" x="238" y="53"/><text fill="#000000" font-family="sans-serif" font-size="14" lengthAdjust="spacingAndGlyphs" textLength="61" x="245" y="72.9951">Propeller</text><rect fill="#FEFECE" filter="url(#f19bnhvnmfg57t)" height="30.2969" style="stroke: #A80036; stroke-width: 1.5;" width="75" x="238" y="475.0234"/><text fill="#000000" font-family="sans-serif" font-size="14" lengthAdjust="spacingAndGlyphs" textLength="61" x="245" y="495.0186">Propeller</text><rect fill="#FEFECE" filter="url(#f19bnhvnmfg57t)" height="30.2969" style="stroke: #A80036; stroke-width: 1.5;" width="100" x="327" y="53"/><text fill="#000000" font-family="sans-serif" font-size="14" lengthAdjust="spacingAndGlyphs" textLength="86" x="334" y="72.9951">Optimization</text><rect fill="#FEFECE" filter="url(#f19bnhvnmfg57t)" height="30.2969" style="stroke: #A80036; stroke-width: 1.5;" width="100" x="327" y="475.0234"/><text fill="#000000" font-family="sans-serif" font-size="14" lengthAdjust="spacingAndGlyphs" textLength="86" x="334" y="495.0186">Optimization</text><rect fill="#FEFECE" filter="url(#f19bnhvnmfg57t)" height="30.2969" style="stroke: #A80036; stroke-width: 1.5;" width="80" x="442" y="53"/><text fill="#000000" font-family="sans-serif" font-size="14" lengthAdjust="spacingAndGlyphs" textLength="66" x="449" y="72.9951">Optimizer</text><rect fill="#FEFECE" filter="url(#f19bnhvnmfg57t)" height="30.2969" style="stroke: #A80036; stroke-width: 1.5;" width="80" x="442" y="475.0234"/><text fill="#000000" font-family="sans-serif" font-size="14" lengthAdjust="spacingAndGlyphs" textLength="66" x="449" y="495.0186">Optimizer</text><path d="M10,105.2969 L149,105.2969 L149,112.2969 L139,122.2969 L10,122.2969 L10,105.2969 " fill="#EEEEEE" style="stroke: #000000; stroke-width: 1.0;"/><rect fill="none" height="353.7266" style="stroke: #000000; stroke-width: 2.0;" width="603" x="10" y="105.2969"/><text fill="#000000" font-family="sans-serif" font-size="13" font-weight="bold" lengthAdjust="spacingAndGlyphs" textLength="94" x="25" y="118.3638">Optimization</text><polygon fill="#A80036" points="148.5,139.5625,158.5,143.5625,148.5,147.5625,152.5,143.5625" style="stroke: #A80036; stroke-width: 1.0;"/><line style="stroke: #A80036; stroke-width: 1.0;" x1="39.5" x2="154.5" y1="143.5625" y2="143.5625"/><text fill="#000000" font-family="sans-serif" font-size="13" lengthAdjust="spacingAndGlyphs" textLength="97" x="46.5" y="138.4966">Setup Femodel</text><polygon fill="#A80036" points="171.5,168.6953,161.5,172.6953,171.5,176.6953,167.5,172.6953" style="stroke: #A80036; stroke-width: 1.0;"/><line style="stroke: #A80036; stroke-width: 1.0;" x1="165.5" x2="276.5" y1="172.6953" y2="172.6953"/><text fill="#000000" font-family="sans-serif" font-size="13" lengthAdjust="spacingAndGlyphs" textLength="93" x="177.5" y="167.6294">Load envelope</text><polygon fill="#A80036" points="367,197.8281,377,201.8281,367,205.8281,371,201.8281" style="stroke: #A80036; stroke-width: 1.0;"/><line style="stroke: #A80036; stroke-width: 1.0;" x1="39.5" x2="373" y1="201.8281" y2="201.8281"/><text fill="#000000" font-family="sans-serif" font-size="13" lengthAdjust="spacingAndGlyphs" textLength="181" x="46.5" y="196.7622">Define optimization Problem</text><polygon fill="#A80036" points="472,226.9609,482,230.9609,472,234.9609,476,230.9609" style="stroke: #A80036; stroke-width: 1.0;"/><line style="stroke: #A80036; stroke-width: 1.0;" x1="39.5" x2="478" y1="230.9609" y2="230.9609"/><text fill="#000000" font-family="sans-serif" font-size="13" lengthAdjust="spacingAndGlyphs" textLength="179" x="46.5" y="225.895">Define and set up Optimizer</text><polygon fill="#A80036" points="472,271.2266,482,275.2266,472,279.2266,476,275.2266" style="stroke: #A80036; stroke-width: 1.0;"/><line style="stroke: #A80036; stroke-width: 1.0;" x1="379" x2="478" y1="275.2266" y2="275.2266"/><text fill="#000000" font-family="sans-serif" font-size="13" lengthAdjust="spacingAndGlyphs" textLength="81" x="386" y="255.0278">Optimization</text><text fill="#000000" font-family="sans-serif" font-size="13" lengthAdjust="spacingAndGlyphs" textLength="53" x="386" y="270.1606">Problem</text><path d="M111.5,290.2266 L188.5,290.2266 L188.5,297.2266 L178.5,307.2266 L111.5,307.2266 L111.5,290.2266 " fill="#EEEEEE" style="stroke: #000000; stroke-width: 1.0;"/><rect fill="none" height="132.6641" style="stroke: #000000; stroke-width: 2.0;" width="491.5" x="111.5" y="290.2266"/><text fill="#000000" font-family="sans-serif" font-size="13" font-weight="bold" lengthAdjust="spacingAndGlyphs" textLength="32" x="126.5" y="303.2935">loop</text><text fill="#000000" font-family="sans-serif" font-size="11" font-weight="bold" lengthAdjust="spacingAndGlyphs" textLength="125" x="203.5" y="302.437">[until convergence]</text><polygon fill="#A80036" points="171.5,324.4922,161.5,328.4922,171.5,332.4922,167.5,328.4922" style="stroke: #A80036; stroke-width: 1.0;"/><line style="stroke: #A80036; stroke-width: 1.0;" x1="165.5" x2="483" y1="328.4922" y2="328.4922"/><text fill="#000000" font-family="sans-serif" font-size="13" lengthAdjust="spacingAndGlyphs" textLength="107" x="177.5" y="323.4263">Design Variables</text><polygon fill="#A80036" points="472,353.625,482,357.625,472,361.625,476,357.625" style="stroke: #A80036; stroke-width: 1.0;"/><line style="stroke: #A80036; stroke-width: 1.0;" x1="160.5" x2="478" y1="357.625" y2="357.625"/><text fill="#000000" font-family="sans-serif" font-size="13" lengthAdjust="spacingAndGlyphs" textLength="180" x="167.5" y="352.5591">Objective, Constraint Values</text><line style="stroke: #A80036; stroke-width: 1.0;" x1="484" x2="526" y1="401.8906" y2="401.8906"/><line style="stroke: #A80036; stroke-width: 1.0;" x1="526" x2="526" y1="401.8906" y2="414.8906"/><line style="stroke: #A80036; stroke-width: 1.0;" x1="485" x2="526" y1="414.8906" y2="414.8906"/><polygon fill="#A80036" points="495,410.8906,485,414.8906,495,418.8906,491,414.8906" style="stroke: #A80036; stroke-width: 1.0;"/><text fill="#000000" font-family="sans-serif" font-size="13" lengthAdjust="spacingAndGlyphs" textLength="100" x="491" y="381.6919">Design Variable</text><text fill="#000000" font-family="sans-serif" font-size="13" lengthAdjust="spacingAndGlyphs" textLength="55" x="491" y="396.8247">variation</text><polygon fill="#A80036" points="50.5,447.0234,40.5,451.0234,50.5,455.0234,46.5,451.0234" style="stroke: #A80036; stroke-width: 1.0;"/><line style="stroke: #A80036; stroke-width: 1.0;" x1="44.5" x2="483" y1="451.0234" y2="451.0234"/><text fill="#000000" font-family="sans-serif" font-size="13" lengthAdjust="spacingAndGlyphs" textLength="192" x="56.5" y="445.9575">Optimization problem solution</text><!--MD5=[d315a1a23428134d9c354cc07a43b99b]
@startuml
actor main
group Optimization
main -> Femodel: Setup Femodel
Propeller -> Femodel: Load envelope
main -> Optimization: Define optimization Problem
main -> Optimizer: Define and set up Optimizer
Optimization -> Optimizer: Optimization\nProblem
loop until convergence
	Optimizer -> Femodel: Design Variables
	Femodel -> Optimizer: Objective, Constraint Values
	Optimizer -> Optimizer: Design Variable\nvariation
	end
Optimizer -> main: Optimization problem solution
end
@enduml

PlantUML version 1.2020.19(Mon Oct 12 17:10:01 CEST 2020)
(GPL source distribution)
Java Runtime: OpenJDK Runtime Environment
JVM: OpenJDK 64-Bit Server VM
Default Encoding: UTF-8
Language: de
Country: DE
--></g></svg>