<?xml version="1.0" encoding="UTF-8" standalone="no"?><svg xmlns="http://www.w3.org/2000/svg" xmlns:xlink="http://www.w3.org/1999/xlink" contentScriptType="application/ecmascript" contentStyleType="text/css" height="266px" preserveAspectRatio="none" style="width:206px;height:266px;" version="1.1" viewBox="0 0 206 266" width="206px" zoomAndPan="magnify"><defs><filter height="300%" id="frcjjgdnltjk1" width="300%" x="-1" y="-1"><feGaussianBlur result="blurOut" stdDeviation="2.0"/><feColorMatrix in="blurOut" result="blurOut2" type="matrix" values="0 0 0 0 0 0 0 0 0 0 0 0 0 0 0 0 0 0 .4 0"/><feOffset dx="4.0" dy="4.0" in="blurOut2" result="blurOut3"/><feBlend in="SourceGraphic" in2="blurOut3" mode="normal"/></filter></defs><g><ellipse cx="64" cy="16" fill="#000000" filter="url(#frcjjgdnltjk1)" rx="10" ry="10" style="stroke: none; stroke-width: 1.0;"/><rect fill="#FEFECE" filter="url(#frcjjgdnltjk1)" height="33.9688" rx="12.5" ry="12.5" style="stroke: #A80036; stroke-width: 1.5;" width="94" x="17" y="68"/><text fill="#000000" font-family="sans-serif" font-size="12" lengthAdjust="spacingAndGlyphs" textLength="74" x="27" y="89.1387">First Activity</text><rect fill="#FEFECE" filter="url(#frcjjgdnltjk1)" height="33.9688" rx="12.5" ry="12.5" style="stroke: #A80036; stroke-width: 1.5;" width="114" x="7" y="158"/><text fill="#000000" font-family="sans-serif" font-size="12" lengthAdjust="spacingAndGlyphs" textLength="94" x="17" y="179.1387">Second Activity</text><ellipse cx="64" cy="244" fill="none" filter="url(#frcjjgdnltjk1)" rx="10" ry="10" style="stroke: #000000; stroke-width: 1.0;"/><ellipse cx="64.5" cy="244.5" fill="#000000" rx="6" ry="6" style="stroke: none; stroke-width: 1.0;"/><!--MD5=[7b51c630cb61ed9b5d850ed70c977c40]
link start to First Activity--><path d="M64,26.036 C64,35.412 64,50.41 64,62.801 " fill="none" id="start-to-First Activity" style="stroke: #A80036; stroke-width: 1.0;"/><polygon fill="#A80036" points="64,67.928,68,58.928,64,62.928,60,58.928,64,67.928" style="stroke: #A80036; stroke-width: 1.0;"/><!--MD5=[6bcf6ea5361ee4e59421f63d99fbee0a]
link First Activity to Second Activity--><path d="M64,102.141 C64,116.406 64,137.309 64,152.896 " fill="none" id="First Activity-to-Second Activity" style="stroke: #A80036; stroke-width: 1.0;"/><polygon fill="#A80036" points="64,157.9618,68,148.9618,64,152.9618,60,148.9618,64,157.9618" style="stroke: #A80036; stroke-width: 1.0;"/><text fill="#000000" font-family="sans-serif" font-size="11" lengthAdjust="spacingAndGlyphs" textLength="133" x="65" y="133.7104">You can put also labels</text><!--MD5=[53f95cfb746dba279ce9e70d89122c70]
link Second Activity to end--><path d="M64,192.2188 C64,203.2999 64,217.8549 64,228.5405 " fill="none" id="Second Activity-to-end" style="stroke: #A80036; stroke-width: 1.0;"/><polygon fill="#A80036" points="64,233.7367,68,224.7367,64,228.7367,60,224.7367,64,233.7367" style="stroke: #A80036; stroke-width: 1.0;"/><!--MD5=[fc70a30d12725b5145ea52267d4c5f99]
@startuml

(*) - -> "First Activity"
- ->[You can put also labels] "Second Activity"
- -> (*)

@enduml

PlantUML version 1.2020.19(Mon Oct 12 17:10:01 CEST 2020)
(GPL source distribution)
Java Runtime: OpenJDK Runtime Environment
JVM: OpenJDK 64-Bit Server VM
Default Encoding: UTF-8
Language: de
Country: DE
--></g></svg>