<?xml version="1.0" encoding="UTF-8" standalone="no"?><svg xmlns="http://www.w3.org/2000/svg" xmlns:xlink="http://www.w3.org/1999/xlink" contentScriptType="application/ecmascript" contentStyleType="text/css" height="1040px" preserveAspectRatio="none" style="width:1003px;height:1040px;" version="1.1" viewBox="0 0 1003 1040" width="1003px" zoomAndPan="magnify"><defs><filter height="300%" id="fwmgeyakkzfft" width="300%" x="-1" y="-1"><feGaussianBlur result="blurOut" stdDeviation="2.0"/><feColorMatrix in="blurOut" result="blurOut2" type="matrix" values="0 0 0 0 0 0 0 0 0 0 0 0 0 0 0 0 0 0 .4 0"/><feOffset dx="4.0" dy="4.0" in="blurOut2" result="blurOut3"/><feBlend in="SourceGraphic" in2="blurOut3" mode="normal"/></filter></defs><g><rect fill="#FFFFFF" filter="url(#fwmgeyakkzfft)" height="466.2578" style="stroke: #000000; stroke-width: 2.0;" width="605" x="10" y="105.2969"/><rect fill="#FFFFFF" filter="url(#fwmgeyakkzfft)" height="353.7266" style="stroke: #000000; stroke-width: 2.0;" width="979" x="10" y="585.5547"/><rect fill="#FFFFFF" filter="url(#fwmgeyakkzfft)" height="132.6641" style="stroke: #000000; stroke-width: 2.0;" width="374" x="605" y="770.4844"/><line style="stroke: #A80036; stroke-width: 1.0; stroke-dasharray: 5.0,5.0;" x1="39" x2="39" y1="88.2969" y2="956.2813"/><line style="stroke: #A80036; stroke-width: 1.0; stroke-dasharray: 5.0,5.0;" x1="150.5" x2="150.5" y1="88.2969" y2="956.2813"/><line style="stroke: #A80036; stroke-width: 1.0; stroke-dasharray: 5.0,5.0;" x1="300.5" x2="300.5" y1="88.2969" y2="956.2813"/><line style="stroke: #A80036; stroke-width: 1.0; stroke-dasharray: 5.0,5.0;" x1="372.5" x2="372.5" y1="88.2969" y2="956.2813"/><line style="stroke: #A80036; stroke-width: 1.0; stroke-dasharray: 5.0,5.0;" x1="493" x2="493" y1="88.2969" y2="956.2813"/><line style="stroke: #A80036; stroke-width: 1.0; stroke-dasharray: 5.0,5.0;" x1="575" x2="575" y1="88.2969" y2="956.2813"/><line style="stroke: #A80036; stroke-width: 1.0; stroke-dasharray: 5.0,5.0;" x1="654" x2="654" y1="88.2969" y2="956.2813"/><line style="stroke: #A80036; stroke-width: 1.0; stroke-dasharray: 5.0,5.0;" x1="755" x2="755" y1="88.2969" y2="956.2813"/><line style="stroke: #A80036; stroke-width: 1.0; stroke-dasharray: 5.0,5.0;" x1="860" x2="860" y1="88.2969" y2="956.2813"/><text fill="#000000" font-family="sans-serif" font-size="14" lengthAdjust="spacingAndGlyphs" textLength="33" x="20" y="84.9951">main</text><ellipse cx="39.5" cy="15" fill="#FEFECE" filter="url(#fwmgeyakkzfft)" rx="8" ry="8" style="stroke: #A80036; stroke-width: 2.0;"/><path d="M39.5,23 L39.5,50 M26.5,31 L52.5,31 M39.5,50 L26.5,65 M39.5,50 L52.5,65 " fill="none" filter="url(#fwmgeyakkzfft)" style="stroke: #A80036; stroke-width: 2.0;"/><text fill="#000000" font-family="sans-serif" font-size="14" lengthAdjust="spacingAndGlyphs" textLength="33" x="20" y="968.2764">main</text><ellipse cx="39.5" cy="981.5781" fill="#FEFECE" filter="url(#fwmgeyakkzfft)" rx="8" ry="8" style="stroke: #A80036; stroke-width: 2.0;"/><path d="M39.5,989.5781 L39.5,1016.5781 M26.5,997.5781 L52.5,997.5781 M39.5,1016.5781 L26.5,1031.5781 M39.5,1016.5781 L52.5,1031.5781 " fill="none" filter="url(#fwmgeyakkzfft)" style="stroke: #A80036; stroke-width: 2.0;"/><rect fill="#FEFECE" filter="url(#fwmgeyakkzfft)" height="30.2969" style="stroke: #A80036; stroke-width: 1.5;" width="50" x="123.5" y="53"/><text fill="#000000" font-family="sans-serif" font-size="14" lengthAdjust="spacingAndGlyphs" textLength="36" x="130.5" y="72.9951">Airfoil</text><rect fill="#FEFECE" filter="url(#fwmgeyakkzfft)" height="30.2969" style="stroke: #A80036; stroke-width: 1.5;" width="50" x="123.5" y="955.2813"/><text fill="#000000" font-family="sans-serif" font-size="14" lengthAdjust="spacingAndGlyphs" textLength="36" x="130.5" y="975.2764">Airfoil</text><rect fill="#FEFECE" filter="url(#fwmgeyakkzfft)" height="30.2969" style="stroke: #A80036; stroke-width: 1.5;" width="42" x="277.5" y="53"/><text fill="#000000" font-family="sans-serif" font-size="14" lengthAdjust="spacingAndGlyphs" textLength="28" x="284.5" y="72.9951">Xfoil</text><rect fill="#FEFECE" filter="url(#fwmgeyakkzfft)" height="30.2969" style="stroke: #A80036; stroke-width: 1.5;" width="42" x="277.5" y="955.2813"/><text fill="#000000" font-family="sans-serif" font-size="14" lengthAdjust="spacingAndGlyphs" textLength="28" x="284.5" y="975.2764">Xfoil</text><rect fill="#FEFECE" filter="url(#fwmgeyakkzfft)" height="30.2969" style="stroke: #A80036; stroke-width: 1.5;" width="75" x="333.5" y="53"/><text fill="#000000" font-family="sans-serif" font-size="14" lengthAdjust="spacingAndGlyphs" textLength="61" x="340.5" y="72.9951">Propeller</text><rect fill="#FEFECE" filter="url(#fwmgeyakkzfft)" height="30.2969" style="stroke: #A80036; stroke-width: 1.5;" width="75" x="333.5" y="955.2813"/><text fill="#000000" font-family="sans-serif" font-size="14" lengthAdjust="spacingAndGlyphs" textLength="61" x="340.5" y="975.2764">Propeller</text><rect fill="#FEFECE" filter="url(#fwmgeyakkzfft)" height="30.2969" style="stroke: #A80036; stroke-width: 1.5;" width="80" x="451" y="53"/><text fill="#000000" font-family="sans-serif" font-size="14" lengthAdjust="spacingAndGlyphs" textLength="66" x="458" y="72.9951">Loadcase</text><rect fill="#FEFECE" filter="url(#fwmgeyakkzfft)" height="30.2969" style="stroke: #A80036; stroke-width: 1.5;" width="80" x="451" y="955.2813"/><text fill="#000000" font-family="sans-serif" font-size="14" lengthAdjust="spacingAndGlyphs" textLength="66" x="458" y="975.2764">Loadcase</text><rect fill="#FEFECE" filter="url(#fwmgeyakkzfft)" height="30.2969" style="stroke: #A80036; stroke-width: 1.5;" width="56" x="545" y="53"/><text fill="#000000" font-family="sans-serif" font-size="14" lengthAdjust="spacingAndGlyphs" textLength="42" x="552" y="72.9951">Xrotor</text><rect fill="#FEFECE" filter="url(#fwmgeyakkzfft)" height="30.2969" style="stroke: #A80036; stroke-width: 1.5;" width="56" x="545" y="955.2813"/><text fill="#000000" font-family="sans-serif" font-size="14" lengthAdjust="spacingAndGlyphs" textLength="42" x="552" y="975.2764">Xrotor</text><rect fill="#FEFECE" filter="url(#fwmgeyakkzfft)" height="30.2969" style="stroke: #A80036; stroke-width: 1.5;" width="74" x="615" y="53"/><text fill="#000000" font-family="sans-serif" font-size="14" lengthAdjust="spacingAndGlyphs" textLength="60" x="622" y="72.9951">Femodel</text><rect fill="#FEFECE" filter="url(#fwmgeyakkzfft)" height="30.2969" style="stroke: #A80036; stroke-width: 1.5;" width="74" x="615" y="955.2813"/><text fill="#000000" font-family="sans-serif" font-size="14" lengthAdjust="spacingAndGlyphs" textLength="60" x="622" y="975.2764">Femodel</text><rect fill="#FEFECE" filter="url(#fwmgeyakkzfft)" height="30.2969" style="stroke: #A80036; stroke-width: 1.5;" width="100" x="703" y="53"/><text fill="#000000" font-family="sans-serif" font-size="14" lengthAdjust="spacingAndGlyphs" textLength="86" x="710" y="72.9951">Optimization</text><rect fill="#FEFECE" filter="url(#fwmgeyakkzfft)" height="30.2969" style="stroke: #A80036; stroke-width: 1.5;" width="100" x="703" y="955.2813"/><text fill="#000000" font-family="sans-serif" font-size="14" lengthAdjust="spacingAndGlyphs" textLength="86" x="710" y="975.2764">Optimization</text><rect fill="#FEFECE" filter="url(#fwmgeyakkzfft)" height="30.2969" style="stroke: #A80036; stroke-width: 1.5;" width="80" x="818" y="53"/><text fill="#000000" font-family="sans-serif" font-size="14" lengthAdjust="spacingAndGlyphs" textLength="66" x="825" y="72.9951">Optimizer</text><rect fill="#FEFECE" filter="url(#fwmgeyakkzfft)" height="30.2969" style="stroke: #A80036; stroke-width: 1.5;" width="80" x="818" y="955.2813"/><text fill="#000000" font-family="sans-serif" font-size="14" lengthAdjust="spacingAndGlyphs" textLength="66" x="825" y="975.2764">Optimizer</text><path d="M10,105.2969 L175,105.2969 L175,112.2969 L165,122.2969 L10,122.2969 L10,105.2969 " fill="#EEEEEE" style="stroke: #000000; stroke-width: 1.0;"/><rect fill="none" height="466.2578" style="stroke: #000000; stroke-width: 2.0;" width="605" x="10" y="105.2969"/><text fill="#000000" font-family="sans-serif" font-size="13" font-weight="bold" lengthAdjust="spacingAndGlyphs" textLength="120" x="25" y="118.3638">Load calculation</text><polygon fill="#A80036" points="138.5,139.5625,148.5,143.5625,138.5,147.5625,142.5,143.5625" style="stroke: #A80036; stroke-width: 1.0;"/><line style="stroke: #A80036; stroke-width: 1.0;" x1="39.5" x2="144.5" y1="143.5625" y2="143.5625"/><text fill="#000000" font-family="sans-serif" font-size="13" lengthAdjust="spacingAndGlyphs" textLength="87" x="46.5" y="138.4966">Define Airfoils</text><polygon fill="#A80036" points="288.5,168.6953,298.5,172.6953,288.5,176.6953,292.5,172.6953" style="stroke: #A80036; stroke-width: 1.0;"/><line style="stroke: #A80036; stroke-width: 1.0;" x1="150.5" x2="294.5" y1="172.6953" y2="172.6953"/><text fill="#000000" font-family="sans-serif" font-size="13" lengthAdjust="spacingAndGlyphs" textLength="117" x="157.5" y="167.6294">Re, Ncrit, Iter, AoA</text><polygon fill="#A80036" points="161.5,197.8281,151.5,201.8281,161.5,205.8281,157.5,201.8281" style="stroke: #A80036; stroke-width: 1.0;"/><line style="stroke: #A80036; stroke-width: 1.0;" x1="155.5" x2="299.5" y1="201.8281" y2="201.8281"/><text fill="#000000" font-family="sans-serif" font-size="13" lengthAdjust="spacingAndGlyphs" textLength="32" x="167.5" y="196.7622">Polar</text><line style="stroke: #A80036; stroke-width: 1.0;" x1="150.5" x2="192.5" y1="230.9609" y2="230.9609"/><line style="stroke: #A80036; stroke-width: 1.0;" x1="192.5" x2="192.5" y1="230.9609" y2="243.9609"/><line style="stroke: #A80036; stroke-width: 1.0;" x1="151.5" x2="192.5" y1="243.9609" y2="243.9609"/><polygon fill="#A80036" points="161.5,239.9609,151.5,243.9609,161.5,247.9609,157.5,243.9609" style="stroke: #A80036; stroke-width: 1.0;"/><text fill="#000000" font-family="sans-serif" font-size="13" lengthAdjust="spacingAndGlyphs" textLength="111" x="157.5" y="225.895">Polar curve fitting</text><line style="stroke: #A80036; stroke-width: 1.0;" x1="150.5" x2="192.5" y1="288.2266" y2="288.2266"/><line style="stroke: #A80036; stroke-width: 1.0;" x1="192.5" x2="192.5" y1="288.2266" y2="301.2266"/><line style="stroke: #A80036; stroke-width: 1.0;" x1="151.5" x2="192.5" y1="301.2266" y2="301.2266"/><polygon fill="#A80036" points="161.5,297.2266,151.5,301.2266,161.5,305.2266,157.5,301.2266" style="stroke: #A80036; stroke-width: 1.0;"/><text fill="#000000" font-family="sans-serif" font-size="13" lengthAdjust="spacingAndGlyphs" textLength="136" x="157.5" y="268.0278">Xrotor characteristics</text><text fill="#000000" font-family="sans-serif" font-size="13" lengthAdjust="spacingAndGlyphs" textLength="68" x="157.5" y="283.1606">calculation</text><polygon fill="#A80036" points="361,326.3594,371,330.3594,361,334.3594,365,330.3594" style="stroke: #A80036; stroke-width: 1.0;"/><line style="stroke: #A80036; stroke-width: 1.0;" x1="150.5" x2="367" y1="330.3594" y2="330.3594"/><text fill="#000000" font-family="sans-serif" font-size="13" lengthAdjust="spacingAndGlyphs" textLength="65" x="157.5" y="325.2935">Polar data</text><polygon fill="#A80036" points="361,355.4922,371,359.4922,361,363.4922,365,359.4922" style="stroke: #A80036; stroke-width: 1.0;"/><line style="stroke: #A80036; stroke-width: 1.0;" x1="39.5" x2="367" y1="359.4922" y2="359.4922"/><text fill="#000000" font-family="sans-serif" font-size="13" lengthAdjust="spacingAndGlyphs" textLength="167" x="46.5" y="354.4263">Define Propeller geometry</text><polygon fill="#A80036" points="481,384.625,491,388.625,481,392.625,485,388.625" style="stroke: #A80036; stroke-width: 1.0;"/><line style="stroke: #A80036; stroke-width: 1.0;" x1="39.5" x2="487" y1="388.625" y2="388.625"/><text fill="#000000" font-family="sans-serif" font-size="13" lengthAdjust="spacingAndGlyphs" textLength="113" x="46.5" y="383.5591">Define Loadcases</text><polygon fill="#A80036" points="384,413.7578,374,417.7578,384,421.7578,380,417.7578" style="stroke: #A80036; stroke-width: 1.0;"/><line style="stroke: #A80036; stroke-width: 1.0;" x1="378" x2="492" y1="417.7578" y2="417.7578"/><text fill="#000000" font-family="sans-serif" font-size="13" lengthAdjust="spacingAndGlyphs" textLength="96" x="390" y="412.6919">Loadcase Data</text><polygon fill="#A80036" points="563,458.0234,573,462.0234,563,466.0234,567,462.0234" style="stroke: #A80036; stroke-width: 1.0;"/><line style="stroke: #A80036; stroke-width: 1.0;" x1="373" x2="569" y1="462.0234" y2="462.0234"/><text fill="#000000" font-family="sans-serif" font-size="13" lengthAdjust="spacingAndGlyphs" textLength="150" x="380" y="441.8247">Geometry, Airfoil polars</text><text fill="#000000" font-family="sans-serif" font-size="13" lengthAdjust="spacingAndGlyphs" textLength="68" x="380" y="456.9575">Loadcases</text><polygon fill="#A80036" points="384,487.1563,374,491.1563,384,495.1563,380,491.1563" style="stroke: #A80036; stroke-width: 1.0;"/><line style="stroke: #A80036; stroke-width: 1.0;" x1="378" x2="574" y1="491.1563" y2="491.1563"/><text fill="#000000" font-family="sans-serif" font-size="13" lengthAdjust="spacingAndGlyphs" textLength="64" x="390" y="486.0903">Load data</text><line style="stroke: #A80036; stroke-width: 1.0;" x1="373" x2="415" y1="550.5547" y2="550.5547"/><line style="stroke: #A80036; stroke-width: 1.0;" x1="415" x2="415" y1="550.5547" y2="563.5547"/><line style="stroke: #A80036; stroke-width: 1.0;" x1="374" x2="415" y1="563.5547" y2="563.5547"/><polygon fill="#A80036" points="384,559.5547,374,563.5547,384,567.5547,380,563.5547" style="stroke: #A80036; stroke-width: 1.0;"/><text fill="#000000" font-family="sans-serif" font-size="13" lengthAdjust="spacingAndGlyphs" textLength="35" x="380" y="515.2231">Todo:</text><text fill="#000000" font-family="sans-serif" font-size="13" lengthAdjust="spacingAndGlyphs" textLength="57" x="380" y="530.356">calculate</text><text fill="#000000" font-family="sans-serif" font-size="13" lengthAdjust="spacingAndGlyphs" textLength="89" x="380" y="545.4888">load envelope</text><path d="M10,585.5547 L149,585.5547 L149,592.5547 L139,602.5547 L10,602.5547 L10,585.5547 " fill="#EEEEEE" style="stroke: #000000; stroke-width: 1.0;"/><rect fill="none" height="353.7266" style="stroke: #000000; stroke-width: 2.0;" width="979" x="10" y="585.5547"/><text fill="#000000" font-family="sans-serif" font-size="13" font-weight="bold" lengthAdjust="spacingAndGlyphs" textLength="94" x="25" y="598.6216">Optimization</text><polygon fill="#A80036" points="642,619.8203,652,623.8203,642,627.8203,646,623.8203" style="stroke: #A80036; stroke-width: 1.0;"/><line style="stroke: #A80036; stroke-width: 1.0;" x1="39.5" x2="648" y1="623.8203" y2="623.8203"/><text fill="#000000" font-family="sans-serif" font-size="13" lengthAdjust="spacingAndGlyphs" textLength="97" x="46.5" y="618.7544">Setup Femodel</text><polygon fill="#A80036" points="642,648.9531,652,652.9531,642,656.9531,646,652.9531" style="stroke: #A80036; stroke-width: 1.0;"/><line style="stroke: #A80036; stroke-width: 1.0;" x1="373" x2="648" y1="652.9531" y2="652.9531"/><text fill="#000000" font-family="sans-serif" font-size="13" lengthAdjust="spacingAndGlyphs" textLength="93" x="380" y="647.8872">Load envelope</text><polygon fill="#A80036" points="743,678.0859,753,682.0859,743,686.0859,747,682.0859" style="stroke: #A80036; stroke-width: 1.0;"/><line style="stroke: #A80036; stroke-width: 1.0;" x1="39.5" x2="749" y1="682.0859" y2="682.0859"/><text fill="#000000" font-family="sans-serif" font-size="13" lengthAdjust="spacingAndGlyphs" textLength="181" x="46.5" y="677.02">Define optimization Problem</text><polygon fill="#A80036" points="848,707.2188,858,711.2188,848,715.2188,852,711.2188" style="stroke: #A80036; stroke-width: 1.0;"/><line style="stroke: #A80036; stroke-width: 1.0;" x1="39.5" x2="854" y1="711.2188" y2="711.2188"/><text fill="#000000" font-family="sans-serif" font-size="13" lengthAdjust="spacingAndGlyphs" textLength="179" x="46.5" y="706.1528">Define and set up Optimizer</text><polygon fill="#A80036" points="848,751.4844,858,755.4844,848,759.4844,852,755.4844" style="stroke: #A80036; stroke-width: 1.0;"/><line style="stroke: #A80036; stroke-width: 1.0;" x1="755" x2="854" y1="755.4844" y2="755.4844"/><text fill="#000000" font-family="sans-serif" font-size="13" lengthAdjust="spacingAndGlyphs" textLength="81" x="762" y="735.2856">Optimization</text><text fill="#000000" font-family="sans-serif" font-size="13" lengthAdjust="spacingAndGlyphs" textLength="53" x="762" y="750.4185">Problem</text><path d="M605,770.4844 L682,770.4844 L682,777.4844 L672,787.4844 L605,787.4844 L605,770.4844 " fill="#EEEEEE" style="stroke: #000000; stroke-width: 1.0;"/><rect fill="none" height="132.6641" style="stroke: #000000; stroke-width: 2.0;" width="374" x="605" y="770.4844"/><text fill="#000000" font-family="sans-serif" font-size="13" font-weight="bold" lengthAdjust="spacingAndGlyphs" textLength="32" x="620" y="783.5513">loop</text><text fill="#000000" font-family="sans-serif" font-size="11" font-weight="bold" lengthAdjust="spacingAndGlyphs" textLength="125" x="697" y="782.6948">[until convergence]</text><polygon fill="#A80036" points="665,804.75,655,808.75,665,812.75,661,808.75" style="stroke: #A80036; stroke-width: 1.0;"/><line style="stroke: #A80036; stroke-width: 1.0;" x1="659" x2="859" y1="808.75" y2="808.75"/><text fill="#000000" font-family="sans-serif" font-size="13" lengthAdjust="spacingAndGlyphs" textLength="107" x="671" y="803.6841">Design Variables</text><polygon fill="#A80036" points="848,833.8828,858,837.8828,848,841.8828,852,837.8828" style="stroke: #A80036; stroke-width: 1.0;"/><line style="stroke: #A80036; stroke-width: 1.0;" x1="654" x2="854" y1="837.8828" y2="837.8828"/><text fill="#000000" font-family="sans-serif" font-size="13" lengthAdjust="spacingAndGlyphs" textLength="180" x="661" y="832.8169">Objective, Constraint Values</text><line style="stroke: #A80036; stroke-width: 1.0;" x1="860" x2="902" y1="882.1484" y2="882.1484"/><line style="stroke: #A80036; stroke-width: 1.0;" x1="902" x2="902" y1="882.1484" y2="895.1484"/><line style="stroke: #A80036; stroke-width: 1.0;" x1="861" x2="902" y1="895.1484" y2="895.1484"/><polygon fill="#A80036" points="871,891.1484,861,895.1484,871,899.1484,867,895.1484" style="stroke: #A80036; stroke-width: 1.0;"/><text fill="#000000" font-family="sans-serif" font-size="13" lengthAdjust="spacingAndGlyphs" textLength="100" x="867" y="861.9497">Design Variable</text><text fill="#000000" font-family="sans-serif" font-size="13" lengthAdjust="spacingAndGlyphs" textLength="55" x="867" y="877.0825">variation</text><polygon fill="#A80036" points="50.5,927.2813,40.5,931.2813,50.5,935.2813,46.5,931.2813" style="stroke: #A80036; stroke-width: 1.0;"/><line style="stroke: #A80036; stroke-width: 1.0;" x1="44.5" x2="859" y1="931.2813" y2="931.2813"/><text fill="#000000" font-family="sans-serif" font-size="13" lengthAdjust="spacingAndGlyphs" textLength="192" x="56.5" y="926.2153">Optimization problem solution</text><!--MD5=[5060360907b5fdec3262af822a911832]
@startuml
actor main
group Load calculation
main -> Airfoil: Define Airfoils
Airfoil -> Xfoil: Re, Ncrit, Iter, AoA
Xfoil -> Airfoil: Polar
Airfoil -> Airfoil: Polar curve fitting
Airfoil -> Airfoil: Xrotor characteristics\ncalculation
Airfoil -> Propeller: Polar data
main -> Propeller: Define Propeller geometry
main -> Loadcase: Define Loadcases
Loadcase -> Propeller: Loadcase Data
Propeller -> Xrotor: Geometry, Airfoil polars\nLoadcases
Xrotor -> Propeller: Load data
Propeller -> Propeller: Todo:\ncalculate\nload envelope
end
group Optimization
main -> Femodel: Setup Femodel
Propeller -> Femodel: Load envelope
main -> Optimization: Define optimization Problem
main -> Optimizer: Define and set up Optimizer
Optimization -> Optimizer: Optimization\nProblem
loop until convergence
	Optimizer -> Femodel: Design Variables
	Femodel -> Optimizer: Objective, Constraint Values
	Optimizer -> Optimizer: Design Variable\nvariation
	end
Optimizer -> main: Optimization problem solution
end
@enduml

PlantUML version 1.2020.19(Mon Oct 12 17:10:01 CEST 2020)
(GPL source distribution)
Java Runtime: OpenJDK Runtime Environment
JVM: OpenJDK 64-Bit Server VM
Default Encoding: UTF-8
Language: de
Country: DE
--></g></svg>