<?xml version="1.0" encoding="UTF-8" standalone="no"?>
<svg
   xmlns:dc="http://purl.org/dc/elements/1.1/"
   xmlns:cc="http://creativecommons.org/ns#"
   xmlns:rdf="http://www.w3.org/1999/02/22-rdf-syntax-ns#"
   xmlns:svg="http://www.w3.org/2000/svg"
   xmlns="http://www.w3.org/2000/svg"
   viewBox="0 0 256.61734 72.702667"
   height="72.702667"
   width="256.61734"
   xml:space="preserve"
   id="svg850"
   version="1.1"><metadata
     id="metadata856"><rdf:RDF><cc:Work
         rdf:about=""><dc:format>image/svg+xml</dc:format><dc:type
           rdf:resource="http://purl.org/dc/dcmitype/StillImage" /><dc:title></dc:title></cc:Work></rdf:RDF></metadata><defs
     id="defs854"><clipPath
       id="clipPath868"
       clipPathUnits="userSpaceOnUse"><path
         id="path866"
         d="M 0,545.27 V 0 h 1924.63 v 545.27" /></clipPath></defs><g
     transform="matrix(1.3333333,0,0,-1.3333333,0,72.702665)"
     id="g858"><g
       transform="scale(0.1)"
       id="g860"><g
         id="g862"><g
           style="opacity:1"
           clip-path="url(#clipPath868)"
           id="g864"><path
             id="path870"
             style="fill:#2e3e9c;fill-opacity:1;fill-rule:nonzero;stroke:none"
             d="m 1643.91,0 h 16.9297 V 92.1289 H 1643.91 Z" /><path
             id="path872"
             style="fill:#2e3e9c;fill-opacity:1;fill-rule:nonzero;stroke:none"
             d="M 1701.39,77.5898 V 52.5703 h 32.87 V 38.1641 h -32.87 V 0 h -16.92 v 92.1289 h 54.83 V 77.5898 h -37.91" /><path
             id="path874"
             style="fill:#2e3e9c;fill-opacity:1;fill-rule:nonzero;stroke:none"
             d="m 1756.35,0 v 92.1289 h 16.93 V 14.4063 h 39.57 V 0 h -56.5" /><path
             id="path876"
             style="fill:#2e3e9c;fill-opacity:1;fill-rule:nonzero;stroke:none"
             d="M 17.3672,426.555 H 36.7578 V 532.129 H 17.3672 Z" /><path
             id="path878"
             style="fill:#2e3e9c;fill-opacity:1;fill-rule:nonzero;stroke:none"
             d="m 126.832,426.555 h -19.391 c 0.481,21.144 0.641,23.07 0.641,36.843 0,2.727 0,5.93 -0.324,8.977 -0.641,9.289 -2.563,11.855 -8.3361,11.855 -3.0391,0 -8.1719,-0.64 -9.1328,-1.601 -1.1211,-0.801 -6.4063,-4.649 -9.6172,-8.652 V 426.555 H 61.2813 v 51.105 c 0,6.406 -1.1211,17.461 -1.9219,21.465 h 17.3047 l 1.9257,-8.488 c 6.4102,7.211 13.6211,10.414 21.9572,10.414 24.844,0 27.086,-15.383 27.086,-31.563 v -8.808 c -0.16,-10.414 -0.32,-15.864 -0.801,-34.125" /><path
             id="path880"
             style="fill:#2e3e9c;fill-opacity:1;fill-rule:nonzero;stroke:none"
             d="m 172.02,424.469 c -9.133,0 -18.43,1.922 -26.606,7.051 l 2.086,16.019 c 8.496,-4.965 13.461,-7.207 24.039,-7.207 9.297,0 11.383,2.883 11.383,5.285 0,11.535 -37.668,8.332 -37.668,34.446 0,12.976 10.898,20.988 29.973,20.988 9.293,0 14.906,-1.926 25.003,-6.41 l -2.246,-16.981 c -9.777,7.207 -18.429,7.848 -23.722,7.848 -3.203,0 -9.614,-0.801 -9.614,-4.805 0,-10.894 37.985,-9.129 37.985,-33.48 0,-12.18 -10.578,-22.754 -30.613,-22.754" /><path
             id="path882"
             style="fill:#2e3e9c;fill-opacity:1;fill-rule:nonzero;stroke:none"
             d="m 239.813,424.469 c -10.899,0 -18.911,6.89 -18.911,20.347 v 41.336 H 210.32 v 12.813 h 10.582 v 24.672 h 19.075 v -24.512 h 15.863 v -12.816 h -15.863 v -37.645 c 0,-7.051 1.921,-7.371 3.683,-7.371 4.328,0 9.938,3.207 13.465,5.285 l 1.922,-16.019 c -6.25,-3.528 -13.145,-6.09 -19.234,-6.09" /><path
             id="path884"
             style="fill:#2e3e9c;fill-opacity:1;fill-rule:nonzero;stroke:none"
             d="m 271.227,426.555 v 72.57 h 19.394 v -72.57 z m 9.617,86.351 c -6.094,0 -11.379,5.289 -11.379,11.696 0,6.406 5.285,11.531 11.379,11.531 6.25,0 11.219,-4.965 11.219,-11.371 0,-6.41 -4.969,-11.856 -11.219,-11.856" /><path
             id="path886"
             style="fill:#2e3e9c;fill-opacity:1;fill-rule:nonzero;stroke:none"
             d="m 331.809,424.469 c -10.903,0 -18.914,6.89 -18.914,20.347 v 41.336 h -10.582 v 12.813 h 10.582 v 24.672 h 19.074 v -24.512 h 15.863 v -12.816 h -15.863 v -37.645 c 0,-7.051 1.922,-7.371 3.683,-7.371 4.328,0 9.938,3.207 13.465,5.285 l 1.922,-16.019 c -6.25,-3.528 -13.144,-6.09 -19.23,-6.09" /><path
             id="path888"
             style="fill:#2e3e9c;fill-opacity:1;fill-rule:nonzero;stroke:none"
             d="m 411.941,426.555 -1.921,8.488 c -5.774,-6.727 -12.985,-10.574 -21.957,-10.574 -19.235,0 -26.286,8.812 -26.286,27.074 v 47.582 h 19.395 v -45.977 c 0,-6.57 0.476,-11.855 8.168,-11.855 2.086,0 6.894,0.32 8.82,1.441 2.563,1.926 7.528,6.09 9.774,8.809 v 47.582 h 19.394 v -51.102 c 0,-7.21 0.801,-14.418 1.926,-21.468 h -17.313" /><path
             id="path890"
             style="fill:#2e3e9c;fill-opacity:1;fill-rule:nonzero;stroke:none"
             d="m 470.273,424.469 c -10.898,0 -18.91,6.89 -18.91,20.347 v 41.336 h -10.582 v 12.813 h 10.582 v 24.672 h 19.071 v -24.512 h 15.867 v -12.816 h -15.867 v -37.645 c 0,-7.051 1.925,-7.371 3.687,-7.371 4.324,0 9.938,3.207 13.461,5.285 l 1.926,-16.019 c -6.25,-3.528 -13.145,-6.09 -19.235,-6.09" /><path
             id="path892"
             style="fill:#2e3e9c;fill-opacity:1;fill-rule:nonzero;stroke:none"
             d="m 595.121,525.402 c -5.449,3.203 -8.812,3.848 -15.703,3.848 -4.484,0 -8.656,-1.445 -9.297,-2.086 -1.281,-0.961 -5.769,-4.328 -5.769,-26.914 v -1.125 h 15.546 v -12.816 h -15.546 v -59.754 h -19.391 v 59.597 h -12.344 v 12.813 h 12.344 v 2.246 c 0,36.047 10.898,44.059 35.898,44.059 6.575,0 11.059,-1.125 16.188,-3.207 l -1.926,-16.661" /><path
             id="path894"
             style="fill:#2e3e9c;fill-opacity:1;fill-rule:nonzero;stroke:none"
             d="m 641.602,509.059 c -5.774,0 -10.258,4.808 -10.258,10.574 0,5.93 4.164,11.055 10.258,11.055 5.765,0 10.253,-5.125 10.253,-10.891 0,-5.93 -4.488,-10.738 -10.253,-10.738 z m -34.622,0 c -5.769,0 -10.257,4.808 -10.257,10.574 0,5.93 4.172,11.055 10.257,11.055 5.774,0 10.262,-5.125 10.262,-10.891 0,-5.93 -4.488,-10.738 -10.262,-10.738 z m 32.059,-82.504 -1.926,8.488 c -5.769,-6.727 -12.98,-10.574 -21.957,-10.574 -19.234,0 -26.285,8.812 -26.285,27.074 v 47.582 h 19.395 v -45.977 c 0,-6.57 0.48,-11.855 8.175,-11.855 2.079,0 6.887,0.32 8.813,1.441 2.562,1.926 7.527,6.09 9.773,8.809 v 47.582 h 19.399 v -51.102 c 0,-7.21 0.801,-14.418 1.918,-21.468 h -17.305" /><path
             id="path896"
             style="fill:#2e3e9c;fill-opacity:1;fill-rule:nonzero;stroke:none"
             d="m 707.633,477.34 c -0.16,3.523 0.156,7.527 -2.887,7.527 -2.562,0 -4.488,-3.363 -7.535,-8.812 v -49.5 h -19.395 v 51.261 c 0,7.051 -0.8,14.266 -1.918,21.309 h 17.305 l 1.926,-8.652 c 2.723,5.129 9.457,10.418 15.383,10.418 9.621,0 12.824,-5.93 12.824,-14.739 0,-2.246 -0.16,-4.648 -0.481,-6.89 l -15.222,-1.922" /><path
             id="path898"
             style="fill:#2e3e9c;fill-opacity:1;fill-rule:nonzero;stroke:none"
             d="m 795.77,515.469 v -28.676 h 37.668 V 470.289 H 795.77 v -43.734 h -19.387 v 105.574 h 62.82 v -16.66 H 795.77" /><path
             id="path900"
             style="fill:#2e3e9c;fill-opacity:1;fill-rule:nonzero;stroke:none"
             d="m 855.875,426.555 h 19.3906 V 543.508 H 855.875 Z" /><path
             id="path902"
             style="fill:#2e3e9c;fill-opacity:1;fill-rule:nonzero;stroke:none"
             d="m 944.984,426.555 -1.921,8.488 c -5.774,-6.727 -12.985,-10.574 -21.958,-10.574 -19.234,0 -26.285,8.812 -26.285,27.074 v 47.582 h 19.395 v -45.977 c 0,-6.57 0.476,-11.855 8.172,-11.855 2.082,0 6.89,0.32 8.812,1.441 2.567,1.926 7.531,6.09 9.778,8.809 v 47.582 h 19.39 v -51.102 c 0,-7.21 0.801,-14.418 1.922,-21.468 h -17.305" /><path
             id="path904"
             style="fill:#2e3e9c;fill-opacity:1;fill-rule:nonzero;stroke:none"
             d="m 1011.33,486.469 c -5.12,0 -8.65,-1.762 -9.45,-2.563 -0.8,-0.801 -3.692,-4.965 -3.692,-10.57 0,-7.852 4.812,-13.457 13.142,-13.457 4.33,0 8.5,2.078 9.13,2.562 0.81,0.801 3.7,3.844 3.7,10.895 0,7.691 -3.53,13.133 -12.83,13.133 z m 10.26,-67.121 c -7.69,0 -11.86,-0.645 -19.23,-0.801 -4.493,-3.211 -7.852,-6.414 -7.852,-10.578 0,-6.09 4.805,-7.852 15.222,-7.852 15.07,0 22.12,8.176 22.12,14.258 0,4.172 -0.49,4.973 -10.26,4.973 z m 21.63,62.48 c 0.96,-2.887 1.45,-4.812 1.45,-8.332 0,-17.144 -13.14,-28.68 -33.82,-28.68 -2.89,0 -5.77,0.161 -9.61,1.282 -2.572,-2.563 -4.654,-4.164 -4.654,-7.368 0,-2.722 2.402,-3.523 4.004,-3.523 8.02,0 14.91,0.801 22.92,0.801 17.31,0 28.05,-2.403 28.05,-19.227 0,-20.988 -22.76,-31.566 -43.75,-31.566 -16.994,0 -31.419,3.047 -31.419,17.465 0,10.578 7.851,14.742 12.988,17.625 -4.168,1.281 -11.063,4.484 -11.063,12.816 0,7.852 8.653,11.695 14.59,16.664 -9.465,5.285 -15.226,10.895 -15.226,23.711 0,15.859 13.625,27.555 33.33,27.555 10.1,0 14.9,-2.563 19.4,-5.289 3.68,0 15.22,0 24.84,2.562 v -16.496 h -12.03" /><path
             id="path906"
             style="fill:#2e3e9c;fill-opacity:1;fill-rule:nonzero;stroke:none"
             d="m 1059.73,426.555 v 11.531 l 34.45,45.344 h -33.81 v 15.695 h 58.65 V 487.91 l -34.29,-45.66 h 35.43 v -15.695 h -60.43" /><path
             id="path908"
             style="fill:#2e3e9c;fill-opacity:1;fill-rule:nonzero;stroke:none"
             d="m 1166.31,486.633 c -2.4,0 -7.54,-1.766 -8.18,-2.242 -0.32,-0.325 -5.12,-4.965 -6.1,-11.7 h 28.85 c -0.63,8.336 -2.07,13.942 -14.57,13.942 z m -14.9,-25.953 c 0.47,-9.938 7.67,-19.707 18.9,-19.707 7.7,0 16.19,3.203 25.16,10.57 l 1.76,-18.902 c -8.66,-5.125 -16.51,-8.172 -30.77,-8.172 -20.35,0 -35.58,14.418 -35.58,38.129 0,24.035 14.75,38.453 35.43,38.453 24.84,0 32.05,-13.141 32.05,-40.371 h -46.95" /><path
             id="path910"
             style="fill:#2e3e9c;fill-opacity:1;fill-rule:nonzero;stroke:none"
             d="m 1262.95,426.555 -1.93,8.488 c -5.77,-6.727 -12.97,-10.574 -21.96,-10.574 -19.22,0 -26.29,8.812 -26.29,27.074 v 47.582 h 19.4 v -45.977 c 0,-6.57 0.49,-11.855 8.18,-11.855 2.09,0 6.9,0.32 8.81,1.441 2.56,1.926 7.54,6.09 9.79,8.809 v 47.582 h 19.39 v -51.102 c 0,-7.21 0.8,-14.418 1.91,-21.468 h -17.3" /><path
             id="path912"
             style="fill:#2e3e9c;fill-opacity:1;fill-rule:nonzero;stroke:none"
             d="m 1329.3,486.469 c -5.14,0 -8.66,-1.762 -9.46,-2.563 -0.8,-0.801 -3.69,-4.965 -3.69,-10.57 0,-7.852 4.81,-13.457 13.15,-13.457 4.31,0 8.49,2.078 9.12,2.562 0.82,0.801 3.69,3.844 3.69,10.895 0,7.691 -3.52,13.133 -12.81,13.133 z m 10.25,-67.121 c -7.69,0 -11.85,-0.645 -19.24,-0.801 -4.49,-3.211 -7.85,-6.414 -7.85,-10.578 0,-6.09 4.81,-7.852 15.24,-7.852 15.05,0 22.1,8.176 22.1,14.258 0,4.172 -0.48,4.973 -10.25,4.973 z m 21.64,62.48 c 0.96,-2.887 1.45,-4.812 1.45,-8.332 0,-17.144 -13.15,-28.68 -33.83,-28.68 -2.89,0 -5.76,0.161 -9.61,1.282 -2.56,-2.563 -4.65,-4.164 -4.65,-7.368 0,-2.722 2.4,-3.523 4,-3.523 8.01,0 14.91,0.801 22.91,0.801 17.33,0 28.05,-2.403 28.05,-19.227 0,-20.988 -22.75,-31.566 -43.75,-31.566 -16.99,0 -31.4,3.047 -31.4,17.465 0,10.578 7.85,14.742 12.98,17.625 -4.18,1.281 -11.07,4.484 -11.07,12.816 0,7.852 8.65,11.695 14.59,16.664 -9.45,5.285 -15.22,10.895 -15.22,23.711 0,15.859 13.62,27.555 33.32,27.555 10.1,0 14.91,-2.563 19.4,-5.289 3.69,0 15.23,0 24.84,2.562 v -16.496 h -12.01" /><path
             id="path914"
             style="fill:#2e3e9c;fill-opacity:1;fill-rule:nonzero;stroke:none"
             d="m 1419.2,483.59 c -7.7,0 -9.45,0 -16.19,-2.727 v -38.929 c 2.58,-0.321 4.02,-0.321 8.18,-0.321 12.99,0 20.84,5.61 20.84,21.629 0,14.899 -3.85,20.348 -12.83,20.348 z m -7.52,-59.121 c -6.74,0 -15.23,0.804 -28.05,3.047 v 115.992 h 19.38 v -45.02 c 5.29,1.602 11.23,2.563 18.28,2.563 18.91,0 31.41,-9.934 31.41,-36.852 0,-24.828 -15.22,-39.73 -41.02,-39.73" /><path
             id="path916"
             style="fill:#2e3e9c;fill-opacity:1;fill-rule:nonzero;stroke:none"
             d="m 1501.58,458.273 c -7.69,-1.921 -11.85,-3.203 -18.9,-6.246 -0.8,-2.242 -0.96,-3.043 -0.96,-5.449 0,-4.164 0.96,-7.691 5.76,-7.691 3.52,0 8.5,2.406 14.1,8.652 z m 4.49,-31.718 c -0.95,3.039 -1.13,4.324 -1.93,8.488 -3.51,-5.125 -10.9,-10.574 -20.19,-10.574 -12.66,0 -21.16,7.691 -21.16,18.105 0,6.41 1.29,12.496 3.54,15.219 3.85,5.129 25.31,11.055 35.25,12.98 v 5.442 c 0,7.851 -1.11,10.418 -9.29,10.418 -3.21,0 -9.3,-0.164 -10.26,-1.766 -0.96,-1.762 -0.8,-2.883 -0.96,-5.605 l -15.7,-1.446 c 0,1.125 -0.17,2.086 -0.17,3.047 0,4.004 0.64,7.371 1.6,10.895 0.8,2.883 12.34,9.293 27.09,9.293 16.99,0 27.24,-7.852 27.24,-20.824 v -32.204 c 0,-8.011 1.45,-16.019 2.56,-21.468 h -17.62" /><path
             id="path918"
             style="fill:#2e3e9c;fill-opacity:1;fill-rule:nonzero;stroke:none"
             d="m 1590.53,426.555 -1.94,8.488 c -5.76,-6.727 -12.96,-10.574 -21.95,-10.574 -19.22,0 -26.29,8.812 -26.29,27.074 v 47.582 h 19.4 v -45.977 c 0,-6.57 0.48,-11.855 8.18,-11.855 2.09,0 6.89,0.32 8.81,1.441 2.56,1.926 7.54,6.09 9.78,8.809 v 47.582 h 19.4 v -51.102 c 0,-7.21 0.8,-14.418 1.91,-21.468 h -17.3" /><path
             id="path920"
             style="fill:#2e3e9c;fill-opacity:1;fill-rule:nonzero;stroke:none"
             d="m 1717.3,426.555 -1.93,8.488 c -5.76,-6.727 -12.97,-10.574 -21.95,-10.574 -19.22,0 -26.29,8.812 -26.29,27.074 v 47.582 h 19.39 v -45.977 c 0,-6.57 0.49,-11.855 8.19,-11.855 2.09,0 6.89,0.32 8.81,1.441 2.55,1.926 7.53,6.09 9.78,8.809 v 47.582 h 19.4 v -51.102 c 0,-7.21 0.8,-14.418 1.91,-21.468 h -17.31" /><path
             id="path922"
             style="fill:#2e3e9c;fill-opacity:1;fill-rule:nonzero;stroke:none"
             d="m 1821.64,426.555 h -19.39 c 0.46,21.144 0.62,23.07 0.62,36.843 0,2.727 0,5.93 -0.31,8.977 -0.65,9.289 -2.56,11.855 -8.34,11.855 -3.05,0 -8.17,-0.64 -9.12,-1.601 -1.14,-0.801 -6.43,-4.649 -9.63,-8.652 v -47.422 h -19.4 v 51.105 c 0,6.406 -1.11,17.461 -1.91,21.465 h 17.3 l 1.94,-8.488 c 6.4,7.211 13.61,10.414 21.95,10.414 24.85,0 27.09,-15.383 27.09,-31.563 v -8.808 c -0.17,-10.414 -0.33,-15.864 -0.8,-34.125" /><path
             id="path924"
             style="fill:#2e3e9c;fill-opacity:1;fill-rule:nonzero;stroke:none"
             d="m 1890.06,472.535 c 0,8.492 -2.25,11.211 -12.81,11.211 -4.01,0 -9.14,0 -10.59,-1.441 -1.45,-1.442 -7.52,-7.367 -7.52,-19.223 0,-17.305 10.1,-21.469 15.22,-21.469 6.09,0 11.85,4.325 15.7,9.614 z m 3.2,-45.98 c -0.47,1.601 -0.8,7.05 -1.27,8.488 -4.8,-6.727 -11.54,-10.574 -21.33,-10.574 -16.81,0 -32.05,15.062 -32.05,37.972 0,24.993 15.39,38.45 39.75,38.45 4.34,0 7.54,-0.801 11.7,-2.243 v 44.86 h 19.55 v -94.524 c 0,-7.371 0.8,-14.418 1.93,-22.429 h -18.28" /><path
             id="path926"
             style="fill:#2e3e9c;fill-opacity:1;fill-rule:nonzero;stroke:none"
             d="m 18.0078,234.309 v 105.574 h 19.3945 v -89.07 h 45.3555 v -16.504 h -64.75" /><path
             id="path928"
             style="fill:#2e3e9c;fill-opacity:1;fill-rule:nonzero;stroke:none"
             d="m 124.586,294.387 c -2.402,0 -7.535,-1.77 -8.176,-2.239 -0.32,-0.332 -5.125,-4.968 -6.09,-11.699 h 28.852 c -0.641,8.332 -2.086,13.938 -14.586,13.938 z M 109.68,268.438 c 0.48,-9.942 7.691,-19.708 18.91,-19.708 7.695,0 16.191,3.204 25.164,10.567 l 1.766,-18.906 c -8.661,-5.118 -16.512,-8.164 -30.774,-8.164 -20.355,0 -35.5819,14.414 -35.5819,38.125 0,24.035 14.7459,38.457 35.4219,38.457 24.844,0 32.055,-13.145 32.055,-40.371 H 109.68" /><path
             id="path930"
             style="fill:#2e3e9c;fill-opacity:1;fill-rule:nonzero;stroke:none"
             d="m 172.5,234.309 v 72.566 h 19.395 v -72.566 z m 9.617,86.355 c -6.094,0 -11.379,5.285 -11.379,11.691 0,6.407 5.285,11.532 11.379,11.532 6.25,0 11.219,-4.961 11.219,-11.367 0,-6.415 -4.969,-11.856 -11.219,-11.856" /><path
             id="path932"
             style="fill:#2e3e9c;fill-opacity:1;fill-rule:nonzero;stroke:none"
             d="m 243.5,232.227 c -21.152,0 -35.898,14.257 -35.898,38.925 0,26.27 17.632,37.657 33.976,37.657 14.906,0 27.406,-3.368 27.406,-15.059 v -4.168 c 0,-1.281 0,-2.57 -0.16,-4.172 h -18.75 c 0,6.738 -1.761,8.008 -6.89,8.008 -3.371,0 -4.969,-0.313 -6.094,-0.801 -1.602,-0.633 -8.977,-4.637 -8.977,-20.976 0,-18.75 10.582,-22.911 18.758,-22.911 4.965,0 10.734,0.313 21.313,9.29 l 1.761,-17.942 c -10.097,-5.926 -17.468,-7.851 -26.445,-7.851" /><path
             id="path934"
             style="fill:#2e3e9c;fill-opacity:1;fill-rule:nonzero;stroke:none"
             d="m 348.953,234.309 h -19.387 c 0.317,18.425 0.637,22.273 0.637,32.039 0,20.507 -0.637,25.636 -8.656,25.636 -3.039,0 -7.852,-0.636 -9.129,-1.601 -1.125,-0.801 -6.258,-4.649 -9.621,-8.653 v -47.421 h -19.395 v 116.953 h 19.395 v -50.949 c 5.609,5.605 12.023,8.496 19.875,8.496 24.844,0 27.086,-15.391 27.086,-31.563 0,-2.891 -0.164,-5.937 -0.164,-8.808 -0.156,-10.418 -0.156,-15.868 -0.641,-34.129" /><path
             id="path936"
             style="fill:#2e3e9c;fill-opacity:1;fill-rule:nonzero;stroke:none"
             d="m 391.266,232.227 c -10.899,0 -18.911,6.886 -18.911,20.343 v 41.336 h -10.582 v 12.813 h 10.582 v 24.668 h 19.071 v -24.512 h 15.863 v -12.812 h -15.863 v -37.645 c 0,-7.051 1.926,-7.375 3.687,-7.375 4.325,0 9.938,3.203 13.461,5.293 l 1.922,-16.023 c -6.25,-3.528 -13.141,-6.086 -19.23,-6.086" /><path
             id="path938"
             style="fill:#2e3e9c;fill-opacity:1;fill-rule:nonzero;stroke:none"
             d="m 456.492,291.348 c -7.687,0 -9.457,0 -16.183,-2.735 v -38.925 c 2.562,-0.321 4.004,-0.321 8.171,-0.321 12.985,0 20.836,5.613 20.836,21.629 0,14.902 -3.847,20.352 -12.824,20.352 z m -7.531,-59.121 c -6.731,0 -15.227,0.8 -28.047,3.046 v 115.989 h 19.395 v -45.02 c 5.289,1.602 11.218,2.567 18.269,2.567 18.91,0 31.41,-9.942 31.41,-36.856 0,-24.824 -15.222,-39.726 -41.027,-39.726" /><path
             id="path940"
             style="fill:#2e3e9c;fill-opacity:1;fill-rule:nonzero;stroke:none"
             d="m 538.871,266.027 c -7.687,-1.925 -11.859,-3.203 -18.91,-6.242 -0.801,-2.246 -0.961,-3.047 -0.961,-5.449 0,-4.168 0.961,-7.695 5.77,-7.695 3.527,0 8.492,2.402 14.101,8.652 z m 4.488,-31.718 c -0.961,3.035 -1.125,4.324 -1.921,8.484 -3.528,-5.117 -10.903,-10.566 -20.192,-10.566 -12.668,0 -21.156,7.687 -21.156,18.105 0,6.406 1.277,12.492 3.523,15.215 3.848,5.129 25.325,11.055 35.258,12.98 v 5.438 c 0,7.851 -1.121,10.422 -9.297,10.422 -3.203,0 -9.293,-0.168 -10.254,-1.77 -0.961,-1.758 -0.8,-2.879 -0.961,-5.605 l -15.707,-1.446 c 0,1.133 -0.164,2.09 -0.164,3.047 0,4.004 0.641,7.375 1.606,10.899 0.804,2.883 12.344,9.297 27.09,9.297 16.984,0 27.246,-7.852 27.246,-20.829 v -32.199 c 0,-8.015 1.437,-16.023 2.562,-21.472 h -17.633" /><path
             id="path942"
             style="fill:#2e3e9c;fill-opacity:1;fill-rule:nonzero;stroke:none"
             d="m 627.82,234.309 -1.922,8.484 c -5.769,-6.719 -12.984,-10.566 -21.957,-10.566 -19.234,0 -26.285,8.808 -26.285,27.07 v 47.578 h 19.395 v -45.977 c 0,-6.562 0.476,-11.855 8.168,-11.855 2.086,0 6.894,0.324 8.82,1.445 2.563,1.926 7.527,6.094 9.774,8.809 v 47.578 h 19.394 v -51.094 c 0,-7.215 0.801,-14.422 1.926,-21.472 H 627.82" /><path
             id="path944"
             style="fill:#2e3e9c;fill-opacity:1;fill-rule:nonzero;stroke:none"
             d="M 11.25,174.113 H 855.883" /><path
             id="path946"
             style="fill:none;stroke:#2e3e9c;stroke-width:22.50099945;stroke-linecap:round;stroke-linejoin:round;stroke-miterlimit:10;stroke-dasharray:none;stroke-opacity:1"
             d="M 11.25,174.113 H 855.883" /><path
             id="path948"
             style="fill:#2e3e9c;fill-opacity:1;fill-rule:nonzero;stroke:none"
             d="M 898.316,174.434 H 1742.95" /><path
             id="path950"
             style="fill:none;stroke:#2e3e9c;stroke-width:22.50099945;stroke-linecap:round;stroke-linejoin:round;stroke-miterlimit:10;stroke-dasharray:none;stroke-opacity:1"
             d="M 898.316,174.434 H 1742.95" /><path
             id="path952"
             style="fill:#2e3e9c;fill-opacity:1;fill-rule:nonzero;stroke:none"
             d="M 898.316,174.434 1072.3,265.918" /><path
             id="path954"
             style="fill:none;stroke:#2e3e9c;stroke-width:22.5;stroke-linecap:round;stroke-linejoin:round;stroke-miterlimit:10;stroke-dasharray:none;stroke-opacity:1"
             d="M 898.316,174.434 1072.3,265.918" /><path
             id="path956"
             style="fill:#2e3e9c;fill-opacity:1;fill-rule:nonzero;stroke:none"
             d="M 1072.3,265.918 1465.18,28.6133" /><path
             id="path958"
             style="fill:none;stroke:#2e3e9c;stroke-width:22.50099945;stroke-linecap:round;stroke-linejoin:round;stroke-miterlimit:10;stroke-dasharray:none;stroke-opacity:1"
             d="M 1072.3,265.918 1465.18,28.6133" /><path
             id="path960"
             style="fill:#2e3e9c;fill-opacity:1;fill-rule:nonzero;stroke:none"
             d="M 1465.18,28.6133 1743.2,342.109" /><path
             id="path962"
             style="fill:none;stroke:#2e3e9c;stroke-width:22.50099945;stroke-linecap:round;stroke-linejoin:round;stroke-miterlimit:10;stroke-dasharray:none;stroke-opacity:1"
             d="M 1465.18,28.6133 1743.2,342.109" /><path
             id="path964"
             style="fill:#2e3e9c;fill-opacity:1;fill-rule:nonzero;stroke:none"
             d="M 1743.18,177.121 V 336.289" /><path
             id="path966"
             style="fill:none;stroke:#2e3e9c;stroke-width:22.50099945;stroke-linecap:round;stroke-linejoin:round;stroke-miterlimit:10;stroke-dasharray:none;stroke-opacity:1"
             d="M 1743.18,177.121 V 336.289" /><path
             id="path968"
             style="fill:#2e3e9c;fill-opacity:1;fill-rule:nonzero;stroke:none"
             d="m 1783.75,174.113 h 129.63" /><path
             id="path970"
             style="fill:none;stroke:#2e3e9c;stroke-width:22.50099945;stroke-linecap:round;stroke-linejoin:round;stroke-miterlimit:10;stroke-dasharray:none;stroke-opacity:1"
             d="m 1783.75,174.113 h 129.63" /></g></g></g></g></svg>